<svg version="1.1" xmlns="http://www.w3.org/2000/svg" xmlns:xlink="http://www.w3.org/1999/xlink" width="506.3857" height="388.25032" viewBox="0,0,506.3857,388.25032"><g transform="translate(11.91571,11.2516)"><g data-paper-data="{&quot;isPaintingLayer&quot;:true}" stroke-linecap="butt" stroke-linejoin="miter" stroke-miterlimit="10" stroke-dasharray="" stroke-dashoffset="0" style="mix-blend-mode: normal"><path d="M-11.91571,376.99872v-388.25032h506.3857v388.25032z" fill="#983fd4" fill-rule="nonzero" stroke="none" stroke-width="0"/><g><g><path d="M108.10697,244.27423c0,-1.46958 0.29389,-2.54727 0.88174,-3.62496c0.58781,-1.27366 1.76345,-1.76347 3.03711,-1.95945c0.78379,-0.09798 1.37161,0.39187 1.76347,0.97968c1.17566,2.4493 1.27364,5.6824 -0.68579,7.93578c-0.78379,0.88174 -1.76347,1.07767 -2.74319,0.48987c-1.66556,-0.88174 -2.4493,-2.15539 -2.25338,-3.82091z" fill="#fcc741" fill-rule="nonzero" stroke="none" stroke-width="1"/><path d="M115.18405,252.00977c0.53732,-0.23886 1.01487,-0.53732 1.55223,-0.71644c1.07459,-0.35819 1.61191,-1.13432 2.02982,-2.08954c0.1194,-0.29849 0.11937,-0.65674 0.35819,-0.89554c0.05969,-0.05969 0.05969,-0.05968 0.11941,-0.05968c0.41791,0 0.59704,0.29849 0.65673,0.65673c0,2.02982 -2.38804,4.05972 -4.35823,3.76123c-0.29849,-0.05969 -0.41791,-0.23886 -0.35819,-0.65674z" fill="#fefcf5" fill-rule="nonzero" stroke="none" stroke-width="1"/><path d="M111.54225,265.02468c0.53732,0.05969 0.71641,0.41791 0.89554,0.71641c0.7761,1.25373 1.49254,2.56717 2.74627,3.40303c0.23886,0.17909 0.23877,0.41791 0.05969,0.65673c-0.17909,0.17909 -0.35819,0.29849 -0.59701,0.23877c-0.17909,-0.05969 -0.35819,-0.11941 -0.47758,-0.23877c-1.31344,-1.07459 -2.14927,-2.56717 -2.806,-4.05971c-0.05969,-0.17909 -0.05968,-0.47759 0.17909,-0.71641z" fill="#0e0b07" fill-rule="nonzero" stroke="none" stroke-width="1"/><path d="M109.15416,265.26352c0.1194,0.05969 0.23886,0.05969 0.29849,0.11941c0.1194,0.11937 0.23878,0.29849 0.29849,0.47758c0.53732,1.19405 1.19404,2.26868 2.08954,3.22391c0.1194,0.11937 0.1791,0.23886 0.23886,0.35819c0.23886,0.35819 0.23886,0.71641 0,0.89554c-0.29849,0.17909 -0.65674,0.11937 -0.89554,-0.17909c-0.95522,-1.13432 -1.79104,-2.32836 -2.32835,-3.76118c-0.1194,-0.29849 -0.17909,-0.65673 0.05968,-0.95522c0,-0.05969 0.11941,-0.1194 0.23886,-0.17909z" fill="#100e08" fill-rule="nonzero" stroke="none" stroke-width="1"/><path d="M100.07961,264.06944c0.05969,-0.1194 0.05968,-0.23877 0.1194,-0.35819c0.05969,-0.23886 0.47759,-0.29849 0.59701,-0.05968c0.1194,0.17909 0.23877,0.29849 0.29849,0.47759c0.47759,1.43282 0.95523,2.86568 1.67164,4.23881c0.05969,0.11937 0.11941,0.29848 0.05969,0.41791c0,0.1194 -0.11941,0.29849 -0.23886,0.35819c-0.1194,0.05969 -0.29849,0.05969 -0.41791,0c-0.29849,-0.1194 -0.53732,-0.4179 -0.65674,-0.71644c-0.59704,-1.25373 -1.13436,-2.62686 -1.37314,-3.99999c0,-0.1194 0,-0.23886 -0.05969,-0.35819z" fill="#0b0a06" fill-rule="nonzero" stroke="none" stroke-width="1"/><path d="M105.33329,269.8008c-0.53732,-0.17909 -0.71641,-0.59704 -0.95522,-0.95522c-0.59704,-1.01495 -1.01496,-2.02982 -1.43282,-3.10445c-0.17909,-0.47759 -0.17909,-0.95523 0.29849,-1.25373c0.23886,0 0.35819,0.05969 0.41791,0.29849c0.53732,1.31344 1.07459,2.62686 1.79104,3.88058c0.23886,0.29849 0.41791,0.71644 -0.11937,1.13436z" fill="#141109" fill-rule="nonzero" stroke="none" stroke-width="1"/><path d="M106.10939,265.62171c0.29849,-0.05969 0.47759,0 0.59701,0.23886c0.17909,0.29849 0.35819,0.65673 0.47758,1.01495c0.35819,0.8358 0.71641,1.61191 1.31344,2.32836c0.1194,0.1194 0.23886,0.29849 0.29849,0.47759c0.1194,0.23886 0.05968,0.47759 -0.17909,0.65674c-0.17909,0.11937 -0.35819,0.11937 -0.53731,0c-0.1194,-0.05969 -0.23878,-0.1791 -0.29849,-0.29849c-0.8358,-1.01495 -1.37314,-2.14927 -1.79104,-3.34327c-0.17909,-0.35819 -0.1791,-0.7761 0.1194,-1.07459z" fill="#100d08" fill-rule="nonzero" stroke="none" stroke-width="1"/><path d="M99.18399,267.11422c-0.47759,-0.1194 -0.59701,-0.41791 -0.7761,-0.71644c-0.47759,-0.95522 -0.7761,-2.02982 -1.01495,-3.10445c-0.1194,-0.47759 -0.05968,-0.95522 0.35819,-1.31344c0.17909,0 0.41791,0.05969 0.41791,0.29849c0.23886,1.31344 0.65673,2.56717 1.19404,3.82091c0.17909,0.35819 0.29851,0.71644 -0.17909,1.01495z" fill="#15120a" fill-rule="nonzero" stroke="none" stroke-width="1"/><path d="M117.99001,268.72617c0.05969,0.17909 -0.17909,0.47759 -0.41791,0.47759c-0.29849,0 -0.53732,-0.11937 -0.7761,-0.29849c-0.95522,-0.71641 -1.67163,-1.67163 -2.20898,-2.74627c-0.05969,-0.17909 -0.11941,-0.35819 -0.11941,-0.53732c0,-0.1194 0.11941,-0.23877 0.23886,-0.29849c0.05969,-0.05969 0.1791,-0.00001 0.23878,0.05968c0.17909,0.17909 0.29849,0.35819 0.47759,0.53732c0.71644,0.8358 1.25373,1.79104 2.26868,2.32836c0.17909,0.1194 0.29849,0.29849 0.29849,0.47758z" fill="#120f09" fill-rule="nonzero" stroke="none" stroke-width="1"/><path d="M123.30347,267.71127c-0.23886,0.05969 -0.47759,-0.05969 -0.65674,-0.17909c-0.8358,-0.59704 -1.49254,-1.31344 -2.14927,-2.02982c-0.05969,-0.05969 -0.05969,-0.05968 -0.05969,-0.1194c-0.1194,-0.23886 -0.05969,-0.47759 0.11937,-0.65674c0.17909,-0.11937 0.35819,-0.11937 0.53732,0c0.8358,0.65674 1.61191,1.37315 2.26868,2.14928c0.23886,0.23886 0.23877,0.59705 -0.05969,0.83581z" fill="#16130a" fill-rule="nonzero" stroke="none" stroke-width="1"/><path d="M117.21391,265.5023c0.23886,-0.29849 0.47759,-0.3582 0.71644,-0.23886c1.01495,0.65674 1.85076,1.49255 2.68659,2.32836c0.17909,0.17909 0.17909,0.41791 -0.05969,0.65674c-0.17909,0.17909 -0.41791,0.17909 -0.65674,0.05968c-0.65674,-0.29849 -2.14928,-1.9104 -2.68659,-2.80598z" fill="#0d0b07" fill-rule="nonzero" stroke="none" stroke-width="1"/><path d="M123.18405,264.12912c0.23886,-0.29849 0.41791,-0.29848 0.65674,-0.17909c0.59704,0.41791 1.07459,0.89554 1.49254,1.49254c0.1194,0.17909 0.1194,0.35819 0,0.53732c-0.1194,0.17909 -0.35819,0.23877 -0.53732,0.11937c-0.71644,-0.47759 -1.43282,-1.07459 -1.61191,-1.97014z" fill="#201b0f" fill-rule="nonzero" stroke="none" stroke-width="1"/><path d="M96.25867,264.36799c-0.7761,-0.23886 -0.89554,-0.77609 -1.07463,-1.25373c-0.17909,-0.47759 -0.23877,-1.01496 0.05969,-1.49254c0.1194,0 0.23877,-0.05969 0.29849,0c0.53732,0.7761 0.7761,1.67164 0.71644,2.74627z" fill="#1d180e" fill-rule="nonzero" stroke="none" stroke-width="1"/><path d="M125.21391,263.17395c0.47759,-0.41791 0.8358,-0.35819 1.25372,-0.05969c0.35819,0.29849 0.7761,0.47758 0.7761,1.07459c0,0.05969 0,0.11941 0,0.11941c0,0.23886 -0.29849,0.41791 -0.47759,0.29849c-0.59704,-0.35819 -1.25373,-0.65673 -1.55222,-1.43282z" fill="#17130b" fill-rule="nonzero" stroke="none" stroke-width="1"/><path d="M128.61691,262.4575c0,0.23886 -0.29849,0.47758 -0.597,0.35819c-0.35819,-0.17909 -0.65674,-0.35819 -0.83581,-0.71641c-0.1194,-0.23886 -0.1194,-0.47759 0.05969,-0.65673c0.17909,-0.17909 0.41791,-0.17909 0.65673,-0.05969c0.35819,0.23886 0.65668,0.53732 0.71641,1.07459z" fill="#382e16" fill-rule="nonzero" stroke="none" stroke-width="1"/><path d="M111.03696,222.19336c-0.0916,-1.63952 -0.18326,-3.20459 -0.18326,-4.76961c-0.54979,-0.74523 -1.64936,-1.04337 -2.10752,-1.86316c-1.0079,-1.93769 -1.19117,-3.87532 0.18326,-5.66394c1.0079,-1.34148 1.46611,-2.60841 1.28284,-4.17343c-0.18326,-1.19243 -0.18327,-2.38481 -0.18327,-3.57727c-0.64145,-0.59616 -1.28284,-1.04337 -1.74099,-1.63953c-1.64936,-2.23576 -1.74099,-4.54601 -0.09163,-6.78181c0.73302,-0.96883 0.91631,-1.78861 0.82465,-2.83195c-0.18326,-1.19243 -0.27489,-2.38481 -0.36654,-3.50272c-0.18326,-0.14901 -0.18326,-0.2981 -0.27489,-0.37261c-2.74891,-1.86316 -2.84054,-4.39701 -1.5577,-6.78181c0.54979,-1.11787 0.91631,-2.0867 0.64145,-3.27913c-0.0916,-0.52169 -0.0916,-1.04336 -0.0916,-1.56507c-0.0916,-1.19243 -0.45816,-2.23577 -1.4661,-3.2046c-1.92421,-1.78862 -1.92422,-3.94988 -0.54979,-5.96204c0.54979,-0.81978 0.82465,-1.56507 0.64138,-2.53389c-0.27489,-1.49052 -0.36654,-2.98103 -0.54979,-4.54601c-2.01589,-0.96883 -3.11542,-2.45935 -3.20705,-4.32247c-0.0916,-1.93769 0.36654,-3.20459 2.10752,-4.6206c-0.0916,-1.56507 -0.18326,-3.27913 -0.36654,-4.8442c-0.27489,-0.149 -0.45816,-0.2981 -0.54979,-0.44718c-2.56563,-1.71407 -3.11542,-4.32247 -1.19116,-6.48373c0.82465,-0.89433 1.19116,-1.71411 1.09953,-2.7574c-0.0916,-0.52169 0,-1.04336 0.09163,-1.63957c0.0916,-0.89433 -0.18326,-1.63952 -0.82465,-2.45935c-1.74099,-2.0867 -1.19117,-4.62061 1.19116,-6.26013c0.82465,-0.59616 1.28284,-1.19243 1.5577,-2.01217c0.82465,-2.68294 2.01589,-5.21679 3.75685,-7.60165c0.91631,-1.26693 2.10753,-2.45931 3.39032,-3.50268c2.38237,-2.01216 5.31458,-2.83195 8.61327,-2.98103c3.57359,-0.149 6.59737,0.89429 9.52954,2.23576c2.474,1.11787 4.67316,2.45935 6.78065,3.94986c0.82465,0.59616 1.83264,1.04337 2.74891,1.41601c0.73302,0.2981 1.5577,0.67075 2.38237,-0.07453c0.27489,-0.22355 0.82465,-0.14901 1.28284,-0.14901c1.83264,0 3.66522,0 5.49776,0c0.82465,0 1.5577,0 2.29075,0.52169c0.36654,0.2981 1.0079,0.22356 1.4661,0.22356c3.20706,0 6.41412,0.07453 9.62121,0.07453c2.01589,0 4.12337,0.07454 6.1392,0.2981c0.36654,0.07453 0.73302,0.07453 0.91631,0.37259c0.18326,0.37264 -0.18326,0.52168 -0.36654,0.81978c-0.91632,1.19243 -2.01589,2.23576 -3.20705,3.20459c-0.91632,0.74523 -1.92422,1.49052 -2.65727,2.38481c-0.64137,0.74523 -1.64936,1.11787 -2.74891,1.41601c-1.5577,0.37264 -3.11542,0.44718 -4.76475,0.44718c-1.4661,0 -2.93218,0 -4.30659,0c-0.64145,0.22355 -0.73302,0.81978 -1.19117,1.11787c-0.54979,0.44718 -1.09953,0.74523 -1.92421,0.44718c-0.45816,-0.149 -1.0079,0 -1.4661,0c-1.28284,0.07453 -2.474,0.14901 -3.75685,0.14901c-0.91631,0 -1.92422,-0.07454 -2.65727,-0.59616c-0.27489,-0.149 -0.64145,-0.29808 -1.0079,-0.37259c-3.75686,-0.59619 -7.23876,-1.86316 -10.62912,-3.20459c-0.36654,-0.149 -0.82465,-0.2981 -1.19116,-0.44718c-1.09953,-0.44715 -2.29076,-0.44715 -3.39032,-0.52169c-1.19116,-0.07453 -2.10752,0.37264 -2.56564,1.26693c-0.64145,1.26693 -1.28284,2.5339 -1.37447,3.94988c-0.18326,3.94986 0.00001,7.97421 0.36654,11.92407c0.45816,5.14229 1.4661,10.13545 2.29075,15.27774c0.45816,2.6084 1.0079,5.14225 1.4661,7.75064c0.64145,3.50268 1.37447,7.07992 2.10752,10.58263c0.54979,2.75741 1.09953,5.51489 1.64936,8.27233c0.54979,3.05554 1.0079,6.11112 1.5577,9.16662c0.45816,2.83195 0.91631,5.66394 1.4661,8.49589c0.54979,2.98103 1.00791,6.03653 1.55771,9.01757c0.54979,2.98103 1.09953,5.88757 1.4661,8.86853c0.36654,2.75741 1.28284,5.51489 1.74099,8.27233c0.64145,4.32247 1.28284,8.64499 1.5577,12.96741c0.18326,2.23576 0.27489,4.54601 0.54974,6.78181c0.36654,3.80082 0,7.60165 -0.54974,11.40242c0,0.14901 0,0.22355 -0.09163,0.37259c-1.0079,2.45934 -1.4661,5.06775 -2.65726,7.5271c-1.64936,3.27913 -4.12337,6.11112 -7.33039,8.57044c-2.38237,1.86316 -5.13133,3.13008 -8.15511,4.09886c-1.28284,0.37259 -2.474,0.96883 -3.84851,1.34148c-1.37447,0.37264 -2.84054,0.67069 -4.21501,0.96883c-1.37447,0.2981 -2.84054,0.44718 -4.30659,0.74523c-2.93217,0.52169 -5.86432,0.37261 -8.79649,0.37261c-5.95596,-0.07454 -11.54536,-1.49052 -16.76835,-3.65178c-0.73302,-0.2981 -1.4661,-0.81978 -2.10752,-1.26693c-3.11543,-2.16126 -5.40621,-4.8442 -7.05554,-7.89973c-1.5577,-2.90649 -2.74891,-5.88757 -3.48196,-9.01762c-0.73302,-2.90649 -1.28284,-5.88757 -1.64936,-8.79397c-0.36654,-3.94986 -0.82465,-7.97421 -1.64937,-11.84961c-0.45816,-2.31027 -1.19116,-4.54601 -2.01589,-6.78181c-0.64145,-1.93769 -2.01589,-3.57723 -3.48199,-5.14226c-2.01589,-0.2981 -3.94016,-0.52169 -5.7727,-1.34148c-3.48199,-1.49055 -5.40613,-3.87532 -6.13918,-7.00536c-0.54979,-2.31027 0.09163,-4.32247 1.28284,-6.40918c1.0079,-1.78862 2.474,-3.35369 3.84851,-4.99319c2.74891,-3.13009 5.86429,-5.88749 9.80444,-8.12329c4.30659,-2.45931 8.70483,-4.76964 13.65288,-6.48372c3.48199,-1.19243 7.05554,-2.0867 10.72075,-2.53389c4.39827,-0.52169 8.79649,-0.2981 13.0115,0.89432c0.64145,0.14901 1.19116,0.37265 1.64936,0.74524c1.83264,1.63952 3.39031,3.42818 3.84844,5.73848c0.27489,1.56507 0.27491,3.05553 -0.45815,4.54602c-0.73302,1.34148 -0.64145,2.75744 -0.45816,4.17342c0.45816,3.13009 0.733,6.26013 0.54978,9.46476c-0.18326,3.05554 -0.09163,6.18566 -0.27493,9.24117c-0.0916,2.53385 -0.36654,5.06775 -0.45816,7.67611c-0.0916,2.23576 -0.18326,4.54601 -0.27489,6.78181c0,0.81978 -0.18326,1.63952 -0.27489,2.45931c-0.36654,2.45931 -0.36654,4.8442 0.91627,7.22896c0.54979,0.96883 1.09953,1.11787 2.19915,0.52169c0.91631,-0.44715 1.19116,-1.19243 1.5577,-1.86308c-0.0916,-0.52169 -0.54979,-0.81978 -0.91631,-1.19243c-1.83264,-2.0867 -1.92421,-4.24796 -0.64145,-6.55827c0.54979,-0.89433 1.19117,-1.71407 2.10752,-2.23576c0.64145,-0.44718 0.82465,-0.89433 0.91631,-1.49052c0.18326,-1.19243 0.27489,-2.38481 0.27489,-3.65177c-1.09953,-0.89433 -2.19916,-1.86316 -2.47401,-3.2046c-0.18326,-1.26693 -0.45816,-2.45935 0,-3.72631c0.36654,-1.11787 1.4661,-2.0867 2.65727,-2.98103zM139.25906,122.47814c-0.27489,-0.149 -0.45816,-0.37264 -0.27489,-0.59615c0.18326,-0.22355 0.45816,-0.2981 0.73302,-0.2981c0.91631,0 1.74101,0.52168 2.84054,0.37259c0.45816,-1.04337 0,-2.01217 -0.36654,-2.98103c-3.11543,-0.44715 -5.58944,-1.78862 -7.88022,-3.35369c-0.82465,-0.59619 -1.64936,-1.11787 -2.56561,-1.63957c-3.57359,-1.93771 -7.23876,-3.27913 -11.63703,-3.13009c-1.64936,0.07453 -3.0238,0.37259 -4.30664,1.11787c-0.73302,0.37259 -1.37447,0.89433 -2.01589,1.34148c-2.65726,2.0867 -4.12336,4.69511 -5.49783,7.37805c-0.64145,1.26693 -1.09953,2.53389 -1.19116,3.87532c2.474,1.41601 3.20705,2.75741 2.84054,5.06776c-0.36654,2.16126 -2.10752,3.13009 -4.4899,3.50272c-0.0916,1.19243 -0.18326,2.38481 -0.09163,3.65177c2.19915,0.81978 3.84853,2.01217 3.94016,4.09887c0,1.93769 -0.73302,3.65178 -3.11543,4.47152c0,1.49052 0,2.90649 0.27494,4.24796c1.83264,0.96883 3.57359,1.86316 3.84844,3.72631c0.36654,2.31025 -0.54979,4.32246 -2.74891,5.88756c0,1.63957 0.27491,3.2046 0.64145,4.76965c3.20706,0.74523 4.58152,2.31027 4.39822,4.8442c0,0.44718 -0.09163,0.96883 -0.09163,1.41601c-0.0916,1.11787 -0.82465,2.01217 -1.92422,2.68294c-0.36654,0.22355 -1.0079,0.29808 -1.28284,0.81978c0,1.41601 0.09163,2.83195 0.54979,4.24796c0.54979,0.37264 1.19117,0.37264 1.74101,0.52169c1.64936,0.37259 2.84054,1.11787 3.57359,2.45931c0.64145,1.11787 0.64145,2.23576 0.27489,3.27913c-0.54979,1.63952 -1.55771,2.98103 -3.94008,3.2046c-0.18326,0 -0.36654,0.14901 -0.54979,0.29808c0.0916,1.41601 0.0916,2.83199 0.45816,4.17342c3.57359,1.04336 5.31458,2.68294 5.40621,4.8442c0.0916,2.83195 -1.19117,4.32247 -4.76476,5.51489c0.0916,1.41601 0.18326,2.83195 0.36654,4.24796c0,0.37259 -0.0916,0.74523 0.18326,1.04336c0.36654,0.2981 0.82465,0.22356 1.19117,0.2981c2.84054,0.67075 5.22295,3.13009 4.39827,6.18559c-0.54979,2.23576 -2.01589,3.20459 -4.94806,3.27913c-0.18326,1.49055 -0.0916,2.9065 0,4.39701c0.91631,0.44715 1.92422,0.44718 2.65727,0.89433c3.0238,1.78862 3.84844,6.33467 0.91627,8.94307c-0.64145,0.59616 -1.37447,1.11787 -2.38237,1.11787c-0.45816,0 -0.82465,0.14901 -1.28284,0.22355c-0.54979,1.26693 -0.45816,2.53389 -0.45816,3.80082c1.37447,-0.22356 2.47401,0.149 3.39032,0.96883c0.45816,0.44718 0.82465,0.96883 1.09953,1.49056c1.37447,2.75741 0.64145,5.21679 -1.64936,7.5271c-0.91631,0.89433 -2.10753,1.49055 -3.66523,1.11787c-0.18326,-0.07454 -0.45815,0 -0.64145,0.07454c-0.73302,1.34148 -1.5577,2.16126 -2.38237,2.68294c-1.5577,0.89433 -3.48196,0.81978 -4.85643,-0.22355c-0.54979,-0.44715 -0.91632,-1.04337 -1.09954,-1.71407c-0.54979,-1.71411 -0.54978,-3.42818 -0.45815,-5.14229c0.0916,-3.87533 0.36654,-7.75064 0.54979,-11.62597c0.27489,-4.17342 0.91631,-8.27237 0.82465,-12.4458c-0.0916,-3.35369 0,-6.70727 -0.09163,-9.9864c0,-0.96883 -0.18326,-1.93763 -0.73302,-3.27913c-0.27489,0.44715 -0.45816,0.67073 -0.64145,0.81978c-0.36654,0.44718 -0.82465,0.81979 -1.37447,1.11788c-0.27489,0.14901 -0.54979,0.14901 -0.82465,0.07454c-0.36654,-0.14901 -0.45815,-0.52169 -0.27489,-0.81979c0.0916,-0.2981 0.36653,-0.52168 0.54978,-0.74523c0.45816,-0.59618 1.0079,-1.19243 1.4661,-1.78862c1.5577,-2.23576 2.74891,-4.6206 2.38238,-7.3035c0,-0.14901 0.0916,-0.52169 -0.36654,-0.52169c-0.45816,0.14901 -0.36654,0.44718 -0.45816,0.74524c-0.45816,2.01216 -1.37447,3.87533 -2.84052,5.51489c-1.5577,1.71407 -3.20706,3.35369 -5.0397,4.99319c-4.12337,3.72631 -8.97975,6.70727 -14.38593,8.94307c-2.38237,0.96883 -4.76476,1.86316 -7.14721,2.75741c-3.0238,1.11787 -6.13922,2.01216 -9.34628,2.45934c-1.37447,0.22356 -2.74891,0.37264 -4.12337,0.44715c-0.73302,0.07454 -1.46607,0.07454 -2.19915,-0.07453c-2.01589,-0.37264 -4.03171,-0.52169 -5.86432,-1.41602c-0.18326,-0.07454 -0.45816,-0.2981 -0.73302,-0.07454c2.01589,2.23576 4.85643,3.13009 8.15511,3.35369c1.64936,0.07454 3.39031,0.07453 5.03969,-0.07454c0.64145,-0.07454 1.28284,-0.149 1.92421,0.2981c-0.73302,1.49051 -2.474,1.26693 -3.84844,1.71411c0,0.44715 0.36654,0.67069 0.54974,0.96883c1.28284,1.71407 2.10752,3.50273 2.74894,5.44039c1.4661,4.17342 2.10752,8.49589 2.65726,12.81839c0.36654,3.57721 0.82465,7.07992 1.5577,10.65714c0.36654,2.01216 1.0079,3.94988 1.5577,5.88757c1.09953,3.65177 3.39032,6.85637 6.0476,9.83737c1.64936,1.78862 3.66522,3.27913 6.23081,4.09887c2.01589,0.67075 4.12337,1.26693 6.13923,1.93769c0.82465,0.22356 1.64936,0.37259 2.56563,0.52168c2.84054,0.37264 5.68107,0.37264 8.52164,0.37264c2.38237,0 4.76476,-0.29808 7.14713,-0.67073c3.66522,-0.59616 7.23876,-1.56507 10.53744,-2.83195c4.76478,-1.86316 8.79654,-4.32246 11.2705,-8.19783c1.4661,-2.31027 2.93217,-4.69511 3.57359,-7.22896c0.36654,-1.56507 0.73302,-3.13009 1.09953,-4.69511c1.09953,-5.21679 0.82466,-10.43358 0.45816,-15.65038c-0.18326,-2.98103 -0.64138,-5.88749 -1.00791,-8.86853c-0.54979,-3.87533 -1.37447,-7.75064 -2.10752,-11.62597c-0.64145,-3.05554 -1.28284,-6.11112 -1.83258,-9.16662c-0.45816,-2.68294 -0.82465,-5.29135 -1.28284,-7.97419c-0.54979,-3.50273 -1.28284,-6.93087 -1.74099,-10.43359c-0.64145,-4.32247 -1.46611,-8.57044 -2.29076,-12.89287c-0.27489,-1.41601 -0.64145,-2.83195 -0.91631,-4.24796c-1.09953,-5.88756 -2.29076,-11.77506 -3.39032,-17.66254c-0.73302,-4.09887 -1.4661,-8.19783 -2.01589,-12.37124c-0.18326,-1.63952 -0.27489,-3.35369 -0.45816,-4.9932c-0.54979,-3.65178 -0.45816,-7.37805 -0.36654,-11.02978c0.0916,-2.31025 1.0079,-4.47151 2.84054,-6.26012c0.54979,-0.59616 1.28284,-0.89429 2.19915,-0.96883c2.74891,-0.2981 5.22295,0.2981 7.60528,1.34148c2.38237,0.96883 4.76476,1.71407 7.33039,2.38481c1.09953,0.2981 2.10752,0.44714 3.29869,0.149c-0.45816,-0.37259 -1.0079,-0.52169 -1.5577,-0.59616c-0.82465,-0.149 -1.5577,-0.29808 -2.29075,-0.59619c-0.73302,-0.22355 -1.4661,-0.59616 -1.64936,-1.19243c0.18326,-0.37264 0.45816,-0.44718 0.73302,-0.37265c0.54979,0.149 1.09953,0.2981 1.64936,0.37265c1.0079,0.52169 2.29079,0.6707 3.39032,0.96883c0.27489,0.07453 0.54974,-0.14901 0.45816,-0.59616c-1.09953,-0.07453 -2.01589,-0.52169 -3.0238,-0.74524zM100.0413,200.87905c-1.28284,-0.52169 -2.474,-0.89429 -3.84844,-0.81978c-0.36654,0 -0.73302,0 -1.09954,0c-0.27489,0 -0.54979,-0.14901 -0.64145,-0.44718c-0.0916,-0.22356 0.09163,-0.44715 0.36654,-0.59616c0.36654,-0.22356 0.82465,-0.29808 1.19117,-0.29808c1.5577,-0.07454 3.0238,0.29808 4.4899,0.81978c0.0916,0.07454 0.27494,0 0.45816,0c0.0916,-0.14901 0.18326,-0.2981 0.18326,-0.52169c0,-0.22356 0.27489,-0.44718 -0.0916,-0.74523c-0.73302,-0.2981 -1.74101,-0.59618 -2.74891,-0.74523c-1.5577,-0.22356 -3.0238,-0.2981 -4.58152,-0.2981c-0.54979,0 -1.0079,-0.07454 -1.19116,-0.52169c0.0916,-0.2981 0.36653,-0.52169 0.73302,-0.59616c1.37447,-0.2981 2.74891,-0.2981 4.12337,-0.07453c1.19116,0.14901 2.38237,0.37264 3.57359,0.52169c0.36654,-0.2981 0.54974,-0.59616 0.18326,-0.81978c-0.18326,-0.14901 -0.45816,-0.22356 -0.73302,-0.2981c-2.74891,-0.81978 -5.49784,-1.34148 -8.33838,-0.81978c-0.45816,0.07454 -1.0079,0.2981 -1.37447,-0.14901c-0.0916,-0.2981 0.0916,-0.44715 0.27489,-0.67069c0.45816,-0.52169 1.19116,-0.59616 1.92421,-0.67075c2.19915,-0.22356 4.39827,-0.07454 6.50575,0.44715c0.54979,0.14901 1.0079,0.52169 1.5577,0.2981c0.18326,-0.2981 0,-0.52169 -0.18326,-0.67075c-0.82465,-0.89433 -1.92422,-1.34147 -3.11542,-1.49051c-1.4661,-0.22356 -2.84054,-0.44718 -4.30664,-0.52169c-5.86432,-0.2981 -11.27049,1.11787 -16.58504,2.90649c-3.48199,1.19243 -6.68901,2.90649 -9.89608,4.54606c-3.0238,1.56507 -5.86432,3.35369 -8.24675,5.58944c-1.4661,1.34148 -2.93217,2.83195 -4.30659,4.32247c-1.28284,1.41598 -2.474,2.98105 -3.39032,4.54602c-0.73302,1.34148 -1.0079,2.75744 -0.73302,4.17342c0.18326,1.04336 0.45815,1.26693 1.64936,1.71411c0,-0.22356 0,-0.44719 0,-0.74524c-0.36654,-2.60841 0.73302,-4.91866 2.47401,-7.07992c0.45816,-0.52169 0.91631,-1.04337 1.64936,-1.34148c0.0916,-0.07454 0.36654,-0.07454 0.36654,0c0.18326,0.14901 0.27489,0.2981 0.27489,0.44715c0,0.22356 -0.18326,0.44717 -0.27489,0.67073c-0.54979,0.81978 -1.0079,1.56508 -1.5577,2.38482c-1.28284,2.01216 -1.5577,4.17342 -1.0079,6.40918c0.18326,0.59616 0.54974,0.96883 1.28284,0.89429c0.0916,-0.14901 0.18326,-0.22356 0.18326,-0.2981c-0.64145,-2.16126 0.18326,-4.09886 1.28284,-6.03657c0.27489,-0.52169 0.64145,-0.89433 1.28284,-1.11787c0.27489,-0.07454 0.54979,-0.14901 0.82465,0.14909c0.18326,0.44715 -0.27489,0.89433 -0.45816,1.26693c-0.54979,1.04336 -1.0079,2.08671 -1.28284,3.2046c-0.27489,1.11787 -0.27489,2.23576 0.54974,3.27913c0.45816,0.14901 0.91631,0.22355 1.28284,-0.14901c-0.0916,-0.22356 -0.18326,-0.37261 -0.18326,-0.67075c-0.0916,-1.49055 0.18326,-2.83194 1.28283,-4.02441c0.27489,-0.22356 0.54975,-0.44715 0.91627,-0.37264c0.45816,0.14901 0.36654,0.44718 0.27489,0.74523c-0.18326,0.52169 -0.45816,1.04337 -0.54975,1.49052c-0.27489,0.96883 -0.36654,2.01216 0,2.90649c0.54979,0.14901 1.09953,0.2981 1.4661,-0.14901c-0.36654,-2.31027 -0.27489,-2.60841 1.64937,-3.35369c-0.0916,1.19243 -0.54979,2.31027 -0.18326,3.35369c1.0079,0.22356 1.83264,-0.37259 2.74889,-0.37259c2.01589,0 3.84845,-0.59616 5.68107,-1.26693c3.20705,-1.26693 6.41412,-2.53389 9.62121,-3.87533c1.5577,-0.67075 3.02381,-1.49055 4.39822,-2.38481c1.28284,-0.89433 2.65726,-1.71407 3.94007,-2.60841c0.82465,-0.59616 1.64937,-1.19243 2.47401,-1.78861c1.74099,-1.49051 3.48196,-3.05554 5.22295,-4.54602c0.36654,-0.37259 0.91631,-0.59615 1.0079,-1.11787c-0.0916,-0.2981 -0.45815,-0.37259 -0.64145,-0.44718c-0.45816,-0.14901 -1.0079,-0.14901 -1.4661,-0.2981c-0.36654,-0.07454 -0.45816,-0.2981 -0.45816,-0.52168c0,-0.14901 0.18326,-0.2981 0.36654,-0.37259c0.27489,-0.07454 0.54979,-0.14909 0.82465,-0.14909c0.91631,-0.14901 1.64937,0.37265 2.29076,0.67075c0.36654,-0.22356 0.45816,-0.44718 0.64145,-0.89433zM108.47131,242.98601c-0.18326,1.19243 0.54979,2.23576 2.01589,2.90649c0.91631,0.44715 1.83264,0.2981 2.56564,-0.37264c1.83264,-1.71407 1.74099,-4.17342 0.64145,-6.03658c-0.27489,-0.52169 -0.82465,-0.81978 -1.64937,-0.74523c-1.19116,0.14901 -2.29075,0.52168 -2.84052,1.49055c-0.36654,0.81978 -0.73302,1.63957 -0.73302,2.75744zM115.43522,227.41012c0,-0.81978 -0.36653,-1.63957 -0.91631,-2.38481c-0.91631,-1.34148 -2.56563,-1.41601 -3.57359,-0.07454c-0.18326,0.22356 -0.27489,0.52168 -0.45816,0.81978c-0.36654,1.04336 -0.36654,2.08671 -0.18326,3.2046c0.27489,1.19243 1.37447,2.01217 2.84054,2.16126c0.54979,0.07454 1.0079,-0.07454 1.28284,-0.52169c0.64145,-0.96883 0.73302,-2.01217 1.0079,-3.2046zM149.24677,126.35347c1.28284,-2.0867 1.37447,-4.17342 1.19116,-6.26012c-0.18326,-1.78862 -0.54979,-2.01217 -2.74891,-2.01217c-0.27489,0 -0.54974,0 -0.73302,0.2981c0.82465,2.68294 0.45816,5.29135 -0.64138,7.89974c0.91631,0.2981 1.83264,0 2.93217,0.07453zM115.06869,213.10124c0.0916,-1.04336 -0.27489,-1.86316 -1.09953,-2.60841c-0.91631,-0.89433 -2.29075,-0.74523 -3.20706,0c-1.4661,1.26693 -1.19117,3.87532 0.54979,4.91866c1.09953,0.67075 2.56564,0.44715 3.20706,-0.52168c0.45816,-0.52169 0.64138,-1.11787 0.54979,-1.78862zM108.92948,197.07826c0,0.2981 0,0.59616 0,0.81978c0.0916,1.26693 0.91627,2.0867 2.38237,2.45931c0.91631,0.2981 1.74099,-0.07454 2.01589,-0.89429c0.18326,-0.44718 0.27489,-0.89433 0.27489,-1.41602c0,-1.19243 -0.09163,-2.38481 -0.91631,-3.42817c-0.45816,-0.59616 -1.09953,-0.74523 -1.83264,-0.44718c-0.45816,0.14901 -0.82465,0.44715 -1.19116,0.81978c-0.54979,0.67075 -0.82465,1.41601 -0.73302,2.0867zM111.40348,185.82493c0.64145,-1.04336 0.73302,-2.16126 0.91631,-3.27913c0.0916,-0.37264 -0.09163,-0.6707 -0.18326,-1.04337c-0.18326,-0.67075 -1.09953,-1.34148 -2.01589,-1.34148c-0.73302,0 -1.37448,0.2981 -1.74101,0.81979c-0.18326,0.37264 -0.45816,0.74523 -0.64145,1.11787c-0.27489,0.96883 -0.18326,1.86316 0.64145,2.68294c0.73302,0.67075 1.55771,1.34148 3.02381,1.04337zM105.26422,151.46858c-2.01589,1.19243 -1.64936,2.9065 -1.37447,4.54606c0.0916,0.67073 0.73302,1.34147 1.64936,1.49055c0.73302,0.149 1.83264,-0.74523 2.10752,-1.56507c0.0916,-0.2981 0.0916,-0.59616 0.18326,-0.89433c0,-0.44718 -0.0916,-0.81978 -0.0916,-1.26693c-0.0916,-1.26693 -0.82465,-2.0867 -2.474,-2.31027zM108.28806,165.85204c-1.19116,0.149 -1.83264,0.74523 -2.19915,1.49052c-0.45816,0.81978 -0.36654,1.78861 0,2.6084c0.27489,0.67073 0.64145,1.34148 1.37447,1.78862c0.91631,0.52169 1.64936,0.37264 2.10752,-0.44715c0.0916,-0.149 0.18326,-0.29808 0.18326,-0.52168c0.18326,-1.78862 0.0916,-3.42818 -1.4661,-4.91867zM105.17263,138.87378c-1.28284,0 -2.01589,0.59616 -2.47401,1.49056c-0.45816,0.96883 -0.09163,1.86307 0.45816,2.6829c0.36654,0.52169 1.19116,0.59616 1.92421,0.52169c0.73302,-0.07453 0.91631,-0.52169 1.09953,-0.96883c0.54979,-1.41601 0.27489,-2.6829 -1.0079,-3.72624zM106.63869,128.73828c0,-0.59616 -0.18326,-1.26693 -0.54979,-1.86316c-0.45816,-0.74523 -1.28284,-0.89432 -1.92421,-0.29808c-1.0079,0.96883 -1.37447,2.0867 -1.0079,3.27913c0.0916,0.2981 0.36653,0.67073 0.64145,0.96883c0.54979,0.59616 1.4661,0.52169 2.01589,-0.07453c0.54979,-0.52169 0.91631,-1.19243 0.82465,-2.01217zM144.29875,118.23019c0.0916,0.89433 0.09163,1.86316 0.18326,2.75745c0.0916,1.04337 -0.27489,2.01216 -0.45816,2.98103c-0.18326,0.89433 -1.19116,1.56507 -1.09953,2.60841c1.19116,-0.07453 1.37447,-0.81978 1.64936,-1.41601c1.37447,-2.38481 1.37447,-4.9932 -0.27489,-6.93091z" fill="#010001" fill-rule="nonzero" stroke="none" stroke-width="1"/><path d="M138.48394,122.97385c-0.54979,-0.149 -1.09953,-0.2981 -1.64936,-0.37259c-0.27489,-0.07453 -0.54974,0.00001 -0.73302,0.37259c0.27489,0.59619 0.91631,0.96883 1.64936,1.19243c0.73302,0.22355 1.5577,0.44715 2.29075,0.59616c0.54979,0.07453 1.09953,0.22355 1.5577,0.59615c-1.19116,0.22355 -2.19915,0.14901 -3.29868,-0.149c-2.474,-0.67073 -4.94806,-1.41601 -7.33039,-2.38481c-2.38237,-0.96883 -4.85643,-1.56507 -7.60528,-1.34148c-0.91631,0.07453 -1.64936,0.37264 -2.19915,0.96883c-1.83264,1.86316 -2.74891,3.94984 -2.84054,6.26013c-0.18326,3.65178 -0.18326,7.37805 0.36654,11.02978c0.27489,1.63957 0.27491,3.35369 0.45816,4.9932c0.54979,4.17342 1.28284,8.27233 2.01589,12.37124c1.09953,5.88756 2.19916,11.77506 3.39032,17.66254c0.27489,1.41598 0.64145,2.83195 0.91631,4.24793c0.82465,4.32247 1.64936,8.57043 2.29075,12.89293c0.54979,3.50268 1.19116,6.93091 1.74099,10.43359c0.45816,2.68294 0.82465,5.29135 1.28284,7.97419c0.54979,3.05554 1.19116,6.11112 1.83264,9.16662c0.82465,3.87533 1.64936,7.75065 2.10752,11.62597c0.36654,2.98103 0.82465,5.88757 1.0079,8.86853c0.36654,5.21679 0.64145,10.43358 -0.45816,15.65038c-0.36654,1.56507 -0.73302,3.13009 -1.09953,4.69511c-0.64145,2.60841 -2.10752,4.91866 -3.57359,7.229c-2.47401,3.87533 -6.50575,6.33467 -11.27049,8.19784c-3.39031,1.34148 -6.87228,2.23577 -10.53745,2.83195c-2.38237,0.37264 -4.76475,0.67073 -7.14721,0.67073c-2.84054,0 -5.68107,0.07454 -8.52164,-0.37264c-0.82465,-0.14901 -1.74101,-0.22356 -2.56561,-0.52169c-2.01589,-0.59616 -4.12337,-1.26693 -6.13923,-1.93769c-2.56563,-0.81978 -4.58153,-2.31025 -6.23081,-4.09887c-2.74891,-2.98103 -4.94805,-6.18559 -6.04759,-9.83736c-0.64145,-1.93769 -1.19117,-3.94988 -1.5577,-5.88757c-0.73302,-3.50273 -1.09954,-7.07992 -1.5577,-10.65713c-0.45816,-4.32247 -1.09953,-8.64499 -2.65726,-12.8184c-0.64145,-1.86316 -1.4661,-3.72623 -2.74891,-5.44039c-0.18326,-0.2981 -0.54975,-0.52168 -0.54975,-0.96883c1.28284,-0.44718 3.11543,-0.22356 3.84845,-1.71411c-0.64145,-0.44715 -1.28284,-0.37259 -1.92421,-0.2981c-1.64936,0.14901 -3.39032,0.149 -5.0397,0.07453c-3.29868,-0.22356 -6.13922,-1.11787 -8.15511,-3.35369c0.27489,-0.22356 0.54974,0 0.73302,0.07454c1.83264,0.89429 3.84844,1.04337 5.86432,1.41601c0.73302,0.14901 1.4661,0.07453 2.19915,0.07453c1.37447,-0.14901 2.74889,-0.2981 4.12336,-0.44718c3.29868,-0.44715 6.41412,-1.34148 9.34628,-2.45934c2.38237,-0.89429 4.76478,-1.78862 7.14721,-2.75741c5.49776,-2.23576 10.26259,-5.21679 14.38593,-8.94304c1.74099,-1.56507 3.48196,-3.20459 5.03969,-4.99319c1.4661,-1.71407 2.38237,-3.50269 2.84054,-5.5149c0.0916,-0.2981 0,-0.59618 0.45816,-0.74523c0.45816,0 0.27491,0.2981 0.36654,0.52169c0.45816,2.68294 -0.73302,4.99319 -2.38238,7.30352c-0.45816,0.59618 -1.0079,1.19243 -1.4661,1.78862c-0.18326,0.22356 -0.36654,0.52168 -0.54979,0.74523c-0.0916,0.2981 0,0.59616 0.27489,0.81978c0.27489,0.14901 0.54979,0.07453 0.82465,-0.07454c0.54979,-0.2981 1.0079,-0.67073 1.37447,-1.11787c0.18326,-0.22356 0.27489,-0.37259 0.64145,-0.81978c0.54979,1.26693 0.73302,2.23576 0.73302,3.27913c0,3.35369 0,6.70727 0.09163,9.9864c0.0916,4.17342 -0.54979,8.34686 -0.82465,12.44575c-0.18326,3.87533 -0.45816,7.75064 -0.54979,11.62601c-0.0916,1.71407 -0.0916,3.42818 0.45816,5.14226c0.18326,0.67075 0.54974,1.26693 1.09953,1.71407c1.37447,1.04336 3.29868,1.19243 4.85643,0.22355c0.91631,-0.52169 1.64936,-1.41601 2.38237,-2.68294c0.18326,0 0.45816,-0.07454 0.64145,-0.07454c1.5577,0.37259 2.74889,-0.14909 3.66522,-1.11787c2.29075,-2.23576 3.0238,-4.69511 1.64936,-7.5271c-0.27489,-0.59618 -0.64145,-1.11787 -1.09953,-1.49056c-0.91631,-0.81978 -2.01589,-1.19243 -3.39032,-0.96883c0,-1.34148 -0.09163,-2.53385 0.45816,-3.80078c0.45816,-0.07454 0.82465,-0.22356 1.28284,-0.22356c1.09953,0 1.74101,-0.52169 2.38238,-1.11787c2.93217,-2.60841 2.10752,-7.15445 -0.91632,-8.94307c-0.82465,-0.44715 -1.83264,-0.44718 -2.65726,-0.89429c-0.0916,-1.41601 -0.18326,-2.9065 0,-4.39701c2.93217,0 4.39822,-1.04337 4.94806,-3.27913c0.82465,-3.05554 -1.55771,-5.51489 -4.39828,-6.18566c-0.36654,-0.07454 -0.91631,0 -1.19116,-0.29808c-0.27489,-0.2981 -0.18326,-0.67075 -0.18326,-1.04337c-0.0916,-1.41601 -0.27491,-2.83195 -0.36654,-4.24796c3.66522,-1.26693 4.94806,-2.75741 4.76479,-5.51489c-0.0916,-2.23576 -1.92421,-3.87532 -5.4062,-4.8442c-0.36654,-1.34148 -0.36654,-2.75741 -0.45816,-4.17342c0.18326,-0.07454 0.36654,-0.22356 0.54974,-0.2981c2.38237,-0.22356 3.39032,-1.56507 3.94016,-3.20459c0.36654,-1.11787 0.36654,-2.16126 -0.27489,-3.27913c-0.73302,-1.34148 -1.92421,-2.08671 -3.57359,-2.45935c-0.54979,-0.14901 -1.19116,-0.149 -1.74099,-0.52168c-0.45816,-1.34148 -0.54974,-2.83196 -0.54974,-4.24797c0.27489,-0.52169 0.82465,-0.52168 1.28284,-0.81978c1.09953,-0.67073 1.74099,-1.56507 1.92421,-2.68294c0.0916,-0.44718 0.09163,-0.96883 0.09163,-1.41601c0.18326,-2.53385 -1.19116,-4.17343 -4.39827,-4.8442c-0.36654,-1.56507 -0.64146,-3.13009 -0.64146,-4.76961c2.19915,-1.56507 3.11543,-3.57727 2.74891,-5.88757c-0.27489,-1.86316 -2.10752,-2.75745 -3.84851,-3.72631c-0.27489,-1.34147 -0.27489,-2.75741 -0.27489,-4.24796c2.38237,-0.89429 3.20705,-2.53384 3.11542,-4.47151c-0.0916,-2.0867 -1.74099,-3.27913 -3.94015,-4.09887c-0.18326,-1.26693 -0.0916,-2.45935 0.09163,-3.65177c2.47401,-0.37259 4.21501,-1.34148 4.4899,-3.50273c0.36654,-2.31025 -0.36653,-3.65177 -2.84054,-5.06775c0.18326,-1.34147 0.64137,-2.60841 1.19116,-3.87533c1.37447,-2.68294 2.84054,-5.36584 5.49776,-7.37805c0.64145,-0.52169 1.28284,-0.96883 2.01589,-1.34147c1.28284,-0.74523 2.74891,-1.04337 4.30665,-1.11787c4.39827,-0.149 8.15511,1.19243 11.63703,3.13009c0.91631,0.52169 1.74101,1.04337 2.56564,1.63952c2.29075,1.63952 4.76478,2.90649 7.88022,3.35369c0.36654,0.96883 0.82465,1.93769 0.36654,2.98103c-1.0079,0.149 -1.92422,-0.37264 -2.84054,-0.37264c-0.27489,0 -0.54974,0 -0.73302,0.2981c-0.18326,0.2981 0,0.44718 0.27489,0.59616c-0.0916,0.37264 -0.54979,0.22355 -0.82465,0.37264zM76.45026,222.39095c1.37447,-0.07454 2.65727,-0.44718 3.84844,-0.89433c4.21501,-1.41601 7.88022,-3.50272 11.54535,-5.73847c1.0079,-0.59616 1.92422,-1.26693 2.56564,-2.16126c0.0916,-0.14901 0.0916,-0.37259 0,-0.44718c-0.18326,-0.07454 -0.36654,-0.14901 -0.54979,-0.14901c-0.54979,0 -0.91632,0.37265 -1.28284,0.59619c-1.64936,0.96883 -3.29868,2.01216 -4.94806,2.90649c-3.39031,1.93769 -6.96391,3.72631 -10.99564,4.62061c-0.27489,0.07454 -0.54979,0.14901 -0.82465,0.22355c-0.27489,0.14901 -0.27489,0.59616 0,0.74524c0.18326,0.14901 0.45815,0.22355 0.64145,0.29808zM107.42131,254.80952c-0.0916,0.52169 0.09163,0.74524 0.54979,0.81978c3.0238,0.37264 6.68901,-2.23576 6.68901,-4.69511c0,-0.44718 -0.36654,-0.74523 -1.0079,-0.81978c-0.0916,0.07454 -0.18326,0.07454 -0.18326,0.07454c-0.45816,0.2981 -0.36654,0.74523 -0.54979,1.11787c-0.64145,1.19243 -1.4661,2.16126 -3.11542,2.60841c-0.82465,0.22356 -1.55771,0.59616 -2.38238,0.89429zM101.83187,271.05614c-0.36654,0.2981 -0.36653,0.59615 -0.27489,0.89432c1.0079,1.93769 2.29075,3.72631 4.30664,5.06775c0.18326,0.14901 0.45816,0.22356 0.73302,0.2981c0.36654,0.07454 0.73302,-0.07454 0.91631,-0.2981c0.27489,-0.2981 0.18326,-0.59616 -0.09163,-0.81978c-1.92421,-1.11787 -3.02381,-2.68294 -4.21501,-4.24796c-0.27489,-0.37264 -0.54974,-0.81978 -1.37447,-0.89433zM98.16665,271.35424c-0.18326,0.07454 -0.36654,0.14909 -0.45816,0.2981c-0.36654,0.37264 -0.27494,0.74523 -0.09163,1.19243c0.82465,1.71407 2.19915,3.2046 3.57359,4.69511c0.36654,0.37264 0.91627,0.37261 1.37447,0.22356c0.36654,-0.22356 0.45816,-0.67069 0,-1.11787c-0.0916,-0.14901 -0.27491,-0.2981 -0.36654,-0.44718c-1.28284,-1.19243 -2.38237,-2.60841 -3.20705,-4.02442c-0.0916,-0.22356 -0.27491,-0.44715 -0.45816,-0.59616c0,-0.14901 -0.18326,-0.14901 -0.36654,-0.22355zM84.23885,269.86377c0,0.14901 0,0.2981 0,0.37264c0.45816,1.71407 1.19116,3.42817 2.10752,4.99319c0.18326,0.37264 0.54979,0.67075 1.0079,0.89433c0.18326,0.07454 0.45816,0.07454 0.64145,0c0.18326,-0.07454 0.27491,-0.2981 0.36654,-0.44718c0,-0.14901 0,-0.37259 -0.09163,-0.52168c-1.09953,-1.71407 -1.83258,-3.50273 -2.5656,-5.29135c-0.0916,-0.22356 -0.27491,-0.44718 -0.45816,-0.59618c-0.18326,-0.22356 -0.733,-0.14901 -0.91631,0.07453c0.0916,0.22356 0,0.37264 -0.0916,0.52169zM92.30229,277.01818c0.73302,-0.44715 0.54979,-0.96883 0.18326,-1.49055c-1.0079,-1.56507 -1.92421,-3.20459 -2.74889,-4.8442c-0.0916,-0.22356 -0.36654,-0.37264 -0.64145,-0.37264c-0.73302,0.37264 -0.73302,0.96883 -0.45816,1.56507c0.64145,1.34148 1.28284,2.68295 2.19915,3.87533c0.36654,0.52169 0.64137,0.96883 1.4661,1.26693zM93.49353,271.80142c-0.45816,0.37264 -0.36654,0.89433 -0.18326,1.34148c0.73302,1.49055 1.46611,2.98103 2.74891,4.17343c0.0916,0.14901 0.27489,0.22356 0.45816,0.37264c0.27489,0.14901 0.54979,0.14901 0.82465,0c0.36654,-0.14901 0.45815,-0.52169 0.27493,-0.81979c-0.0916,-0.22356 -0.27493,-0.44715 -0.45815,-0.59615c-0.82465,-0.89433 -1.46607,-1.93771 -2.01589,-2.9065c-0.27489,-0.44718 -0.45816,-0.89433 -0.73302,-1.26693c-0.18326,-0.2981 -0.54979,-0.37259 -0.91631,-0.29808zM82.86441,273.66455c0.73302,-0.37264 0.54979,-0.81978 0.36654,-1.26693c-0.82465,-1.56507 -1.4661,-3.13009 -1.83264,-4.76965c-0.0916,-0.2981 -0.36654,-0.37259 -0.64145,-0.37259c-0.64145,0.44715 -0.73303,1.04336 -0.54975,1.63952c0.36654,1.34148 0.82466,2.68294 1.55771,3.87533c0.18326,0.37264 0.36653,0.74524 1.09953,0.89433zM111.72794,275.67671c0,-0.2981 -0.18326,-0.44718 -0.45816,-0.59615c-1.5577,-0.67075 -2.38237,-1.86316 -3.48199,-2.9065c-0.27489,-0.22356 -0.45816,-0.44715 -0.73302,-0.67073c-0.0916,-0.07454 -0.27489,-0.149 -0.36654,-0.07453c-0.18326,0.07454 -0.36654,0.22356 -0.36654,0.37264c0,0.22356 0,0.44715 0.18326,0.67069c0.82465,1.34148 1.92422,2.53389 3.39032,3.42818c0.36654,0.22356 0.73302,0.37259 1.19117,0.37259c0.36654,0.07454 0.73302,-0.2981 0.64137,-0.59619zM119.88302,274.40978c0.45816,-0.37259 0.45816,-0.74523 0.0916,-1.11787c-1.0079,-0.96883 -2.19915,-1.86308 -3.48196,-2.6829c-0.27489,-0.14901 -0.54979,-0.14901 -0.82465,0c-0.27489,0.22356 -0.36654,0.52169 -0.18326,0.81979c0,0.07454 0.0916,0.149 0.0916,0.149c1.0079,0.89433 2.01589,1.86316 3.29869,2.53389c0.27489,0.22356 0.54979,0.37265 1.0079,0.2981zM110.53673,271.65234c0.82465,1.11787 3.11543,3.13009 4.03171,3.50273c0.36654,0.14901 0.73302,0.149 1.0079,-0.07454c0.27489,-0.22356 0.36654,-0.59616 0.09163,-0.81978c-1.28284,-1.11787 -2.56563,-2.0867 -4.12337,-2.90649c-0.36654,-0.14901 -0.73302,-0.07454 -1.0079,0.2981zM119.69975,269.93827c0.27489,1.11787 1.37447,1.86316 2.474,2.45934c0.18326,0.14901 0.54979,0.07454 0.82465,-0.149c0.18326,-0.22356 0.18326,-0.44718 0,-0.67075c-0.64145,-0.74523 -1.37447,-1.41601 -2.29075,-1.86316c-0.27489,-0.22356 -0.64145,-0.149 -1.0079,0.22356zM78.37456,270.23637c0.0916,-1.34148 -0.27489,-2.45934 -1.09953,-3.42817c0,-0.07454 -0.27489,0 -0.45816,0c-0.54979,0.59616 -0.36654,1.26693 -0.0916,1.86316c0.27489,0.59616 0.45816,1.26693 1.64937,1.56507zM122.81517,268.74584c0.45816,0.96883 1.4661,1.34148 2.38237,1.78862c0.27489,0.14901 0.73302,-0.07454 0.73302,-0.37264c0,-0.07454 0,-0.14901 0,-0.14901c0,-0.67075 -0.64137,-0.96883 -1.19116,-1.34148c-0.64145,-0.2981 -1.19116,-0.44718 -1.92421,0.07454zM128.03812,267.85156c0,-0.67075 -0.54974,-1.04337 -1.09953,-1.34148c-0.36654,-0.14901 -0.64145,-0.22355 -1.0079,0.07454c-0.27489,0.22356 -0.27489,0.52168 -0.0916,0.81978c0.27489,0.44715 0.73302,0.67075 1.28284,0.89433c0.45816,0.14901 0.91631,-0.14901 0.91631,-0.44715zM95.87591,211.73378c0,0.2981 0.45816,0.44718 0.82465,0.37264c0.54979,-0.14901 0.91632,-0.37264 1.19117,-0.74523c0.18326,-0.22356 0.27489,-0.44715 0,-0.67075c-0.18326,-0.22356 -0.45816,-0.29808 -0.82465,-0.22355c-0.73302,0.14901 -1.28284,0.67075 -1.19117,1.26693zM72.23528,222.31646c-0.64145,0.07454 -1.28284,0.22355 -1.64936,0.81978c-0.0916,0.07454 0.0916,0.37259 0.27491,0.44715c0.73302,0.37264 1.37447,0 1.92421,-0.2981c0.27489,-0.14901 0.36654,-0.37264 0.18326,-0.59616c-0.0916,-0.22356 -0.27491,-0.29808 -0.73302,-0.37259z" fill="#ffc941" fill-rule="nonzero" stroke="none" stroke-width="1"/><path d="M100.0413,200.87905c-0.0916,0.44718 -0.27489,0.74523 -0.73302,0.96883c-0.64145,-0.2981 -1.37447,-0.81978 -2.29075,-0.67073c-0.27489,0 -0.54979,0.07454 -0.82465,0.14901c-0.18326,0.07454 -0.36654,0.22355 -0.36654,0.37259c-0.0916,0.22356 0.09161,0.44718 0.45816,0.52169c0.45816,0.07454 1.0079,0.14901 1.4661,0.2981c0.27489,0.07454 0.54979,0.14901 0.64145,0.44715c-0.0916,0.52169 -0.64145,0.74524 -1.0079,1.11787c-1.74099,1.56507 -3.48196,3.05554 -5.22296,4.54606c-0.73302,0.67075 -1.5577,1.19243 -2.47401,1.78862c-1.28284,0.89429 -2.65726,1.71411 -3.94015,2.60841c-1.37447,0.89433 -2.74891,1.71411 -4.39822,2.38481c-3.20705,1.34148 -6.41412,2.60841 -9.62121,3.87533c-1.74099,0.67075 -3.66523,1.26693 -5.68107,1.26693c-0.91631,0 -1.74101,0.67073 -2.74891,0.37264c-0.36654,-1.04336 0.09163,-2.16126 0.18326,-3.35369c-1.92421,0.74523 -2.01589,1.04336 -1.64936,3.35369c-0.36654,0.44715 -0.91631,0.22355 -1.4661,0.14901c-0.45816,-0.96883 -0.27489,-1.93769 0,-2.90649c0.18326,-0.52169 0.36654,-1.04337 0.54979,-1.49052c0.0916,-0.2981 0.18326,-0.59616 -0.27489,-0.74523c-0.36654,-0.14901 -0.64145,0.07454 -0.91631,0.37259c-1.09953,1.19243 -1.37447,2.60841 -1.28284,4.02442c0,0.22356 0.09163,0.44715 0.18326,0.67069c-0.45816,0.37264 -0.82465,0.22355 -1.28284,0.14909c-0.82465,-0.96883 -0.82465,-2.0867 -0.54979,-3.27913c0.27489,-1.11787 0.64145,-2.16125 1.28284,-3.20459c0.27489,-0.44718 0.64145,-0.81978 0.45816,-1.26693c-0.27489,-0.2981 -0.54979,-0.22356 -0.82465,-0.14901c-0.64145,0.22356 -1.0079,0.67073 -1.28284,1.11787c-1.09953,1.93769 -1.92422,3.87533 -1.28284,6.03658c0,0.07454 -0.09159,0.22355 -0.18326,0.2981c-0.82465,0 -1.19117,-0.2981 -1.28284,-0.89433c-0.54979,-2.23576 -0.27489,-4.39701 1.0079,-6.40918c0.54979,-0.81978 1.00799,-1.56507 1.5577,-2.38481c0.0916,-0.22356 0.27489,-0.44715 0.27489,-0.67069c0,-0.14901 -0.18326,-0.2981 -0.27489,-0.44718c-0.0916,-0.07454 -0.27491,-0.07454 -0.36654,0c-0.73302,0.2981 -1.28284,0.81978 -1.64936,1.34148c-1.83264,2.0867 -2.84054,4.39701 -2.474,7.07992c0,0.22356 0,0.44715 0,0.74523c-1.19116,-0.44715 -1.46607,-0.67075 -1.64937,-1.71411c-0.27489,-1.41601 -0.09163,-2.83195 0.73302,-4.17342c0.91631,-1.63957 2.10752,-3.13009 3.39031,-4.54606c1.28284,-1.49051 2.74894,-2.90649 4.30664,-4.32246c2.38237,-2.16126 5.22296,-3.94983 8.24672,-5.58938c3.20706,-1.63957 6.41411,-3.35369 9.89608,-4.54606c5.31458,-1.78862 10.72071,-3.20459 16.58505,-2.90649c1.4661,0.07454 2.93217,0.2981 4.30664,0.52169c1.19116,0.22356 2.38238,0.67073 3.11543,1.49055c0.18326,0.14901 0.36654,0.37259 0.18326,0.67069c-0.54979,0.14901 -1.09953,-0.14901 -1.5577,-0.2981c-2.10752,-0.52169 -4.30659,-0.67075 -6.50575,-0.44718c-0.73302,0.07454 -1.4661,0.14901 -1.92421,0.67069c-0.18326,0.22356 -0.36654,0.37264 -0.27489,0.67073c0.36654,0.44715 0.91631,0.22355 1.37447,0.14901c2.93217,-0.52169 5.68107,-0.07454 8.33838,0.81978c0.27489,0.07454 0.54974,0.14901 0.73302,0.2981c0.36654,0.2981 0.0916,0.52168 -0.18326,0.81978c-1.19116,-0.14901 -2.38237,-0.37264 -3.57358,-0.52168c-1.37447,-0.22356 -2.74891,-0.14901 -4.12337,0.07453c-0.36654,0.07454 -0.64145,0.22356 -0.73302,0.59616c0.18326,0.52169 0.73302,0.52169 1.19116,0.52169c1.5577,0 3.02381,0.14901 4.58153,0.2981c1.0079,0.14901 2.01589,0.37259 2.74891,0.74524c0.45816,0.2981 0.18326,0.52168 0.0916,0.74523c0,0.14901 -0.09163,0.2981 -0.18326,0.52169c-0.18326,0 -0.27489,0 -0.45816,0c-1.37447,-0.52169 -2.84054,-0.89433 -4.4899,-0.81978c-0.45816,0 -0.91632,0.07453 -1.19117,0.29808c-0.27489,0.14901 -0.36654,0.37265 -0.36654,0.59619c0.0916,0.22356 0.27489,0.37259 0.64137,0.44714c0.36654,0 0.73302,0.07454 1.09954,0c1.37447,-0.14901 2.65727,0.22356 3.94008,0.74524zM60.27381,206.31947c0.73302,0.37264 1.37447,0.149 1.92421,-0.2981c1.83264,-1.49055 3.84844,-2.75744 5.86432,-4.02442c3.20705,-2.01216 6.50577,-3.80082 10.2626,-5.14226c1.5577,-0.52169 3.11542,-0.96883 4.67315,-1.49051c0.54979,-0.14901 1.09953,-0.29808 1.28284,-0.81978c-0.18326,-0.37264 -0.54979,-0.52169 -1.0079,-0.59616c-0.64145,-0.07454 -1.28284,0.07453 -1.92421,0.22355c-3.48199,0.89433 -6.59737,2.16126 -9.62121,3.72631c-2.74891,1.41601 -5.31458,3.13009 -7.88018,4.76961c-1.09953,0.67075 -2.01589,1.56507 -3.0238,2.31027c-0.45816,0.44718 -0.91631,0.81978 -0.54979,1.34148z" fill="#ffc941" fill-rule="nonzero" stroke="none" stroke-width="1"/><path d="M115.43522,227.41012c-0.18326,1.19243 -0.36654,2.23576 -1.0079,3.2046c-0.27489,0.44715 -0.73302,0.59616 -1.28284,0.52169c-1.37447,-0.14901 -2.5656,-0.96883 -2.84052,-2.16126c-0.18326,-1.04336 -0.18327,-2.16126 0.18326,-3.2046c0.0916,-0.2981 0.27489,-0.59616 0.45816,-0.81978c1.0079,-1.34148 2.65727,-1.34147 3.57359,0.07454c0.54979,0.74523 0.91627,1.56507 0.91627,2.38481z" fill="#fcc741" fill-rule="nonzero" stroke="none" stroke-width="1"/><path d="M149.24677,126.35347c-1.0079,0 -1.92422,0.2981 -2.93217,-0.07454c1.19116,-2.6084 1.4661,-5.21679 0.64137,-7.8997c0.18326,-0.22355 0.45816,-0.2981 0.73302,-0.2981c2.19915,-0.07453 2.474,0.149 2.74889,2.01216c0.18326,2.0867 0.09163,4.17343 -1.19117,6.26013z" fill="#fac540" fill-rule="nonzero" stroke="none" stroke-width="1"/><path d="M115.06869,213.10124c0.0916,0.67075 -0.18326,1.26693 -0.54979,1.86316c-0.73302,0.89433 -2.19915,1.11787 -3.20705,0.52169c-1.74099,-1.04336 -2.01589,-3.65177 -0.54979,-4.91866c0.91631,-0.81978 2.29075,-0.89433 3.20705,0c0.82465,0.67075 1.19116,1.49052 1.09953,2.53389z" fill="#fac640" fill-rule="nonzero" stroke="none" stroke-width="1"/><path d="M108.92948,197.07826c0,-0.74523 0.27491,-1.41601 0.82465,-2.0867c0.27489,-0.37264 0.64137,-0.59619 1.19116,-0.81978c0.73302,-0.2981 1.4661,-0.14901 1.83264,0.44718c0.73302,1.04336 0.91631,2.23576 0.91631,3.42818c0,0.44718 -0.18326,0.96883 -0.27489,1.41602c-0.27489,0.81978 -1.09953,1.11786 -2.01589,0.89432c-1.4661,-0.44715 -2.29078,-1.19243 -2.38237,-2.45934c-0.18326,-0.22356 -0.0916,-0.44715 -0.0916,-0.81978z" fill="#fcc741" fill-rule="nonzero" stroke="none" stroke-width="1"/><path d="M111.40348,185.82493c-1.4661,0.2981 -2.29075,-0.2981 -2.93217,-1.04337c-0.82465,-0.81978 -0.82465,-1.71411 -0.64145,-2.68294c0.0916,-0.37259 0.36654,-0.74523 0.64145,-1.11787c0.36654,-0.59616 1.0079,-0.89429 1.74099,-0.81979c0.91631,0 1.83264,0.67073 2.01589,1.34148c0.0916,0.37264 0.18326,0.74524 0.18326,1.04337c-0.27489,1.04336 -0.36654,2.23576 -1.00791,3.27913z" fill="#f8c440" fill-rule="nonzero" stroke="none" stroke-width="1"/><path d="M105.26422,151.46858c1.64936,0.22355 2.38238,1.04336 2.47401,2.31025c0,0.44715 0.09159,0.81978 0.09159,1.26693c0,0.2981 -0.09159,0.59615 -0.18326,0.89432c-0.27489,0.81978 -1.37447,1.71407 -2.10752,1.56508c-0.91631,-0.149 -1.5577,-0.81978 -1.64936,-1.49052c-0.27489,-1.63957 -0.73302,-3.35367 1.37447,-4.54606z" fill="#f9c540" fill-rule="nonzero" stroke="none" stroke-width="1"/><path d="M108.28806,165.85204c1.5577,1.49052 1.64936,3.20459 1.4661,4.91866c0,0.149 -0.09163,0.37264 -0.18326,0.52169c-0.36654,0.81978 -1.19116,0.96883 -2.10752,0.44718c-0.73302,-0.44718 -1.09953,-1.11787 -1.37447,-1.78862c-0.36654,-0.89433 -0.36654,-1.78861 0,-2.6084c0.36654,-0.74523 1.0079,-1.34147 2.19915,-1.49052z" fill="#f7c340" fill-rule="nonzero" stroke="none" stroke-width="1"/><path d="M105.17263,138.87378c1.28284,1.04337 1.5577,2.31027 1.09953,3.72624c-0.18326,0.44718 -0.36654,0.96883 -1.09953,0.96883c-0.73302,0.07453 -1.5577,0 -1.92421,-0.52169c-0.64145,-0.81978 -0.91631,-1.71407 -0.45816,-2.6829c0.36654,-0.89433 1.09953,-1.49055 2.38237,-1.49055z" fill="#f9c540" fill-rule="nonzero" stroke="none" stroke-width="1"/><path d="M106.63869,128.73828c0,0.81978 -0.27489,1.49052 -0.82465,2.08671c-0.54979,0.59619 -1.4661,0.67075 -2.01589,0.07454c-0.27489,-0.2981 -0.45816,-0.59616 -0.64145,-0.96883c-0.36654,-1.26693 0,-2.38481 1.0079,-3.27913c0.64145,-0.59616 1.4661,-0.44719 1.92421,0.29808c0.36654,0.59616 0.64146,1.19243 0.54979,1.78862z" fill="#f6c340" fill-rule="nonzero" stroke="none" stroke-width="1"/><path d="M144.29875,118.23019c1.5577,1.86316 1.64936,4.54604 0.36654,6.9309c-0.27489,0.59616 -0.45815,1.41602 -1.64936,1.41602c-0.0916,-1.04337 0.91631,-1.71411 1.09953,-2.60841c0.18326,-0.96883 0.54979,-1.93771 0.45816,-2.98103c-0.0916,-0.89433 -0.18326,-1.78862 -0.27489,-2.75745z" fill="#e6b73f" fill-rule="nonzero" stroke="none" stroke-width="1"/><path d="M138.34274,122.85079c0.27489,-0.149 0.73302,0 0.91631,-0.37265c1.0079,0.22355 1.92422,0.67073 2.93217,0.74524c0.0916,0.44715 -0.18326,0.67069 -0.45816,0.59615c-1.09953,-0.2981 -2.38237,-0.44714 -3.39032,-0.96883z" fill="#a98836" fill-rule="nonzero" stroke="none" stroke-width="1"/><path d="M76.30914,222.26791c-0.18326,-0.07454 -0.45816,-0.149 -0.73302,-0.22355c-0.27489,-0.14901 -0.36654,-0.59616 0,-0.74524c0.27489,-0.07454 0.54979,-0.22355 0.82465,-0.22355c4.03171,-0.89433 7.6053,-2.68294 10.99565,-4.6206c1.64936,-0.96883 3.29868,-1.93769 4.94806,-2.90649c0.36654,-0.22356 0.82465,-0.59616 1.28284,-0.59616c0.18326,0 0.45816,0.07454 0.54979,0.14901c0.18326,0.14901 0.18326,0.2981 0,0.44718c-0.64145,0.89433 -1.5577,1.56508 -2.56563,2.16126c-3.57359,2.23576 -7.3304,4.32247 -11.54536,5.73848c-1.09953,0.37264 -2.29075,0.74523 -3.75685,0.81978z" fill="#060503" fill-rule="nonzero" stroke="none" stroke-width="1"/><path d="M95.73472,211.61072c-0.0916,-0.59618 0.45816,-1.04336 1.28284,-1.19243c0.27489,-0.07454 0.64137,0 0.82465,0.22356c0.18326,0.22356 0.0916,0.44715 0,0.67069c-0.27489,0.37264 -0.64137,0.59616 -1.19116,0.74523c-0.45816,0 -0.82465,-0.22356 -0.91631,-0.44718z" fill="#201b0f" fill-rule="nonzero" stroke="none" stroke-width="1"/><path d="M72.09409,222.19336c0.36654,0 0.64145,0.07454 0.73302,0.37265c0.0916,0.22356 0,0.52168 -0.18326,0.59615c-0.64145,0.2981 -1.19117,0.67075 -1.92422,0.2981c-0.18326,-0.07454 -0.27489,-0.2981 -0.27489,-0.44718c0.36654,-0.52169 1.00791,-0.67073 1.64937,-0.81978z" fill="#3d3219" fill-rule="nonzero" stroke="none" stroke-width="1"/><path d="M60.27381,206.31947c-0.36654,-0.52169 0.0916,-0.89429 0.45816,-1.26693c1.0079,-0.81978 1.92426,-1.63952 3.0238,-2.31027c2.56563,-1.63957 5.13133,-3.35369 7.88024,-4.76965c3.0238,-1.56507 6.23081,-2.83195 9.62121,-3.72623c0.64145,-0.14901 1.28284,-0.2981 1.92421,-0.22356c0.45816,0 0.82465,0.22356 1.0079,0.59619c-0.18326,0.59618 -0.73302,0.67073 -1.28284,0.81978c-1.5577,0.52169 -3.11542,0.96883 -4.67312,1.49055c-3.66522,1.34148 -7.05554,3.05554 -10.26259,5.14226c-2.01589,1.26693 -4.03171,2.53385 -5.86432,4.02441c-0.45816,0.37264 -1.09953,0.59616 -1.83264,0.22356z" fill="#fefefa" fill-rule="nonzero" stroke="none" stroke-width="1"/><g><path d="M127.87754,320.17929l-23.32859,-19.72824" fill="none" fill-rule="evenodd" stroke="#ffdb5d" stroke-width="1.26"/><path d="M114.73214,320.13787c3.09862,0 3.09862,-3.00323 6.19736,-3.00323c3.09729,0 3.09729,3.00323 6.19453,3.00323c3.09874,0 3.09874,-3.00323 6.19883,-3.00323c3.09874,0 3.09874,3.00323 6.19894,3.00323" fill="none" fill-rule="evenodd" stroke="#ffdb5d" stroke-width="1.26"/><path d="M92.08525,289.85386c-2.24046,-4.80059 -0.16217,-10.50842 4.64158,-12.74875c4.80382,-2.23879 10.51603,-0.16144 12.75655,4.63915c0.60846,1.30451 0.88834,2.6733 0.89121,4.0234l0.00713,-0.00141l0.23541,17.38512c0.02009,1.46736 -1.7022,2.27176 -2.81459,1.31596l-13.21003,-11.34869c-1.03046,-0.86867 -1.9002,-1.96168 -2.50732,-3.26472" fill="#751d18" fill-rule="nonzero" stroke="none" stroke-width="1"/></g><path d="M56.60312,260.22874c0,-9.22829 7.48483,-16.71069 16.71919,-16.71069l3.93684,-0.00141c0.056,-0.00287 0.11774,-0.01275 0.17083,-0.01275h60.30185c0,0 0.01158,10.04407 0.01158,11.37566c0,4.41066 -1.8659,11.99152 -7.8954,17.11936c-13.43823,11.42708 -29.34063,26.22473 -29.34063,26.22473z" fill="#17242d" fill-rule="nonzero" stroke="none" stroke-width="1"/><g><path d="M70.58665,320.14066c3.09874,0 3.09874,-3.00322 6.19607,-3.00322c3.09862,0 3.09867,3.00322 6.19596,3.00322c3.09862,0 3.09866,-3.00322 6.19882,-3.00322c3.09874,0 3.09874,3.00322 6.19736,3.00322" fill="none" fill-rule="evenodd" stroke="#ffdb5d" stroke-width="1.26"/><path d="M83.14801,320.0404v-22.99701" fill="none" fill-rule="evenodd" stroke="#ffdb5d" stroke-width="1.26"/><path d="M73.54901,282.64591c0,-5.29782 4.29862,-9.59413 9.59891,-9.59413c5.3004,0 9.5975,4.29636 9.5975,9.59413c0,1.43869 -0.3243,2.79749 -0.89268,4.0234l0.00713,0.00141l-7.1404,15.85337c-0.60134,1.33872 -2.50304,1.34017 -3.10721,0.00287l-7.17195,-15.86482c-0.56551,-1.22303 -0.89138,-2.58033 -0.89138,-4.01628" fill="#751d18" fill-rule="nonzero" stroke="none" stroke-width="1"/></g><g><path d="M43.74476,270.88006c6.19737,-21.48548 28.65038,-33.88143 50.14744,-27.68776l0.85254,0.24432l-3.83786,13.306c-6.33229,21.95555 -29.27617,34.62436 -51.24548,28.29502z" fill="#b85c39" fill-rule="nonzero" stroke="none" stroke-width="1"/><path d="M39.6614,285.03765l0.00575,-0.02009l16.68623,-16.44066l23.27688,6.70655c-10.29932,9.75557 -25.34651,13.96611 -39.96884,9.75411" fill="#ad2c24" fill-rule="nonzero" stroke="none" stroke-width="1"/><path d="M45.33355,285.82917l15.85944,-15.58341" fill="none" fill-rule="evenodd" stroke="#751d18" stroke-width="0.6"/><path d="M51.08455,286.29215l14.92085,-14.66053" fill="none" fill-rule="evenodd" stroke="#751d18" stroke-width="0.6"/><path d="M57.92631,285.68483l12.89145,-12.66587" fill="none" fill-rule="evenodd" stroke="#751d18" stroke-width="0.6"/><path d="M66.59953,283.27742l9.03057,-8.87262" fill="none" fill-rule="evenodd" stroke="#751d18" stroke-width="0.6"/><path d="M74.55802,256.99406c-1.77541,3.02178 -5.42521,4.58768 -8.94877,3.57184c-4.1722,-1.20158 -6.58058,-5.55786 -5.3778,-9.7269c0.55104,-1.91166 1.77255,-3.44049 3.32679,-4.43199c8.98329,-4.80492 19.77206,-6.25792 30.33397,-3.21473l0.85254,0.2457l-3.83786,13.30457c-0.27842,0.96589 -0.59992,1.90733 -0.94147,2.83609l-0.05316,-0.02009c-1.26582,4.0734 -5.56013,6.40657 -9.67928,5.22063c-3.52488,-1.01576 -5.78113,-4.28194 -5.675,-7.78519" fill="#573a3c" fill-rule="nonzero" stroke="none" stroke-width="1"/></g><path d="M130.99835,96.91505c2.57973,-0.7509 5.23251,-0.09014 7.13676,1.52664l0.48501,0.37219c0.68798,0.53032 1.65188,-0.12816 1.4095,-0.96086l-1.40039,-4.81096c-0.40535,-1.39249 0.39556,-2.85178 1.79019,-3.25775c1.39314,-0.40551 2.85365,0.39552 3.25893,1.788l1.2315,4.2306c0.24359,0.83678 1.42225,0.85983 1.69718,0.03276l1.88733,-5.67118c0.38126,-1.14512 2.01216,-1.11399 2.34922,0.04381l2.29294,7.87701c0.07775,-0.02564 0.15346,-0.05811 0.23197,-0.08094c4.18107,-1.21708 8.5542,1.18404 9.77011,5.36122c1.21631,4.17844 -1.18539,8.55011 -5.36641,9.76723c-0.14054,0.04085 -0.28198,0.06864 -0.42354,0.10103l-5.198,1.51311l-0.72316,-2.48449c-0.07135,-0.04466 -0.14597,-0.08543 -0.21626,-0.13192l-10.4918,0.63304l-2.4591,-2.71721c-0.82849,0.73818 -1.82359,1.31502 -2.96051,1.64596c-4.0832,1.18857 -8.35635,-1.1567 -9.54391,-5.23643c-1.18797,-4.08121 1.15927,-8.35214 5.24247,-9.54069" fill="#ce2235" fill-rule="nonzero" stroke="none" stroke-width="1"/><path d="M168.69627,114.45722l-24.85871,7.23609c0.00211,-2.60184 1.70772,-5.01495 4.32474,-5.77671l13.78463,-4.01255c2.61686,-0.76176 5.35127,0.35892 6.7493,2.55316" fill="#ffdb5d" fill-rule="nonzero" stroke="none" stroke-width="1"/><path d="M135.29122,121.27034c-1.72549,-5.92757 1.68368,-12.13255 7.61351,-13.8587c5.93113,-1.72646 12.13789,1.67944 13.86335,7.60702c1.72508,5.92635 -1.68407,12.1313 -7.61516,13.85784c-5.92977,1.72609 -12.13657,-1.67981 -13.86161,-7.60614" fill="#ad2c24" fill-rule="nonzero" stroke="none" stroke-width="1"/><path d="M140.8681,119.64697c-0.82938,-2.84924 0.80958,-5.83069 3.65939,-6.66023c2.85122,-0.82994 5.83291,0.80642 6.66229,3.6557c0.82897,2.84791 -0.80856,5.82903 -3.6598,6.65897c-2.84981,0.82954 -5.83291,-0.80653 -6.66188,-3.65445" fill="#fff4e3" fill-rule="nonzero" stroke="none" stroke-width="1"/><path d="M142.50661,119.17002c-0.56583,-1.94382 0.55322,-3.97934 2.49774,-4.54534c1.94573,-0.56638 3.98117,0.55088 4.547,2.49469c0.56546,1.94255 -0.5523,3.97773 -2.4981,4.54412c-1.94452,0.56603 -3.98117,-0.55095 -4.54664,-2.49348" fill="#17242d" fill-rule="nonzero" stroke="none" stroke-width="1"/><path d="M147.39984,126.73656l5.98876,-6.3041" fill="none" fill-rule="evenodd" stroke="#751d18" stroke-width="0.6"/></g><path d="M148.02448,126.67418c-1.40321,-4.82055 1.36836,-9.86821 6.19291,-11.27261c4.82449,-1.40434 9.87352,1.36678 11.27673,6.18741c1.40361,4.82193 -1.36977,9.86866 -6.19422,11.27301c-4.8246,1.4044 -9.8719,-1.3658 -11.27549,-6.18773" fill="#ce2235" fill-rule="nonzero" stroke="none" stroke-width="1"/><path d="M179.50511,127.47116l-30.39061,-9.45608c1.76814,-2.66534 5.15421,-3.98099 8.35359,-2.98548l16.85218,5.24357c3.19923,0.99541 5.24121,4.00003 5.18481,7.19796" fill="#ffdb5d" fill-rule="nonzero" stroke="none" stroke-width="1"/><g fill-rule="nonzero" stroke="none" stroke-width="1"><path d="M112.22768,116.27033l2.63469,-0.3751l2.63469,-0.37509l2.63469,-0.3751l2.63469,-0.37509l2.63469,-0.37509l2.63469,-0.3751l2.63469,-0.37509l2.63469,-0.3751l2.63469,-0.37509l2.63469,-0.3751l2.63469,-0.37509l2.63469,-0.37509l2.63469,-0.3751l2.63469,-0.37509l2.63469,-0.3751l2.63469,-0.37509l2.63469,-0.3751l2.63469,-0.37509l2.63469,-0.37509l2.6347,-0.37509l2.63469,-0.37509l2.63469,-0.3751l2.63469,-0.37509l2.63469,-0.3751l2.63469,-0.37509l2.63469,-0.37509l2.63469,-0.3751l2.63469,-0.37509l0.37509,2.63469l0.3751,2.63469l-2.63469,0.37509l0.37509,2.63469l-2.63469,0.37509l0.37509,2.63469l-2.63469,0.3751l-2.63469,0.37509l-2.63469,0.37509l-2.63469,0.3751l-2.63469,0.37509l-2.63469,0.3751l-2.63469,0.37509l-0.37509,-2.63469l-2.63469,0.3751l-0.37509,-2.63469l-2.63469,0.37509l-2.63469,0.3751l0.37509,2.63469l-2.63469,0.37509l0.3751,2.63469l-2.63469,0.37509l0.37509,2.63469l-2.63469,0.3751l-2.63469,0.37509l-2.63469,0.37509l-2.63469,0.3751l-2.63469,0.37509l-2.63469,0.3751l-0.3751,-2.63469l-2.63469,0.37509l-0.37509,-2.63469l-2.63469,0.3751l-0.37509,-2.63469l-2.63469,0.37509l-0.37509,-2.63469l-2.63469,0.37509l-2.63469,0.37509l-2.63469,0.3751l-2.63469,0.37509l-2.63469,0.3751l-2.63469,0.37509l-0.37509,-2.63469zM110.34317,121.9148l-2.63469,0.37509l-2.63469,0.3751l-0.3751,-2.63469l2.63469,-0.37509l2.63469,-0.3751z" fill="#000000"/><path d="M133.68029,115.90425l0.3751,2.63469l-2.63469,0.3751l-0.3751,-2.63469zM136.69007,118.16385l0.37509,2.63469l-2.63469,0.37509l-0.37509,-2.63469zM136.31498,115.52916l2.63469,-0.3751l0.37509,2.63469l-2.63469,0.3751zM141.95944,117.41366l0.3751,2.63469l-2.63469,0.37509l-0.3751,-2.63469zM144.96923,119.67325l0.37509,2.63469l-2.63469,0.3751l-0.37509,-2.63469zM140.07495,123.05813l-2.63469,0.37509l-0.37509,-2.63469l2.63469,-0.3751z" fill="#ffffff"/><path d="M162.66186,111.77821l2.63469,-0.3751l0.37509,2.63469l2.63469,-0.37509l-0.37509,-2.63469l2.63469,-0.3751l0.37509,2.63469l2.63469,-0.37509l0.37509,2.63469l-2.63469,0.37509l-0.3751,-2.63469l-2.63469,0.3751l0.3751,2.63469l-2.63469,0.3751l-0.3751,-2.63469l-2.63469,0.37509z" fill="#ffffff"/></g></g><text transform="translate(73.65262,64.89783) scale(1.42707,1.42707)" font-size="40" xml:space="preserve" fill="#000000" fill-rule="nonzero" stroke="none" stroke-width="1" stroke-linecap="butt" stroke-linejoin="miter" stroke-miterlimit="10" stroke-dasharray="" stroke-dashoffset="0" font-family="Sans Serif" font-weight="normal" text-anchor="start" style="mix-blend-mode: normal"><tspan x="0" dy="0">SaxoRooster</tspan></text><text transform="translate(189.84043,231.29984) scale(0.33654,0.33477)" font-size="40" xml:space="preserve" fill="#ffe0b1" fill-rule="nonzero" stroke-opacity="0" stroke="#000000" stroke-width="0" stroke-linecap="butt" stroke-linejoin="miter" stroke-miterlimit="10" stroke-dasharray="" stroke-dashoffset="0" font-family="Sans Serif" font-weight="normal" text-anchor="start" style="mix-blend-mode: normal"><tspan x="0" dy="0">SaxoRooster needs 3 golden notes.</tspan><tspan x="0" dy="46.150000000000006px">But the black notes are very dangerous.</tspan><tspan x="0" dy="46.150000000000006px">Be careful!</tspan><tspan x="0" dy="46.150000000000006px"> </tspan><tspan x="0" dy="46.150000000000006px">To Play: Use Arrow Keys</tspan><tspan x="0" dy="46.150000000000006px">Right / Left - Move forward and backwards.</tspan><tspan x="0" dy="46.150000000000006px">Up - Jump to the next upper line.</tspan><tspan x="0" dy="46.150000000000006px">Down - fall one line down.</tspan></text></g></g></svg>