<svg version="1.1" xmlns="http://www.w3.org/2000/svg" xmlns:xlink="http://www.w3.org/1999/xlink" width="545.99605" height="116.04425" viewBox="0,0,545.99605,116.04425"><g transform="translate(22.58178,-279.88215)"><g data-paper-data="{&quot;isPaintingLayer&quot;:true}" fill="#ed1c24" fill-rule="nonzero" stroke="none" stroke-width="1" stroke-linecap="butt" stroke-linejoin="miter" stroke-miterlimit="10" stroke-dasharray="" stroke-dashoffset="0" style="mix-blend-mode: normal"><path d="M518.42045,395.22276c-24.30957,0 -48.70443,0 -73.014,0.03001c-42.64836,0 -85.21143,-0.12005 -127.8598,0.06003c-73.78167,0.33014 -147.64864,0.06003 -221.43031,0.36015c-36.76289,0.15006 -73.44048,0.12005 -110.20337,0.2401c-1.36475,0 -2.7295,0.03001 -4.00895,0c-4.69132,-0.09004 -5.2031,-0.42018 -3.41187,-1.98085c5.1178,-4.38188 9.12675,-8.88382 11.60036,-13.53581c2.81479,-5.28227 1.96182,-10.44449 -4.09424,-15.45664c-4.35013,-3.60155 -6.73844,-7.41318 -8.10319,-11.28485c-2.04712,-5.88253 2.5589,-11.04474 12.62392,-15.75677c14.75633,-6.93298 21.58007,-14.4362 12.87981,-23.01989c-0.42648,-0.42018 -1.36475,-0.84036 -0.34119,-1.38059c2.7295,0.18008 3.24128,1.11048 4.43543,1.74075c5.97077,3.21138 10.74739,6.63285 13.98866,10.32443c4.43543,5.04217 1.02356,9.66415 -5.2884,14.1961c-3.32657,2.37102 -5.03251,4.8921 -6.22666,7.4432c-2.13242,4.53195 2.98539,8.31357 12.11214,11.28485c7.16493,2.34101 15.6093,2.34101 24.73605,0.75032c12.19743,-2.13092 17.57113,-5.61241 18.67998,-10.11434c0.76767,-3.0313 -3.66776,-5.5824 -7.67671,-8.10348c-4.35013,-2.76119 -10.15031,-5.31228 -12.36803,-8.46363c-3.49717,-4.86209 1.27945,-9.18394 7.59141,-13.38575c7.16493,-4.77205 13.73277,-9.60412 12.53862,-15.24655c-0.59708,-2.97128 -3.49717,-5.73246 -6.39725,-8.46363c0.85297,-0.30013 1.45004,-0.12005 1.79123,0.06003c8.61497,4.26183 15.95049,8.70374 17.48583,14.10606c1.02356,3.45148 -1.45004,6.57282 -5.54429,9.57411c-3.24128,2.34101 -5.88547,4.77205 -7.762,7.26312c-3.49717,4.74204 1.96182,8.79378 13.64748,10.26441c11.17387,1.41061 25.58902,-1.05045 30.87742,-5.1322c3.58246,-2.76119 2.6442,-5.43233 -0.76767,-8.04345c-3.49717,-2.61112 -7.25022,-5.19223 -11.08857,-7.74333c-7.50611,-5.04217 -11.00328,-10.08433 -4.43543,-15.75677c4.94721,-4.2018 10.23561,-8.31357 16.97405,-12.21525c0.93826,-0.54023 2.30301,-0.96041 3.49717,-1.44062c-2.04712,3.57153 -5.2884,6.93298 -6.65314,10.44449c-1.87653,4.74204 -0.17059,8.88382 8.27378,12.99558c13.0504,6.24268 20.8977,13.32572 18.85058,21.33916c-0.76767,2.7912 -3.24128,5.40232 -7.25022,7.86338c-5.2031,3.24139 -9.46794,6.63285 -12.28273,10.2344c-2.98539,3.87166 -4.94721,7.80335 0,11.61499c7.42082,5.70245 26.86847,7.6833 42.22188,4.47192c15.86519,-3.33143 21.58007,-8.52366 15.43871,-14.6763c-3.15598,-3.21138 -7.42082,-6.33272 -10.91798,-9.51409c-4.52073,-4.05174 -4.09424,-8.19352 -0.85297,-12.3353c0.42648,-0.54023 0.85297,-1.14049 2.21771,-1.56067c1.87653,0.18008 1.36475,0.75032 1.53534,1.1705c0.93826,3.93169 5.37369,7.35316 13.64748,9.96428c14.92693,4.74204 17.22994,10.35445 11.00328,16.74719c-1.10886,1.11048 -2.38831,2.19094 -2.38831,3.42147c0,1.23053 1.10886,2.22095 4.26484,2.82121c3.15598,0.60026 5.62958,-0.18008 7.67671,-0.78034c5.80018,-1.74075 7.42082,-4.23182 7.59141,-6.72289c0.42648,-4.59197 -2.6442,-9.00387 -8.01789,-13.20567c-5.71488,-4.41189 -14.84163,-8.13349 -20.04473,-12.66544c-4.26484,-3.7216 -7.07963,-7.47321 -3.92365,-11.52495c2.13242,-2.76119 7.25022,-4.8921 11.68565,-7.17308c4.60602,-2.37102 7.762,-4.92211 9.89442,-7.6833c1.19415,-1.53066 -0.68237,-2.97128 -0.59708,-4.652c7.16493,3.39146 14.58574,9.93427 4.69132,14.97643c-3.24128,1.65071 -5.1178,3.57153 -6.22666,5.5824c-1.96182,3.42147 3.92365,6.18266 14.92693,7.11305c6.65314,0.57024 13.22099,-1.23053 15.95049,-4.29184c4.69132,-5.28227 0.34119,-10.11434 -5.80018,-14.88639c-6.05607,-4.68201 -11.51506,-9.48407 -10.06501,-14.79635c0.59708,-2.19094 1.02356,-4.44191 5.71488,-6.30271c0.51178,1.92082 1.36475,3.78162 2.21771,5.64242c1.79123,4.32186 7.07963,7.98343 14.84163,11.4049c14.58574,6.42276 21.49478,13.80593 19.53295,22.05947c-0.51178,2.07089 -4.52073,3.63156 -7.67671,5.28227c-6.31196,3.2714 -12.36803,6.57282 -16.20638,10.35445c-5.1178,5.07218 -5.71488,10.29442 -4.60602,15.54668c0.34119,1.80077 -0.17059,3.66157 2.21771,5.40232c1.70593,1.20052 3.41187,2.31099 7.8473,2.40103c4.86191,0.09004 7.9326,-0.84036 10.15031,-2.16093c2.21771,-1.32057 2.21771,-2.7912 1.70593,-4.29184c-0.93826,-2.94126 -5.1178,-5.5824 -5.97077,-8.58369c-1.79123,-6.27269 3.75306,-11.4049 16.80346,-15.72675c8.61497,-2.85122 15.26811,-6.18266 13.73277,-10.7146c-0.25589,-0.87037 -0.76767,-1.71073 -0.76767,-2.64113c5.54429,2.19094 8.10319,4.86209 9.04145,7.71331c1.02356,3.18137 -0.68237,6.18266 -4.94721,9.06389c-3.75306,2.49107 -7.33552,5.04217 -9.29734,7.83336c-3.41187,4.86209 1.96182,8.79378 14.84163,10.92469c15.7799,2.64113 34.37458,0.9304 42.56307,-3.99171c5.71488,-3.42147 5.2031,-6.96299 0.68237,-10.53452c-5.03251,-3.9617 -12.62392,-7.35316 -18.76528,-11.07476c-5.80018,-3.54152 -9.63853,-7.29313 -7.50611,-11.46492c2.7295,-5.28227 12.28273,-8.67372 25.67432,-11.28485c0.17059,1.20052 -1.36475,1.92082 -2.5589,2.70116c-4.52073,2.91125 -8.61497,5.88253 -8.27378,9.33401c0.25589,2.46106 3.66776,4.17179 9.89442,5.10219c6.05607,0.9304 11.51506,0.30013 16.20638,-1.23053c8.95616,-2.88124 10.66209,-7.26312 4.26484,-11.13478c-2.98539,-1.83079 -6.31196,-3.60155 -9.55323,-5.40232c-8.52967,-4.77205 -9.21205,-9.72418 -3.41187,-14.91641c3.49717,-3.12134 6.48255,-6.33272 12.11214,-9.12392c0.85297,-0.42018 1.19415,-1.02044 3.58246,-0.99043c-1.36475,2.22095 -4.09424,4.23182 -5.54429,6.36273c-3.83835,5.64242 -0.34119,10.4745 10.15031,15.00644c9.21205,3.99171 14.92693,8.64371 14.67104,13.98601c-0.0853,2.19094 -1.87653,4.17179 -4.86191,6.0626c-3.66776,2.40103 -6.73844,4.86209 -8.01789,7.59326c-1.02356,2.13092 -0.25589,4.14178 3.49717,5.88253c4.09424,1.92082 10.57679,2.64113 16.54757,2.01086c5.1178,-0.57024 9.89442,-3.00129 10.4915,-5.22224c0.59708,-2.07089 -2.13242,-3.75161 -4.43543,-5.52237c-7.07963,-5.40232 -8.35908,-10.89468 -1.19415,-16.41705c3.58246,-2.73117 9.55323,-4.83208 15.95049,-6.7529c0.76767,-0.21009 1.62064,-0.45019 3.07068,-0.06003c-3.15598,1.89081 -5.97077,3.90168 -7.8473,6.00258c-2.7295,3.00129 -4.77662,6.0626 -1.19415,9.15393c2.47361,2.13092 6.99433,3.75161 11.17387,5.40232c10.83268,4.38188 12.45332,8.34358 0.68237,14.1961c-4.69132,2.31099 -10.15031,4.38188 -14.92693,6.66286c-8.78556,4.14178 -3.75306,10.65458 9.80912,12.48536c15.18282,2.07089 37.78645,-1.02044 41.53951,-8.07347c2.98539,-5.55238 0.25589,-10.74461 -6.14136,-15.66673c-6.22666,-4.80206 -6.31196,-9.63414 -3.66776,-14.55625c2.21771,-4.11177 6.56785,-8.04345 13.0504,-11.61499c0.51178,-0.30013 1.10886,-0.60026 1.70593,-0.87037c0.17059,-0.06003 0.59708,-0.06003 1.36475,-0.12005c-1.62064,2.58111 -3.15598,5.07218 -4.69132,7.56325c-1.10886,1.74075 -1.27945,3.51151 -1.70593,5.25226c-0.85297,4.50193 4.17954,8.13349 12.11214,11.46492c3.58246,1.47063 7.16493,2.97128 10.3209,4.56196c6.31196,3.15135 7.42082,6.63285 4.69132,10.29442c-2.30301,3.18137 -6.14136,6.27269 -5.03251,9.66415c0.76767,2.37102 3.49717,4.23182 10.15031,5.28227c2.90009,0.45019 5.03251,0.27012 7.33552,-0.42018c5.97077,-1.8608 6.65314,-4.41189 7.59141,-6.93298c2.30301,-6.42276 -1.62064,-12.36531 -9.72383,-18.12778c-5.37369,-3.81164 -3.32657,-7.83336 -0.51178,-11.76505c0.25589,-0.36015 0.68237,-0.81035 2.21771,-0.87037c1.62064,0.48021 0.93826,1.20052 1.19415,1.80077c1.70593,4.11177 4.69132,7.80335 14.75633,10.62456c11.68565,3.33143 18.42409,7.77334 17.48583,13.29571c-0.42648,2.5511 -2.38831,4.92211 -7.50611,6.78291c-8.78556,3.21138 -9.89442,6.96299 -4.43543,10.62456c10.57679,7.17308 15.09752,14.97643 22.00656,22.53968c1.79123,1.95084 3.58246,3.93169 6.48255,5.73246c3.15598,1.8608 2.90009,2.04088 -2.98539,2.04088z"/></g></g></svg>