<svg version="1.1" xmlns="http://www.w3.org/2000/svg" xmlns:xlink="http://www.w3.org/1999/xlink" width="32.14544" height="57.63462" viewBox="0,0,32.14544,57.63462"><g transform="translate(-223.99763,-122.85718)"><g data-paper-data="{&quot;isPaintingLayer&quot;:true}" stroke-linecap="butt" stroke-linejoin="miter" stroke-miterlimit="10" stroke-dasharray="" stroke-dashoffset="0" style="mix-blend-mode: normal"><path d="M240.90149,161.12524c0,-0.36294 0.07258,-0.62909 0.21776,-0.89525c0.14517,-0.31455 0.43552,-0.43552 0.75007,-0.48392c0.19357,-0.0242 0.33874,0.09678 0.43552,0.24195c0.29035,0.6049 0.31455,1.40337 -0.16937,1.95988c-0.19357,0.21776 -0.43552,0.26615 -0.67748,0.12098c-0.41134,-0.21776 -0.6049,-0.53231 -0.55651,-0.94364z" fill="#fcc741" fill-rule="nonzero" stroke="none" stroke-width="1"/><path d="M242.6493,163.03567c0.1327,-0.05899 0.25064,-0.1327 0.38335,-0.17694c0.26539,-0.08846 0.39809,-0.28014 0.5013,-0.51605c0.02949,-0.07372 0.02948,-0.16219 0.08846,-0.22117c0.01474,-0.01474 0.01474,-0.01474 0.02949,-0.01474c0.10321,0 0.14745,0.07372 0.16219,0.16219c0,0.5013 -0.58977,1.00262 -1.07634,0.9289c-0.07372,-0.01474 -0.10321,-0.05899 -0.08846,-0.16219z" fill="#fefcf5" fill-rule="nonzero" stroke="none" stroke-width="1"/><path d="M241.74989,166.24991c0.1327,0.01474 0.17693,0.10321 0.22117,0.17693c0.19167,0.30963 0.36861,0.63401 0.67824,0.84044c0.05899,0.04423 0.05897,0.10321 0.01474,0.16219c-0.04423,0.04423 -0.08846,0.07372 -0.14744,0.05897c-0.04423,-0.01474 -0.08846,-0.02949 -0.11795,-0.05897c-0.32438,-0.26539 -0.5308,-0.63401 -0.69299,-1.00262c-0.01474,-0.04423 -0.01474,-0.11795 0.04423,-0.17693z" fill="#0e0b07" fill-rule="nonzero" stroke="none" stroke-width="1"/><path d="M241.16011,166.30892c0.02949,0.01474 0.05899,0.01474 0.07372,0.02949c0.02949,0.02948 0.05897,0.07372 0.07372,0.11795c0.1327,0.29489 0.29489,0.56029 0.51605,0.7962c0.02949,0.02948 0.04423,0.05899 0.05899,0.08846c0.05899,0.08846 0.05899,0.17693 0,0.22117c-0.07372,0.04423 -0.16219,0.02948 -0.22117,-0.04423c-0.23591,-0.28014 -0.44233,-0.57503 -0.57503,-0.92889c-0.02949,-0.07372 -0.04423,-0.16219 0.01474,-0.23591c0,-0.01474 0.02949,-0.02949 0.05899,-0.04423z" fill="#100e08" fill-rule="nonzero" stroke="none" stroke-width="1"/><path d="M238.91899,166.01402c0.01474,-0.02949 0.01474,-0.05897 0.02949,-0.08846c0.01474,-0.05899 0.11795,-0.07372 0.14744,-0.01474c0.02949,0.04423 0.05897,0.07372 0.07372,0.11795c0.11795,0.35386 0.23591,0.70773 0.41284,1.04685c0.01474,0.02948 0.02949,0.07372 0.01474,0.10321c0,0.02949 -0.02949,0.07372 -0.05899,0.08846c-0.02949,0.01474 -0.07372,0.01474 -0.10321,0c-0.07372,-0.02949 -0.1327,-0.10321 -0.16219,-0.17694c-0.14745,-0.30963 -0.28015,-0.64875 -0.33912,-0.98787c0,-0.02949 0,-0.05899 -0.01474,-0.08846z" fill="#0b0a06" fill-rule="nonzero" stroke="none" stroke-width="1"/><path d="M240.21648,167.42948c-0.1327,-0.04423 -0.17693,-0.14745 -0.23591,-0.23591c-0.14745,-0.25066 -0.25066,-0.5013 -0.35386,-0.7667c-0.04423,-0.11795 -0.04423,-0.23591 0.07372,-0.30963c0.05899,0 0.08846,0.01474 0.10321,0.07372c0.1327,0.32438 0.26539,0.64875 0.44233,0.95838c0.05899,0.07372 0.10321,0.17694 -0.02948,0.28015z" fill="#141109" fill-rule="nonzero" stroke="none" stroke-width="1"/><path d="M240.40815,166.39738c0.07372,-0.01474 0.11795,0 0.14744,0.05899c0.04423,0.07372 0.08846,0.16219 0.11795,0.25066c0.08846,0.20642 0.17693,0.39809 0.32438,0.57503c0.02949,0.02949 0.05899,0.07372 0.07372,0.11795c0.02949,0.05899 0.01474,0.11795 -0.04423,0.16219c-0.04423,0.02948 -0.08846,0.02948 -0.1327,0c-0.02949,-0.01474 -0.05897,-0.04423 -0.07372,-0.07372c-0.20642,-0.25066 -0.33912,-0.5308 -0.44233,-0.82568c-0.04423,-0.08846 -0.04423,-0.19167 0.02949,-0.26539z" fill="#100d08" fill-rule="nonzero" stroke="none" stroke-width="1"/><path d="M238.6978,166.76598c-0.11795,-0.02949 -0.14744,-0.10321 -0.19167,-0.17694c-0.11795,-0.23591 -0.19167,-0.5013 -0.25066,-0.7667c-0.02949,-0.11795 -0.01474,-0.23591 0.08846,-0.32438c0.04423,0 0.10321,0.01474 0.10321,0.07372c0.05899,0.32438 0.16219,0.63401 0.29489,0.94364c0.04423,0.08846 0.07372,0.17694 -0.04423,0.25066z" fill="#15120a" fill-rule="nonzero" stroke="none" stroke-width="1"/><path d="M243.34228,167.16408c0.01474,0.04423 -0.04423,0.11795 -0.10321,0.11795c-0.07372,0 -0.1327,-0.02948 -0.19167,-0.07372c-0.23591,-0.17693 -0.41284,-0.41284 -0.54555,-0.67824c-0.01474,-0.04423 -0.02949,-0.08846 -0.02949,-0.1327c0,-0.02949 0.02949,-0.05897 0.05899,-0.07372c0.01474,-0.01474 0.04423,0 0.05897,0.01474c0.04423,0.04423 0.07372,0.08846 0.11795,0.1327c0.17694,0.20642 0.30963,0.44233 0.56029,0.57503c0.04423,0.02949 0.07372,0.07372 0.07372,0.11795z" fill="#120f09" fill-rule="nonzero" stroke="none" stroke-width="1"/><path d="M244.65453,166.91341c-0.05899,0.01474 -0.11795,-0.01474 -0.16219,-0.04423c-0.20642,-0.14745 -0.36861,-0.32438 -0.5308,-0.5013c-0.01474,-0.01474 -0.01474,-0.01474 -0.01474,-0.02949c-0.02949,-0.05899 -0.01474,-0.11795 0.02948,-0.16219c0.04423,-0.02948 0.08846,-0.02948 0.1327,0c0.20642,0.16219 0.39809,0.33912 0.56029,0.5308c0.05899,0.05899 0.05897,0.14745 -0.01474,0.20642z" fill="#16130a" fill-rule="nonzero" stroke="none" stroke-width="1"/><path d="M243.15061,166.36789c0.05899,-0.07372 0.11795,-0.08846 0.17694,-0.05899c0.25066,0.16219 0.45708,0.36861 0.6635,0.57503c0.04423,0.04423 0.04423,0.10321 -0.01474,0.16219c-0.04423,0.04423 -0.10321,0.04423 -0.16219,0.01474c-0.16219,-0.07372 -0.5308,-0.47181 -0.6635,-0.69299z" fill="#0d0b07" fill-rule="nonzero" stroke="none" stroke-width="1"/><path d="M244.62504,166.02874c0.05899,-0.07372 0.10321,-0.07372 0.16219,-0.04423c0.14745,0.10321 0.26539,0.22117 0.36861,0.36861c0.02949,0.04423 0.02949,0.08846 0,0.1327c-0.02949,0.04423 -0.08846,0.05897 -0.1327,0.02948c-0.17694,-0.11795 -0.35386,-0.26539 -0.39809,-0.48656z" fill="#201b0f" fill-rule="nonzero" stroke="none" stroke-width="1"/><path d="M237.97534,166.08775c-0.19167,-0.05899 -0.22117,-0.19167 -0.2654,-0.30963c-0.04423,-0.11795 -0.05897,-0.25066 0.01474,-0.36861c0.02949,0 0.05897,-0.01474 0.07372,0c0.1327,0.19167 0.19167,0.41284 0.17694,0.67824z" fill="#1d180e" fill-rule="nonzero" stroke="none" stroke-width="1"/><path d="M245.12635,165.79286c0.11795,-0.10321 0.20642,-0.08846 0.30963,-0.01474c0.08846,0.07372 0.19167,0.11795 0.19167,0.26539c0,0.01474 0,0.02949 0,0.02949c0,0.05899 -0.07372,0.10321 -0.11795,0.07372c-0.14745,-0.08846 -0.30963,-0.16219 -0.38335,-0.35386z" fill="#17130b" fill-rule="nonzero" stroke="none" stroke-width="1"/><path d="M245.96678,165.61592c0,0.05899 -0.07372,0.11795 -0.14744,0.08846c-0.08846,-0.04423 -0.16219,-0.08846 -0.20642,-0.17693c-0.02949,-0.05899 -0.02949,-0.11795 0.01474,-0.16219c0.04423,-0.04423 0.10321,-0.04423 0.16219,-0.01474c0.08846,0.05899 0.16218,0.1327 0.17693,0.26539z" fill="#382e16" fill-rule="nonzero" stroke="none" stroke-width="1"/><path d="M241.6251,155.67198c-0.02262,-0.40491 -0.04526,-0.79143 -0.04526,-1.17794c-0.13578,-0.18405 -0.40734,-0.25768 -0.52049,-0.46014c-0.24892,-0.47855 -0.29418,-0.95708 0.04526,-1.39881c0.24892,-0.3313 0.36208,-0.64419 0.31682,-1.0307c-0.04526,-0.29449 -0.04526,-0.58897 -0.04526,-0.88347c-0.15842,-0.14723 -0.31682,-0.25768 -0.42997,-0.40491c-0.40734,-0.55216 -0.42997,-1.12272 -0.02263,-1.67489c0.18103,-0.23927 0.2263,-0.44173 0.20366,-0.6994c-0.04526,-0.29449 -0.06789,-0.58897 -0.09052,-0.86506c-0.04526,-0.0368 -0.04526,-0.07362 -0.06789,-0.09202c-0.67889,-0.46014 -0.70152,-1.08592 -0.3847,-1.67489c0.13578,-0.27608 0.2263,-0.51535 0.15842,-0.80984c-0.02262,-0.12884 -0.02262,-0.25768 -0.02262,-0.38652c-0.02262,-0.29449 -0.11315,-0.55216 -0.36208,-0.79143c-0.47522,-0.44173 -0.47522,-0.97549 -0.13578,-1.47243c0.13578,-0.20246 0.20366,-0.38652 0.1584,-0.62579c-0.06789,-0.36811 -0.09052,-0.73622 -0.13578,-1.12272c-0.49786,-0.23927 -0.76941,-0.60738 -0.79204,-1.06751c-0.02262,-0.47855 0.09052,-0.79143 0.52049,-1.14114c-0.02262,-0.38652 -0.04526,-0.80984 -0.09052,-1.19636c-0.06789,-0.0368 -0.11315,-0.07362 -0.13578,-0.11044c-0.63363,-0.42332 -0.76941,-1.06751 -0.29418,-1.60127c0.20366,-0.22087 0.29418,-0.42333 0.27155,-0.68099c-0.02262,-0.12884 0,-0.25768 0.02263,-0.40492c0.02262,-0.22087 -0.04526,-0.40491 -0.20366,-0.60738c-0.42997,-0.51535 -0.29418,-1.14114 0.29418,-1.54605c0.20366,-0.14723 0.31682,-0.29449 0.3847,-0.49694c0.20366,-0.6626 0.49786,-1.28838 0.92782,-1.87736c0.2263,-0.31289 0.52049,-0.60737 0.8373,-0.86505c0.58837,-0.49694 1.31253,-0.6994 2.1272,-0.73622c0.88256,-0.0368 1.62934,0.22086 2.35349,0.55216c0.611,0.27608 1.15412,0.60738 1.6746,0.97549c0.20366,0.14723 0.4526,0.25768 0.67889,0.34971c0.18103,0.07362 0.3847,0.16565 0.58837,-0.01841c0.06789,-0.05521 0.20366,-0.0368 0.31682,-0.0368c0.4526,0 0.90519,0 1.35777,0c0.20366,0 0.3847,0 0.56574,0.12884c0.09052,0.07362 0.24892,0.05521 0.36208,0.05521c0.79204,0 1.58408,0.01841 2.37613,0.01841c0.49786,0 1.01834,0.01841 1.51618,0.07362c0.09052,0.01841 0.18103,0.01841 0.2263,0.09202c0.04526,0.09203 -0.04526,0.12884 -0.09052,0.20246c-0.2263,0.29449 -0.49786,0.55216 -0.79204,0.79143c-0.2263,0.18405 -0.47522,0.36811 -0.65626,0.58897c-0.1584,0.18405 -0.40734,0.27608 -0.67889,0.34971c-0.3847,0.09203 -0.76941,0.11044 -1.17674,0.11044c-0.36208,0 -0.72415,0 -1.06359,0c-0.15842,0.05521 -0.18103,0.20246 -0.29418,0.27608c-0.13578,0.11044 -0.27155,0.18405 -0.47522,0.11044c-0.11315,-0.0368 -0.24892,0 -0.36208,0c-0.31682,0.01841 -0.611,0.0368 -0.92782,0.0368c-0.2263,0 -0.47522,-0.01841 -0.65626,-0.14723c-0.06789,-0.0368 -0.15842,-0.07362 -0.24892,-0.09202c-0.92782,-0.14724 -1.78774,-0.46014 -2.62505,-0.79143c-0.09052,-0.0368 -0.20366,-0.07362 -0.29418,-0.11044c-0.27155,-0.11043 -0.56574,-0.11043 -0.8373,-0.12884c-0.29418,-0.01841 -0.52049,0.09203 -0.63363,0.31289c-0.15842,0.31289 -0.31682,0.62579 -0.33945,0.97549c-0.04526,0.97549 0,1.96937 0.09052,2.94486c0.11315,1.26998 0.36208,2.50313 0.56574,3.77311c0.11315,0.64419 0.24892,1.26997 0.36208,1.91416c0.15842,0.86505 0.33945,1.74851 0.52049,2.61357c0.13578,0.68099 0.27155,1.362 0.40734,2.043c0.13578,0.75462 0.24892,1.50925 0.3847,2.26386c0.11315,0.6994 0.2263,1.39881 0.36208,2.09821c0.13578,0.73622 0.24892,1.49083 0.3847,2.22705c0.13578,0.73622 0.27155,1.45404 0.36208,2.19024c0.09052,0.68099 0.31682,1.362 0.42997,2.043c0.15842,1.06751 0.31682,2.13503 0.3847,3.20253c0.04526,0.55216 0.06789,1.12272 0.13577,1.67489c0.09052,0.93868 0,1.87736 -0.13577,2.81603c0,0.0368 0,0.05521 -0.02263,0.09202c-0.24892,0.60738 -0.36208,1.25157 -0.65626,1.85895c-0.40734,0.80984 -1.01834,1.50925 -1.81037,2.11662c-0.58837,0.46014 -1.26727,0.77303 -2.01405,1.01229c-0.31682,0.09202 -0.611,0.23927 -0.95046,0.3313c-0.33945,0.09203 -0.70152,0.16564 -1.04097,0.23927c-0.33945,0.07362 -0.70152,0.11044 -1.06359,0.18405c-0.72415,0.12884 -1.4483,0.09202 -2.17245,0.09202c-1.47093,-0.01841 -2.85133,-0.36811 -4.14124,-0.90187c-0.18103,-0.07362 -0.36208,-0.20246 -0.52049,-0.31289c-0.76941,-0.53376 -1.33516,-1.19636 -1.74249,-1.95098c-0.3847,-0.71781 -0.67889,-1.45404 -0.85993,-2.22706c-0.18103,-0.71781 -0.31682,-1.45404 -0.40734,-2.17183c-0.09052,-0.97549 -0.20366,-1.96937 -0.40734,-2.92647c-0.11315,-0.57056 -0.29418,-1.12272 -0.49786,-1.67489c-0.15842,-0.47855 -0.49786,-0.88346 -0.85994,-1.26997c-0.49786,-0.07362 -0.97309,-0.12884 -1.42567,-0.3313c-0.85994,-0.36812 -1.33514,-0.95708 -1.51618,-1.7301c-0.13578,-0.57056 0.02263,-1.06751 0.31682,-1.58286c0.24892,-0.44173 0.611,-0.82825 0.95046,-1.23316c0.67889,-0.77303 1.44829,-1.45402 2.42138,-2.00619c1.06359,-0.60737 2.14981,-1.17795 3.37182,-1.60127c0.85994,-0.29449 1.74249,-0.51535 2.64768,-0.62579c1.08623,-0.12884 2.17245,-0.07362 3.21342,0.22087c0.15842,0.0368 0.29418,0.09203 0.40734,0.18405c0.4526,0.40491 0.8373,0.84665 0.95044,1.41722c0.06789,0.38652 0.06789,0.75462 -0.11315,1.12272c-0.18103,0.3313 -0.15842,0.681 -0.11315,1.0307c0.11315,0.77303 0.18103,1.54605 0.13578,2.33749c-0.04526,0.75462 -0.02263,1.52766 -0.0679,2.28227c-0.02262,0.62578 -0.09052,1.25157 -0.11315,1.89575c-0.02262,0.55216 -0.04526,1.12272 -0.06789,1.67489c0,0.20246 -0.04526,0.40491 -0.06789,0.60737c-0.09052,0.60737 -0.09052,1.19636 0.22629,1.78532c0.13578,0.23927 0.27155,0.27608 0.54312,0.12884c0.2263,-0.11043 0.29418,-0.29449 0.3847,-0.46012c-0.02262,-0.12884 -0.13578,-0.20246 -0.2263,-0.29449c-0.4526,-0.51535 -0.47522,-1.04911 -0.15842,-1.61968c0.13578,-0.22087 0.29418,-0.42332 0.52049,-0.55216c0.15842,-0.11044 0.20366,-0.22087 0.2263,-0.36811c0.04526,-0.29449 0.06789,-0.58897 0.06789,-0.90187c-0.27155,-0.22087 -0.54312,-0.46014 -0.611,-0.79143c-0.04526,-0.31289 -0.11315,-0.60738 0,-0.92028c0.09052,-0.27608 0.36208,-0.51535 0.65626,-0.73622zM248.59505,131.04554c-0.06789,-0.0368 -0.11315,-0.09203 -0.06789,-0.14723c0.04526,-0.05521 0.11315,-0.07362 0.18103,-0.07362c0.2263,0 0.42997,0.12884 0.70152,0.09202c0.11315,-0.25768 0,-0.49694 -0.09052,-0.73622c-0.76941,-0.11043 -1.38041,-0.44173 -1.94616,-0.82825c-0.20366,-0.14724 -0.40734,-0.27608 -0.63362,-0.40492c-0.88256,-0.47855 -1.78774,-0.80984 -2.87397,-0.77303c-0.40734,0.01841 -0.74678,0.09202 -1.0636,0.27608c-0.18103,0.09202 -0.33945,0.22087 -0.49786,0.3313c-0.65626,0.51535 -1.01834,1.15954 -1.35779,1.82214c-0.15842,0.31289 -0.27155,0.62579 -0.29418,0.95708c0.611,0.34971 0.79204,0.68099 0.70152,1.25157c-0.09052,0.53376 -0.52049,0.77303 -1.10886,0.86506c-0.02262,0.29449 -0.04526,0.58897 -0.02263,0.90187c0.54312,0.20246 0.95046,0.49694 0.97309,1.01229c0,0.47855 -0.18103,0.90187 -0.76941,1.10432c0,0.36811 0,0.71781 0.0679,1.04911c0.4526,0.23927 0.88256,0.46014 0.95044,0.92028c0.09052,0.57056 -0.13578,1.06751 -0.67889,1.45404c0,0.40492 0.06789,0.79143 0.15842,1.17795c0.79204,0.18405 1.13149,0.57056 1.08622,1.19636c0,0.11044 -0.02263,0.23927 -0.02263,0.34971c-0.02262,0.27608 -0.20366,0.49694 -0.47522,0.6626c-0.09052,0.05521 -0.24892,0.07362 -0.31682,0.20246c0,0.34971 0.02263,0.6994 0.13578,1.04911c0.13578,0.09203 0.29418,0.09203 0.42997,0.12884c0.40734,0.09202 0.70152,0.27608 0.88256,0.60737c0.15842,0.27608 0.15842,0.55216 0.06789,0.80984c-0.13578,0.40491 -0.3847,0.73622 -0.97307,0.79143c-0.04526,0 -0.09052,0.0368 -0.13578,0.07362c0.02262,0.34971 0.02262,0.69941 0.11315,1.0307c0.88256,0.25768 1.31253,0.6626 1.33516,1.19636c0.02262,0.6994 -0.29418,1.06751 -1.17674,1.362c0.02262,0.34971 0.04526,0.6994 0.09052,1.04911c0,0.09202 -0.02262,0.18405 0.04526,0.25768c0.09052,0.07362 0.20366,0.05521 0.29418,0.07362c0.70152,0.16565 1.2899,0.77303 1.08623,1.52764c-0.13578,0.55216 -0.49786,0.79143 -1.22201,0.80984c-0.04526,0.36812 -0.02262,0.71781 0,1.08592c0.2263,0.11043 0.47522,0.11044 0.65626,0.22087c0.74678,0.44173 0.95044,1.56446 0.22629,2.20865c-0.15842,0.14723 -0.33945,0.27608 -0.58837,0.27608c-0.11315,0 -0.20366,0.0368 -0.31682,0.05521c-0.13578,0.31289 -0.11315,0.62579 -0.11315,0.93868c0.33945,-0.05521 0.611,0.0368 0.8373,0.23927c0.11315,0.11044 0.20366,0.23927 0.27155,0.36812c0.33945,0.68099 0.15842,1.28838 -0.40734,1.85895c-0.2263,0.22087 -0.52049,0.36812 -0.90519,0.27608c-0.04526,-0.01841 -0.11315,0 -0.15842,0.01841c-0.18103,0.3313 -0.3847,0.53376 -0.58837,0.6626c-0.3847,0.22087 -0.85993,0.20246 -1.19938,-0.05521c-0.13578,-0.11043 -0.2263,-0.25768 -0.27155,-0.42332c-0.13578,-0.42333 -0.13578,-0.84665 -0.11315,-1.26998c0.02262,-0.95708 0.09052,-1.91416 0.13578,-2.87124c0.06789,-1.0307 0.2263,-2.04301 0.20366,-3.07371c-0.02262,-0.82825 0,-1.65648 -0.02263,-2.46632c0,-0.23927 -0.04526,-0.47853 -0.18103,-0.80984c-0.06789,0.11043 -0.11315,0.16565 -0.15842,0.20246c-0.09052,0.11044 -0.20366,0.20246 -0.33945,0.27608c-0.06789,0.0368 -0.13578,0.0368 -0.20366,0.01841c-0.09052,-0.0368 -0.11315,-0.12884 -0.06789,-0.20246c0.02262,-0.07362 0.09052,-0.12884 0.13578,-0.18405c0.11315,-0.14724 0.24892,-0.29449 0.36208,-0.44173c0.3847,-0.55216 0.67889,-1.14114 0.58837,-1.80373c0,-0.0368 0.02262,-0.12884 -0.09052,-0.12884c-0.11315,0.0368 -0.09052,0.11044 -0.11315,0.18405c-0.11315,0.49694 -0.33945,0.95708 -0.70152,1.362c-0.3847,0.42332 -0.79204,0.82825 -1.24464,1.23316c-1.01834,0.92028 -2.21771,1.65648 -3.55286,2.20865c-0.58837,0.23927 -1.17674,0.46014 -1.76513,0.68099c-0.74678,0.27608 -1.51619,0.49694 -2.30823,0.60738c-0.33945,0.05521 -0.67889,0.09203 -1.01834,0.11043c-0.18103,0.01841 -0.36207,0.01841 -0.54312,-0.01841c-0.49786,-0.09203 -0.9957,-0.12884 -1.4483,-0.34971c-0.04526,-0.01841 -0.11315,-0.07362 -0.18103,-0.01841c0.49786,0.55216 1.19938,0.77303 2.01405,0.82825c0.40734,0.01841 0.8373,0.01841 1.24464,-0.01841c0.15842,-0.01841 0.31682,-0.0368 0.47522,0.07362c-0.18103,0.36811 -0.611,0.31289 -0.95044,0.42333c0,0.11043 0.09052,0.16564 0.13577,0.23927c0.31682,0.42332 0.52049,0.86506 0.6789,1.3436c0.36208,1.0307 0.52049,2.09821 0.65626,3.16573c0.09052,0.88346 0.20366,1.74851 0.3847,2.63197c0.09052,0.49694 0.24892,0.97549 0.3847,1.45404c0.27155,0.90187 0.8373,1.6933 1.49356,2.42951c0.40734,0.44173 0.90519,0.80984 1.53881,1.01229c0.49786,0.16565 1.01834,0.31289 1.51619,0.47855c0.20366,0.05521 0.40734,0.09202 0.63363,0.12884c0.70152,0.09203 1.40304,0.09203 2.10457,0.09203c0.58837,0 1.17674,-0.07362 1.76511,-0.16565c0.90519,-0.14723 1.78774,-0.38652 2.60241,-0.6994c1.17675,-0.46014 2.17246,-1.06751 2.78345,-2.0246c0.36208,-0.57056 0.72415,-1.15954 0.88256,-1.78532c0.09052,-0.38652 0.18103,-0.77303 0.27155,-1.15954c0.27155,-1.28838 0.20366,-2.57676 0.11315,-3.86514c-0.04526,-0.73622 -0.1584,-1.45402 -0.24892,-2.19024c-0.13578,-0.95708 -0.33945,-1.91416 -0.52049,-2.87124c-0.15842,-0.75462 -0.31682,-1.50925 -0.45259,-2.26386c-0.11315,-0.6626 -0.20366,-1.30679 -0.31682,-1.96937c-0.13578,-0.86506 -0.31682,-1.7117 -0.42997,-2.57676c-0.15842,-1.06751 -0.36208,-2.11662 -0.56574,-3.18412c-0.06789,-0.34971 -0.15842,-0.6994 -0.2263,-1.04911c-0.27155,-1.45404 -0.56574,-2.90806 -0.8373,-4.36208c-0.18103,-1.01229 -0.36208,-2.0246 -0.49786,-3.0553c-0.04526,-0.40491 -0.06789,-0.82825 -0.11315,-1.23316c-0.13578,-0.90187 -0.11315,-1.82214 -0.09052,-2.724c0.02262,-0.57056 0.24892,-1.10432 0.70152,-1.54605c0.13578,-0.14723 0.31682,-0.22086 0.54312,-0.23927c0.67889,-0.07362 1.2899,0.07362 1.87826,0.3313c0.58837,0.23927 1.17674,0.42332 1.81037,0.58897c0.27155,0.07362 0.52049,0.11043 0.81467,0.0368c-0.11315,-0.09202 -0.24892,-0.12884 -0.3847,-0.14723c-0.20366,-0.0368 -0.3847,-0.07362 -0.56574,-0.14724c-0.18103,-0.05521 -0.36208,-0.14723 -0.40734,-0.29449c0.04526,-0.09203 0.11315,-0.11044 0.18103,-0.09203c0.13578,0.0368 0.27155,0.07362 0.40734,0.09203c0.24892,0.12884 0.56575,0.16564 0.8373,0.23927c0.06789,0.01841 0.13577,-0.0368 0.11315,-0.14723c-0.27155,-0.01841 -0.49786,-0.12884 -0.74678,-0.18405zM238.90953,150.40803c-0.31682,-0.12884 -0.611,-0.22086 -0.95044,-0.20246c-0.09052,0 -0.18103,0 -0.27155,0c-0.06789,0 -0.13578,-0.0368 -0.15842,-0.11044c-0.02262,-0.05521 0.02263,-0.11043 0.09052,-0.14723c0.09052,-0.05521 0.20366,-0.07362 0.29418,-0.07362c0.3847,-0.01841 0.74678,0.07362 1.10886,0.20246c0.02262,0.01841 0.0679,0 0.11315,0c0.02262,-0.0368 0.04526,-0.07362 0.04526,-0.12884c0,-0.05521 0.06789,-0.11044 -0.02262,-0.18405c-0.18103,-0.07362 -0.42997,-0.14724 -0.67889,-0.18405c-0.3847,-0.05521 -0.74678,-0.07362 -1.13149,-0.07362c-0.13578,0 -0.24892,-0.01841 -0.29418,-0.12884c0.02262,-0.07362 0.09052,-0.12884 0.18103,-0.14723c0.33945,-0.07362 0.67889,-0.07362 1.01834,-0.01841c0.29418,0.0368 0.58837,0.09203 0.88256,0.12884c0.09052,-0.07362 0.13577,-0.14723 0.04526,-0.20246c-0.04526,-0.0368 -0.11315,-0.05521 -0.18103,-0.07362c-0.67889,-0.20246 -1.35779,-0.3313 -2.05931,-0.20246c-0.11315,0.01841 -0.24892,0.07362 -0.33945,-0.0368c-0.02262,-0.07362 0.02262,-0.11043 0.06789,-0.16564c0.11315,-0.12884 0.29418,-0.14723 0.47522,-0.16565c0.54312,-0.05521 1.08623,-0.01841 1.60671,0.11043c0.13578,0.0368 0.24892,0.12884 0.3847,0.07362c0.04526,-0.07362 0,-0.12884 -0.04526,-0.16565c-0.20366,-0.22087 -0.47522,-0.3313 -0.76941,-0.36811c-0.36208,-0.05521 -0.70152,-0.11044 -1.0636,-0.12884c-1.4483,-0.07362 -2.78345,0.27608 -4.09597,0.71781c-0.85994,0.29449 -1.65197,0.71781 -2.44401,1.12273c-0.74678,0.38652 -1.4483,0.82825 -2.03668,1.38041c-0.36208,0.3313 -0.72415,0.6994 -1.06359,1.06751c-0.31682,0.3497 -0.611,0.73622 -0.8373,1.12272c-0.18103,0.3313 -0.24892,0.681 -0.18103,1.0307c0.04526,0.25768 0.11315,0.31289 0.40734,0.42333c0,-0.05521 0,-0.11044 0,-0.18405c-0.09052,-0.64419 0.18103,-1.21475 0.611,-1.74851c0.11315,-0.12884 0.2263,-0.25768 0.40734,-0.3313c0.02262,-0.01841 0.09052,-0.01841 0.09052,0c0.04526,0.0368 0.06789,0.07362 0.06789,0.11043c0,0.05521 -0.04526,0.11044 -0.06789,0.16565c-0.13578,0.20246 -0.24892,0.38652 -0.3847,0.58897c-0.31682,0.49694 -0.3847,1.0307 -0.24892,1.58286c0.04526,0.14723 0.13577,0.23927 0.31682,0.22086c0.02262,-0.0368 0.04526,-0.05521 0.04526,-0.07362c-0.15842,-0.53376 0.04526,-1.01229 0.31682,-1.49084c0.06789,-0.12884 0.15842,-0.22087 0.31682,-0.27608c0.06789,-0.01841 0.13578,-0.0368 0.20366,0.03682c0.04526,0.11043 -0.06789,0.22087 -0.11315,0.31289c-0.13578,0.25768 -0.24892,0.51535 -0.31682,0.79143c-0.06789,0.27608 -0.06789,0.55216 0.13577,0.80984c0.11315,0.0368 0.2263,0.05521 0.31682,-0.0368c-0.02262,-0.05521 -0.04526,-0.09202 -0.04526,-0.16565c-0.02262,-0.36812 0.04526,-0.6994 0.31682,-0.9939c0.06789,-0.05521 0.13577,-0.11043 0.22629,-0.09203c0.11315,0.0368 0.09052,0.11044 0.06789,0.18405c-0.04526,0.12884 -0.11315,0.25768 -0.13577,0.36811c-0.06789,0.23927 -0.09052,0.49694 0,0.71781c0.13578,0.0368 0.27155,0.07362 0.36208,-0.0368c-0.09052,-0.57056 -0.06789,-0.64419 0.40734,-0.82825c-0.02262,0.29449 -0.13578,0.57056 -0.04526,0.82825c0.24892,0.05521 0.4526,-0.09202 0.67889,-0.09202c0.49786,0 0.95044,-0.14723 1.40304,-0.31289c0.79204,-0.31289 1.58408,-0.62579 2.37613,-0.95708c0.3847,-0.16565 0.74678,-0.36812 1.08622,-0.58897c0.31682,-0.22087 0.65626,-0.42332 0.97307,-0.64419c0.20366,-0.14723 0.40734,-0.29449 0.611,-0.44173c0.42997,-0.36811 0.85993,-0.75462 1.2899,-1.12272c0.09052,-0.09202 0.2263,-0.14723 0.24892,-0.27608c-0.02262,-0.07362 -0.11315,-0.09202 -0.15842,-0.11044c-0.11315,-0.0368 -0.24892,-0.0368 -0.36208,-0.07362c-0.09052,-0.01841 -0.11315,-0.07362 -0.11315,-0.12884c0,-0.0368 0.04526,-0.07362 0.09052,-0.09202c0.06789,-0.01841 0.13578,-0.03682 0.20366,-0.03682c0.2263,-0.0368 0.40734,0.09203 0.56574,0.16565c0.09052,-0.05521 0.11315,-0.11044 0.15842,-0.22087zM240.99147,160.80709c-0.04526,0.29449 0.13578,0.55216 0.49786,0.71781c0.2263,0.11043 0.4526,0.07362 0.63363,-0.09203c0.4526,-0.42332 0.42997,-1.0307 0.15842,-1.49084c-0.06789,-0.12884 -0.20366,-0.20246 -0.40734,-0.18405c-0.29418,0.0368 -0.56574,0.12884 -0.70152,0.36812c-0.09052,0.20246 -0.18103,0.40492 -0.18103,0.681zM242.71133,156.96033c0,-0.20246 -0.09052,-0.40492 -0.2263,-0.58897c-0.2263,-0.3313 -0.63363,-0.34971 -0.88256,-0.01841c-0.04526,0.05521 -0.06789,0.12884 -0.11315,0.20246c-0.09052,0.25768 -0.09052,0.51535 -0.04526,0.79143c0.06789,0.29449 0.33945,0.49694 0.70152,0.53376c0.13578,0.01841 0.24892,-0.01841 0.31682,-0.12884c0.15842,-0.23927 0.18103,-0.49694 0.24892,-0.79143zM251.06169,132.00262c0.31682,-0.51535 0.33945,-1.0307 0.29418,-1.54605c-0.04526,-0.44173 -0.13578,-0.49694 -0.67889,-0.49694c-0.06789,0 -0.13577,0 -0.18103,0.07362c0.20366,0.6626 0.11315,1.30679 -0.1584,1.95098c0.2263,0.07362 0.4526,0 0.72415,0.01841zM242.62081,153.42652c0.02262,-0.25768 -0.06789,-0.46014 -0.27155,-0.64419c-0.2263,-0.22087 -0.56574,-0.18405 -0.79204,0c-0.36208,0.31289 -0.29418,0.95708 0.13578,1.21475c0.27155,0.16565 0.63363,0.11043 0.79204,-0.12884c0.11315,-0.12884 0.1584,-0.27608 0.13578,-0.44173zM241.10462,149.46936c0,0.07362 0,0.14723 0,0.20246c0.02262,0.31289 0.22629,0.51535 0.58837,0.60737c0.2263,0.07362 0.42997,-0.01841 0.49786,-0.22086c0.04526,-0.11044 0.06789,-0.22087 0.06789,-0.34971c0,-0.29449 -0.02263,-0.58897 -0.2263,-0.84665c-0.11315,-0.14723 -0.27155,-0.18405 -0.4526,-0.11044c-0.11315,0.0368 -0.20366,0.11043 -0.29418,0.20246c-0.13578,0.16565 -0.20366,0.34971 -0.18103,0.51535zM241.71562,146.69015c0.15842,-0.25768 0.18103,-0.53376 0.2263,-0.80984c0.02262,-0.09203 -0.02263,-0.16564 -0.04526,-0.25768c-0.04526,-0.16565 -0.27155,-0.3313 -0.49786,-0.3313c-0.18103,0 -0.33945,0.07362 -0.42997,0.20246c-0.04526,0.09203 -0.11315,0.18405 -0.15842,0.27608c-0.06789,0.23927 -0.04526,0.46014 0.15842,0.6626c0.18103,0.16565 0.3847,0.3313 0.74678,0.25768zM240.19942,138.20523c-0.49786,0.29449 -0.40734,0.71781 -0.33945,1.12273c0.02262,0.16565 0.18103,0.3313 0.40734,0.36812c0.18103,0.0368 0.4526,-0.18405 0.52049,-0.38652c0.02262,-0.07362 0.02262,-0.14723 0.04526,-0.22087c0,-0.11044 -0.02262,-0.20246 -0.02262,-0.31289c-0.02262,-0.31289 -0.20366,-0.51535 -0.611,-0.57056zM240.94621,141.75749c-0.29418,0.0368 -0.4526,0.18405 -0.54312,0.36811c-0.11315,0.20246 -0.09052,0.44173 0,0.64419c0.06789,0.16565 0.15842,0.3313 0.33945,0.44173c0.2263,0.12884 0.40734,0.09203 0.52049,-0.11043c0.02262,-0.0368 0.04526,-0.07362 0.04526,-0.12884c0.04526,-0.44173 0.02262,-0.84665 -0.36208,-1.21475zM240.1768,135.09473c-0.31682,0 -0.49786,0.14723 -0.611,0.36812c-0.11315,0.23927 -0.02263,0.46012 0.11315,0.66259c0.09052,0.12884 0.29418,0.14723 0.47522,0.12884c0.18103,-0.01841 0.2263,-0.12884 0.27155,-0.23927c0.13578,-0.34971 0.06789,-0.66259 -0.24892,-0.92026zM240.53887,132.59159c0,-0.14723 -0.04526,-0.31289 -0.13578,-0.46014c-0.11315,-0.18405 -0.31682,-0.22087 -0.47522,-0.07362c-0.24892,0.23927 -0.33945,0.51535 -0.24892,0.80984c0.02262,0.07362 0.09052,0.16565 0.15842,0.23927c0.13578,0.14723 0.36208,0.12884 0.49786,-0.01841c0.13578,-0.12884 0.2263,-0.29449 0.20366,-0.49694zM249.83969,129.99642c0.02262,0.22087 0.02263,0.46014 0.04526,0.681c0.02262,0.25768 -0.06789,0.49694 -0.11315,0.73622c-0.04526,0.22087 -0.29418,0.38652 -0.27155,0.64419c0.29418,-0.01841 0.33945,-0.20246 0.40734,-0.34971c0.33945,-0.58897 0.33945,-1.23316 -0.06789,-1.71171z" fill="#010001" fill-rule="nonzero" stroke="none" stroke-width="1"/><path d="M248.40362,131.16796c-0.13578,-0.0368 -0.27155,-0.07362 -0.40734,-0.09202c-0.06789,-0.01841 -0.13577,0 -0.18103,0.09202c0.06789,0.14724 0.2263,0.23927 0.40734,0.29449c0.18103,0.05521 0.3847,0.11043 0.56574,0.14723c0.13578,0.01841 0.27155,0.05521 0.3847,0.14723c-0.29418,0.05521 -0.54312,0.0368 -0.81467,-0.0368c-0.611,-0.16565 -1.22201,-0.34971 -1.81037,-0.58897c-0.58837,-0.23927 -1.19938,-0.38652 -1.87826,-0.3313c-0.2263,0.01841 -0.40734,0.09203 -0.54312,0.23927c-0.4526,0.46014 -0.67889,0.97548 -0.70152,1.54605c-0.04526,0.90187 -0.04526,1.82214 0.09052,2.724c0.06789,0.40492 0.06789,0.82825 0.11315,1.23316c0.13578,1.0307 0.31682,2.043 0.49786,3.0553c0.27155,1.45404 0.54312,2.90806 0.8373,4.36208c0.06789,0.3497 0.15842,0.6994 0.2263,1.0491c0.20366,1.06751 0.40734,2.11662 0.56574,3.18414c0.13578,0.86505 0.29418,1.71171 0.42997,2.57676c0.11315,0.6626 0.20366,1.30679 0.31682,1.96937c0.13578,0.75462 0.29418,1.50925 0.4526,2.26386c0.20366,0.95708 0.40734,1.91416 0.52049,2.87124c0.09052,0.73622 0.20366,1.45404 0.24892,2.19024c0.09052,1.28838 0.15842,2.57676 -0.11315,3.86514c-0.09052,0.38652 -0.18103,0.77303 -0.27155,1.15954c-0.15842,0.64419 -0.52049,1.21475 -0.88256,1.78533c-0.611,0.95708 -1.60671,1.56446 -2.78345,2.0246c-0.8373,0.3313 -1.69723,0.55216 -2.60241,0.6994c-0.58837,0.09203 -1.17674,0.16565 -1.76513,0.16565c-0.70152,0 -1.40304,0.01841 -2.10457,-0.09203c-0.20366,-0.0368 -0.42997,-0.05521 -0.63362,-0.12884c-0.49786,-0.14723 -1.01834,-0.31289 -1.51619,-0.47855c-0.63363,-0.20246 -1.13149,-0.57056 -1.53881,-1.01229c-0.67889,-0.73622 -1.22201,-1.52764 -1.49356,-2.42951c-0.15842,-0.47855 -0.29418,-0.97549 -0.3847,-1.45404c-0.18103,-0.86506 -0.27155,-1.74851 -0.3847,-2.63197c-0.11315,-1.06751 -0.27155,-2.13503 -0.65626,-3.16573c-0.15842,-0.46014 -0.36208,-0.92026 -0.67889,-1.3436c-0.04526,-0.07362 -0.13577,-0.12884 -0.13577,-0.23927c0.31682,-0.11044 0.76941,-0.05521 0.95044,-0.42333c-0.15842,-0.11043 -0.31682,-0.09202 -0.47522,-0.07362c-0.40734,0.0368 -0.8373,0.0368 -1.24464,0.01841c-0.81467,-0.05521 -1.51619,-0.27608 -2.01405,-0.82825c0.06789,-0.05521 0.13577,0 0.18103,0.01841c0.4526,0.22086 0.95044,0.25768 1.4483,0.34971c0.18103,0.0368 0.36208,0.01841 0.54312,0.01841c0.33945,-0.0368 0.67889,-0.07362 1.01834,-0.11044c0.81467,-0.11043 1.58408,-0.3313 2.30823,-0.60738c0.58837,-0.22086 1.17675,-0.44173 1.76513,-0.68099c1.35777,-0.55216 2.53453,-1.28838 3.55286,-2.20864c0.42997,-0.38652 0.85993,-0.79143 1.24464,-1.23316c0.36208,-0.42332 0.58837,-0.86505 0.70152,-1.362c0.02262,-0.07362 0,-0.14724 0.11315,-0.18405c0.11315,0 0.06789,0.07362 0.09052,0.12884c0.11315,0.6626 -0.18103,1.23316 -0.58837,1.80373c-0.11315,0.14724 -0.24892,0.29449 -0.36208,0.44173c-0.04526,0.05521 -0.09052,0.12884 -0.13578,0.18405c-0.02262,0.07362 0,0.14723 0.06789,0.20246c0.06789,0.0368 0.13578,0.01841 0.20366,-0.01841c0.13578,-0.07362 0.24892,-0.16565 0.33945,-0.27608c0.04526,-0.05521 0.06789,-0.09202 0.15842,-0.20246c0.13578,0.31289 0.18103,0.55216 0.18103,0.80984c0,0.82825 0,1.65648 0.02263,2.46632c0.02262,1.0307 -0.13578,2.0614 -0.20366,3.0737c-0.04526,0.95708 -0.11315,1.91416 -0.13578,2.87125c-0.02262,0.42332 -0.02262,0.84665 0.11315,1.26997c0.04526,0.16565 0.13577,0.31289 0.27155,0.42332c0.33945,0.25768 0.81467,0.29449 1.19938,0.05521c0.2263,-0.12884 0.40734,-0.34971 0.58837,-0.6626c0.04526,0 0.11315,-0.01841 0.15842,-0.01841c0.3847,0.09202 0.67889,-0.03682 0.90519,-0.27608c0.56574,-0.55216 0.74678,-1.15954 0.40734,-1.85895c-0.06789,-0.14724 -0.15842,-0.27608 -0.27155,-0.36812c-0.2263,-0.20246 -0.49786,-0.29449 -0.8373,-0.23927c0,-0.3313 -0.02263,-0.62578 0.11315,-0.93867c0.11315,-0.01841 0.20366,-0.05521 0.31682,-0.05521c0.27155,0 0.42997,-0.12884 0.58837,-0.27608c0.72415,-0.64419 0.52049,-1.76692 -0.2263,-2.20865c-0.20366,-0.11043 -0.4526,-0.11044 -0.65626,-0.22086c-0.02262,-0.34971 -0.04526,-0.71781 0,-1.08592c0.72415,0 1.08622,-0.25768 1.22201,-0.80984c0.20366,-0.75462 -0.3847,-1.362 -1.08623,-1.52766c-0.09052,-0.01841 -0.2263,0 -0.29418,-0.07362c-0.06789,-0.07362 -0.04526,-0.16565 -0.04526,-0.25768c-0.02262,-0.34971 -0.06789,-0.6994 -0.09052,-1.04911c0.90519,-0.31289 1.22201,-0.68099 1.17675,-1.362c-0.02262,-0.55216 -0.47522,-0.95708 -1.33516,-1.19636c-0.09052,-0.3313 -0.09052,-0.68099 -0.11315,-1.0307c0.04526,-0.01841 0.09052,-0.05521 0.13577,-0.07362c0.58837,-0.05521 0.8373,-0.38652 0.97309,-0.79143c0.09052,-0.27608 0.09052,-0.53376 -0.06789,-0.80984c-0.18103,-0.3313 -0.47522,-0.51535 -0.88256,-0.60738c-0.13578,-0.0368 -0.29418,-0.0368 -0.42997,-0.12884c-0.11315,-0.3313 -0.13577,-0.6994 -0.13577,-1.04911c0.06789,-0.12884 0.20366,-0.12884 0.31682,-0.20246c0.27155,-0.16565 0.42997,-0.38652 0.47522,-0.6626c0.02262,-0.11044 0.02263,-0.23927 0.02263,-0.34971c0.04526,-0.62578 -0.29418,-1.0307 -1.08623,-1.19636c-0.09052,-0.38652 -0.15842,-0.77303 -0.15842,-1.17794c0.54312,-0.38652 0.76941,-0.88347 0.67889,-1.45404c-0.06789,-0.46014 -0.52049,-0.681 -0.95046,-0.92028c-0.06789,-0.3313 -0.06789,-0.68099 -0.06789,-1.04911c0.58837,-0.22086 0.79204,-0.62578 0.76941,-1.10432c-0.02262,-0.51535 -0.42997,-0.80984 -0.97309,-1.01229c-0.04526,-0.31289 -0.02262,-0.60738 0.02263,-0.90187c0.611,-0.09202 1.04097,-0.3313 1.10886,-0.86506c0.09052,-0.57056 -0.09052,-0.90187 -0.70152,-1.25157c0.04526,-0.3313 0.1584,-0.64419 0.29418,-0.95708c0.33945,-0.6626 0.70152,-1.32519 1.35777,-1.82214c0.15842,-0.12884 0.31682,-0.23927 0.49786,-0.3313c0.31682,-0.18405 0.67889,-0.25768 1.0636,-0.27608c1.08623,-0.0368 2.01405,0.29449 2.87397,0.77303c0.2263,0.12884 0.42997,0.25768 0.63363,0.40491c0.56574,0.40491 1.17675,0.71781 1.94616,0.82825c0.09052,0.23927 0.20366,0.47855 0.09052,0.73622c-0.24892,0.0368 -0.47522,-0.09203 -0.70152,-0.09203c-0.06789,0 -0.13577,0 -0.18103,0.07362c-0.04526,0.07362 0,0.11044 0.06789,0.14723c-0.02262,0.09203 -0.13578,0.05521 -0.20366,0.09203zM233.0833,155.72078c0.33945,-0.01841 0.65626,-0.11044 0.95044,-0.22087c1.04097,-0.34971 1.94616,-0.86506 2.85133,-1.41722c0.24892,-0.14723 0.47522,-0.31289 0.63363,-0.53376c0.02262,-0.0368 0.02262,-0.09202 0,-0.11044c-0.04526,-0.01841 -0.09052,-0.0368 -0.13578,-0.0368c-0.13578,0 -0.2263,0.09203 -0.31682,0.14724c-0.40734,0.23927 -0.81467,0.49694 -1.22201,0.71781c-0.8373,0.47855 -1.71986,0.92028 -2.71557,1.14114c-0.06789,0.01841 -0.13578,0.0368 -0.20366,0.05521c-0.06789,0.0368 -0.06789,0.14723 0,0.18405c0.04526,0.0368 0.11315,0.05521 0.15842,0.07362zM240.73215,163.72712c-0.02262,0.12884 0.02263,0.18405 0.13578,0.20246c0.74678,0.09203 1.65197,-0.55216 1.65197,-1.15954c0,-0.11044 -0.09052,-0.18405 -0.24892,-0.20246c-0.02262,0.01841 -0.04526,0.01841 -0.04526,0.01841c-0.11315,0.07362 -0.09052,0.18405 -0.13578,0.27608c-0.15842,0.29449 -0.36208,0.53376 -0.76941,0.64419c-0.20366,0.05521 -0.3847,0.14723 -0.58837,0.22086zM239.35174,167.73951c-0.09052,0.07362 -0.09052,0.14723 -0.06789,0.22087c0.24892,0.47855 0.56574,0.92028 1.0636,1.25157c0.04526,0.0368 0.11315,0.05521 0.18103,0.07362c0.09052,0.01841 0.18103,-0.01841 0.2263,-0.07362c0.06789,-0.07362 0.04526,-0.14723 -0.02263,-0.20246c-0.47522,-0.27608 -0.74678,-0.6626 -1.04097,-1.04911c-0.06789,-0.09203 -0.13577,-0.20246 -0.33945,-0.22087zM238.44655,167.81313c-0.04526,0.01841 -0.09052,0.03682 -0.11315,0.07362c-0.09052,0.09203 -0.0679,0.18405 -0.02263,0.29449c0.20366,0.42332 0.54312,0.79143 0.88256,1.15954c0.09052,0.09203 0.22629,0.09202 0.33945,0.05521c0.09052,-0.05521 0.11315,-0.16564 0,-0.27608c-0.02262,-0.0368 -0.06789,-0.07362 -0.09052,-0.11044c-0.31682,-0.29449 -0.58837,-0.64419 -0.79204,-0.9939c-0.02262,-0.05521 -0.06789,-0.11043 -0.11315,-0.14723c0,-0.0368 -0.04526,-0.0368 -0.09052,-0.05521zM235.00683,167.44502c0,0.0368 0,0.07362 0,0.09203c0.11315,0.42332 0.29418,0.84665 0.52049,1.23316c0.04526,0.09203 0.13578,0.16565 0.24892,0.22087c0.04526,0.01841 0.11315,0.01841 0.15842,0c0.04526,-0.01841 0.06789,-0.07362 0.09052,-0.11044c0,-0.0368 0,-0.09202 -0.02263,-0.12884c-0.27155,-0.42332 -0.45259,-0.86506 -0.63362,-1.30679c-0.02262,-0.05521 -0.06789,-0.11044 -0.11315,-0.14724c-0.04526,-0.05521 -0.18103,-0.0368 -0.2263,0.01841c0.02262,0.05521 0,0.09203 -0.02262,0.12884zM236.99824,169.21194c0.18103,-0.11043 0.13578,-0.23927 0.04526,-0.36812c-0.24892,-0.38652 -0.47522,-0.79143 -0.67889,-1.19636c-0.02262,-0.05521 -0.09052,-0.09203 -0.15842,-0.09203c-0.18103,0.09203 -0.18103,0.23927 -0.11315,0.38652c0.15842,0.3313 0.31682,0.6626 0.54312,0.95708c0.09052,0.12884 0.1584,0.23927 0.36208,0.31289zM237.29244,167.92357c-0.11315,0.09203 -0.09052,0.22087 -0.04526,0.3313c0.18103,0.36812 0.36208,0.73622 0.67889,1.0307c0.02262,0.0368 0.06789,0.05521 0.11315,0.09203c0.06789,0.0368 0.13578,0.0368 0.20366,0c0.09052,-0.0368 0.11315,-0.12884 0.0679,-0.20246c-0.02262,-0.05521 -0.0679,-0.11043 -0.11315,-0.14723c-0.20366,-0.22087 -0.36207,-0.47855 -0.49786,-0.71781c-0.06789,-0.11044 -0.11315,-0.22087 -0.18103,-0.31289c-0.04526,-0.07362 -0.13578,-0.09202 -0.2263,-0.07362zM234.66739,168.3837c0.18103,-0.09203 0.13578,-0.20246 0.09052,-0.31289c-0.20366,-0.38652 -0.36208,-0.77303 -0.4526,-1.17795c-0.02262,-0.07362 -0.09052,-0.09202 -0.15842,-0.09202c-0.15842,0.11043 -0.18103,0.25768 -0.13577,0.40491c0.09052,0.3313 0.20366,0.6626 0.3847,0.95708c0.04526,0.09203 0.09052,0.18405 0.27155,0.22087zM241.79575,168.88064c0,-0.07362 -0.04526,-0.11044 -0.11315,-0.14723c-0.3847,-0.16565 -0.58837,-0.46014 -0.85994,-0.71781c-0.06789,-0.05521 -0.11315,-0.11043 -0.18103,-0.16565c-0.02262,-0.01841 -0.06789,-0.0368 -0.09052,-0.01841c-0.04526,0.01841 -0.09052,0.05521 -0.09052,0.09203c0,0.05521 0,0.11043 0.04526,0.16564c0.20366,0.3313 0.47522,0.62579 0.8373,0.84665c0.09052,0.05521 0.18103,0.09202 0.29418,0.09202c0.09052,0.01841 0.18103,-0.07362 0.1584,-0.14724zM243.80979,168.56775c0.11315,-0.09202 0.11315,-0.18405 0.02262,-0.27608c-0.24892,-0.23927 -0.54312,-0.46012 -0.85993,-0.66259c-0.06789,-0.0368 -0.13578,-0.0368 -0.20366,0c-0.06789,0.05521 -0.09052,0.12884 -0.04526,0.20246c0,0.01841 0.02262,0.0368 0.02262,0.0368c0.24892,0.22087 0.49786,0.46014 0.81467,0.62579c0.06789,0.05521 0.13578,0.09203 0.24892,0.07362zM241.50156,167.88675c0.20366,0.27608 0.76941,0.77303 0.9957,0.86506c0.09052,0.0368 0.18103,0.0368 0.24892,-0.01841c0.06789,-0.05521 0.09052,-0.14723 0.02263,-0.20246c-0.31682,-0.27608 -0.63363,-0.51535 -1.01834,-0.71781c-0.09052,-0.0368 -0.18103,-0.01841 -0.24892,0.07362zM243.76453,167.46343c0.06789,0.27608 0.33945,0.46014 0.611,0.60738c0.04526,0.0368 0.13578,0.01841 0.20366,-0.0368c0.04526,-0.05521 0.04526,-0.11044 0,-0.16565c-0.15842,-0.18405 -0.33945,-0.34971 -0.56574,-0.46014c-0.06789,-0.05521 -0.15842,-0.0368 -0.24892,0.05521zM233.55854,167.53705c0.02262,-0.3313 -0.06789,-0.60738 -0.27155,-0.84665c0,-0.01841 -0.06789,0 -0.11315,0c-0.13578,0.14723 -0.09052,0.31289 -0.02262,0.46014c0.06789,0.14723 0.11315,0.31289 0.40734,0.38652zM244.53394,167.16894c0.11315,0.23927 0.36208,0.3313 0.58837,0.44173c0.06789,0.0368 0.18103,-0.01841 0.18103,-0.09203c0,-0.01841 0,-0.0368 0,-0.0368c0,-0.16565 -0.1584,-0.23927 -0.29418,-0.3313c-0.15842,-0.07362 -0.29418,-0.11044 -0.47522,0.01841zM245.82384,166.94807c0,-0.16565 -0.13577,-0.25768 -0.27155,-0.3313c-0.09052,-0.0368 -0.15842,-0.05521 -0.24892,0.01841c-0.06789,0.05521 -0.06789,0.12884 -0.02262,0.20246c0.06789,0.11043 0.18103,0.16565 0.31682,0.22087c0.11315,0.0368 0.2263,-0.0368 0.2263,-0.11043zM237.88081,153.0888c0,0.07362 0.11315,0.11044 0.20366,0.09203c0.13578,-0.0368 0.2263,-0.09203 0.29418,-0.18405c0.04526,-0.05521 0.06789,-0.11043 0,-0.16565c-0.04526,-0.05521 -0.11315,-0.07362 -0.20366,-0.05521c-0.18103,0.0368 -0.31682,0.16565 -0.29418,0.31289zM232.04234,155.70236c-0.15842,0.01841 -0.31682,0.05521 -0.40734,0.20246c-0.02262,0.01841 0.02262,0.09202 0.06789,0.11043c0.18103,0.09203 0.33945,0 0.47522,-0.07362c0.06789,-0.0368 0.09052,-0.09203 0.04526,-0.14723c-0.02262,-0.05521 -0.06789,-0.07362 -0.18103,-0.09202z" fill="#ffc941" fill-rule="nonzero" stroke="none" stroke-width="1"/><path d="M238.90953,150.40803c-0.02262,0.11044 -0.06789,0.18405 -0.18103,0.23927c-0.15842,-0.07362 -0.33945,-0.20246 -0.56574,-0.16565c-0.06789,0 -0.13578,0.01841 -0.20366,0.0368c-0.04526,0.01841 -0.09052,0.05521 -0.09052,0.09202c-0.02262,0.05521 0.02262,0.11044 0.11315,0.12884c0.11315,0.01841 0.24892,0.0368 0.36208,0.07362c0.06789,0.01841 0.13578,0.0368 0.15842,0.11043c-0.02262,0.12884 -0.15842,0.18405 -0.24892,0.27608c-0.42997,0.38652 -0.85993,0.75462 -1.2899,1.12273c-0.18103,0.16565 -0.3847,0.29449 -0.611,0.44173c-0.31682,0.22086 -0.65626,0.42333 -0.97309,0.64419c-0.33945,0.22087 -0.67889,0.42333 -1.08622,0.58897c-0.79204,0.3313 -1.58408,0.64419 -2.37613,0.95708c-0.42997,0.16565 -0.90519,0.31289 -1.40304,0.31289c-0.2263,0 -0.42997,0.16565 -0.67889,0.09203c-0.09052,-0.25768 0.02263,-0.53376 0.04526,-0.82825c-0.47522,0.18405 -0.49786,0.25768 -0.40734,0.82825c-0.09052,0.11043 -0.2263,0.05521 -0.36208,0.0368c-0.11315,-0.23927 -0.06789,-0.47855 0,-0.71781c0.04526,-0.12884 0.09052,-0.25768 0.13578,-0.36811c0.02262,-0.07362 0.04526,-0.14723 -0.06789,-0.18405c-0.09052,-0.0368 -0.15842,0.01841 -0.2263,0.09202c-0.27155,0.29449 -0.33945,0.64419 -0.31682,0.9939c0,0.05521 0.02263,0.11043 0.04526,0.16564c-0.11315,0.09203 -0.20366,0.05521 -0.31682,0.03682c-0.20366,-0.23927 -0.20366,-0.51535 -0.13578,-0.80984c0.06789,-0.27608 0.15842,-0.53376 0.31682,-0.79143c0.06789,-0.11044 0.15842,-0.20246 0.11315,-0.31289c-0.06789,-0.07362 -0.13578,-0.05521 -0.20366,-0.0368c-0.15842,0.05521 -0.24892,0.16565 -0.31682,0.27608c-0.27155,0.47855 -0.47522,0.95708 -0.31682,1.49084c0,0.01841 -0.02262,0.05521 -0.04526,0.07362c-0.20366,0 -0.29418,-0.07362 -0.31682,-0.22087c-0.13578,-0.55216 -0.06789,-1.08592 0.24892,-1.58286c0.13578,-0.20246 0.24894,-0.38652 0.3847,-0.58897c0.02262,-0.05521 0.06789,-0.11043 0.06789,-0.16564c0,-0.0368 -0.04526,-0.07362 -0.06789,-0.11044c-0.02262,-0.01841 -0.06789,-0.01841 -0.09052,0c-0.18103,0.07362 -0.31682,0.20246 -0.40734,0.3313c-0.4526,0.51535 -0.70152,1.08592 -0.611,1.74851c0,0.05521 0,0.11043 0,0.18405c-0.29418,-0.11043 -0.36207,-0.16565 -0.40734,-0.42333c-0.06789,-0.34971 -0.02263,-0.6994 0.18103,-1.0307c0.2263,-0.40492 0.52049,-0.77303 0.8373,-1.12273c0.31682,-0.36811 0.6789,-0.71781 1.0636,-1.06751c0.58837,-0.53376 1.2899,-0.97548 2.03667,-1.3804c0.79204,-0.40492 1.58408,-0.82825 2.44401,-1.12273c1.31253,-0.44173 2.64767,-0.79143 4.09597,-0.71781c0.36208,0.01841 0.72415,0.07362 1.0636,0.12884c0.29418,0.05521 0.58837,0.16565 0.76941,0.36812c0.04526,0.0368 0.09052,0.09202 0.04526,0.16564c-0.13578,0.0368 -0.27155,-0.0368 -0.3847,-0.07362c-0.52049,-0.12884 -1.06359,-0.16565 -1.60671,-0.11044c-0.18103,0.01841 -0.36208,0.0368 -0.47522,0.16564c-0.04526,0.05521 -0.09052,0.09203 -0.06789,0.16565c0.09052,0.11043 0.2263,0.05521 0.33945,0.0368c0.72415,-0.12884 1.40304,-0.01841 2.05931,0.20246c0.06789,0.01841 0.13577,0.0368 0.18103,0.07362c0.09052,0.07362 0.02262,0.12884 -0.04526,0.20246c-0.29418,-0.0368 -0.58837,-0.09203 -0.88256,-0.12884c-0.33945,-0.05521 -0.67889,-0.0368 -1.01834,0.01841c-0.09052,0.01841 -0.15842,0.05521 -0.18103,0.14723c0.04526,0.12884 0.18103,0.12884 0.29418,0.12884c0.3847,0 0.74678,0.0368 1.13149,0.07362c0.24892,0.0368 0.49786,0.09202 0.67889,0.18405c0.11315,0.07362 0.04526,0.12884 0.02262,0.18405c0,0.0368 -0.02263,0.07362 -0.04526,0.12884c-0.04526,0 -0.06789,0 -0.11315,0c-0.33945,-0.12884 -0.70152,-0.22087 -1.10886,-0.20246c-0.11315,0 -0.2263,0.01841 -0.29418,0.07362c-0.06789,0.0368 -0.09052,0.09203 -0.09052,0.14724c0.02262,0.05521 0.06789,0.09202 0.1584,0.11043c0.09052,0 0.18103,0.01841 0.27155,0c0.33945,-0.0368 0.65626,0.05521 0.97307,0.18405zM229.08824,151.75164c0.18103,0.09203 0.33945,0.0368 0.47522,-0.07362c0.4526,-0.36812 0.95044,-0.681 1.4483,-0.9939c0.79204,-0.49694 1.60671,-0.93868 2.53453,-1.26997c0.3847,-0.12884 0.76941,-0.23927 1.15412,-0.36811c0.13578,-0.0368 0.27155,-0.07362 0.31682,-0.20246c-0.04526,-0.09203 -0.13578,-0.12884 -0.24892,-0.14723c-0.15842,-0.01841 -0.31682,0.01841 -0.47522,0.05521c-0.85994,0.22087 -1.62934,0.53376 -2.37613,0.92028c-0.67889,0.34971 -1.31253,0.77303 -1.94615,1.17794c-0.27155,0.16565 -0.49786,0.38652 -0.74678,0.57056c-0.11315,0.11044 -0.2263,0.20246 -0.13578,0.3313z" fill="#ffc941" fill-rule="nonzero" stroke="none" stroke-width="1"/><path d="M242.71133,156.96033c-0.04526,0.29449 -0.09052,0.55216 -0.24892,0.79143c-0.06789,0.11043 -0.18103,0.14723 -0.31682,0.12884c-0.33945,-0.0368 -0.63362,-0.23927 -0.70152,-0.53376c-0.04526,-0.25768 -0.04526,-0.53376 0.04526,-0.79143c0.02262,-0.07362 0.06789,-0.14723 0.11315,-0.20246c0.24892,-0.3313 0.65626,-0.3313 0.88256,0.01841c0.13578,0.18405 0.22629,0.38652 0.22629,0.58897z" fill="#fcc741" fill-rule="nonzero" stroke="none" stroke-width="1"/><path d="M251.06169,132.00262c-0.24892,0 -0.47522,0.07362 -0.72415,-0.01841c0.29418,-0.64419 0.36208,-1.28838 0.1584,-1.95097c0.04526,-0.05521 0.11315,-0.07362 0.18103,-0.07362c0.54312,-0.01841 0.611,0.0368 0.67889,0.49694c0.04526,0.51535 0.02263,1.0307 -0.29418,1.54605z" fill="#fac540" fill-rule="nonzero" stroke="none" stroke-width="1"/><path d="M242.62081,153.42652c0.02262,0.16565 -0.04526,0.31289 -0.13578,0.46014c-0.18103,0.22087 -0.54312,0.27608 -0.79204,0.12884c-0.42997,-0.25768 -0.49786,-0.90187 -0.13578,-1.21475c0.2263,-0.20246 0.56574,-0.22087 0.79204,0c0.20366,0.16565 0.29418,0.36811 0.27155,0.62579z" fill="#fac640" fill-rule="nonzero" stroke="none" stroke-width="1"/><path d="M241.10462,149.46936c0,-0.18405 0.06789,-0.34971 0.20366,-0.51535c0.06789,-0.09203 0.1584,-0.14724 0.29418,-0.20246c0.18103,-0.07362 0.36208,-0.0368 0.4526,0.11044c0.18103,0.25768 0.2263,0.55216 0.2263,0.84665c0,0.11044 -0.04526,0.23927 -0.06789,0.34971c-0.06789,0.20246 -0.27155,0.27608 -0.49786,0.22087c-0.36208,-0.11043 -0.56575,-0.29449 -0.58837,-0.60738c-0.04526,-0.05521 -0.02262,-0.11043 -0.02262,-0.20246z" fill="#fcc741" fill-rule="nonzero" stroke="none" stroke-width="1"/><path d="M241.71562,146.69015c-0.36208,0.07362 -0.56574,-0.07362 -0.72415,-0.25768c-0.20366,-0.20246 -0.20366,-0.42333 -0.15842,-0.6626c0.02262,-0.09202 0.09052,-0.18405 0.15842,-0.27608c0.09052,-0.14723 0.24892,-0.22086 0.42997,-0.20246c0.2263,0 0.4526,0.16565 0.49786,0.3313c0.02262,0.09203 0.04526,0.18405 0.04526,0.25768c-0.06789,0.25768 -0.09052,0.55216 -0.24892,0.80984z" fill="#f8c440" fill-rule="nonzero" stroke="none" stroke-width="1"/><path d="M240.19942,138.20523c0.40734,0.05521 0.58837,0.25768 0.611,0.57056c0,0.11043 0.02262,0.20246 0.02262,0.31289c0,0.07362 -0.02262,0.14723 -0.04526,0.22087c-0.06789,0.20246 -0.33945,0.42332 -0.52049,0.38652c-0.2263,-0.0368 -0.3847,-0.20246 -0.40734,-0.36811c-0.06789,-0.40492 -0.18103,-0.82825 0.33945,-1.12273z" fill="#f9c540" fill-rule="nonzero" stroke="none" stroke-width="1"/><path d="M240.94621,141.75749c0.3847,0.36811 0.40734,0.79143 0.36208,1.21475c0,0.0368 -0.02263,0.09203 -0.04526,0.12884c-0.09052,0.20246 -0.29418,0.23927 -0.52049,0.11044c-0.18103,-0.11044 -0.27155,-0.27608 -0.33945,-0.44173c-0.09052,-0.22087 -0.09052,-0.44173 0,-0.64419c0.09052,-0.18405 0.24892,-0.3313 0.54312,-0.36811z" fill="#f7c340" fill-rule="nonzero" stroke="none" stroke-width="1"/><path d="M240.1768,135.09473c0.31682,0.25768 0.3847,0.57056 0.27155,0.92026c-0.04526,0.11044 -0.09052,0.23927 -0.27155,0.23927c-0.18103,0.01841 -0.3847,0 -0.47522,-0.12884c-0.15842,-0.20246 -0.2263,-0.42332 -0.11315,-0.66259c0.09052,-0.22087 0.27155,-0.36812 0.58837,-0.36812z" fill="#f9c540" fill-rule="nonzero" stroke="none" stroke-width="1"/><path d="M240.53887,132.59159c0,0.20246 -0.06789,0.36811 -0.20366,0.51535c-0.13578,0.14724 -0.36208,0.16565 -0.49786,0.01841c-0.06789,-0.07362 -0.11315,-0.14723 -0.15842,-0.23927c-0.09052,-0.31289 0,-0.58897 0.24892,-0.80984c0.15842,-0.14723 0.36208,-0.11044 0.47522,0.07362c0.09052,0.14723 0.15842,0.29449 0.13578,0.44173z" fill="#f6c340" fill-rule="nonzero" stroke="none" stroke-width="1"/><path d="M249.83969,129.99642c0.3847,0.46014 0.40734,1.12273 0.09052,1.71171c-0.06789,0.14723 -0.11315,0.34971 -0.40734,0.34971c-0.02262,-0.25768 0.2263,-0.42333 0.27155,-0.64419c0.04526,-0.23927 0.13578,-0.47855 0.11315,-0.73622c-0.02262,-0.22087 -0.04526,-0.44173 -0.06789,-0.681z" fill="#e6b73f" fill-rule="nonzero" stroke="none" stroke-width="1"/><path d="M248.36875,131.13757c0.06789,-0.0368 0.18103,0 0.2263,-0.09203c0.24892,0.05521 0.47522,0.16565 0.72415,0.18405c0.02262,0.11043 -0.04526,0.16564 -0.11315,0.14723c-0.27155,-0.07362 -0.58837,-0.11043 -0.8373,-0.23927z" fill="#a98836" fill-rule="nonzero" stroke="none" stroke-width="1"/><path d="M233.04845,155.69039c-0.04526,-0.01841 -0.11315,-0.0368 -0.18103,-0.05521c-0.06789,-0.0368 -0.09052,-0.14723 0,-0.18405c0.06789,-0.01841 0.13578,-0.05521 0.20366,-0.05521c0.9957,-0.22087 1.87826,-0.6626 2.71557,-1.14114c0.40734,-0.23927 0.81467,-0.47855 1.22201,-0.71781c0.09052,-0.05521 0.20366,-0.14723 0.31682,-0.14723c0.04526,0 0.11315,0.01841 0.13578,0.0368c0.04526,0.0368 0.04526,0.07362 0,0.11044c-0.15842,0.22087 -0.3847,0.38652 -0.63363,0.53376c-0.88256,0.55216 -1.81037,1.06751 -2.85133,1.41722c-0.27155,0.09203 -0.56574,0.18405 -0.92782,0.20246z" fill="#060503" fill-rule="nonzero" stroke="none" stroke-width="1"/><path d="M237.84594,153.05841c-0.02262,-0.14724 0.11315,-0.25768 0.31682,-0.29449c0.06789,-0.01841 0.1584,0 0.20366,0.05521c0.04526,0.05521 0.02262,0.11043 0,0.16564c-0.06789,0.09203 -0.1584,0.14723 -0.29418,0.18405c-0.11315,0 -0.20366,-0.05521 -0.2263,-0.11044z" fill="#201b0f" fill-rule="nonzero" stroke="none" stroke-width="1"/><path d="M232.00747,155.67198c0.09052,0 0.15842,0.01841 0.18103,0.09203c0.02262,0.05521 0,0.12884 -0.04526,0.14723c-0.15842,0.07362 -0.29418,0.16565 -0.47522,0.07362c-0.04526,-0.01841 -0.06789,-0.07362 -0.06789,-0.11044c0.09052,-0.12884 0.24892,-0.16565 0.40734,-0.20246z" fill="#3d3219" fill-rule="nonzero" stroke="none" stroke-width="1"/><path d="M229.08824,151.75164c-0.09052,-0.12884 0.02262,-0.22086 0.11315,-0.31289c0.24892,-0.20246 0.47523,-0.40491 0.74678,-0.57056c0.63363,-0.40492 1.26727,-0.82825 1.94616,-1.17795c0.74678,-0.38652 1.53881,-0.6994 2.37613,-0.92026c0.15842,-0.0368 0.31682,-0.07362 0.47522,-0.05521c0.11315,0 0.20366,0.05521 0.24892,0.14724c-0.04526,0.14724 -0.18103,0.16565 -0.31682,0.20246c-0.3847,0.12884 -0.76941,0.23927 -1.15411,0.36812c-0.90519,0.3313 -1.74249,0.75462 -2.53453,1.26997c-0.49786,0.31289 -0.9957,0.62578 -1.4483,0.9939c-0.11315,0.09203 -0.27155,0.14723 -0.4526,0.05521z" fill="#fefefa" fill-rule="nonzero" stroke="none" stroke-width="1"/><g><path d="M240.02277,174.9991l5.76141,4.87224" fill="none" fill-rule="evenodd" stroke="#ffdb5d" stroke-width="1.26"/><path d="M242.53769,179.86111c0.76526,0 0.76526,-0.7417 1.53055,-0.7417c0.76493,0 0.76493,0.7417 1.52985,0.7417c0.76529,0 0.76529,-0.7417 1.53091,-0.7417c0.76529,0 0.76529,0.7417 1.53094,0.7417" fill="none" fill-rule="evenodd" stroke="#ffdb5d" stroke-width="1.26"/><path d="M236.94464,172.38194c-0.55332,-1.18559 -0.04005,-2.59524 1.14632,-3.14853c1.18639,-0.55291 2.59712,-0.03987 3.15046,1.14572c0.15027,0.32217 0.21939,0.66022 0.2201,0.99365l0.00176,-0.00035l0.05814,4.29356c0.00496,0.36239 -0.42039,0.56105 -0.69511,0.325l-3.26245,-2.80276c-0.25449,-0.21453 -0.46929,-0.48447 -0.61923,-0.80628" fill="#751d18" fill-rule="nonzero" stroke="none" stroke-width="1"/></g><path d="M228.1817,165.06549c0,-2.27909 1.84851,-4.127 4.1291,-4.127l0.97227,-0.00035c0.01383,-0.00071 0.02908,-0.00315 0.04219,-0.00315h14.89261c0,0 0.00286,2.48056 0.00286,2.80942c0,1.08929 -0.46082,2.96152 -1.94991,4.22793c-3.31881,2.82212 -7.24619,6.47666 -7.24619,6.47666z" fill="#17242d" fill-rule="nonzero" stroke="none" stroke-width="1"/><g><path d="M231.63518,179.8618c0.76529,0 0.76529,-0.7417 1.53023,-0.7417c0.76526,0 0.76527,0.7417 1.5302,0.7417c0.76526,0 0.76527,-0.7417 1.53091,-0.7417c0.76529,0 0.76529,0.7417 1.53055,0.7417" fill="none" fill-rule="evenodd" stroke="#ffdb5d" stroke-width="1.26"/><path d="M234.73743,174.15752v5.67952" fill="none" fill-rule="evenodd" stroke="#ffdb5d" stroke-width="1.26"/><path d="M232.36679,170.60181c0,-1.30839 1.06162,-2.36944 2.37062,-2.36944c1.30903,0 2.37027,1.06106 2.37027,2.36944c0,0.35531 -0.08009,0.69089 -0.22046,0.99365l0.00176,0.00035l-1.76345,3.91527c-0.14851,0.33062 -0.61817,0.33098 -0.76738,0.00071l-1.77124,-3.9181c-0.13966,-0.30205 -0.22014,-0.63726 -0.22014,-0.99189" fill="#751d18" fill-rule="nonzero" stroke="none" stroke-width="1"/></g><g><path d="M225.0061,167.69601c1.53055,-5.30622 7.07572,-8.36762 12.3848,-6.83798l0.21055,0.06034l-0.94783,3.28615c-1.56387,5.42231 -7.23027,8.5511 -12.65598,6.98796z" fill="#b85c39" fill-rule="nonzero" stroke="none" stroke-width="1"/><path d="M223.99764,171.19249l0.00142,-0.00496l4.12096,-4.06031l5.74864,1.6563c-2.5436,2.40931 -6.25977,3.44918 -9.87101,2.40895" fill="#ad2c24" fill-rule="nonzero" stroke="none" stroke-width="1"/><path d="M225.39848,171.38797l3.91677,-3.8486" fill="none" fill-rule="evenodd" stroke="#751d18" stroke-width="0.6"/><path d="M226.81879,171.50231l3.68497,-3.62068" fill="none" fill-rule="evenodd" stroke="#751d18" stroke-width="0.6"/><path d="M231.69226,168.22426l-3.18377,3.12806" fill="none" fill-rule="evenodd" stroke="#751d18" stroke-width="0.6"/><path d="M232.88075,168.56652l-2.23026,2.19125" fill="none" fill-rule="evenodd" stroke="#751d18" stroke-width="0.6"/><path d="M232.61598,164.26663c-0.43847,0.74628 -1.33985,1.13301 -2.21006,0.88213c-1.0304,-0.29675 -1.62519,-1.37261 -1.32814,-2.40223c0.13609,-0.47212 0.43776,-0.84969 0.82161,-1.09456c2.21858,-1.18666 4.88306,-1.5455 7.49151,-0.79393l0.21055,0.06068l-0.94783,3.2858c-0.06876,0.23854 -0.14816,0.47105 -0.23251,0.70042l-0.01313,-0.00496c-0.31262,1.006 -1.37317,1.58222 -2.39047,1.28933c-0.87053,-0.25086 -1.42775,-1.0575 -1.40154,-1.92269" fill="#573a3c" fill-rule="nonzero" stroke="none" stroke-width="1"/></g><g><g fill="#ce2235" fill-rule="nonzero" stroke="none" stroke-width="1"><path d="M246.55492,124.73228c0.63711,-0.18545 1.29226,-0.02226 1.76255,0.37703l0.11978,0.09192c0.16991,0.13097 0.40796,-0.03165 0.3481,-0.2373l-0.34585,-1.18815c-0.10011,-0.3439 0.09769,-0.7043 0.44212,-0.80456c0.34406,-0.10015 0.70476,0.09768 0.80485,0.44158l0.30414,1.04482c0.06016,0.20666 0.35125,0.21235 0.41915,0.00809l0.46611,-1.4006c0.09416,-0.28281 0.49694,-0.27512 0.58018,0.01082l0.56628,1.94537c0.0192,-0.00633 0.0379,-0.01435 0.05729,-0.01999c1.03259,-0.30058 2.11261,0.29242 2.4129,1.32405c0.30039,1.03194 -0.29275,2.1116 -1.32533,2.41219c-0.03471,0.01009 -0.06964,0.01695 -0.1046,0.02495l-1.28374,0.37369l-0.1786,-0.61359c-0.01762,-0.01103 -0.03605,-0.0211 -0.05341,-0.03258l-2.59114,0.15634l-0.60732,-0.67106c-0.20461,0.18231 -0.45037,0.32477 -0.73115,0.4065c-1.00842,0.29354 -2.06375,-0.28567 -2.35704,-1.29323c-0.29339,-1.00793 0.2863,-2.06271 1.29472,-2.35624"/></g><path d="M251.4864,132.68827c-0.34655,-1.19052 0.33794,-2.43713 1.52945,-2.78397c1.19149,-0.34683 2.43844,0.33755 2.78499,1.52809c0.34665,1.19086 -0.33829,2.43724 -1.52977,2.78407c-1.19152,0.34684 -2.43804,-0.33731 -2.78468,-1.52817" fill="#ce2235" fill-rule="nonzero" stroke="none" stroke-width="1"/><g fill="#ffdb5d" fill-rule="nonzero" stroke="none" stroke-width="1"><path d="M255.86509,129.06463l-6.1393,1.78708c0.00052,-0.64257 0.42175,-1.23853 1.06807,-1.42666l3.40436,-0.99097c0.64628,-0.18813 1.32159,0.08864 1.66686,0.63055"/></g><path d="M247.61512,130.74725c-0.42614,-1.46392 0.41581,-2.99635 1.88029,-3.42265c1.4648,-0.42638 2.99767,0.41477 3.4238,1.87869c0.42604,1.46362 -0.41591,2.99604 -1.8807,3.42244c-1.46446,0.42629 -2.99734,-0.41486 -3.42337,-1.87847" fill="#ad2c24" fill-rule="nonzero" stroke="none" stroke-width="1"/><path d="M248.99243,130.34633c-0.20483,-0.70367 0.19994,-1.43999 0.90375,-1.64486c0.70416,-0.20497 1.44054,0.19916 1.64537,0.90284c0.20473,0.70334 -0.19969,1.43958 -0.90385,1.64455c-0.70381,0.20487 -1.44054,-0.19919 -1.64527,-0.90253" fill="#fff4e3" fill-rule="nonzero" stroke="none" stroke-width="1"/><path d="M249.39709,130.22854c-0.13974,-0.48006 0.13663,-0.98277 0.61686,-1.12255c0.48053,-0.13988 0.98322,0.13605 1.12296,0.61611c0.13965,0.47975 -0.1364,0.98237 -0.61695,1.12225c-0.48023,0.13979 -0.98322,-0.13607 -1.12287,-0.61581" fill="#17242d" fill-rule="nonzero" stroke="none" stroke-width="1"/><path d="M252.08459,130.54032l-1.47903,1.55691" fill="none" fill-rule="evenodd" stroke="#751d18" stroke-width="0.6"/></g></g></g></svg>