<svg version="1.1" xmlns="http://www.w3.org/2000/svg" xmlns:xlink="http://www.w3.org/1999/xlink" width="354.04102" height="212.86186" viewBox="0,0,354.04102,212.86186"><g transform="translate(-64.45311,-130.26147)"><g data-paper-data="{&quot;isPaintingLayer&quot;:true}" stroke-linecap="butt" stroke-linejoin="miter" stroke-miterlimit="10" stroke-dasharray="" stroke-dashoffset="0" style="mix-blend-mode: normal"><text transform="translate(65.22315,197.76875) scale(1.54009,1.54009)" font-size="40" xml:space="preserve" fill="#ff8800" fill-rule="nonzero" stroke="none" stroke-width="1" stroke-linecap="butt" stroke-linejoin="miter" stroke-miterlimit="10" stroke-dasharray="" stroke-dashoffset="0" font-family="Sans Serif" font-weight="normal" text-anchor="start" style="mix-blend-mode: normal"><tspan x="0" dy="0">GAME OVER</tspan></text><g><path d="M284.21577,248.72966c-0.14399,0.93751 -0.43706,1.5962 -0.91767,2.22612c-0.49978,0.75492 -1.29779,0.95218 -2.1295,0.95241c-0.50961,-0.01428 -0.8366,-0.38438 -1.029,-0.79776c-0.51,-1.67772 -0.25572,-3.74982 1.21508,-4.99535c0.5864,-0.48569 1.23059,-0.51471 1.79799,-0.04372c0.97614,0.7257 1.35132,1.61501 1.06313,2.65831z" fill="#fcc741" fill-rule="nonzero" stroke="none" stroke-width="1"/><path d="M280.45898,243.1014c-0.36618,0.09973 -0.70007,0.24334 -1.06043,0.30496c-0.72062,0.12321 -1.13944,0.56569 -1.49964,1.13412c-0.10542,0.17874 -0.1405,0.40726 -0.31626,0.5362c-0.04392,0.03222 -0.04392,0.03224 -0.08202,0.02638c-0.2666,-0.04095 -0.35162,-0.24894 -0.3546,-0.48331c0.19889,-1.29491 1.92122,-2.35588 3.14883,-1.9724c0.18458,0.06732 0.24319,0.19332 0.16415,0.45405z" fill="#fefcf5" fill-rule="nonzero" stroke="none" stroke-width="1"/><path d="M284.0575,235.15553c-0.33693,-0.09072 -0.41607,-0.33679 -0.5011,-0.54477c-0.37225,-0.87585 -0.70062,-1.78395 -1.41852,-2.44003c-0.13482,-0.13766 -0.11137,-0.29 0.02628,-0.4248c0.13179,-0.09671 0.25776,-0.15533 0.40425,-0.09382c0.1084,0.05563 0.2168,0.11127 0.28128,0.19911c0.73261,0.81423 1.11956,1.8483 1.39227,2.8648c0.02052,0.12009 -0.00873,0.31053 -0.18446,0.43948z" fill="#0e0b07" fill-rule="nonzero" stroke="none" stroke-width="1"/><path d="M285.60436,235.23713c-0.07032,-0.04978 -0.14653,-0.06147 -0.17873,-0.10542c-0.06448,-0.08785 -0.12307,-0.21383 -0.14363,-0.33393c-0.22578,-0.81438 -0.53944,-1.56427 -1.01711,-2.2614c-0.06448,-0.08785 -0.09086,-0.16993 -0.11729,-0.25191c-0.11728,-0.25191 -0.08217,-0.48044 0.08776,-0.5713c0.20797,-0.085 0.43065,-0.01179 0.55375,0.202c0.49823,0.81721 0.91443,1.66084 1.11681,2.62755c0.04693,0.20213 0.04992,0.43648 -0.13166,0.60352c-0.00586,0.03808 -0.08789,0.06449 -0.16993,0.09086z" fill="#100e08" fill-rule="nonzero" stroke="none" stroke-width="1"/><path d="M291.27638,236.88805c-0.04978,0.07032 -0.06148,0.14648 -0.11128,0.21681c-0.06148,0.14653 -0.33392,0.14363 -0.3867,-0.02042c-0.05863,-0.12595 -0.12306,-0.21383 -0.14362,-0.33393c-0.16428,-0.96085 -0.32859,-1.92173 -0.65107,-2.8679c-0.02638,-0.08199 -0.04692,-0.20212 0.00288,-0.27245c0.01169,-0.07618 0.10542,-0.17874 0.18746,-0.2051c0.08202,-0.02636 0.19628,-0.00883 0.26661,0.04094c0.17873,0.10542 0.30181,0.31926 0.34874,0.52141c0.25803,0.8583 0.46627,1.78693 0.48405,2.68629c-0.01169,0.07618 -0.0234,0.15239 0.00298,0.23436z" fill="#0b0a06" fill-rule="nonzero" stroke="none" stroke-width="1"/><path d="M288.48642,232.71701c0.32522,0.16691 0.39853,0.45107 0.51578,0.70298c0.28143,0.70598 0.4486,1.39436 0.60987,2.12085c0.06745,0.32223 0.02064,0.62693 -0.31328,0.77056c-0.15237,-0.0234 -0.22265,-0.07318 -0.23735,-0.23138c-0.21407,-0.89056 -0.42814,-1.78107 -0.76235,-2.65109c-0.12313,-0.21382 -0.19639,-0.49799 0.1873,-0.71195z" fill="#141109" fill-rule="nonzero" stroke="none" stroke-width="1"/><path d="M287.58184,235.30697c-0.19627,0.00882 -0.30467,-0.04679 -0.35745,-0.21088c-0.085,-0.20797 -0.16416,-0.45405 -0.20524,-0.69427c-0.1466,-0.56829 -0.29908,-1.0985 -0.60976,-1.61405c-0.06448,-0.08788 -0.12311,-0.21383 -0.14362,-0.33393c-0.05278,-0.16408 0.00872,-0.31052 0.1786,-0.40141c0.12596,-0.05861 0.24019,-0.04106 0.34276,0.05265c0.07032,0.04978 0.13478,0.13765 0.16118,0.21967c0.43376,0.72937 0.66538,1.50566 0.81498,2.30831c0.07916,0.24605 0.03821,0.51264 -0.18146,0.67382z" fill="#100d08" fill-rule="nonzero" stroke="none" stroke-width="1"/><path d="M292.14608,235.03342c0.29297,0.12297 0.3399,0.3251 0.4249,0.53311c0.21108,0.65616 0.29621,1.37094 0.34329,2.0799c0.02937,0.31638 -0.05552,0.61523 -0.3572,0.8028c-0.11424,-0.01755 -0.26077,-0.07901 -0.23736,-0.23136c-0.02368,-0.86131 -0.16741,-1.70207 -0.38734,-2.55452c-0.07916,-0.24605 -0.12021,-0.4863 0.21371,-0.62993z" fill="#15120a" fill-rule="nonzero" stroke="none" stroke-width="1"/><path d="M280.3069,232.1624c-0.02052,-0.12009 0.16105,-0.28713 0.3134,-0.26373c0.19043,0.02925 0.33108,0.12879 0.46585,0.26645c0.53918,0.55062 0.90261,1.23021 1.14011,1.96842c0.02052,0.12009 0.04108,0.24019 0.02353,0.35446c-0.01169,0.07618 -0.09959,0.14062 -0.18162,0.16702c-0.04392,0.03222 -0.11426,-0.01755 -0.14648,-0.06147c-0.0967,-0.13179 -0.15532,-0.25776 -0.25202,-0.38958c-0.37515,-0.6034 -0.62432,-1.26542 -1.21914,-1.70765c-0.10255,-0.09373 -0.16116,-0.21967 -0.14362,-0.33391z" fill="#120f09" fill-rule="nonzero" stroke="none" stroke-width="1"/><path d="M276.81779,232.28924c0.15823,-0.01467 0.29883,0.08487 0.40141,0.1786c0.47469,0.46278 0.82346,0.98415 1.17222,1.50549c0.03222,0.04392 0.03222,0.04393 0.02636,0.08203c0.05278,0.16408 -0.00872,0.31051 -0.1405,0.40724c-0.12596,0.05861 -0.24019,0.04106 -0.34276,-0.05264c-0.46885,-0.50086 -0.89376,-1.03391 -1.2367,-1.5934c-0.12897,-0.17577 -0.09383,-0.40428 0.11996,-0.52736z" fill="#16130a" fill-rule="nonzero" stroke="none" stroke-width="1"/><path d="M280.48611,234.29507c-0.18163,0.16702 -0.33978,0.1817 -0.48046,0.08217c-0.58313,-0.5184 -1.03443,-1.13349 -1.48573,-1.74859c-0.0967,-0.13179 -0.0733,-0.28415 0.10242,-0.4131c0.13179,-0.09671 0.28415,-0.07329 0.4248,0.02628c0.38971,0.25478 1.18389,1.42933 1.43892,2.0533z" fill="#0d0b07" fill-rule="nonzero" stroke="none" stroke-width="1"/><path d="M276.54297,234.58612c-0.18163,0.16702 -0.29585,0.14947 -0.4365,0.0499c-0.33992,-0.3251 -0.59778,-0.67659 -0.80591,-1.09839c-0.05863,-0.12595 -0.04109,-0.24021 0.05264,-0.34278c0.09373,-0.10255 0.25191,-0.11722 0.35449,-0.02349c0.41026,0.37487 0.80876,0.82592 0.83526,1.41477z" fill="#201b0f" fill-rule="nonzero" stroke="none" stroke-width="1"/><path d="M293.74316,237.07198c0.4717,0.22842 0.49525,0.58286 0.5627,0.90511c0.06745,0.32223 0.05287,0.67088 -0.18432,0.94631c-0.07618,-0.01169 -0.15817,0.01467 -0.19043,-0.02925c-0.26673,-0.54775 -0.3313,-1.14245 -0.18795,-1.82216z" fill="#1d180e" fill-rule="nonzero" stroke="none" stroke-width="1"/><path d="M275.15445,234.99656c-0.34562,0.2198 -0.56831,0.14661 -0.80565,-0.08477c-0.19926,-0.22553 -0.44832,-0.38073 -0.38982,-0.76158c0.00586,-0.03808 0.01171,-0.07617 0.01171,-0.07617c0.0234,-0.15238 0.23136,-0.23736 0.33391,-0.14363c0.34577,0.287 0.73547,0.5418 0.84985,1.06615z" fill="#17130b" fill-rule="nonzero" stroke="none" stroke-width="1"/><path d="M272.91334,235.12017c0.0234,-0.15238 0.23723,-0.27542 0.41596,-0.17001c0.21095,0.14934 0.38386,0.29284 0.463,0.53892c0.05278,0.16408 0.02939,0.31639 -0.10242,0.41311c-0.13179,0.09671 -0.28415,0.07329 -0.4248,-0.02628c-0.2051,-0.18747 -0.36627,-0.40713 -0.35173,-0.75573z" fill="#382e16" fill-rule="nonzero" stroke="none" stroke-width="1"/><path d="M280.18305,262.52883c-0.10222,1.0549 -0.19708,2.0623 -0.35044,3.06069c0.27771,0.52929 0.94997,0.82723 1.16192,1.39509c0.45312,1.3349 0.38016,2.58893 -0.67189,3.5953c-0.77442,0.75702 -1.19088,1.52035 -1.22731,2.5367c0.00008,0.77866 -0.11676,1.53932 -0.23361,2.30003c0.3508,0.44317 0.71616,0.79131 0.95002,1.21651c0.83314,1.58789 0.66521,3.07069 -0.60606,4.33538c-0.56255,0.54624 -0.75982,1.05125 -0.80356,1.72581c0.00008,0.77866 -0.05831,1.5483 -0.1094,2.27044c0.10231,0.11301 0.0877,0.20812 0.13886,0.26463c1.57107,1.45793 1.38125,3.08336 0.32921,4.47902c-0.46027,0.65927 -0.78903,1.24141 -0.73052,2.02903c0.00731,0.34178 -0.0438,0.67459 -0.09492,1.00739c-0.05841,0.76967 0.0732,1.47117 0.62128,2.18799c1.05228,1.32958 0.84051,2.70832 -0.23346,3.85729c-0.43106,0.46911 -0.67941,0.91762 -0.65743,1.55363c0.02933,0.9778 -0.05827,1.93764 -0.0947,2.95396c1.19109,0.81559 1.74647,1.87419 1.62237,3.07172c-0.13144,1.24511 -0.54782,2.00842 -1.79722,2.74117c-0.09492,1.0074 -0.20438,2.10986 -0.24083,3.12623c0.16076,0.122 0.26307,0.23506 0.30692,0.33915c1.46877,1.34486 1.56391,3.06274 0.12457,4.25294c-0.6137,0.48972 -0.92783,0.97678 -0.97161,1.65132c0.00731,0.34178 -0.10223,0.6656 -0.21911,1.03696c-0.14607,0.56155 -0.04374,1.06389 0.2851,1.64973c0.90619,1.50178 0.30715,3.06438 -1.37329,3.87687c-0.58449,0.29951 -0.93521,0.63499 -1.19088,1.13101c-0.78895,1.63076 -1.79718,3.13048 -3.14148,4.48129c-0.7087,0.71845 -1.58547,1.3624 -2.50605,1.90231c-1.71698,1.0502 -3.66786,1.28586 -5.78683,1.05775c-2.29433,-0.25509 -4.12111,-1.21695 -5.86021,-2.36003c-1.46874,-0.95556 -2.74021,-2.02681 -3.93862,-3.18417c-0.46767,-0.4611 -1.06688,-0.84518 -1.61489,-1.17268c-0.4384,-0.26199 -0.92799,-0.58053 -1.52711,-0.18589c-0.19727,0.11568 -0.54067,0.01427 -0.83298,-0.03063c-1.16912,-0.17957 -2.3382,-0.35913 -3.50725,-0.53869c-0.52608,-0.08081 -0.99371,-0.15263 -1.41023,-0.55727c-0.20461,-0.22609 -0.62108,-0.24137 -0.91339,-0.28627c-2.04591,-0.31425 -4.0845,-0.67603 -6.13045,-0.99028c-1.28602,-0.19751 -2.62316,-0.45158 -3.88723,-0.79171c-0.22652,-0.08347 -0.46032,-0.11937 -0.54805,-0.32748c-0.0804,-0.25568 0.16804,-0.31485 0.31416,-0.48706c0.70139,-0.67091 1.50509,-1.22876 2.35991,-1.73009c0.65758,-0.38563 1.37358,-0.76232 1.92885,-1.261c0.48218,-0.41258 1.16174,-0.55154 1.89239,-0.63398c1.03022,-0.08509 2.03126,0.01998 3.08344,0.18159c0.93529,0.14366 1.87054,0.28731 2.74734,0.42198c0.43112,-0.07977 0.54795,-0.45115 0.86943,-0.59642c0.39456,-0.2314 0.77446,-0.36768 1.27136,-0.09674c0.27767,0.13995 0.64298,0.09876 0.93528,0.14367c0.82569,0.07814 1.59287,0.14735 2.41125,0.27306c0.58455,0.08978 1.22023,0.2361 1.63676,0.64067c0.16076,0.122 0.38,0.25304 0.60647,0.33647c2.33823,0.74844 4.43534,1.89786 6.46675,3.08581c0.21922,0.13097 0.49685,0.27098 0.71607,0.402c0.65763,0.39299 1.41755,0.50971 2.1117,0.66501c0.75259,0.16426 1.38099,-0.03121 1.76088,-0.55683c0.53336,-0.74538 1.06667,-1.49078 1.26385,-2.3851c0.50394,-2.50181 0.78134,-5.08706 0.93455,-7.64276c0.2116,-3.32536 0.05783,-6.60947 0.03562,-9.97076c-0.03669,-1.70889 -0.13914,-3.37919 -0.17585,-5.0881c-0.066,-2.29736 -0.18309,-4.65124 -0.30753,-6.9576c-0.08054,-1.81292 -0.16108,-3.62591 -0.24165,-5.43887c-0.05134,-2.00312 -0.04419,-3.99728 -0.09553,-6.00038c-0.01479,-1.8515 -0.02958,-3.70305 -0.10283,-5.56352c-0.05863,-1.9556 -0.0515,-3.94971 -0.11012,-5.90531c-0.05863,-1.9556 -0.12455,-3.86365 -0.06632,-5.80124c0.03637,-1.79498 -0.278,-3.64387 -0.3001,-5.44785c0.01432,-2.82032 0.0287,-5.64069 0.27689,-8.42507c0.10216,-1.44424 0.27006,-2.92701 0.3138,-4.38025c0.1386,-2.46061 0.74484,-4.84939 1.46796,-7.2202c0.01459,-0.09506 0.02192,-0.14262 0.09497,-0.22873c0.88396,-1.47016 1.43184,-3.08925 2.43272,-4.54146c1.3735,-1.93028 3.22926,-3.49451 5.51611,-4.74916c1.70237,-0.95515 3.58019,-1.49401 5.60411,-1.81576c0.85489,-0.112 1.6732,-0.37565 2.58656,-0.47869c0.91334,-0.10304 1.87781,-0.14952 2.78385,-0.20504c0.90603,-0.0555 1.85591,-0.00695 2.82038,-0.05344c1.92166,-0.0455 3.7776,0.33691 5.64815,0.62422c3.79225,0.63114 7.2192,2.08212 10.33938,3.97265c0.4384,0.26199 0.85496,0.66664 1.22033,1.01474c1.77569,1.68401 2.97418,3.62003 3.72696,5.73089c0.70892,2.0068 1.17676,4.02527 1.3377,6.09388c0.18283,1.926 0.24149,3.88161 0.19053,5.77164c-0.15321,2.55569 -0.25528,5.16786 -0.10888,7.72095c0.06592,1.5187 0.31446,3.01681 0.62151,4.52393c0.21935,1.29899 0.9355,2.47958 1.71744,3.62162c1.25681,0.3877 2.46246,0.71889 3.5512,1.42142c2.07525,1.29207 3.06908,3.00195 3.23003,5.07056c0.12436,1.52768 -0.48199,2.7485 -1.44638,3.96297c-0.81824,1.04227 -1.90688,1.89703 -2.94438,2.80827c-2.06034,1.72746 -4.31795,3.18126 -7.05061,4.22149c-2.98833,1.1469 -6.02051,2.18982 -9.34501,2.79846c-2.33814,0.41951 -4.70548,0.63986 -7.08748,0.566c-2.85695,-0.09815 -5.64086,-0.67174 -8.21294,-1.84543c-0.3946,-0.15792 -0.72337,-0.35445 -0.97917,-0.63704c-1.00846,-1.22549 -1.82691,-2.51916 -1.89279,-4.03789c-0.02201,-1.02535 0.12404,-1.97619 0.73772,-2.8552c0.59906,-0.78394 0.6794,-1.69623 0.70121,-2.6175c0.01443,-2.04171 0.14578,-4.06542 0.57665,-6.09182c0.41631,-1.93129 0.66456,-3.93711 1.08088,-5.86838c0.30671,-1.60748 0.73038,-3.19699 1.04441,-4.85199c0.2775,-1.4173 0.56235,-2.88213 0.83987,-4.29946c0.08032,-0.52297 0.27755,-1.02796 0.41634,-1.54197c0.47479,-1.53299 0.70849,-3.0544 0.12381,-4.70142c-0.2558,-0.67193 -0.59191,-0.82087 -1.35181,-0.54829c-0.62837,0.19547 -0.87674,0.64398 -1.17627,1.03591c0.00731,0.34178 0.27041,0.57684 0.46772,0.85048c0.96464,1.51078 0.8113,2.89849 -0.2334,4.24663c-0.43836,0.51665 -0.92785,0.97676 -1.56354,1.21978c-0.45303,0.22243 -0.61372,0.48973 -0.73061,0.86107c-0.23375,0.74274 -0.40903,1.49442 -0.53318,2.30267c0.6138,0.67827 1.22037,1.40407 1.26428,2.28675c-0.00723,0.82618 0.0513,1.61382 -0.36512,2.37717c-0.34336,0.67724 -1.13976,1.18754 -1.98728,1.64135zM252.40851,323.37587c0.16076,0.122 0.25576,0.28261 0.11696,0.40724c-0.13881,0.12466 -0.32148,0.14527 -0.49683,0.11834c-0.58455,-0.08978 -1.05954,-0.5034 -1.77558,-0.51603c-0.39452,0.62072 -0.19715,1.28365 -0.05827,1.93764c1.94364,0.5905 3.39046,1.68869 4.6985,2.91158c0.46766,0.46114 0.94266,0.87475 1.47604,1.29734c2.08987,1.5863 4.2966,2.80118 7.11704,3.13705c1.0595,0.11406 1.96551,0.05859 2.85691,-0.29115c0.50412,-0.16588 0.96446,-0.43586 1.41746,-0.65826c1.89964,-1.07082 3.0905,-2.59117 4.23022,-4.16805c0.53336,-0.74538 0.94973,-1.50873 1.13961,-2.35551c-1.43952,-1.14575 -1.77573,-2.07331 -1.31553,-3.51125c0.44559,-1.34283 1.65117,-1.7903 3.2075,-1.79459c0.17526,-0.75173 0.35059,-1.50341 0.41627,-2.32064c-1.32261,-0.73845 -2.25796,-1.66074 -2.11195,-3.00091c0.18986,-1.23614 0.82542,-2.25778 2.42558,-2.54729c0.14605,-0.95086 0.28479,-1.85417 0.24085,-2.73689c-1.07418,-0.79763 -2.09718,-1.53874 -2.08996,-2.75426c-0.00745,-1.50973 0.77427,-2.7036 2.33052,-3.48657c0.16065,-1.04594 0.13864,-2.07127 0.05815,-3.10561c-1.9729,-0.78966 -2.69637,-1.92271 -2.33115,-3.52125c0.04382,-0.28528 0.15338,-0.60909 0.19719,-0.89436c0.16797,-0.70416 0.72324,-1.20283 1.49043,-1.52302c0.25572,-0.10671 0.67218,-0.09141 0.8987,-0.39727c0.13874,-0.90333 0.21902,-1.81559 0.0655,-2.76381c-0.31421,-0.29159 -0.72338,-0.35444 -1.05954,-0.5034c-1.01569,-0.39931 -1.70256,-0.99146 -2.03876,-1.91905c-0.29968,-0.77599 -0.19015,-1.48913 0.14594,-2.11883c0.51137,-0.99205 1.28582,-1.7491 2.82753,-1.65827c0.11691,0.01796 0.24841,-0.05915 0.37993,-0.1363c0.08033,-0.9123 0.21905,-1.81561 0.11665,-2.70728c-2.17749,-1.01577 -3.12749,-2.2323 -2.97417,-3.62003c0.21905,-1.81558 1.18342,-2.64076 3.58,-3.05129c0.08033,-0.9123 0.16058,-1.82456 0.18242,-2.74586c0.03651,-0.23771 0.13145,-0.46645 -0.01467,-0.68357c-0.20461,-0.22609 -0.50418,-0.22341 -0.73069,-0.30689c-1.74637,-0.70621 -3.02524,-2.50857 -2.19975,-4.377c0.5698,-1.37241 1.60003,-1.84679 3.47788,-1.60705c0.26296,-0.93292 0.34321,-1.84521 0.43083,-2.80503c-0.54073,-0.37503 -1.18372,-0.47382 -1.60754,-0.8309c-1.75375,-1.43731 -1.83438,-4.41824 0.29175,-5.79493c0.46763,-0.31746 0.98637,-0.57846 1.62936,-0.4797c0.29227,0.0449 0.54067,-0.01427 0.84028,-0.01691c0.47487,-0.75436 0.54057,-1.57157 0.6647,-2.3798c-0.89873,0.00794 -1.56366,-0.33747 -2.0679,-0.95025c-0.24846,-0.33017 -0.43115,-0.69886 -0.55539,-1.05862c-0.60664,-1.89374 0.10195,-3.39086 1.78974,-4.64022c0.67219,-0.48074 1.49052,-0.74439 2.44772,-0.35401c0.1096,0.06552 0.29227,0.0449 0.41652,0.0153c0.59906,-0.78394 1.20548,-1.22613 1.7827,-1.47813c1.08134,-0.4179 2.30162,-0.18178 3.07622,0.61847c0.30692,0.33912 0.48232,0.7554 0.53349,1.20122c0.18278,1.14737 0.01482,2.24084 -0.2116,3.32536c-0.43815,2.46325 -0.99325,4.90854 -1.48989,7.3628c-0.5843,2.63545 -1.39512,5.1875 -1.74555,7.85888c-0.27018,2.14842 -0.6572,4.27884 -0.92006,6.37971c-0.09494,0.61805 -0.07295,1.25404 0.14631,2.16371c0.21919,-0.25832 0.358,-0.38301 0.48954,-0.46013c0.27763,-0.24937 0.60639,-0.44217 0.98636,-0.57846c0.18997,-0.06812 0.36533,-0.04118 0.53337,0.03325c0.21922,0.13097 0.24116,0.3777 0.09505,0.5499c-0.08764,0.1812 -0.28495,0.29688 -0.42375,0.42154c-0.35069,0.33544 -0.75983,0.66193 -1.11055,0.99737c-1.21278,1.27365 -2.20637,2.67833 -2.23544,4.42576c-0.01459,0.09506 -0.10956,0.32383 0.1827,0.36872c0.30688,-0.05016 0.27763,-0.24936 0.3653,-0.43052c0.48944,-1.23874 1.25656,-2.33754 2.35247,-3.23984c1.16166,-0.94084 2.37452,-1.8252 3.70428,-2.69155c2.99559,-1.97314 6.38577,-3.39897 10.05365,-4.29556c1.61475,-0.38462 3.22218,-0.72171 4.82967,-1.05874c2.03853,-0.41686 4.11362,-0.6821 6.20335,-0.65313c0.89872,-0.00794 1.79014,0.03164 2.67427,0.11877c0.47491,0.02427 0.94256,0.0961 1.39563,0.26304c1.24951,0.43524 2.52086,0.72785 3.60234,1.47795c0.1096,0.06552 0.26308,0.23506 0.46032,0.11938c-1.06695,-1.6238 -2.79141,-2.47266 -4.87387,-2.93853c-1.04489,-0.20916 -2.15552,-0.37975 -3.22233,-0.44625c-0.41652,-0.0153 -0.83297,-0.03063 -1.19833,-0.37871c0.61367,-0.87903 1.70241,-0.56581 2.62303,-0.71642c0.04382,-0.28525 -0.16811,-0.46378 -0.25577,-0.67193c-0.65042,-1.21917 -1.00126,-2.44103 -1.2206,-3.73999c-0.52636,-2.80604 -0.51202,-5.62638 -0.43918,-8.43775c0.11668,-2.31796 0.16765,-4.59736 0.05051,-6.95124c-0.03667,-1.31955 -0.25595,-2.61854 -0.41682,-3.90855c-0.34362,-2.43735 -1.49101,-4.70614 -2.8941,-6.86821c-0.87694,-1.30264 -2.01689,-2.45103 -3.57326,-3.22535c-1.22029,-0.62541 -2.50633,-1.21226 -3.72659,-1.8377c-0.50418,-0.22341 -1.01569,-0.39931 -1.5856,-0.5842c-1.77557,-0.51605 -3.58767,-0.79438 -5.39979,-1.0727c-1.51981,-0.23344 -3.06884,-0.2767 -4.62517,-0.27242c-2.3966,0.02118 -4.77124,0.28913 -6.99973,0.77411c-3.22221,0.72171 -6.0352,1.89555 -7.99318,4.12539c-1.16165,1.33016 -2.33058,2.70788 -2.98805,4.26149c-0.38717,0.9625 -0.77433,1.92498 -1.1615,2.88746c-1.2126,3.22026 -1.54839,6.57521 -1.82576,9.93912c-0.17519,1.91969 -0.16772,3.81871 -0.22599,5.75636c-0.02898,2.5261 0.11738,5.07912 0.20531,7.62317c0.10982,2.01211 0.21959,4.02424 0.2709,6.02733c0.02939,1.75646 0.00761,3.45635 0.03704,5.21276c0.00753,2.2884 0.13925,4.54719 0.08832,6.8266c-0.01432,2.82032 0.09551,5.61108 0.19807,8.44933c0.03661,0.93027 0.13173,1.86947 0.16831,2.79973c0.12455,3.86366 0.30759,7.73625 0.43217,11.59986c0.06599,2.68666 0.13203,5.37339 0.07383,8.08965c-0.04374,1.06388 -0.15324,2.16636 -0.19698,3.23024c-0.00708,2.38349 -0.43065,4.75166 -0.84692,7.07227c-0.28479,1.46484 -1.08112,2.7538 -2.42548,3.71526c-0.40915,0.32644 -0.90601,0.44481 -1.49786,0.40258c-1.78286,-0.07919 -3.30273,-0.70195 -4.72028,-1.60099c-1.42488,-0.85149 -2.87166,-1.56033 -4.44267,-2.23961c-0.67223,-0.2979 -1.30066,-0.49177 -2.08976,-0.41829c0.25577,0.28259 0.59187,0.43156 0.93531,0.53293c0.51147,0.17585 0.9645,0.34281 1.40292,0.6048c0.44572,0.21445 0.87688,0.52396 0.93537,0.9223c-0.15342,0.21976 -0.3361,0.24038 -0.50414,0.16589c-0.33614,-0.14892 -0.67222,-0.29791 -1.01567,-0.39933c-0.59187,-0.43156 -1.39568,-0.65233 -2.06791,-0.95025c-0.16806,-0.07449 -0.36531,0.04118 -0.35069,0.33542c0.69415,0.15528 1.2349,0.53033 1.85599,0.7717zM285.10914,277.2035c0.76726,0.4585 1.49065,0.81292 2.37476,0.90006c0.23382,0.03591 0.46761,0.07184 0.70143,0.10774c0.17537,0.02693 0.33613,0.14892 0.3654,0.34812c0.03653,0.15159 -0.10227,0.27627 -0.29224,0.3444c-0.25572,0.1067 -0.55528,0.10936 -0.7891,0.07344c-1.00102,-0.10507 -1.8998,-0.48645 -2.78397,-0.96291c-0.05113,-0.05653 -0.17539,-0.02693 -0.29227,-0.04488c-0.07303,0.08608 -0.14611,0.17221 -0.16802,0.31485c-0.0219,0.14262 -0.21918,0.25833 -0.01459,0.4844c0.4384,0.26199 1.05224,0.55091 1.68061,0.74476c0.97182,0.29524 1.8998,0.48645 2.89354,0.63909c0.35073,0.05387 0.63568,0.14631 0.70877,0.44952c-0.08764,0.1812 -0.28494,0.29691 -0.52603,0.30849c-0.90603,0.05549 -1.78284,-0.07919 -2.63777,-0.35648c-0.7453,-0.21178 -1.48331,-0.47115 -2.22861,-0.68295c-0.26303,0.15425 -0.40913,0.32643 -0.19724,0.50501c0.10231,0.11302 0.27037,0.18751 0.4384,0.262c1.67331,0.79232 3.37584,1.39448 5.23907,1.34c0.29958,-0.00266 0.6722,-0.0914 0.86224,0.22974c0.02922,0.19914 -0.10225,0.27627 -0.24109,0.40092c-0.3434,0.28791 -0.8183,0.2636 -1.29326,0.23935c-1.42483,-0.07287 -2.81314,-0.38339 -4.10647,-0.9227c-0.33613,-0.14892 -0.59186,-0.43156 -0.9645,-0.3428c-0.14611,0.17221 -0.05112,0.3328 0.05118,0.44585c0.43844,0.65134 1.0961,1.04433 1.84142,1.25612c0.91338,0.28627 1.76827,0.56362 2.69625,0.7548c3.71188,0.76478 7.29944,0.39119 10.86506,-0.2291c2.33814,-0.41951 4.55199,-1.19875 6.75854,-1.93046c2.08236,-0.70214 4.0697,-1.56484 5.80861,-2.75768c1.06673,-0.71212 2.14803,-1.51931 3.17088,-2.33549c0.95711,-0.77762 1.87037,-1.65931 2.60826,-2.5679c0.59906,-0.78395 0.91317,-1.66032 0.87654,-2.59057c-0.01467,-0.68357 -0.16813,-0.85312 -0.88424,-1.2551c-0.0219,0.14261 -0.04382,0.28528 -0.07301,0.47541c-0.02176,1.69991 -0.94956,3.06598 -2.27198,4.27415c-0.3434,0.28792 -0.68679,0.57584 -1.18365,0.69417c-0.06574,0.03859 -0.24112,0.01163 -0.23382,-0.03592c-0.10231,-0.11302 -0.14617,-0.21709 -0.13156,-0.31217c0.0219,-0.14262 0.16072,-0.26732 0.24109,-0.40096c0.43106,-0.46911 0.79633,-0.89966 1.22738,-1.36873c1.01554,-1.15794 1.40264,-2.50975 1.27098,-3.9899c-0.0585,-0.39827 -0.25577,-0.67193 -0.73074,-0.69621c-0.07303,0.08609 -0.13882,0.12466 -0.14612,0.17221c0.19744,1.44161 -0.51852,2.59689 -1.40985,3.72529c-0.22649,0.30587 -0.49686,0.50766 -0.92792,0.58744c-0.18267,0.02062 -0.36533,0.04119 -0.51145,-0.17591c-0.0731,-0.3032 0.26298,-0.54359 0.4164,-0.76333c0.45296,-0.61174 0.84745,-1.23245 1.13238,-1.91865c0.2849,-0.68621 0.39444,-1.39935 -0.0294,-2.14576c-0.27767,-0.13995 -0.56265,-0.23239 -0.83298,-0.03065c0.03653,0.15159 0.08041,0.25565 0.05118,0.44585c-0.08762,0.95986 -0.3944,1.78866 -1.2127,2.44164c-0.19727,0.11568 -0.39452,0.23138 -0.62104,0.14793c-0.27767,-0.13995 -0.19002,-0.32118 -0.10235,-0.50234c0.16803,-0.31485 0.3945,-0.62073 0.49675,-0.897c0.2703,-0.59112 0.43099,-1.24773 0.28479,-1.85416c-0.33613,-0.14892 -0.67222,-0.2979 -0.94989,-0.0486c0.00745,1.50973 -0.08021,1.69093 -1.3808,1.97783c0.17526,-0.75173 0.57711,-1.41993 0.44553,-2.12148c-0.62108,-0.24137 -1.20563,0.05812 -1.79015,-0.03166c-1.28602,-0.19752 -2.51348,0.00322 -3.74831,0.25157c-2.17005,0.49398 -4.34011,0.988 -6.51749,1.5295c-1.05944,0.27526 -2.07505,0.6546 -3.03948,1.09041c-0.90601,0.44483 -1.86312,0.83309 -2.7691,1.27793c-0.58448,0.29951 -1.16903,0.59908 -1.75353,0.89861c-1.2567,0.78028 -2.52067,1.60808 -3.77737,2.38834c-0.27033,0.20178 -0.64296,0.29053 -0.75251,0.61438c0.02922,0.19914 0.25576,0.28259 0.36539,0.34813c0.27767,0.13995 0.62839,0.19381 0.90609,0.33383c0.22652,0.08347 0.26306,0.23506 0.24115,0.3777c-0.01459,0.09506 -0.14611,0.17221 -0.27033,0.20178c-0.18267,0.02062 -0.36534,0.04124 -0.54069,0.01431c-0.59916,0.00528 -1.01569,-0.39933 -1.39564,-0.65235c-0.25572,0.10671 -0.33609,0.24039 -0.49684,0.50768zM283.85713,249.51577c0.23375,-0.74274 -0.13166,-1.48014 -1.00123,-2.05169c-0.54073,-0.37503 -1.1399,-0.36973 -1.67324,-0.01367c-1.33706,0.9139 -1.51958,2.49179 -1.0007,3.78812c0.12425,0.35974 0.44575,0.60379 0.97918,0.63704c0.77449,0.02165 1.51248,-0.10835 1.95814,-0.67257c0.31414,-0.48705 0.62826,-0.97411 0.7378,-1.68725zM277.88837,258.76993c-0.08033,0.52297 0.07317,1.08186 0.35089,1.61115c0.4531,0.94556 1.49797,1.15472 2.27243,0.39771c0.13881,-0.12466 0.22649,-0.30587 0.3726,-0.47808c0.33605,-0.62969 0.43828,-1.29528 0.43091,-2.02638c-0.05853,-0.78763 -0.67966,-1.41832 -1.60032,-1.65708c-0.34343,-0.10143 -0.65029,-0.0512 -0.8695,0.20711c-0.50414,0.5552 -0.66478,1.21181 -0.95698,1.94557zM246.41667,319.925c-1.02283,1.20551 -1.28576,2.52771 -1.37328,3.87688c-0.05835,1.15899 0.15356,1.33751 1.55647,1.55298c0.17537,0.02693 0.35072,0.05387 0.49683,-0.11834c-0.26318,-1.79237 0.22619,-3.42044 1.18321,-4.97672c-0.55534,-0.27994 -1.1691,-0.17957 -1.86324,-0.33485zM276.72016,267.93401c-0.16065,0.65663 -0.0072,1.21552 0.44585,1.77174c0.49692,0.66031 1.38834,0.69986 2.04591,0.31423c1.05942,-0.66457 1.13962,-2.35551 0.13121,-3.19168c-0.63572,-0.53562 -1.59291,-0.53665 -2.09703,0.01856c-0.3434,0.28791 -0.5187,0.65031 -0.526,1.08717zM279.06661,278.75728c0.02921,-0.19016 0.05841,-0.38031 0.08032,-0.52298c0.06572,-0.81719 -0.38005,-1.42098 -1.27883,-1.80233c-0.55534,-0.27994 -1.11796,-0.12303 -1.37365,0.37298c-0.16072,0.26732 -0.263,0.5436 -0.31411,0.8764c-0.11684,0.76068 -0.17521,1.53033 0.24865,2.27675c0.23386,0.4252 0.62841,0.58316 1.12528,0.46485c0.30688,-0.05016 0.5699,-0.20444 0.84023,-0.40625c0.41646,-0.37401 0.66481,-0.82254 0.67208,-1.25938zM276.3857,285.69382c-0.51146,0.60277 -0.67939,1.30693 -0.90587,2.00211c-0.09494,0.22875 -0.00727,0.43683 0.01467,0.68356c0.05118,0.44585 0.57,0.96353 1.15458,1.05331c0.46761,0.07183 0.90605,-0.0555 1.19098,-0.35239c0.15342,-0.21976 0.3653,-0.43053 0.51875,-0.65029c0.2703,-0.59113 0.29948,-1.17063 -0.14632,-1.77441c-0.40189,-0.49972 -0.86227,-1.00841 -1.82677,-0.96189zM276.93579,308.2127c1.40285,-0.56317 1.33699,-1.69255 1.32228,-2.76544c0.0073,-0.43687 -0.33618,-0.92761 -0.90615,-1.11251c-0.45302,-0.16688 -1.24213,0.29586 -1.49782,0.79192c-0.08764,0.1812 -0.11684,0.37132 -0.20454,0.55256c-0.04382,0.28528 -0.02191,0.53196 -0.06572,0.81721c-0.06572,0.81719 0.32162,1.412 1.35191,1.71622zM276.41612,298.7406c0.77449,0.02165 1.24213,-0.29584 1.54897,-0.73538c0.3726,-0.47808 0.40909,-1.10512 0.25559,-1.664c-0.10964,-0.45482 -0.27778,-0.91863 -0.70158,-1.27571c-0.53343,-0.42259 -1.01569,-0.39933 -1.38829,0.07876c-0.07303,0.08608 -0.14611,0.17221 -0.16802,0.31485c-0.29216,1.12308 -0.39433,2.178 0.45334,3.28147zM275.76014,316.25638c0.81838,0.1257 1.34443,-0.18278 1.72432,-0.70848c0.38721,-0.57317 0.241,-1.17957 -0.0294,-1.75643c-0.1827,-0.36872 -0.70147,-0.49701 -1.17641,-0.52135c-0.47492,-0.02426 -0.63568,0.24302 -0.79638,0.51032c-0.48948,0.84947 -0.43824,1.6846 0.27788,2.47588zM273.83176,322.57855c-0.05841,0.38031 -0.00723,0.82618 0.16817,1.24246c0.21925,0.52031 0.73074,0.69623 1.19833,0.37871c0.73792,-0.51929 1.0813,-1.19652 0.96429,-1.99313c-0.02922,-0.19914 -0.1681,-0.4638 -0.31429,-0.6809c-0.29232,-0.43418 -0.88418,-0.47648 -1.29333,-0.14999c-0.40185,0.27894 -0.70139,0.67092 -0.72323,1.20285zM248.77725,325.59203c0.02921,-0.5795 0.12411,-1.19757 0.15327,-1.77705c0.0438,-0.67457 0.37254,-1.25671 0.58437,-1.85684c0.20454,-0.55257 0.91325,-0.8817 0.95702,-1.55626c-0.7672,-0.06916 -0.95715,0.38829 -1.19094,0.74171c-1.11051,1.38669 -1.36609,3.05068 -0.50376,4.44843z" fill="#010001" fill-rule="nonzero" stroke="none" stroke-width="1"/><path d="M252.95156,323.1356c0.33614,0.14892 0.67223,0.2979 1.01569,0.3993c0.16806,0.07449 0.35072,0.05387 0.50414,-0.16587c-0.11695,-0.40727 -0.48964,-0.70784 -0.93537,-0.9223c-0.44572,-0.21445 -0.94989,-0.43787 -1.40294,-0.60476c-0.34343,-0.10143 -0.67953,-0.25035 -0.93531,-0.53293c0.78179,-0.0259 1.41753,0.12043 2.08977,0.41827c1.51254,0.6703 3.01783,1.38816 4.44269,2.23962c1.42488,0.85149 2.94475,1.47427 4.72026,1.60098c0.59186,0.04223 1.08871,-0.07612 1.49786,-0.40258c1.35167,-1.00902 2.14066,-2.25039 2.4255,-3.71525c0.47472,-2.31165 0.83984,-4.6888 0.84692,-7.07227c-0.01471,-1.07288 0.15323,-2.16638 0.19697,-3.23026c0.0582,-2.71626 -0.00782,-5.40296 -0.07383,-8.08964c-0.12455,-3.86365 -0.24915,-7.72727 -0.43216,-11.59984c-0.03662,-0.93024 -0.13173,-1.86947 -0.16833,-2.7997c-0.10254,-2.83828 -0.21243,-5.62904 -0.19805,-8.44939c-0.00753,-2.28837 -0.08077,-4.53821 -0.08832,-6.82659c-0.02939,-1.75646 -0.00761,-3.45636 -0.03703,-5.21276c-0.05134,-2.00312 -0.1611,-4.01525 -0.27093,-6.02734c-0.14635,-2.55302 -0.29275,-5.10605 -0.20531,-7.62317c0.05827,-1.93764 0.05082,-3.83673 0.22599,-5.75636c0.27734,-3.36392 0.61311,-6.71885 1.82577,-9.93911c0.38717,-0.9625 0.77432,-1.92498 1.16149,-2.88746c0.6648,-1.60115 1.82643,-2.9313 2.98807,-4.26151c1.95798,-2.22982 4.77098,-3.40368 7.99316,-4.12539c2.29426,-0.52358 4.60318,-0.75291 6.99976,-0.77411c1.55633,-0.00429 3.10534,0.03897 4.62521,0.27242c1.81209,0.27833 3.6315,0.50911 5.39979,1.07272c0.51147,0.17585 1.08875,0.3132 1.58558,0.5842c1.22761,0.57783 2.50633,1.21224 3.72659,1.83768c1.5564,0.77436 2.69637,1.92274 3.57326,3.22536c1.46153,2.17107 2.55048,4.43087 2.8941,6.86822c0.21935,1.29899 0.37287,2.6365 0.41682,3.90855c0.12441,2.30635 0.00772,4.62429 -0.05051,6.95125c-0.13125,2.80237 -0.14563,5.62271 0.43918,8.43774c0.22666,1.25143 0.57017,2.52077 1.22056,3.73998c0.0877,0.20813 0.29958,0.38668 0.25577,0.67193c-0.86219,0.15957 -2.00935,-0.16264 -2.62303,0.71642c0.36541,0.3481 0.78187,0.36339 1.19833,0.37871c1.06679,0.06656 2.17744,0.23715 3.22233,0.44626c2.08246,0.46584 3.80694,1.31469 4.87387,2.93851c-0.19727,0.11568 -0.35072,-0.05386 -0.46033,-0.11938c-1.08148,-0.75007 -2.35283,-1.0427 -3.60233,-1.47795c-0.45302,-0.16688 -0.92799,-0.19121 -1.39563,-0.26304c-0.89143,-0.03962 -1.78284,-0.07919 -2.67427,-0.11875c-2.14817,-0.03797 -4.22327,0.2273 -6.20335,0.65314c-1.60744,0.33706 -3.2149,0.67416 -4.82967,1.05874c-3.72632,0.88758 -7.0581,2.32244 -10.05365,4.29553c-1.264,0.82782 -2.53528,1.70315 -3.70428,2.69155c-1.10324,0.94982 -1.86301,2.00108 -2.35247,3.23985c-0.08764,0.1812 -0.05842,0.38032 -0.3653,0.43052c-0.29227,-0.0449 -0.14615,-0.21709 -0.1827,-0.3687c-0.02939,-1.75646 0.95688,-3.11354 2.23545,-4.42576c0.35069,-0.33544 0.75981,-0.66194 1.11053,-0.99738c0.13881,-0.12466 0.28495,-0.29688 0.42376,-0.42154c0.08764,-0.1812 0.05843,-0.38031 -0.09503,-0.54991c-0.16076,-0.122 -0.34343,-0.10144 -0.53338,-0.03325c-0.37995,0.1363 -0.70871,0.32914 -0.98637,0.57847c-0.13881,0.12466 -0.21188,0.21076 -0.48954,0.46011c-0.22659,-0.86209 -0.24854,-1.49809 -0.14631,-2.16371c0.32861,-2.13945 0.65719,-4.27884 0.92005,-6.37971c0.35049,-2.67136 1.1686,-5.27093 1.74556,-7.85885c0.49663,-2.45427 1.05172,-4.89956 1.4899,-7.36283c0.22638,-1.0845 0.39434,-2.17799 0.21158,-3.32533c-0.05118,-0.44585 -0.22656,-0.86209 -0.53349,-1.20122c-0.77459,-0.80028 -1.98755,-1.08392 -3.07622,-0.61847c-0.63566,0.24302 -1.19093,0.74173 -1.7827,1.47813c-0.11691,-0.01796 -0.29958,0.00266 -0.41652,-0.01531c-0.95721,-0.39032 -1.76824,-0.17424 -2.44772,0.35401c-1.68043,1.20182 -2.38905,2.6989 -1.78974,4.64022c0.11695,0.40727 0.29969,0.77599 0.5554,1.05863c0.50423,0.61276 1.16917,0.95822 2.06789,0.95025c-0.13144,0.85578 -0.18984,1.62544 -0.66471,2.37978c-0.29958,0.00266 -0.54797,0.06181 -0.84027,0.01691c-0.70143,-0.10774 -1.16176,0.16221 -1.62934,0.4797c-2.12613,1.37669 -2.04551,4.35761 -0.29173,5.79493c0.48226,0.36606 1.1253,0.46484 1.60756,0.83087c-0.08033,0.9123 -0.16789,1.87213 -0.43084,2.80503c-1.87054,-0.2873 -2.90804,0.23466 -3.47786,1.60706c-0.82546,1.86845 0.45334,3.67082 2.19974,4.37705c0.22652,0.08347 0.58455,0.08978 0.73067,0.30688c0.14615,0.21711 0.0512,0.44585 0.01469,0.68357c-0.08033,0.91231 -0.10211,1.83355 -0.18242,2.74586c-2.46233,0.44909 -3.42675,1.27421 -3.58002,3.05129c-0.16064,1.43526 0.8478,2.66077 2.97417,3.62004c0.10238,0.89169 -0.03635,1.79499 -0.11664,2.7073c-0.12421,0.0296 -0.25572,0.10671 -0.37991,0.1363c-1.54172,-0.09083 -2.31619,0.66622 -2.82759,1.65826c-0.34336,0.67724 -0.44559,1.34283 -0.14594,2.11883c0.33617,0.92761 1.02307,1.51973 2.03876,1.91907c0.33614,0.14892 0.74528,0.21176 1.05953,0.50339c0.16083,0.90068 0.07323,1.86049 -0.06552,2.76382c-0.22649,0.30587 -0.5772,0.25201 -0.89871,0.39727c-0.76716,0.32015 -1.264,0.82783 -1.49043,1.52302c-0.10225,0.2763 -0.15339,0.60907 -0.1972,0.89435c-0.36519,1.59849 0.35097,2.77912 2.33117,3.52127c0.08047,1.03432 0.10251,2.05966 -0.05813,3.10557c-1.55629,0.78293 -2.33798,1.97682 -2.33052,3.48657c-0.0072,1.21552 1.07429,1.96561 2.09001,2.75426c0.04392,0.88271 -0.09482,1.78599 -0.24087,2.73689c-1.60744,0.33706 -2.29418,1.3022 -2.42558,2.54728c-0.14604,1.34017 0.78935,2.26249 2.11195,3.00092c-0.00723,0.82618 -0.18254,1.57791 -0.41627,2.32064c-1.61478,-0.00472 -2.82036,0.44277 -3.2075,1.79459c-0.46019,1.4379 -0.12401,2.36553 1.31553,3.51125c-0.24835,0.83783 -0.66476,1.60116 -1.13962,2.35551c-1.13972,1.57688 -2.33784,3.14476 -4.23017,4.16806c-0.46034,0.26995 -0.9133,0.49237 -1.41746,0.65826c-0.8914,0.34973 -1.85587,0.39627 -2.85691,0.29115c-2.82043,-0.3359 -5.08565,-1.55978 -7.11704,-3.13705c-0.53343,-0.42259 -1.00841,-0.8362 -1.47607,-1.29731c-1.30071,-1.27038 -2.75486,-2.32104 -4.6985,-2.91158c-0.13889,-0.65397 -0.3362,-1.31695 0.05827,-1.93764c0.65758,0.0037 1.19102,0.42627 1.77557,0.51605c0.17537,0.02693 0.35072,0.05387 0.49683,-0.11835c0.14611,-0.17221 0.04383,-0.28528 -0.11695,-0.40724c0.09494,-0.22875 0.37263,-0.08874 0.56258,-0.15692zM302.26666,265.79174c-0.88413,-0.08712 -1.73899,0.02491 -2.5427,0.19345c-2.82767,0.49033 -5.37032,1.46239 -7.92754,2.52955c-0.70139,0.28155 -1.35166,0.61968 -1.84848,1.12736c-0.07303,0.08609 -0.09494,0.22872 -0.04382,0.28527c0.1096,0.06552 0.21922,0.13097 0.33613,0.14892c0.35073,0.05387 0.62107,-0.14794 0.87679,-0.25464c1.14714,-0.45644 2.30153,-0.96042 3.44135,-1.36933c2.35268,-0.90394 4.80767,-1.69483 7.46731,-1.87029c0.18267,-0.02062 0.36534,-0.04118 0.54799,-0.0618c0.18996,-0.06812 0.23378,-0.35337 0.07301,-0.47542c-0.10231,-0.11301 -0.27038,-0.18751 -0.38001,-0.25303zM285.68549,242.07595c0.10955,-0.32384 0.01457,-0.48439 -0.27041,-0.57684c-1.8925,-0.53401 -4.48625,0.77085 -4.72723,2.33978c-0.04382,0.28528 0.1608,0.51134 0.56265,0.62174c0.06574,-0.03859 0.12423,-0.0296 0.12423,-0.0296c0.32149,-0.14528 0.30684,-0.43952 0.46026,-0.65928c0.52604,-0.69783 1.14705,-1.2351 2.24304,-1.35874c0.54798,-0.06181 1.05214,-0.22767 1.60744,-0.33706zM290.84314,232.25925c0.26303,-0.15425 0.29224,-0.3444 0.263,-0.54359c-0.45313,-1.3349 -1.09623,-2.60162 -2.25082,-3.65489c-0.10231,-0.11301 -0.27038,-0.1875 -0.43842,-0.26199c-0.22652,-0.08347 -0.47492,-0.02427 -0.61376,0.10038c-0.20457,0.16323 -0.17533,0.36237 -0.02187,0.53196c1.118,0.90168 1.66612,2.00784 2.27269,3.12294c0.13885,0.26466 0.27038,0.57684 0.7892,0.7052zM293.21053,232.42823c0.12421,-0.0296 0.24843,-0.05919 0.32149,-0.14528c0.27033,-0.20181 0.24841,-0.44847 0.17529,-0.75172c-0.35813,-1.17428 -1.08893,-2.25982 -1.81969,-3.34535c-0.19731,-0.27363 -0.54802,-0.32748 -0.85493,-0.27729c-0.25572,0.1067 -0.358,0.38296 -0.10954,0.71314c0.04383,0.10403 0.14615,0.21709 0.19001,0.32118c0.70154,0.88639 1.26423,1.89745 1.65158,2.88158c0.03652,0.15159 0.13155,0.31217 0.23386,0.42519c-0.01459,0.09506 0.10231,0.11302 0.21192,0.17854zM301.94959,234.74378c0.01459,-0.09506 0.02921,-0.19017 0.03651,-0.23772c-0.12432,-1.13837 -0.42399,-2.30368 -0.85522,-3.39186c-0.0804,-0.25568 -0.28501,-0.48176 -0.55535,-0.66929c-0.1096,-0.06552 -0.28496,-0.09245 -0.4092,-0.06285c-0.12421,0.0296 -0.20457,0.16322 -0.27764,0.24936c-0.01459,0.09506 -0.03651,0.23769 0.00735,0.34178c0.53349,1.20121 0.82587,2.4141 1.11823,3.62695c0.03653,0.15159 0.13154,0.31221 0.23386,0.42522c0.09501,0.16056 0.45302,0.16688 0.59186,0.04223c-0.03653,-0.15159 0.03653,-0.23773 0.10956,-0.32384zM297.50662,229.38958c-0.51143,0.21342 -0.44565,0.56419 -0.26296,0.93294c0.48963,1.09718 0.91353,2.23287 1.27898,3.35964c0.03653,0.15159 0.19731,0.27363 0.37271,0.30058c0.50414,-0.1659 0.56254,-0.54622 0.44561,-0.95352c-0.27778,-0.91863 -0.55549,-1.83726 -1.0232,-2.68771c-0.1827,-0.36872 -0.31423,-0.6809 -0.81116,-0.95189zM296.23551,232.60084c0.32879,-0.19283 0.32146,-0.53462 0.24836,-0.83783c-0.32156,-1.02271 -0.64319,-2.04537 -1.34471,-2.93174c-0.04382,-0.10403 -0.15347,-0.16954 -0.25577,-0.28262c-0.16076,-0.122 -0.33613,-0.14894 -0.52608,-0.08081c-0.24843,0.05914 -0.3434,0.28792 -0.25572,0.49603c0.03652,0.15159 0.13158,0.31219 0.23387,0.42521c0.43844,0.65133 0.74539,1.37978 1.00122,2.05169c0.13154,0.31221 0.20464,0.61541 0.34348,0.88004c0.0877,0.20813 0.31422,0.29158 0.55534,0.27996zM303.19882,232.45376c-0.50414,0.1659 -0.43105,0.46911 -0.35795,0.77232c0.37272,1.07922 0.62857,2.14045 0.70175,3.22231c0.02922,0.19914 0.19731,0.27361 0.37271,0.30055c0.45303,-0.2224 0.56986,-0.59378 0.51136,-0.99205c-0.10238,-0.89169 -0.2632,-1.79236 -0.614,-2.62486c-0.08041,-0.25568 -0.1608,-0.51134 -0.6138,-0.67827zM284.98276,228.34195c-0.02921,0.19016 0.07309,0.30323 0.23387,0.4252c0.92799,0.58053 1.33726,1.42202 1.93652,2.19534c0.15346,0.16954 0.24845,0.33015 0.40189,0.49972c0.05113,0.05653 0.16076,0.122 0.22651,0.08347c0.12421,-0.0296 0.25573,-0.10669 0.27034,-0.2018c0.0219,-0.14262 0.04382,-0.28527 -0.0512,-0.44583c-0.39463,-0.93658 -0.97925,-1.80501 -1.82691,-2.51917c-0.21192,-0.17852 -0.43111,-0.30952 -0.72338,-0.35441c-0.22652,-0.08347 -0.49683,0.11836 -0.46759,0.3175zM279.65618,228.35111c-0.32879,0.1928 -0.3653,0.43052 -0.16797,0.70416c0.54806,0.71681 1.22036,1.40402 1.95839,2.05271c0.16076,0.122 0.33614,0.14893 0.52608,0.0808c0.19727,-0.11568 0.28495,-0.29688 0.19724,-0.50502c0.00731,-0.04755 -0.04384,-0.10403 -0.04384,-0.10403c-0.55535,-0.66929 -1.10345,-1.38611 -1.85608,-1.93969c-0.15346,-0.16954 -0.31421,-0.29159 -0.61378,-0.28892zM285.34836,231.02597c-0.41654,-0.79395 -1.68077,-2.30207 -2.22877,-2.62957c-0.21922,-0.13097 -0.45302,-0.16688 -0.65029,-0.0512c-0.19727,0.11568 -0.29224,0.3444 -0.13878,0.51399c0.70884,0.83884 1.43227,1.58259 2.34568,2.2582c0.21922,0.13097 0.4603,0.11937 0.67218,-0.09141zM279.33495,231.22162c-0.06583,-0.74007 -0.69427,-1.32325 -1.33729,-1.81133c-0.10231,-0.11301 -0.34343,-0.10143 -0.54067,0.01425c-0.13881,0.12466 -0.16073,0.26733 -0.06572,0.42789c0.33619,0.53827 0.7381,1.03801 1.27881,1.41305c0.15346,0.16954 0.3946,0.15792 0.66488,-0.04386zM305.72717,235.08068c-0.18987,0.8468 -0.06562,1.59585 0.36552,2.2947c-0.00731,0.04755 0.17537,0.02695 0.29228,0.0449c0.40915,-0.32643 0.35797,-0.77233 0.24099,-1.17962c-0.11695,-0.40724 -0.16814,-0.85311 -0.89884,-1.16003zM277.23066,231.67706c-0.19735,-0.66295 -0.80385,-0.99944 -1.34456,-1.37446c-0.16076,-0.122 -0.47493,-0.02427 -0.50414,0.1659c-0.00731,0.04755 -0.01459,0.09506 -0.01459,0.09506c-0.06573,0.42789 0.31423,0.68091 0.62845,0.9725c0.38,0.25301 0.71607,0.40199 1.23483,0.14099zM273.8111,231.73582c-0.06573,0.42789 0.24847,0.71948 0.57,0.96351c0.21922,0.13097 0.38731,0.20545 0.65029,0.0512c0.19727,-0.11568 0.22649,-0.30587 0.13875,-0.514c-0.13156,-0.31218 -0.40189,-0.4997 -0.73074,-0.69622c-0.27767,-0.13994 -0.59915,0.00528 -0.62837,0.19547zM288.83002,270.68697c0.02921,-0.19016 -0.24846,-0.33016 -0.48956,-0.31852c-0.36534,0.04118 -0.62108,0.14793 -0.83293,0.35869c-0.13881,0.12466 -0.21917,0.25832 -0.06571,0.42789c0.09501,0.16056 0.26306,0.23506 0.50416,0.22341c0.48222,-0.02324 0.88411,-0.3022 0.88404,-0.69152zM304.94825,266.25229c0.41652,0.01531 0.84027,-0.01691 1.13252,-0.36136c0.06574,-0.03859 -0.02192,-0.24667 -0.13155,-0.31218c-0.4311,-0.30954 -0.87682,-0.13468 -1.25674,0.00162c-0.18996,0.06812 -0.27034,0.2018 -0.17533,0.36234c0.03652,0.15159 0.14616,0.21711 0.43112,0.30953z" fill="#ffc941" fill-rule="nonzero" stroke="none" stroke-width="1"/><path d="M285.10914,277.2035c0.10225,-0.2763 0.24839,-0.44849 0.56255,-0.54624c0.38,0.25301 0.7965,0.65765 1.39564,0.65235c0.17537,0.02693 0.35804,0.00631 0.54067,-0.01426c0.12421,-0.0296 0.25573,-0.1067 0.27034,-0.20179c0.08033,-0.13363 -0.01462,-0.29426 -0.24116,-0.37771c-0.28498,-0.09245 -0.62838,-0.1938 -0.90608,-0.33382c-0.16806,-0.07449 -0.33614,-0.14892 -0.36541,-0.3481c0.10955,-0.32384 0.48224,-0.41256 0.75252,-0.61438c1.264,-0.82782 2.52067,-1.60807 3.77737,-2.38834c0.53334,-0.35606 1.11055,-0.60806 1.75352,-0.89861c0.90599,-0.4448 1.86315,-0.83314 2.76917,-1.27793c0.96446,-0.43584 1.9216,-0.82416 3.03949,-1.09041c2.17735,-0.54153 4.3474,-1.03552 6.51747,-1.5295c1.17638,-0.2573 2.46233,-0.44909 3.74832,-0.25158c0.58455,0.08978 1.17636,-0.25728 1.79014,0.03164c0.13158,0.70152 -0.27022,1.36978 -0.44551,2.1215c1.30056,-0.28687 1.38825,-0.46808 1.3808,-1.97783c0.27763,-0.24934 0.60646,-0.05283 0.94989,0.04859c0.19735,0.66296 -0.0145,1.26308 -0.28479,1.85417c-0.16803,0.31485 -0.33605,0.62969 -0.49677,0.89699c-0.08764,0.1812 -0.17533,0.36234 0.10234,0.50234c0.21922,0.13097 0.41653,0.0153 0.62108,-0.14791c0.81828,-0.65295 1.13241,-1.52934 1.2127,-2.44164c0.0219,-0.14262 -0.01465,-0.29423 -0.0512,-0.44581c0.32879,-0.19283 0.54798,-0.06181 0.83299,0.03059c0.43114,0.69886 0.3216,1.412 0.02943,2.14576c-0.2849,0.68621 -0.621,1.3159 -1.13238,1.91864c-0.21918,0.25835 -0.48953,0.46011 -0.41642,0.76333c0.14615,0.2171 0.32883,0.19648 0.51148,0.17586c0.43112,-0.07977 0.7087,-0.32915 0.92791,-0.58745c0.89131,-1.1284 1.60726,-2.28368 1.40987,-3.72527c0.00731,-0.04755 0.08033,-0.13363 0.14611,-0.17221c0.52608,0.08081 0.73067,0.30688 0.73074,0.69622c0.13166,1.48015 -0.25547,2.83197 -1.27097,3.98992c-0.43106,0.46911 -0.79639,0.89964 -1.22739,1.36873c-0.08033,0.13363 -0.21918,0.25832 -0.24108,0.40093c-0.01459,0.09506 0.0877,0.20812 0.13154,0.31221c0.05113,0.05653 0.16807,0.07448 0.23383,0.03591c0.49683,-0.11835 0.89871,-0.39728 1.18364,-0.69417c1.37357,-1.15162 2.24292,-2.5267 2.27198,-4.27414c0.0219,-0.14261 0.04382,-0.28527 0.07302,-0.47543c0.71608,0.40197 0.86954,0.57154 0.88423,1.25511c0.03661,0.93027 -0.21902,1.8156 -0.87654,2.59057c-0.74521,0.95616 -1.65118,1.7903 -2.60826,2.5679c-0.96442,0.82517 -2.03845,1.58482 -3.17091,2.3355c-1.73159,1.14531 -3.71897,2.00799 -5.80858,2.75765c-2.20656,0.73171 -4.42042,1.51097 -6.75854,1.93046c-3.56563,0.62029 -7.15318,0.99387 -10.86506,0.22909c-0.92799,-0.19121 -1.84134,-0.47746 -2.69625,-0.75478c-0.73799,-0.25933 -1.45409,-0.66132 -1.8414,-1.25616c-0.10231,-0.11302 -0.19731,-0.27361 -0.0512,-0.44581c0.36534,-0.04118 0.68683,0.2028 0.9645,0.3428c1.29335,0.53931 2.68163,0.84986 4.10646,0.92274c0.47492,0.02427 0.94988,0.0486 1.29325,-0.23932c0.13881,-0.12466 0.27034,-0.20182 0.2411,-0.40096c-0.19,-0.32116 -0.56265,-0.23239 -0.86223,-0.22973c-1.92166,0.0455 -3.63149,-0.5091 -5.23907,-1.34c-0.16806,-0.07449 -0.33611,-0.14893 -0.4384,-0.262c-0.20461,-0.22609 -0.00731,-0.34179 0.19723,-0.50502c0.7453,0.21178 1.48331,0.47117 2.22861,0.68298c0.85493,0.27729 1.73905,0.3644 2.63778,0.35647c0.24112,-0.01164 0.43111,-0.07977 0.52602,-0.30849c-0.06579,-0.35077 -0.4165,-0.40463 -0.70877,-0.44953c-0.99371,-0.15263 -1.91439,-0.39133 -2.89352,-0.63908c-0.62839,-0.19382 -1.24951,-0.43524 -1.68062,-0.74477c-0.26306,-0.23506 -0.0658,-0.35075 0.01458,-0.48439c0.01459,-0.09506 0.08767,-0.18119 0.16803,-0.31485c0.11691,0.01796 0.17537,0.02695 0.29227,0.0449c0.82571,0.46748 1.72446,0.84885 2.78397,0.96292c0.29227,0.0449 0.59186,0.04222 0.78911,-0.07346c0.18996,-0.06812 0.27033,-0.2018 0.29223,-0.34441c-0.03652,-0.15159 -0.13885,-0.26463 -0.36534,-0.34809c-0.23382,-0.0359 -0.46032,-0.11938 -0.70144,-0.10774c-0.89142,-0.03962 -1.67327,-0.40299 -2.44051,-0.86149zM311.01151,277.62942c-0.43111,-0.30954 -0.86221,-0.22974 -1.25674,0.00162c-1.31516,0.77132 -2.72528,1.38201 -4.13543,1.99273c-2.24306,0.96939 -4.52269,1.78722 -7.05077,2.27487c-1.04483,0.18018 -2.08239,0.3128 -3.12724,0.49296c-0.36534,0.04119 -0.73065,0.08243 -0.8987,0.39728c0.0804,0.25568 0.29961,0.38668 0.58456,0.47908c0.40191,0.1104 0.82569,0.07814 1.24944,0.04594c2.30894,-0.22935 4.4205,-0.73231 6.50289,-1.43443c1.89238,-0.63398 3.69708,-1.47607 5.49443,-2.2706c0.76716,-0.32015 1.43937,-0.8009 2.15537,-1.17753c0.3361,-0.24038 0.66488,-0.43318 0.48217,-0.80191z" fill="#ffc941" fill-rule="nonzero" stroke="none" stroke-width="1"/><path d="M277.88837,258.76993c0.23375,-0.74274 0.45288,-1.39037 0.95697,-1.94559c0.21918,-0.25833 0.52604,-0.30847 0.8695,-0.2071c0.86224,0.22973 1.54176,0.86943 1.60032,1.65707c0.01467,0.68358 -0.09486,1.39672 -0.43091,2.02638c-0.08764,0.1812 -0.23378,0.35338 -0.37261,0.47809c-0.77442,0.75702 -1.82662,0.59539 -2.27243,-0.39772c-0.27771,-0.52929 -0.43118,-1.08819 -0.35085,-1.61114z" fill="#fcc741" fill-rule="nonzero" stroke="none" stroke-width="1"/><path d="M276.72016,267.93401c0.0073,-0.43687 0.24104,-0.79027 0.53329,-1.13472c0.55525,-0.4987 1.51247,-0.49765 2.09703,-0.01856c1.00841,0.8362 0.92821,2.52713 -0.13121,3.19168c-0.66488,0.4332 -1.54899,0.34608 -2.04591,-0.31423c-0.46034,-0.5087 -0.61385,-1.06759 -0.45316,-1.72422z" fill="#fac640" fill-rule="nonzero" stroke="none" stroke-width="1"/><path d="M279.06661,278.75728c-0.07301,0.47541 -0.3141,0.87638 -0.73053,1.25039c-0.21188,0.21078 -0.46759,0.3175 -0.84023,0.40626c-0.49683,0.11835 -0.94988,-0.04861 -1.12528,-0.46486c-0.36538,-0.73743 -0.3655,-1.51606 -0.24865,-2.27676c0.04382,-0.28528 0.21184,-0.6001 0.31411,-0.87639c0.25569,-0.49603 0.81097,-0.60539 1.37365,-0.373c0.89148,0.42891 1.34455,0.98516 1.27883,1.80235c0.09501,0.16056 0.01463,0.29423 -0.02188,0.53196z" fill="#fcc741" fill-rule="nonzero" stroke="none" stroke-width="1"/><path d="M276.3857,285.69382c0.9645,-0.04652 1.43215,0.41462 1.76831,0.95292c0.44575,0.60377 0.35811,1.1743 0.14632,1.77441c-0.09494,0.22872 -0.30684,0.43951 -0.51874,0.65029c-0.29223,0.3444 -0.73062,0.47174 -1.19098,0.35237c-0.58455,-0.08978 -1.10338,-0.60746 -1.15457,-1.0533c-0.02191,-0.24669 -0.04389,-0.49338 -0.01467,-0.68358c0.27761,-0.63867 0.45289,-1.39037 0.96429,-1.99313z" fill="#f8c440" fill-rule="nonzero" stroke="none" stroke-width="1"/><path d="M276.93579,308.2127c-1.03029,-0.30423 -1.41757,-0.89904 -1.35189,-1.71622c0.04382,-0.28525 0.02189,-0.53196 0.0657,-0.81721c0.02921,-0.19016 0.11686,-0.37134 0.20456,-0.55258c0.25569,-0.49604 1.04477,-0.9588 1.49782,-0.79191c0.56995,0.18485 0.91339,0.67561 0.90615,1.11248c0.01471,1.07288 0.13901,2.21126 -1.32228,2.76543z" fill="#f9c540" fill-rule="nonzero" stroke="none" stroke-width="1"/><path d="M276.41612,298.7406c-0.84766,-1.10349 -0.73818,-2.20595 -0.45333,-3.28147c0.01459,-0.09506 0.09497,-0.22874 0.16802,-0.31485c0.31414,-0.48706 0.85482,-0.50135 1.38829,-0.07878c0.42379,0.3571 0.59191,0.82088 0.70158,1.27571c0.14619,0.60643 0.05855,1.17695 -0.25559,1.664c-0.30684,0.4395 -0.77442,0.75702 -1.54897,0.73538z" fill="#f7c340" fill-rule="nonzero" stroke="none" stroke-width="1"/><path d="M275.76014,316.25638c-0.71614,-0.79131 -0.76736,-1.62644 -0.33633,-2.48486c0.16072,-0.26733 0.32877,-0.58215 0.79638,-0.51032c0.47492,0.02426 0.99372,0.15262 1.17641,0.52135c0.32888,0.58583 0.41661,1.18326 0.0294,1.75643c-0.32145,0.53462 -0.84749,0.84316 -1.66587,0.71745z" fill="#f9c540" fill-rule="nonzero" stroke="none" stroke-width="1"/><path d="M273.83176,322.57855c0.08033,-0.52298 0.32141,-0.92392 0.73053,-1.25039c0.40915,-0.32646 1.00101,-0.28423 1.29333,0.14997c0.14615,0.21711 0.23386,0.4252 0.31429,0.6809c0.10968,0.84413 -0.23367,1.52137 -0.96429,1.99314c-0.46763,0.31746 -0.97911,0.14163 -1.19833,-0.37871c-0.17541,-0.41622 -0.29237,-0.82356 -0.17548,-1.1949z" fill="#f6c340" fill-rule="nonzero" stroke="none" stroke-width="1"/><path d="M302.34463,265.88406c0.1096,0.06552 0.27767,0.13995 0.44572,0.21443c0.16076,0.122 0.17539,0.41622 -0.07303,0.47541c-0.18267,0.02062 -0.37263,0.08875 -0.54798,0.06183c-2.65962,0.17549 -5.1146,0.96634 -7.46731,1.87026c-1.14714,0.45644 -2.29423,0.91292 -3.44135,1.36933c-0.25572,0.10671 -0.58449,0.29951 -0.87679,0.25461c-0.11691,-0.01796 -0.28498,-0.09245 -0.33614,-0.14893c-0.10231,-0.11301 -0.0877,-0.20812 0.04383,-0.28527c0.49685,-0.50767 1.14706,-0.8458 1.84848,-1.12736c2.4988,-1.07612 5.09988,-2.03921 7.92753,-2.52955c0.73795,-0.12999 1.53438,-0.25095 2.47698,-0.15485z" fill="#060503" fill-rule="nonzero" stroke="none" stroke-width="1"/><path d="M288.90804,270.77931c0.00002,0.38931 -0.3945,0.6207 -0.93521,0.63499c-0.18267,0.02062 -0.40917,-0.06284 -0.50418,-0.22341c-0.09501,-0.16056 -0.01462,-0.29423 0.06572,-0.42786c0.21188,-0.21078 0.46759,-0.31747 0.83292,-0.35871c0.29227,0.0449 0.50417,0.22341 0.54074,0.37506z" fill="#201b0f" fill-rule="nonzero" stroke="none" stroke-width="1"/><path d="M305.02627,266.34462c-0.23382,-0.0359 -0.40191,-0.1104 -0.43111,-0.30954c-0.03652,-0.15159 0.05113,-0.33281 0.17533,-0.36236c0.43842,-0.12731 0.82561,-0.31117 1.25674,-0.00162c0.1096,0.06552 0.14617,0.21709 0.13156,0.31221c-0.28494,0.29689 -0.70871,0.32913 -1.13253,0.36137z" fill="#3d3219" fill-rule="nonzero" stroke="none" stroke-width="1"/><path d="M311.01151,277.62942c0.1827,0.36872 -0.14607,0.56153 -0.41642,0.76333c-0.72331,0.42422 -1.3882,0.85737 -2.15536,1.17753c-1.79738,0.79455 -3.60209,1.63665 -5.49447,2.27061c-2.08236,0.70214 -4.25237,1.1961 -6.50287,1.43439c-0.42381,0.03221 -0.84759,0.06448 -1.24944,-0.04594c-0.29227,-0.0449 -0.50416,-0.22341 -0.58456,-0.4791c0.17533,-0.36238 0.53334,-0.35606 0.8987,-0.39728c1.04483,-0.18018 2.08239,-0.31277 3.12722,-0.49299c2.46963,-0.49665 4.80041,-1.25792 7.05079,-2.27488c1.41015,-0.6107 2.82026,-1.22141 4.13542,-1.99272c0.32879,-0.19283 0.75985,-0.27258 1.19101,0.03695z" fill="#fefefa" fill-rule="nonzero" stroke="none" stroke-width="1"/><g><path d="M291.99003,213.24084l-12.94919,-14.87128" fill="none" fill-rule="evenodd" stroke="#ffdb5d" stroke-width="1.26"/><path d="M287.42276,199.68402c-1.97674,-0.3036 -2.271,1.61226 -4.24782,1.30864c-1.97589,-0.30348 -1.68161,-2.21936 -3.65747,-2.52285c-1.97682,-0.30362 -2.27109,1.61225 -4.24876,1.30849c-1.97682,-0.30362 -1.68253,-2.21952 -3.66028,-2.52329" fill="none" fill-rule="evenodd" stroke="#ffdb5d" stroke-width="1.26"/><path d="M298.90277,221.22244c0.95889,3.28202 -0.92621,6.71964 -4.21022,7.67815c-3.28392,0.95752 -6.72442,-0.92741 -7.68336,-4.20945c-0.26035,-0.89182 -0.30477,-1.79246 -0.17431,-2.65402l-0.00468,0.00021l1.55328,-11.11372c0.13097,-0.93806 1.30851,-1.28246 1.92449,-0.56372l7.31521,8.53416c0.57225,0.65512 1.02,1.43762 1.27962,2.32838" fill="#751d18" fill-rule="nonzero" stroke="none" stroke-width="1"/></g><path d="M318.63545,243.59819c-0.90423,5.88711 -6.41225,9.92703 -12.30323,9.02221l-2.51161,-0.38485c-0.036,-0.00366 -0.07636,-0.00339 -0.11023,-0.00859l-38.46898,-5.90864c0,0 0.97677,-6.40864 1.10725,-7.25812c0.43217,-2.81374 2.36532,-7.46705 6.71423,-10.14751c9.69247,-5.97306 21.28718,-13.85487 21.28718,-13.85487z" fill="#17242d" fill-rule="nonzero" stroke="none" stroke-width="1"/><g><path d="M315.58522,204.00781c-1.97682,-0.30362 -2.27108,1.61225 -4.247,1.30876c-1.97674,-0.30361 -1.68249,-2.21951 -3.65838,-2.52298c-1.97674,-0.30361 -2.27103,1.61226 -4.24875,1.30849c-1.97682,-0.30362 -1.68253,-2.21952 -3.65927,-2.52313" fill="none" fill-rule="evenodd" stroke="#ffdb5d" stroke-width="1.26"/><path d="M305.30865,217.51167l2.25335,-14.67073" fill="none" fill-rule="evenodd" stroke="#ffdb5d" stroke-width="1.26"/><path d="M310.02151,227.63694c-0.5191,3.37969 -3.68235,5.6993 -7.06361,5.17995c-3.38133,-0.51936 -5.70164,-3.68123 -5.18255,-7.06089c0.14097,-0.91779 0.48099,-1.75285 0.9637,-2.47922l-0.0044,-0.00161l6.10854,-9.41385c0.51479,-0.7951 1.7281,-0.60971 1.98249,0.30261l3.02078,10.82355c0.24091,0.83563 0.31582,1.73344 0.17511,2.64949" fill="#751d18" fill-rule="nonzero" stroke="none" stroke-width="1"/></g><g><path d="M327.88197,238.06324c-6.05879,13.09921 -21.59708,18.80704 -34.70404,12.74947l-0.51993,-0.23939l3.75211,-8.11237c6.19092,-13.38586 22.06908,-19.21967 35.46402,-13.0293z" fill="#b85c39" fill-rule="nonzero" stroke="none" stroke-width="1"/><path d="M331.87414,229.43162l-0.00563,0.01224l-12.25573,8.85318l-14.19214,-6.55915c7.52624,-5.2143 17.53802,-6.42598 26.45348,-2.30622" fill="#ad2c24" fill-rule="nonzero" stroke="none" stroke-width="1"/><path d="M328.3332,228.3709l-11.64431,8.3873" fill="none" fill-rule="evenodd" stroke="#751d18" stroke-width="0.6"/><path d="M324.70977,227.51203l-10.95511,7.89054" fill="none" fill-rule="evenodd" stroke="#751d18" stroke-width="0.6"/><path d="M310.82059,234.04599l9.46502,-6.8169" fill="none" fill-rule="evenodd" stroke="#751d18" stroke-width="0.6"/><path d="M307.88641,232.69038l6.63035,-4.77535" fill="none" fill-rule="evenodd" stroke="#751d18" stroke-width="0.6"/><path d="M306.86435,243.90243c1.4287,-1.75375 3.91048,-2.39507 6.05878,-1.40178c2.54388,1.17534 3.65343,4.19036 2.47762,6.73212c-0.53884,1.16553 -1.46789,2.02114 -2.55655,2.50137c-6.2016,2.18504 -13.22657,2.05482 -19.66625,-0.92145l-0.5198,-0.24027l3.75198,-8.11147c0.27225,-0.58889 0.56959,-1.15799 0.87848,-1.71701l0.03195,0.01802c1.20665,-2.47456 4.17476,-3.5422 6.68634,-2.38203c2.14913,0.99337 3.26846,3.29806 2.85749,5.52254" fill="#573a3c" fill-rule="nonzero" stroke="none" stroke-width="1"/></g><path d="M246.45581,318.91478c0.64298,0.09876 1.25674,-0.00162 1.86324,0.33487c-1.01547,1.54728 -1.44644,3.18434 -1.1832,4.97668c-0.13881,0.12466 -0.32148,0.14528 -0.49683,0.11835c-1.41024,-0.16792 -1.56368,-0.33747 -1.55648,-1.55299c0.08755,-1.34916 0.35048,-2.67138 1.3733,-3.87688z" fill="#fac540" fill-rule="nonzero" stroke="none" stroke-width="1"/><path d="M248.81639,324.58181c-0.81115,-1.34121 -0.60675,-3.06173 0.4453,-4.45743c0.23378,-0.35337 0.43101,-0.85843 1.19094,-0.74172c-0.0438,0.67457 -0.75251,1.00373 -0.95701,1.55627c-0.21184,0.6001 -0.54059,1.18225 -0.58437,1.85682c-0.02921,0.57951 -0.05835,1.15899 -0.09481,1.78603z" fill="#e6b73f" fill-rule="nonzero" stroke="none" stroke-width="1"/><path d="M253.06871,322.21771c-0.18996,0.06812 -0.46762,-0.07182 -0.62107,0.14794c-0.62108,-0.24137 -1.16182,-0.61644 -1.79753,-0.76273c-0.01463,-0.29423 0.18262,-0.4099 0.35069,-0.33541c0.67223,0.2979 1.476,0.51867 2.0679,0.95025z" fill="#a98836" fill-rule="nonzero" stroke="none" stroke-width="1"/><path d="M255.21271,339.48278c-1.71929,0.22626 -3.34686,-0.4552 -4.40323,-1.6732l-0.27294,-0.28495c-0.38692,-0.40571 -1.06635,-0.08011 -0.99333,0.47485l0.42198,3.20632c0.12215,0.92804 -0.53177,1.78051 -1.46125,1.90284c-0.92847,0.12219 -1.78171,-0.53192 -1.90381,-1.45997l-0.37109,-2.81954c-0.07341,-0.5577 -0.82305,-0.68788 -1.07948,-0.18719l-1.75969,3.43295c-0.35543,0.69316 -1.3928,0.51351 -1.49437,-0.25813l-0.69093,-5.24974c-0.05211,0.00873 -0.10359,0.02203 -0.15592,0.0289c-2.78653,0.36674 -5.34104,-1.59353 -5.70743,-4.37746c-0.36651,-2.78477 1.59398,-5.33831 4.38048,-5.70508c0.09366,-0.01229 0.18661,-0.01615 0.28009,-0.02295l3.46429,-0.45595l0.21789,1.65582c0.04114,0.03548 0.08475,0.06882 0.12504,0.10535l6.75518,0.62418l1.30252,1.97437c0.60086,-0.38975 1.29219,-0.66024 2.04991,-0.75995c2.7213,-0.35815 5.2175,1.5567 5.57536,4.27567c0.35795,2.71998 -1.5579,5.21458 -4.2792,5.57272" fill="#ce2235" fill-rule="nonzero" stroke="none" stroke-width="1"/><path d="M245.63078,316.97518c0.42283,3.21271 -1.83986,6.16126 -5.05525,6.58444c-3.21534,0.42318 -6.16479,-1.83937 -6.58761,-5.05214c-0.42295,-3.21364 1.8408,-6.1614 5.05611,-6.58458c3.21542,-0.42319 6.16386,1.83859 6.58678,5.05222" fill="#ce2235" fill-rule="nonzero" stroke="none" stroke-width="1"/><path d="M232.88254,324.59813l16.5674,-2.18042c-0.25628,1.65962 -1.5808,3.0319 -3.32495,3.26143l-9.18694,1.20908c-1.74404,0.22954 -3.37862,-0.75331 -4.05548,-2.2901" fill="#ffdb5d" fill-rule="nonzero" stroke="none" stroke-width="1"/><path d="M254.86055,323.52494c0.51995,3.95051 -2.26287,7.57487 -6.2149,8.095c-3.95287,0.52022 -7.57871,-2.26071 -8.09862,-6.21121c-0.51981,-3.9497 2.26302,-7.57405 6.21588,-8.09432c3.95195,-0.52012 7.5778,2.26081 8.0976,6.21048" fill="#ad2c24" fill-rule="nonzero" stroke="none" stroke-width="1"/><path d="M251.14376,324.01411c0.24992,1.89891 -1.08777,3.6403 -2.98706,3.89025c-1.90023,0.25008 -3.64204,-1.08598 -3.89194,-2.98491c-0.24979,-1.89803 1.08697,-3.63934 2.9872,-3.88942c1.89929,-0.24996 3.64201,1.08605 3.8918,2.98408" fill="#fff4e3" fill-rule="nonzero" stroke="none" stroke-width="1"/><path d="M247.67157,318.85136l-4.43817,3.43484" fill="none" fill-rule="evenodd" stroke="#751d18" stroke-width="0.6"/><path d="M244.54342,322.74025l0.23855,-0.40784l6.11764,3.57824l-0.23855,0.40785z" fill="#000101" fill-rule="nonzero" stroke="#000000" stroke-width="0.5"/><path d="M246.39612,327.70272l-0.40946,-0.23578l3.53659,-6.14181l0.40945,0.23578z" fill="#000101" fill-rule="nonzero" stroke="#000000" stroke-width="0.5"/></g></g></g></svg>