<svg version="1.1" xmlns="http://www.w3.org/2000/svg" xmlns:xlink="http://www.w3.org/1999/xlink" width="506.3857" height="388.25032" viewBox="0,0,506.3857,388.25032"><g transform="translate(10.63857,9.33588)"><g data-paper-data="{&quot;isPaintingLayer&quot;:true}" stroke-linecap="butt" stroke-linejoin="miter" stroke-miterlimit="10" stroke-dasharray="" stroke-dashoffset="0" style="mix-blend-mode: normal"><path d="M-10.63857,378.91444v-388.25032h506.3857v388.25032z" fill="#983fd4" fill-rule="nonzero" stroke="none" stroke-width="0"/><g><g><path d="M232.45707,205.78551c0,-1.79496 0.35896,-3.11127 1.07697,-4.42757c0.71796,-1.55567 2.1539,-2.15392 3.70956,-2.39329c0.95733,-0.11968 1.6753,0.47863 2.15393,1.1966c1.43597,2.9916 1.55563,6.94055 -0.83764,9.69286c-0.95733,1.07697 -2.15392,1.31627 -3.35056,0.59833c-2.03433,-1.07697 -2.9916,-2.63262 -2.75231,-4.66691z" fill="#fcc741" fill-rule="nonzero" stroke="none" stroke-width="1"/><path d="M241.1011,215.23379c0.65629,-0.29174 1.23958,-0.65628 1.89592,-0.87507c1.31251,-0.4375 1.96881,-1.38547 2.47925,-2.55219c0.14583,-0.36458 0.1458,-0.80215 0.4375,-1.09383c0.0729,-0.0729 0.0729,-0.07289 0.14585,-0.07289c0.51044,0 0.72923,0.36458 0.80214,0.80214c0,2.47924 -2.91678,4.95859 -5.32319,4.59401c-0.36458,-0.0729 -0.51044,-0.29175 -0.43749,-0.80215z" fill="#fefcf5" fill-rule="nonzero" stroke="none" stroke-width="1"/><path d="M236.65296,231.13036c0.65629,0.0729 0.87503,0.51044 1.09382,0.87503c0.94794,1.53132 1.82301,3.13558 3.35433,4.15651c0.29174,0.21875 0.29164,0.51044 0.07291,0.80213c-0.21875,0.21875 -0.4375,0.36459 -0.7292,0.29164c-0.21875,-0.0729 -0.4375,-0.14585 -0.58333,-0.29164c-1.60425,-1.31251 -2.62514,-3.13558 -3.42728,-4.95858c-0.0729,-0.21875 -0.0729,-0.58333 0.21874,-0.87503z" fill="#0e0b07" fill-rule="nonzero" stroke="none" stroke-width="1"/><path d="M233.73612,231.42208c0.14584,0.0729 0.29174,0.07291 0.36458,0.14585c0.14584,0.1458 0.29165,0.36457 0.36458,0.58332c0.65629,1.45843 1.45842,2.77099 2.55219,3.93773c0.14584,0.1458 0.21875,0.29175 0.29174,0.4375c0.29174,0.4375 0.29174,0.87503 0,1.09382c-0.36458,0.21875 -0.80215,0.1458 -1.09382,-0.21874c-1.16672,-1.38547 -2.1876,-2.84389 -2.84388,-4.59395c-0.14584,-0.36458 -0.21874,-0.80214 0.0729,-1.16672c0,-0.0729 0.14584,-0.14584 0.29174,-0.21874z" fill="#100e08" fill-rule="nonzero" stroke="none" stroke-width="1"/><path d="M222.65235,229.96362c0.0729,-0.14584 0.07289,-0.29163 0.14584,-0.43749c0.0729,-0.29174 0.58334,-0.36458 0.7292,-0.0729c0.14584,0.21875 0.29163,0.36458 0.36458,0.58334c0.58334,1.75007 1.16673,3.50018 2.04176,5.17733c0.0729,0.1458 0.14585,0.36456 0.0729,0.51044c0,0.14584 -0.14584,0.36458 -0.29174,0.4375c-0.14584,0.0729 -0.36458,0.0729 -0.51044,0c-0.36458,-0.14584 -0.65629,-0.51042 -0.80215,-0.87507c-0.72923,-1.53132 -1.38552,-3.20848 -1.67717,-4.88564c0,-0.14584 0,-0.29175 -0.0729,-0.4375z" fill="#0b0a06" fill-rule="nonzero" stroke="none" stroke-width="1"/><path d="M229.06926,236.96397c-0.65629,-0.21875 -0.87503,-0.72923 -1.16672,-1.16672c-0.72923,-1.23967 -1.23969,-2.47925 -1.75007,-3.79181c-0.21875,-0.58334 -0.21874,-1.16673 0.36458,-1.53132c0.29174,0 0.4375,0.0729 0.51044,0.36458c0.65629,1.60425 1.31252,3.20848 2.1876,4.73979c0.29174,0.36458 0.51044,0.87507 -0.1458,1.38552z" fill="#141109" fill-rule="nonzero" stroke="none" stroke-width="1"/><path d="M230.0172,231.85958c0.36458,-0.0729 0.58334,0 0.7292,0.29175c0.21875,0.36458 0.43749,0.80213 0.58332,1.23967c0.4375,1.02086 0.87503,1.96881 1.60425,2.84389c0.14584,0.14584 0.29175,0.36458 0.36458,0.58333c0.14584,0.29174 0.07289,0.58334 -0.21875,0.80215c-0.21875,0.1458 -0.43749,0.1458 -0.65627,0c-0.14584,-0.0729 -0.29165,-0.21875 -0.36458,-0.36458c-1.02086,-1.23967 -1.67717,-2.62515 -2.1876,-4.08351c-0.21875,-0.4375 -0.21875,-0.94794 0.14584,-1.31252z" fill="#100d08" fill-rule="nonzero" stroke="none" stroke-width="1"/><path d="M221.55843,233.68255c-0.58334,-0.14584 -0.72919,-0.51044 -0.94794,-0.87507c-0.58334,-1.16672 -0.94794,-2.47925 -1.23967,-3.79181c-0.14584,-0.58334 -0.07289,-1.16672 0.4375,-1.60425c0.21875,0 0.51044,0.0729 0.51044,0.36458c0.29174,1.60425 0.80214,3.13557 1.45842,4.66691c0.21875,0.4375 0.3646,0.87506 -0.21875,1.23967z" fill="#15120a" fill-rule="nonzero" stroke="none" stroke-width="1"/><path d="M244.52833,235.65141c0.0729,0.21875 -0.21874,0.58334 -0.51044,0.58334c-0.36458,0 -0.65629,-0.1458 -0.94794,-0.36458c-1.16672,-0.87503 -2.04175,-2.04175 -2.69807,-3.35433c-0.0729,-0.21875 -0.14585,-0.4375 -0.14585,-0.65629c0,-0.14584 0.14584,-0.29163 0.29174,-0.36458c0.0729,-0.0729 0.21876,-0.00001 0.29165,0.07289c0.21875,0.21875 0.36458,0.4375 0.58333,0.65629c0.87507,1.02086 1.53133,2.1876 2.771,2.84389c0.21875,0.14584 0.36458,0.36457 0.36458,0.58332z" fill="#120f09" fill-rule="nonzero" stroke="none" stroke-width="1"/><path d="M251.01826,234.41179c-0.29174,0.0729 -0.58334,-0.0729 -0.80215,-0.21874c-1.02086,-0.72923 -1.823,-1.60425 -2.62515,-2.47925c-0.0729,-0.0729 -0.0729,-0.07289 -0.0729,-0.14584c-0.14584,-0.29174 -0.0729,-0.58334 0.1458,-0.80215c0.21875,-0.1458 0.4375,-0.1458 0.65629,0c1.02086,0.80215 1.96881,1.67718 2.771,2.62516c0.29174,0.29174 0.29163,0.72924 -0.07291,1.02087z" fill="#16130a" fill-rule="nonzero" stroke="none" stroke-width="1"/><path d="M243.58039,231.71373c0.29174,-0.36458 0.58333,-0.43751 0.87507,-0.29174c1.23967,0.80215 2.26054,1.82301 3.28143,2.84389c0.21875,0.21875 0.21875,0.51044 -0.0729,0.80215c-0.21875,0.21875 -0.51044,0.21874 -0.80215,0.07289c-0.80215,-0.36458 -2.62516,-2.33339 -3.28143,-3.42726z" fill="#0d0b07" fill-rule="nonzero" stroke="none" stroke-width="1"/><path d="M250.8724,230.03651c0.29174,-0.36458 0.51044,-0.36457 0.80215,-0.21875c0.72923,0.51044 1.31251,1.09383 1.823,1.82301c0.14584,0.21875 0.14584,0.4375 0,0.65629c-0.14584,0.21875 -0.4375,0.29164 -0.65629,0.1458c-0.87507,-0.58334 -1.75006,-1.31252 -1.96881,-2.40635z" fill="#201b0f" fill-rule="nonzero" stroke="none" stroke-width="1"/><path d="M217.98541,230.32827c-0.94794,-0.29174 -1.09382,-0.94792 -1.31257,-1.53132c-0.21875,-0.58334 -0.29164,-1.23969 0.0729,-1.82301c0.14584,0 0.29164,-0.0729 0.36458,0c0.65629,0.94794 0.94794,2.04176 0.87507,3.35433z" fill="#1d180e" fill-rule="nonzero" stroke="none" stroke-width="1"/><path d="M253.35169,228.86986c0.58334,-0.51044 1.02085,-0.43749 1.53131,-0.0729c0.4375,0.36458 0.94794,0.58332 0.94794,1.31251c0,0.0729 0,0.14585 0,0.14585c0,0.29174 -0.36458,0.51044 -0.58334,0.36458c-0.72923,-0.4375 -1.53132,-0.80214 -1.8959,-1.75007z" fill="#17130b" fill-rule="nonzero" stroke="none" stroke-width="1"/><path d="M257.50816,227.99478c0,0.29174 -0.36458,0.58332 -0.72918,0.4375c-0.4375,-0.21875 -0.80215,-0.4375 -1.02087,-0.87503c-0.14584,-0.29174 -0.14584,-0.58334 0.0729,-0.80214c0.21875,-0.21875 0.51044,-0.21874 0.80214,-0.0729c0.4375,0.29174 0.80207,0.65628 0.87503,1.31251z" fill="#382e16" fill-rule="nonzero" stroke="none" stroke-width="1"/><path d="M236.03579,178.81566c-0.11188,-2.00253 -0.22384,-3.91413 -0.22384,-5.82566c-0.67152,-0.91024 -2.01455,-1.27438 -2.57415,-2.27568c-1.23106,-2.36672 -1.45491,-4.73336 0.22384,-6.918c1.23106,-1.6385 1.79072,-3.18595 1.56687,-5.09748c-0.22384,-1.45645 -0.22385,-2.91284 -0.22385,-4.36932c-0.78348,-0.72815 -1.56688,-1.27439 -2.12646,-2.00254c-2.01455,-2.73078 -2.12647,-5.55255 -0.11192,-8.28339c0.89532,-1.18334 1.11919,-2.18463 1.00724,-3.45898c-0.22384,-1.45645 -0.33575,-2.91284 -0.44769,-4.27827c-0.22384,-0.18201 -0.22384,-0.3641 -0.33576,-0.45511c-3.35755,-2.27569 -3.46947,-5.37056 -1.90259,-8.28339c0.67152,-1.36538 1.11919,-2.54872 0.78347,-4.00517c-0.11188,-0.6372 -0.11188,-1.27437 -0.11188,-1.9116c-0.11188,-1.45645 -0.55961,-2.7308 -1.79072,-3.91414c-2.35026,-2.18464 -2.35027,-4.82443 -0.67152,-7.28211c0.67152,-1.00129 1.00724,-1.9116 0.78339,-3.09493c-0.33576,-1.82054 -0.4477,-3.64106 -0.67152,-5.55255c-2.46223,-1.18334 -3.80521,-3.00388 -3.91713,-5.27952c-0.11188,-2.36672 0.4477,-3.91412 2.57415,-5.64365c-0.11188,-1.9116 -0.22384,-4.00517 -0.4477,-5.91676c-0.33576,-0.18199 -0.5596,-0.36411 -0.67152,-0.5462c-3.13369,-2.09359 -3.80521,-5.27951 -1.4549,-7.9193c1.00724,-1.09234 1.4549,-2.09364 1.34298,-3.36792c-0.11188,-0.6372 0,-1.27437 0.11192,-2.00259c0.11188,-1.09234 -0.22384,-2.00253 -1.00724,-3.00388c-2.12646,-2.54872 -1.4549,-5.64367 1.4549,-7.6462c1.00724,-0.72816 1.56688,-1.45645 1.90259,-2.45769c1.00724,-3.27697 2.46223,-6.37185 4.58866,-9.28475c1.11919,-1.54745 2.57417,-3.00383 4.14098,-4.27822c2.90985,-2.45768 6.4913,-3.45898 10.52035,-3.64107c4.36483,-0.18199 8.05811,1.0923 11.63949,2.73079c3.02178,1.36538 5.70785,3.00388 8.28197,4.8244c1.00724,0.72816 2.23841,1.27439 3.35755,1.72953c0.89532,0.36411 1.9026,0.81926 2.90985,-0.09103c0.33575,-0.27305 1.00724,-0.182 1.56687,-0.182c2.23841,0 4.47675,0 6.71503,0c1.00724,0 1.9026,0 2.79796,0.6372c0.44769,0.36411 1.23106,0.27305 1.79071,0.27305c3.91715,0 7.83429,0.09103 11.75146,0.09103c2.46224,0 5.03634,0.09104 7.4985,0.3641c0.44769,0.09103 0.89531,0.09104 1.11919,0.45509c0.22384,0.45515 -0.22384,0.63718 -0.4477,1.00129c-1.1192,1.45645 -2.46223,2.73078 -3.91713,3.91412c-1.11921,0.91024 -2.35027,1.82054 -3.24563,2.91284c-0.78337,0.91024 -2.01454,1.36538 -3.35755,1.72953c-1.9026,0.45515 -3.80521,0.54619 -5.81972,0.54619c-1.79071,0 -3.5814,0 -5.26012,0c-0.78347,0.27304 -0.89532,1.00129 -1.45491,1.36538c-0.67152,0.54619 -1.34298,0.91023 -2.35026,0.54619c-0.5596,-0.18199 -1.23107,0 -1.79071,0c-1.56687,0.09103 -3.02177,0.182 -4.58866,0.182c-1.11919,0 -2.35027,-0.09104 -3.24563,-0.72816c-0.33575,-0.18199 -0.78347,-0.36408 -1.23106,-0.45508c-4.58867,-0.72819 -8.84151,-2.27568 -12.98253,-3.91412c-0.4477,-0.18199 -1.00724,-0.3641 -1.4549,-0.54619c-1.34298,-0.54615 -2.79797,-0.54615 -4.14098,-0.63719c-1.45489,-0.09103 -2.57415,0.45514 -3.1337,1.54744c-0.78348,1.54744 -1.56687,3.09494 -1.67879,4.82443c-0.22384,4.82441 0.00001,9.7398 0.4477,14.56421c0.5596,6.28086 1.79071,12.37957 2.79795,18.66042c0.5596,3.18593 1.23106,6.28081 1.79071,9.46672c0.78347,4.27822 1.6788,8.6475 2.57415,12.92576c0.67152,3.36794 1.34298,6.73595 2.01455,10.10393c0.67152,3.73208 1.23106,7.4642 1.90259,11.19622c0.5596,3.45898 1.1192,6.918 1.79072,10.37698c0.67152,3.64106 1.23107,7.37309 1.9026,11.01417c0.67152,3.64106 1.34297,7.19115 1.79071,10.83213c0.44769,3.36793 1.56688,6.73596 2.12647,10.10393c0.78348,5.27952 1.56688,10.55909 1.90259,15.83855c0.22384,2.73078 0.33575,5.55255 0.67146,8.28339c0.44769,4.64237 0,9.28475 -0.67146,13.92705c0,0.18201 0,0.27304 -0.11191,0.45508c-1.23106,3.00387 -1.79071,6.18982 -3.24561,9.1937c-2.01455,4.00517 -5.03634,7.46419 -8.95343,10.46804c-2.90986,2.27569 -6.26747,3.82312 -9.96075,5.00639c-1.56687,0.45508 -3.02177,1.18334 -4.70062,1.6385c-1.6788,0.45514 -3.46947,0.8192 -5.14827,1.18335c-1.6788,0.3641 -3.46947,0.54619 -5.26012,0.91023c-3.58139,0.6372 -7.16275,0.45511 -10.74414,0.45511c-7.27469,-0.09105 -14.10165,-1.82053 -20.48107,-4.46032c-0.89532,-0.3641 -1.79071,-1.00129 -2.57415,-1.54745c-3.80523,-2.63979 -6.60321,-5.91677 -8.61772,-9.64883c-1.90259,-3.55003 -3.35756,-7.19115 -4.25291,-11.01423c-0.89532,-3.55003 -1.56688,-7.19115 -2.01455,-10.74106c-0.4477,-4.82441 -1.00724,-9.7398 -2.01456,-14.47326c-0.5596,-2.82179 -1.45489,-5.55255 -2.46223,-8.28339c-0.78348,-2.36672 -2.46223,-4.36928 -4.25294,-6.28082c-2.46223,-0.3641 -4.81257,-0.6372 -7.05085,-1.6385c-4.25295,-1.82057 -6.60312,-4.73336 -7.49847,-8.55643c-0.67152,-2.82179 0.11192,-5.27952 1.56688,-7.82825c1.23106,-2.18464 3.02177,-4.09624 4.70061,-6.09875c3.35755,-3.82313 7.16271,-7.19105 11.97526,-9.92189c5.26012,-3.00383 10.63219,-5.82569 16.6758,-7.9193c4.25295,-1.45645 8.61772,-2.54872 13.09445,-3.09492c5.3721,-0.6372 10.74414,-0.3641 15.8924,1.09233c0.78348,0.18201 1.4549,0.45516 2.01455,0.91025c2.23841,2.00253 4.14097,4.18722 4.70054,7.00905c0.33576,1.9116 0.33578,3.73206 -0.55959,5.55256c-0.89532,1.6385 -0.78348,3.36797 -0.5596,5.09746c0.5596,3.82313 0.89529,7.6462 0.67151,11.56038c-0.22384,3.73208 -0.11192,7.55524 -0.3358,11.28728c-0.11188,3.09488 -0.44769,6.18981 -0.5596,9.3757c-0.11188,2.73078 -0.22384,5.55255 -0.33576,8.28339c0,1.00129 -0.22384,2.00253 -0.33576,3.00383c-0.4477,3.00383 -0.4477,5.91677 1.11915,8.82954c0.67152,1.18334 1.34297,1.36538 2.68606,0.63719c1.11919,-0.54615 1.4549,-1.45645 1.9026,-2.27559c-0.11188,-0.6372 -0.67152,-1.00129 -1.11919,-1.45645c-2.23841,-2.54872 -2.35026,-5.18851 -0.78348,-8.01036c0.67152,-1.09234 1.45491,-2.09358 2.57415,-2.73078c0.78348,-0.54619 1.00724,-1.09235 1.11919,-1.82054c0.22384,-1.45645 0.33576,-2.91284 0.33576,-4.46032c-1.34298,-1.09234 -2.68608,-2.27568 -3.02179,-3.91413c-0.22384,-1.54745 -0.5596,-3.00388 0,-4.55137c0.4477,-1.36538 1.79071,-2.54872 3.24562,-3.64106zM270.50661,57.02226c-0.33575,-0.18199 -0.55961,-0.45515 -0.33575,-0.72815c0.22384,-0.27305 0.5596,-0.3641 0.89532,-0.3641c1.11919,0 2.12649,0.63718 3.46947,0.45508c0.5596,-1.27439 0,-2.45768 -0.44769,-3.64106c-3.80522,-0.54615 -6.82701,-2.18465 -9.625,-4.09624c-1.00724,-0.72819 -2.01454,-1.36538 -3.13367,-2.00259c-4.36482,-2.36675 -8.84151,-4.00517 -14.21361,-3.82313c-2.01455,0.09103 -3.69331,0.45509 -5.26019,1.36538c-0.89532,0.45508 -1.67879,1.09235 -2.46223,1.6385c-3.24561,2.54872 -5.03632,5.73467 -6.71511,9.01164c-0.78348,1.54745 -1.34298,3.09492 -1.4549,4.73336c3.02177,1.72953 3.91713,3.36794 3.46947,6.18983c-0.4477,2.63979 -2.57414,3.82313 -5.48401,4.27826c-0.11188,1.45645 -0.22384,2.91284 -0.11192,4.46032c2.68607,1.00129 4.70064,2.45769 4.81256,5.00641c0,2.36672 -0.89532,4.46032 -3.80522,5.46156c0,1.82054 0,3.55002 0.33581,5.18851c2.23841,1.18334 4.36483,2.27568 4.70054,4.55136c0.4477,2.82177 -0.67153,5.27951 -3.35756,7.19114c0,2.00259 0.33578,3.91414 0.78348,5.82571c3.91715,0.91024 5.59592,2.82179 5.37204,5.91676c0,0.54619 -0.11192,1.18335 -0.11192,1.72953c-0.11188,1.36538 -1.00724,2.45769 -2.35027,3.27698c-0.4477,0.27304 -1.23106,0.36408 -1.56687,1.00129c0,1.72953 0.11192,3.45898 0.67152,5.18851c0.67152,0.45514 1.45491,0.45515 2.12649,0.6372c2.01455,0.45508 3.46947,1.36538 4.36483,3.00383c0.78348,1.36538 0.78347,2.73078 0.33575,4.00517c-0.67152,2.00253 -1.9026,3.64107 -4.81246,3.91414c-0.22384,0 -0.44769,0.182 -0.67152,0.36407c0.11188,1.72953 0.11188,3.45903 0.5596,5.09747c4.36482,1.27437 6.4913,3.27697 6.60322,5.91676c0.11188,3.45898 -1.45491,5.27952 -5.81974,6.73595c0.11188,1.72953 0.22384,3.45898 0.4477,5.18851c0,0.45508 -0.11188,0.91023 0.22383,1.27437c0.4477,0.3641 1.00724,0.27306 1.45491,0.3641c3.46947,0.81926 6.37938,3.82313 5.3721,7.55515c-0.67152,2.73078 -2.46223,3.91413 -6.04362,4.00517c-0.22384,1.82057 -0.11188,3.55003 0,5.37056c1.11919,0.54615 2.35027,0.5462 3.24562,1.09235c3.6933,2.18464 4.70053,7.73724 1.11915,10.92317c-0.78348,0.72815 -1.67879,1.36538 -2.90985,1.36538c-0.5596,0 -1.00724,0.182 -1.56688,0.27304c-0.67152,1.54745 -0.5596,3.09492 -0.5596,4.64237c1.6788,-0.27306 3.02179,0.18199 4.14098,1.18334c0.5596,0.54619 1.00724,1.18335 1.34297,1.82059c1.6788,3.36793 0.78348,6.37185 -2.01454,9.19369c-1.11919,1.09234 -2.57416,1.82057 -4.47676,1.36538c-0.22384,-0.09105 -0.55959,0 -0.78348,0.09105c-0.89532,1.6385 -1.90259,2.63979 -2.90985,3.27697c-1.90259,1.09234 -4.25291,1.00129 -5.9317,-0.27304c-0.67152,-0.54615 -1.11921,-1.27438 -1.34299,-2.09358c-0.67152,-2.09364 -0.67151,-4.18723 -0.55959,-6.28086c0.11188,-4.73337 0.44769,-9.46672 0.67152,-14.2001c0.33576,-5.09746 1.11919,-10.10397 1.00724,-15.20145c-0.11188,-4.09624 0,-8.19234 -0.11192,-12.19751c0,-1.18334 -0.22384,-2.36665 -0.89532,-4.00517c-0.33576,0.54615 -0.5596,0.81924 -0.78348,1.00129c-0.4477,0.54619 -1.00724,1.0013 -1.67879,1.36539c-0.33576,0.18201 -0.67152,0.18201 -1.00724,0.09105c-0.4477,-0.18201 -0.55959,-0.6372 -0.33576,-1.0013c0.11188,-0.3641 0.44769,-0.63719 0.67151,-0.91024c0.5596,-0.72818 1.23106,-1.45645 1.79071,-2.18464c1.90259,-2.73078 3.35756,-5.64366 2.90987,-8.92059c0,-0.18201 0.11188,-0.63719 -0.4477,-0.63719c-0.5596,0.18201 -0.4477,0.54619 -0.5596,0.91025c-0.5596,2.45767 -1.6788,4.73337 -3.46945,6.73595c-1.90259,2.09358 -3.91715,4.09624 -6.15555,6.09874c-5.03634,4.55136 -10.96797,8.19234 -17.57115,10.92318c-2.90985,1.18334 -5.81974,2.27568 -8.72969,3.36793c-3.69331,1.36538 -7.49851,2.45767 -11.41566,3.00386c-1.6788,0.27306 -3.35756,0.45515 -5.03634,0.54615c-0.89532,0.09105 -1.79067,0.09105 -2.68607,-0.09103c-2.46223,-0.45514 -4.92438,-0.6372 -7.16275,-1.72955c-0.22384,-0.09105 -0.55961,-0.3641 -0.89532,-0.09105c2.46223,2.73078 5.9317,3.82313 9.96076,4.09624c2.01455,0.09105 4.14096,0.09103 6.15554,-0.09105c0.78348,-0.09105 1.56688,-0.182 2.35025,0.3641c-0.89532,1.82053 -3.02177,1.54745 -4.70053,2.09364c0,0.54615 0.4477,0.81919 0.67146,1.18334c1.56688,2.09358 2.57415,4.27828 3.35759,6.64496c1.79072,5.09746 2.57415,10.37698 3.24561,15.65654c0.4477,4.36925 1.00724,8.6475 1.90259,13.01676c0.4477,2.45767 1.23106,4.82443 1.90259,7.19115c1.34298,4.46032 4.14098,8.37446 7.38662,12.01549c2.01455,2.18464 4.47674,4.00517 7.61039,5.00641c2.46223,0.81926 5.03633,1.54745 7.49853,2.36672c1.00724,0.27306 2.01454,0.45508 3.13369,0.63718c3.46947,0.45514 6.93893,0.45514 10.40843,0.45514c2.90985,0 5.81974,-0.36407 8.7296,-0.81923c4.47674,-0.72815 8.84151,-1.9116 12.87056,-3.45898c5.81976,-2.27569 10.7442,-5.2795 13.76593,-10.01293c1.79071,-2.82179 3.58139,-5.73466 4.36483,-8.82954c0.44769,-1.9116 0.89531,-3.82313 1.34297,-5.73467c1.34298,-6.37185 1.00725,-12.74371 0.5596,-19.11557c-0.22384,-3.64106 -0.78339,-7.19105 -1.23107,-10.83213c-0.67152,-4.73337 -1.6788,-9.46673 -2.57415,-14.20011c-0.78348,-3.73208 -1.56687,-7.46419 -2.23834,-11.19622c-0.5596,-3.27697 -1.00724,-6.46292 -1.56687,-9.73978c-0.67152,-4.27828 -1.56688,-8.46545 -2.12647,-12.74372c-0.78347,-5.27952 -1.79072,-10.46804 -2.79796,-15.74751c-0.33576,-1.72953 -0.78348,-3.45898 -1.11919,-5.18851c-1.34298,-7.19114 -2.79796,-14.3822 -4.14098,-21.57324c-0.89532,-5.00641 -1.79071,-10.01293 -2.46223,-15.11038c-0.22384,-2.00253 -0.33576,-4.09623 -0.5596,-6.09875c-0.67152,-4.46033 -0.5596,-9.01164 -0.4477,-13.47191c0.11188,-2.82177 1.23106,-5.46156 3.46947,-7.64618c0.67152,-0.72816 1.56688,-1.09229 2.68607,-1.18334c3.35755,-0.36411 6.37938,0.36411 9.28919,1.6385c2.90985,1.18334 5.81973,2.09359 8.95342,2.91284c1.34298,0.3641 2.57415,0.54614 4.02906,0.18199c-0.5596,-0.45508 -1.23106,-0.6372 -1.90259,-0.72816c-1.00724,-0.18199 -1.90259,-0.36407 -2.79795,-0.72819c-0.89532,-0.27304 -1.79071,-0.72816 -2.01455,-1.45645c0.22384,-0.45515 0.5596,-0.54619 0.89532,-0.45516c0.67152,0.18199 1.34298,0.36411 2.01455,0.45516c1.23106,0.6372 2.79799,0.8192 4.14097,1.18334c0.33575,0.09103 0.67146,-0.182 0.5596,-0.72816c-1.34298,-0.09103 -2.46223,-0.6372 -3.69331,-0.91024zM222.60556,152.7821c-1.56688,-0.6372 -3.02177,-1.09229 -4.70053,-1.00129c-0.4477,0 -0.89533,0 -1.343,0c-0.33576,0 -0.67152,-0.182 -0.78348,-0.54619c-0.11188,-0.27306 0.11192,-0.54615 0.4477,-0.72816c0.4477,-0.27306 1.00724,-0.36408 1.45491,-0.36408c1.90259,-0.09105 3.6933,0.36408 5.48402,1.00129c0.11188,0.09105 0.33582,0 0.55961,0c0.11188,-0.18201 0.22383,-0.3641 0.22383,-0.6372c0,-0.27306 0.33576,-0.5462 -0.11188,-0.91024c-0.89532,-0.3641 -2.1265,-0.72818 -3.35756,-0.91023c-1.90259,-0.27306 -3.6933,-0.3641 -5.59592,-0.3641c-0.67152,0 -1.23106,-0.09104 -1.45489,-0.63719c0.11188,-0.3641 0.44769,-0.6372 0.89532,-0.72816c1.6788,-0.3641 3.35756,-0.3641 5.03634,-0.09103c1.45489,0.18201 2.90985,0.45514 4.36482,0.63719c0.4477,-0.3641 0.67146,-0.72815 0.22384,-1.00128c-0.22384,-0.18201 -0.55961,-0.27306 -0.89532,-0.3641c-3.35755,-1.00129 -6.71513,-1.6385 -10.1846,-1.00129c-0.5596,0.09105 -1.23106,0.36411 -1.6788,-0.182c-0.11188,-0.3641 0.11188,-0.54616 0.33576,-0.81919c0.5596,-0.6372 1.4549,-0.72816 2.35026,-0.81927c2.68607,-0.27306 5.37211,-0.09105 7.9462,0.54615c0.67152,0.18201 1.23106,0.6372 1.90259,0.36411c0.22384,-0.3641 0,-0.6372 -0.22383,-0.81927c-1.00724,-1.09234 -2.35027,-1.63849 -3.80521,-1.82053c-1.79072,-0.27306 -3.46947,-0.5462 -5.26019,-0.6372c-7.16276,-0.3641 -13.76592,1.36539 -20.25717,3.55003c-4.25295,1.45645 -8.17004,3.55002 -12.08719,5.55261c-3.69331,1.9116 -7.16276,4.09624 -10.07269,6.82702c-1.79072,1.6385 -3.58139,3.45898 -5.26012,5.27952c-1.56688,1.72949 -3.02178,3.64109 -4.14098,5.55256c-0.89532,1.6385 -1.23106,3.36797 -0.89532,5.09746c0.22384,1.27437 0.55959,1.54745 2.01455,2.09364c0,-0.27306 0,-0.54621 0,-0.91025c-0.4477,-3.18595 0.89532,-6.00771 3.02178,-8.6475c0.5596,-0.6372 1.1192,-1.27438 2.01455,-1.6385c0.11188,-0.09105 0.44769,-0.09105 0.44769,0c0.22384,0.18201 0.33576,0.3641 0.33576,0.54615c0,0.27306 -0.22384,0.54618 -0.33576,0.81924c-0.67152,1.00129 -1.23106,1.91161 -1.90259,2.91285c-1.56688,2.45767 -1.90259,5.09747 -1.23107,7.82825c0.22384,0.72815 0.67146,1.18334 1.56688,1.0923c0.11188,-0.18201 0.22384,-0.27306 0.22384,-0.3641c-0.78348,-2.63979 0.22384,-5.00639 1.56688,-7.37314c0.33576,-0.6372 0.78347,-1.09234 1.56687,-1.36538c0.33576,-0.09105 0.67153,-0.18201 1.00724,0.1821c0.22384,0.54615 -0.33575,1.09234 -0.5596,1.54744c-0.67152,1.27437 -1.23107,2.54873 -1.56688,3.91414c-0.33576,1.36538 -0.33576,2.73078 0.67146,4.00517c0.5596,0.18201 1.11919,0.27305 1.56688,-0.182c-0.11188,-0.27306 -0.22384,-0.45512 -0.22384,-0.81927c-0.11188,-1.82057 0.22384,-3.45896 1.56687,-4.91546c0.33576,-0.27306 0.67148,-0.54615 1.11915,-0.45515c0.5596,0.18201 0.4477,0.5462 0.33576,0.91024c-0.22384,0.6372 -0.55961,1.27438 -0.67148,1.82054c-0.33576,1.18334 -0.4477,2.45767 0,3.55002c0.67152,0.18201 1.34298,0.36411 1.79072,-0.182c-0.4477,-2.82179 -0.33576,-3.18595 2.01456,-4.09624c-0.11188,1.45645 -0.67152,2.8218 -0.22383,4.09624c1.23106,0.27306 2.2384,-0.45508 3.35752,-0.45508c2.46223,0 4.70055,-0.72816 6.93893,-1.54745c3.91713,-1.54745 7.83428,-3.09492 11.75146,-4.73337c1.90259,-0.81926 3.69332,-1.82058 5.37204,-2.91284c1.56688,-1.09234 3.24561,-2.09358 4.81245,-3.18594c1.00724,-0.72815 2.01456,-1.45645 3.02178,-2.18463c2.12646,-1.82053 4.25291,-3.73207 6.37938,-5.55256c0.4477,-0.45508 1.11919,-0.72815 1.23107,-1.36538c-0.11188,-0.3641 -0.55959,-0.45509 -0.78348,-0.54619c-0.5596,-0.18201 -1.23107,-0.182 -1.79072,-0.3641c-0.4477,-0.09105 -0.5596,-0.3641 -0.5596,-0.63719c0,-0.18201 0.22384,-0.3641 0.4477,-0.45508c0.33576,-0.09105 0.67153,-0.1821 1.00724,-0.1821c1.11919,-0.18201 2.01456,0.45516 2.79796,0.81927c0.4477,-0.27306 0.5596,-0.5462 0.78348,-1.09235zM232.90208,204.21206c-0.22384,1.45645 0.67151,2.73078 2.46223,3.55002c1.11919,0.54615 2.23841,0.3641 3.13371,-0.45515c2.23841,-2.09358 2.12646,-5.09746 0.78347,-7.37315c-0.33576,-0.6372 -1.00723,-1.00129 -2.01456,-0.91024c-1.45489,0.18201 -2.79795,0.63718 -3.46945,1.82057c-0.4477,1.00129 -0.89532,2.00259 -0.89532,3.36797zM241.40788,185.18747c0,-1.00129 -0.44768,-2.00259 -1.11919,-2.91284c-1.11919,-1.6385 -3.13369,-1.72953 -4.36482,-0.09105c-0.22384,0.27306 -0.33576,0.63719 -0.55961,1.00129c-0.4477,1.27437 -0.4477,2.54873 -0.22384,3.91414c0.33576,1.45645 1.6788,2.45769 3.46947,2.63979c0.67152,0.09105 1.23107,-0.09105 1.56688,-0.6372c0.78348,-1.18334 0.89532,-2.45769 1.23106,-3.91414zM282.70572,61.75564c1.56687,-2.54872 1.6788,-5.09747 1.4549,-7.64619c-0.22384,-2.18464 -0.67152,-2.45768 -3.35756,-2.45768c-0.33575,0 -0.67146,-0.00001 -0.89532,0.3641c1.00724,3.27698 0.5596,6.46292 -0.78339,9.64884c1.11919,0.3641 2.23841,0 3.58139,0.09103zM240.9602,167.71042c0.11188,-1.27437 -0.33575,-2.27569 -1.34298,-3.18595c-1.11919,-1.09234 -2.79796,-0.91024 -3.91715,0c-1.79072,1.54745 -1.4549,4.73336 0.67153,6.00771c1.34298,0.81926 3.1337,0.54615 3.91714,-0.63718c0.5596,-0.6372 0.78339,-1.36538 0.67152,-2.18464zM233.46169,148.13977c0,0.3641 0,0.72816 0,1.00129c0.11188,1.54745 1.11914,2.54872 2.90986,3.00383c1.11919,0.3641 2.12646,-0.09104 2.46223,-1.0923c0.22384,-0.54619 0.33576,-1.09234 0.33576,-1.72955c0,-1.45645 -0.11192,-2.91284 -1.11919,-4.18721c-0.5596,-0.72815 -1.34298,-0.91023 -2.23841,-0.54619c-0.5596,0.18201 -1.00724,0.54615 -1.4549,1.00129c-0.67152,0.81926 -1.00724,1.72953 -0.89532,2.54872zM236.48346,134.39481c0.78348,-1.27437 0.89532,-2.63979 1.11919,-4.00517c0.11188,-0.45514 -0.11191,-0.8192 -0.22383,-1.27438c-0.22384,-0.81926 -1.34298,-1.6385 -2.46223,-1.6385c-0.89532,0 -1.67881,0.3641 -2.12649,1.0013c-0.22384,0.45514 -0.5596,0.91024 -0.78347,1.36538c-0.33576,1.18334 -0.22384,2.27569 0.78347,3.27698c0.89532,0.81926 1.9026,1.6385 3.69332,1.27438zM228.9849,92.43154c-2.46223,1.45645 -2.01455,3.55003 -1.6788,5.55261c0.11188,0.81924 0.89532,1.63849 2.01455,1.82058c0.89532,0.18199 2.23841,-0.91023 2.57415,-1.9116c0.11188,-0.3641 0.11188,-0.72816 0.22384,-1.09234c0,-0.54619 -0.11188,-1.00129 -0.11188,-1.54744c-0.11188,-1.54744 -1.00724,-2.54873 -3.02178,-2.8218zM232.67825,109.99968c-1.45489,0.18199 -2.23841,0.91024 -2.68607,1.82054c-0.5596,1.00129 -0.4477,2.18463 0,3.18593c0.33576,0.81924 0.78348,1.63851 1.6788,2.18465c1.11919,0.6372 2.01455,0.45515 2.57415,-0.54615c0.11188,-0.18199 0.22384,-0.36407 0.22384,-0.63719c0.22384,-2.18464 0.11189,-4.18722 -1.79071,-6.00772zM228.87303,77.0481c-1.56688,0 -2.46223,0.72816 -3.02178,1.82059c-0.5596,1.18334 -0.11192,2.27557 0.5596,3.27692c0.4477,0.6372 1.4549,0.72816 2.35026,0.6372c0.89532,-0.09103 1.1192,-0.6372 1.34298,-1.18334c0.67152,-1.72953 0.33575,-3.27693 -1.23106,-4.55128zM230.66369,64.66847c0,-0.72816 -0.22383,-1.54744 -0.67152,-2.27569c-0.5596,-0.91024 -1.56688,-1.09234 -2.35026,-0.36408c-1.23106,1.18334 -1.67879,2.54872 -1.23106,4.00517c0.11188,0.3641 0.44768,0.81924 0.78347,1.18334c0.67152,0.72816 1.79071,0.6372 2.46223,-0.09103c0.67152,-0.6372 1.11919,-1.45645 1.00724,-2.45769zM276.66215,51.83376c0.11188,1.09235 0.11191,2.27569 0.22384,3.36799c0.11188,1.27439 -0.33575,2.45767 -0.5596,3.64107c-0.22384,1.09234 -1.4549,1.91159 -1.34298,3.18594c1.4549,-0.09103 1.67879,-1.00128 2.01454,-1.72953c1.6788,-2.91284 1.6788,-6.09875 -0.33575,-8.4655z" fill="#010001" fill-rule="nonzero" stroke="none" stroke-width="1"/><path d="M269.55987,57.62773c-0.67152,-0.18199 -1.34298,-0.3641 -2.01455,-0.45508c-0.33575,-0.09103 -0.67146,0.00001 -0.89532,0.45508c0.33575,0.72819 1.11919,1.18334 2.01455,1.45645c0.89532,0.27304 1.9026,0.54615 2.79795,0.72815c0.67152,0.09103 1.34298,0.27304 1.9026,0.72815c-1.4549,0.27304 -2.68607,0.18201 -4.02905,-0.18199c-3.02177,-0.81924 -6.04362,-1.72953 -8.95343,-2.91283c-2.90985,-1.18334 -5.9317,-1.91159 -9.28918,-1.6385c-1.11919,0.09103 -2.01455,0.45515 -2.68607,1.18334c-2.23841,2.27568 -3.35755,4.82438 -3.46947,7.6462c-0.22384,4.46033 -0.22384,9.01164 0.44769,13.47191c0.33576,2.00259 0.33578,4.09623 0.55961,6.09875c0.67152,5.09746 1.56687,10.10392 2.46223,15.11038c1.34298,7.19114 2.68608,14.38221 4.14098,21.57325c0.33575,1.72949 0.78347,3.45898 1.11919,5.18848c1.00724,5.27952 2.01455,10.46803 2.79795,15.74758c0.67152,4.27821 1.4549,8.4655 2.12647,12.74372c0.5596,3.27697 1.00724,6.46292 1.56687,9.73977c0.67152,3.73208 1.4549,7.4642 2.23841,11.19622c1.00724,4.73337 2.01455,9.46674 2.57415,14.2001c0.44769,3.64106 1.00723,7.19115 1.23106,10.83213c0.44769,6.37185 0.78347,12.7437 -0.5596,19.11557c-0.44769,1.9116 -0.89532,3.82313 -1.34298,5.73466c-0.78347,3.18595 -2.57415,6.00771 -4.36482,8.82959c-3.02179,4.73337 -7.9462,7.73724 -13.76591,10.01294c-4.14096,1.6385 -8.39389,2.7308 -12.87058,3.45898c-2.90985,0.45514 -5.81973,0.81924 -8.72969,0.81924c-3.46947,0 -6.93893,0.09104 -10.40843,-0.45515c-1.00724,-0.18201 -2.12649,-0.27305 -3.13367,-0.63719c-2.46223,-0.72815 -5.03634,-1.54745 -7.49853,-2.36672c-3.13369,-1.00129 -5.59593,-2.82177 -7.61039,-5.00641c-3.35755,-3.64106 -6.04361,-7.55516 -7.3866,-12.01548c-0.78348,-2.36672 -1.45491,-4.82443 -1.90259,-7.19115c-0.89532,-4.27828 -1.343,-8.6475 -1.90259,-13.01675c-0.5596,-5.27952 -1.34298,-10.5591 -3.24561,-15.65655c-0.78348,-2.27569 -1.79072,-4.55127 -3.35756,-6.64496c-0.22384,-0.3641 -0.67147,-0.63718 -0.67147,-1.18334c1.56688,-0.54619 3.80523,-0.27306 4.70055,-2.09364c-0.78348,-0.54615 -1.56688,-0.45509 -2.35026,-0.3641c-2.01455,0.18201 -4.14097,0.182 -6.15555,0.09104c-4.02905,-0.27306 -7.49851,-1.36538 -9.96075,-4.09624c0.33576,-0.27306 0.67146,0 0.89532,0.09105c2.23841,1.0923 4.70053,1.27439 7.16275,1.72953c0.89532,0.18201 1.79072,0.09104 2.68607,0.09104c1.6788,-0.18201 3.35752,-0.36411 5.03632,-0.5462c4.02905,-0.54615 7.83429,-1.63849 11.41566,-3.00386c2.90985,-1.0923 5.81976,-2.18465 8.72969,-3.36794c6.71503,-2.73078 12.53485,-6.37185 17.57115,-10.92314c2.12646,-1.9116 4.25291,-3.91413 6.15554,-6.09875c1.79072,-2.09358 2.90985,-4.27822 3.46947,-6.73596c0.11188,-0.3641 0.00001,-0.72818 0.55961,-0.91024c0.5596,0 0.33578,0.3641 0.4477,0.6372c0.5596,3.27697 -0.89532,6.09874 -2.90987,8.92061c-0.5596,0.72818 -1.23106,1.45645 -1.79071,2.18464c-0.22384,0.27306 -0.4477,0.63719 -0.67152,0.91024c-0.11188,0.3641 0,0.72816 0.33575,1.00129c0.33576,0.18201 0.67153,0.09103 1.00724,-0.09105c0.67152,-0.3641 1.23106,-0.81924 1.6788,-1.36538c0.22384,-0.27306 0.33575,-0.45509 0.78347,-1.00129c0.67152,1.54745 0.89532,2.73078 0.89532,4.00517c0,4.09624 0,8.19234 0.11192,12.19751c0.11188,5.09746 -0.67152,10.19496 -1.00724,15.20139c-0.22384,4.73337 -0.5596,9.46672 -0.67152,14.20015c-0.11188,2.09358 -0.11189,4.18722 0.5596,6.28082c0.22384,0.81926 0.67146,1.54745 1.34298,2.09359c1.6788,1.27437 4.02905,1.45645 5.9317,0.27305c1.11919,-0.6372 2.01455,-1.72953 2.90985,-3.27697c0.22384,0 0.5596,-0.09105 0.78348,-0.09105c1.90259,0.45508 3.35753,-0.1821 4.47674,-1.36538c2.79795,-2.73078 3.69331,-5.73467 2.01455,-9.19369c-0.33576,-0.72818 -0.78348,-1.36538 -1.34298,-1.82059c-1.11919,-1.00129 -2.46223,-1.45645 -4.14098,-1.18334c0,-1.6385 -0.11192,-3.09488 0.5596,-4.64232c0.5596,-0.09105 1.00724,-0.27305 1.56688,-0.27305c1.34298,0 2.1265,-0.6372 2.90987,-1.36538c3.58139,-3.18595 2.57415,-8.73854 -1.11921,-10.92318c-1.00724,-0.54615 -2.23841,-0.54619 -3.24561,-1.0923c-0.11188,-1.72953 -0.22384,-3.55004 0,-5.37056c3.58139,0 5.37204,-1.27438 6.04362,-4.00517c1.00724,-3.73208 -1.90261,-6.73596 -5.37211,-7.55525c-0.4477,-0.09105 -1.11919,0.00001 -1.45489,-0.36407c-0.33576,-0.3641 -0.22383,-0.81926 -0.22383,-1.27438c-0.11188,-1.72953 -0.33578,-3.45898 -0.4477,-5.18851c4.47674,-1.54745 6.04363,-3.36793 5.81978,-6.73595c-0.11188,-2.73078 -2.35026,-4.73336 -6.6032,-5.91676c-0.4477,-1.6385 -0.44769,-3.36794 -0.5596,-5.09747c0.22384,-0.09105 0.44769,-0.27305 0.67146,-0.3641c2.90985,-0.27306 4.14098,-1.91159 4.81256,-3.91412c0.4477,-1.36538 0.4477,-2.63979 -0.33575,-4.00517c-0.89532,-1.6385 -2.35026,-2.54874 -4.36483,-3.00388c-0.67152,-0.18201 -1.45489,-0.182 -2.12646,-0.63719c-0.5596,-1.6385 -0.67146,-3.45899 -0.67146,-5.18852c0.33576,-0.6372 1.00723,-0.63719 1.56687,-1.00129c1.34298,-0.81924 2.12647,-1.9116 2.35026,-3.27698c0.11188,-0.54619 0.11192,-1.18335 0.11192,-1.72953c0.22384,-3.09488 -1.45489,-5.09748 -5.3721,-5.91676c-0.4477,-1.9116 -0.78349,-3.82313 -0.78349,-5.82566c2.68607,-1.9116 3.80522,-4.36932 3.35755,-7.19115c-0.33576,-2.27568 -2.57415,-3.36798 -4.70062,-4.55136c-0.33576,-1.63849 -0.33576,-3.36794 -0.33576,-5.18851c2.90985,-1.0923 3.91714,-3.09486 3.80522,-5.46156c-0.11188,-2.54872 -2.12647,-4.00517 -4.81255,-5.00641c-0.22384,-1.54744 -0.11188,-3.00388 0.11192,-4.46032c3.02178,-0.45508 5.14827,-1.6385 5.48402,-4.27828c0.4477,-2.82177 -0.44769,-4.46031 -3.46947,-6.18981c0.22384,-1.63849 0.78338,-3.18594 1.45489,-4.73337c1.6788,-3.27697 3.46947,-6.5539 6.71503,-9.01165c0.78348,-0.6372 1.56688,-1.18334 2.46223,-1.63849c1.56688,-0.91024 3.35755,-1.27438 5.26019,-1.36538c5.3721,-0.18199 9.96075,1.45645 14.21361,3.82313c1.11919,0.6372 2.12649,1.27439 3.1337,2.00253c2.79795,2.00253 5.81976,3.55002 9.625,4.09624c0.44769,1.18334 1.00724,2.36672 0.44769,3.64107c-1.23106,0.18199 -2.35026,-0.45515 -3.46947,-0.45515c-0.33575,0 -0.67146,0 -0.89532,0.36411c-0.22384,0.36411 0,0.54619 0.33575,0.72816c-0.11188,0.45515 -0.67152,0.27305 -1.00724,0.45515zM193.79117,179.057c1.6788,-0.09105 3.24562,-0.54619 4.70053,-1.09234c5.14827,-1.72953 9.625,-4.27827 14.10164,-7.00904c1.23106,-0.72815 2.35026,-1.54745 3.1337,-2.63979c0.11188,-0.18201 0.11188,-0.45508 0,-0.54619c-0.22384,-0.09105 -0.44769,-0.182 -0.67152,-0.182c-0.67152,0 -1.11921,0.45515 -1.56688,0.72819c-2.01455,1.18334 -4.02904,2.45768 -6.04362,3.55003c-4.14096,2.36672 -8.5058,4.55136 -13.43021,5.64367c-0.33576,0.09105 -0.67153,0.182 -1.00724,0.27305c-0.33576,0.18201 -0.33576,0.72816 0,0.91025c0.22384,0.18201 0.55959,0.27305 0.78348,0.36408zM231.61959,218.65344c-0.11188,0.6372 0.11192,0.91025 0.67152,1.00129c3.69331,0.45514 8.17004,-2.73078 8.17004,-5.73467c0,-0.54619 -0.44769,-0.91024 -1.23106,-1.00129c-0.11188,0.09105 -0.22384,0.09105 -0.22384,0.09105c-0.5596,0.3641 -0.4477,0.91024 -0.67152,1.36538c-0.78348,1.45645 -1.79071,2.63979 -3.80521,3.18594c-1.00724,0.27306 -1.90261,0.72816 -2.90987,1.0923zM224.79258,238.49726c-0.4477,0.3641 -0.44769,0.72814 -0.33576,1.09233c1.23106,2.36672 2.79795,4.55136 5.26019,6.18981c0.22384,0.18201 0.55961,0.27305 0.89532,0.3641c0.4477,0.09105 0.89532,-0.09104 1.11919,-0.3641c0.33576,-0.3641 0.22384,-0.72816 -0.11192,-1.00129c-2.35026,-1.36538 -3.69332,-3.27698 -5.14827,-5.18851c-0.33576,-0.45514 -0.67145,-1.00129 -1.67879,-1.09234zM220.31584,238.86136c-0.22384,0.09105 -0.4477,0.1821 -0.55961,0.3641c-0.4477,0.45514 -0.33581,0.91023 -0.11192,1.45645c1.00724,2.09358 2.68606,3.91414 4.36482,5.73467c0.4477,0.45514 1.11915,0.45511 1.6788,0.27305c0.4477,-0.27306 0.5596,-0.81919 0,-1.36538c-0.11188,-0.18201 -0.33578,-0.3641 -0.4477,-0.54619c-1.56688,-1.45645 -2.90985,-3.18594 -3.91713,-4.91547c-0.11188,-0.27306 -0.33578,-0.54615 -0.55961,-0.72816c0,-0.18201 -0.22384,-0.182 -0.4477,-0.27304zM203.30425,237.04088c0,0.18201 0,0.3641 0,0.45515c0.5596,2.09358 1.45489,4.18721 2.57415,6.09874c0.22384,0.45514 0.67152,0.81926 1.23106,1.09234c0.22384,0.09105 0.5596,0.09105 0.78348,0c0.22384,-0.09105 0.33577,-0.3641 0.44769,-0.54619c0,-0.18201 0.00001,-0.45509 -0.11191,-0.63719c-1.34298,-2.09358 -2.23834,-4.27828 -3.13366,-6.46292c-0.11188,-0.27306 -0.33578,-0.54619 -0.55961,-0.72818c-0.22384,-0.27306 -0.8953,-0.18201 -1.11919,0.09103c0.11188,0.27306 0,0.45515 -0.11188,0.6372zM213.15304,245.77937c0.89532,-0.54615 0.67152,-1.18334 0.22384,-1.82058c-1.23106,-1.9116 -2.35026,-3.91412 -3.35753,-5.91676c-0.11188,-0.27306 -0.44769,-0.45514 -0.78347,-0.45514c-0.89532,0.45514 -0.89532,1.18334 -0.5596,1.9116c0.78348,1.6385 1.56688,3.27698 2.68607,4.73337c0.4477,0.6372 0.78338,1.18334 1.79071,1.54745zM214.60803,239.40755c-0.5596,0.45514 -0.4477,1.09234 -0.22384,1.6385c0.89532,1.82057 1.79072,3.64107 3.35755,5.09748c0.11188,0.18201 0.33575,0.27306 0.5596,0.45515c0.33576,0.18201 0.67153,0.18201 1.00724,0c0.4477,-0.18201 0.55959,-0.6372 0.3358,-1.00131c-0.11188,-0.27306 -0.33581,-0.54615 -0.55959,-0.72814c-1.00724,-1.09234 -1.79068,-2.36675 -2.46223,-3.55004c-0.33576,-0.54619 -0.55961,-1.09234 -0.89532,-1.54744c-0.22384,-0.3641 -0.67152,-0.45508 -1.11919,-0.36408zM201.62549,241.6832c0.89532,-0.45514 0.67152,-1.00128 0.4477,-1.54744c-1.00724,-1.9116 -1.79071,-3.82313 -2.23841,-5.82571c-0.11188,-0.3641 -0.4477,-0.45508 -0.78348,-0.45508c-0.78348,0.54615 -0.89533,1.27437 -0.67147,2.00253c0.4477,1.6385 1.00725,3.27697 1.9026,4.73337c0.22384,0.45514 0.44768,0.91025 1.34298,1.09235zM236.87976,244.14088c0,-0.3641 -0.22383,-0.54619 -0.5596,-0.72815c-1.90259,-0.81926 -2.90986,-2.27568 -4.25295,-3.55003c-0.33576,-0.27306 -0.55961,-0.54615 -0.89532,-0.81924c-0.11188,-0.09105 -0.33576,-0.18199 -0.4477,-0.09103c-0.22384,0.09105 -0.4477,0.27305 -0.4477,0.45514c0,0.27306 0,0.54615 0.22384,0.81919c1.00724,1.6385 2.35027,3.09492 4.14098,4.18722c0.4477,0.27306 0.89532,0.45509 1.45491,0.45509c0.4477,0.09105 0.89532,-0.3641 0.78338,-0.72819zM246.84048,242.59344c0.5596,-0.45508 0.5596,-0.91024 0.11188,-1.36538c-1.23106,-1.18334 -2.68607,-2.27559 -4.25291,-3.27693c-0.33576,-0.18201 -0.67153,-0.18201 -1.00724,0c-0.33576,0.27306 -0.4477,0.6372 -0.22384,1.0013c0,0.09105 0.11188,0.18199 0.11188,0.18199c1.23106,1.09234 2.46223,2.27568 4.02906,3.09492c0.33576,0.27306 0.67152,0.45516 1.23107,0.3641zM235.42481,239.22547c1.00724,1.36538 3.80522,3.82313 4.92438,4.27827c0.4477,0.18201 0.89532,0.18199 1.23106,-0.09104c0.33576,-0.27306 0.44769,-0.72815 0.11191,-1.00128c-1.56688,-1.36538 -3.13369,-2.54873 -5.03633,-3.55003c-0.4477,-0.18201 -0.89532,-0.09104 -1.23106,0.3641zM246.61663,237.13188c0.33575,1.36538 1.67879,2.27569 3.02177,3.00387c0.22384,0.18201 0.67153,0.09104 1.00724,-0.18199c0.22384,-0.27306 0.22384,-0.54619 0,-0.81926c-0.78348,-0.91024 -1.6788,-1.72953 -2.79795,-2.27569c-0.33576,-0.27306 -0.78348,-0.18199 -1.23106,0.27306zM196.14153,237.49598c0.11188,-1.6385 -0.33575,-3.00387 -1.34297,-4.18721c0,-0.09105 -0.33576,0 -0.55961,0c-0.67152,0.72815 -0.4477,1.54745 -0.11188,2.27569c0.33576,0.72815 0.5596,1.54745 2.01456,1.9116zM250.42184,235.67543c0.5596,1.18334 1.79071,1.6385 2.90985,2.18464c0.33575,0.18201 0.89532,-0.09104 0.89532,-0.45514c0,-0.09105 0,-0.18201 0,-0.18201c0,-0.81926 -0.78337,-1.18334 -1.45489,-1.6385c-0.78348,-0.3641 -1.4549,-0.54619 -2.35026,0.09105zM256.80122,234.58315c0,-0.81926 -0.67146,-1.27438 -1.34298,-1.6385c-0.44769,-0.18201 -0.78347,-0.27304 -1.23106,0.09105c-0.33576,0.27306 -0.33576,0.63718 -0.11188,1.00128c0.33575,0.54615 0.89532,0.81926 1.56687,1.09235c0.5596,0.18201 1.11919,-0.18201 1.11919,-0.54615zM217.5179,166.0402c0,0.3641 0.55961,0.5462 1.00724,0.45515c0.67152,-0.18201 1.11921,-0.45515 1.45491,-0.91024c0.22384,-0.27306 0.33576,-0.54615 0,-0.81926c-0.22384,-0.27306 -0.55961,-0.36408 -1.00724,-0.27305c-0.89532,0.18201 -1.56688,0.81926 -1.45491,1.54744zM188.64294,178.96601c-0.78348,0.09105 -1.56688,0.27304 -2.01455,1.00129c-0.11188,0.09105 0.11189,0.45508 0.33578,0.54615c0.89532,0.45514 1.67879,0.00001 2.35025,-0.3641c0.33576,-0.18201 0.4477,-0.45515 0.22384,-0.72816c-0.11188,-0.27306 -0.33578,-0.36408 -0.89532,-0.45508z" fill="#ffc941" fill-rule="nonzero" stroke="none" stroke-width="1"/><path d="M222.60556,152.7821c-0.11188,0.54619 -0.33576,0.91023 -0.89532,1.18334c-0.78348,-0.3641 -1.67879,-1.00129 -2.79795,-0.81924c-0.33576,0 -0.67152,0.09104 -1.00724,0.182c-0.22384,0.09105 -0.4477,0.27305 -0.4477,0.45509c-0.11188,0.27306 0.1119,0.54619 0.55961,0.6372c0.5596,0.09105 1.23106,0.18201 1.79071,0.3641c0.33576,0.09105 0.67152,0.18201 0.78348,0.54615c-0.11188,0.6372 -0.78348,0.91024 -1.23106,1.36538c-2.12646,1.9116 -4.25291,3.73208 -6.37939,5.55262c-0.89532,0.81926 -1.90259,1.45645 -3.02178,2.18464c-1.56688,1.0923 -3.24561,2.09364 -4.81254,3.18595c-1.6788,1.09234 -3.35755,2.09364 -5.37204,2.91284c-3.91713,1.6385 -7.83428,3.18595 -11.75146,4.73337c-2.12646,0.81926 -4.47676,1.54745 -6.93893,1.54745c-1.11919,0 -2.1265,0.81923 -3.35756,0.45514c-0.4477,-1.27437 0.11192,-2.63978 0.22384,-4.09623c-2.35026,0.91024 -2.46224,1.27437 -2.01455,4.09623c-0.4477,0.54615 -1.1192,0.27305 -1.79072,0.18201c-0.5596,-1.18334 -0.33576,-2.36672 0,-3.55003c0.22384,-0.6372 0.4477,-1.27438 0.67152,-1.82053c0.11188,-0.3641 0.22384,-0.72816 -0.33575,-0.91024c-0.4477,-0.18201 -0.78348,0.09105 -1.11919,0.45508c-1.34298,1.45645 -1.6788,3.18594 -1.56688,4.91547c0,0.27306 0.11192,0.54615 0.22384,0.81919c-0.5596,0.45514 -1.00724,0.27305 -1.56688,0.1821c-1.00724,-1.18334 -1.00723,-2.54872 -0.67152,-4.00517c0.33576,-1.36538 0.78348,-2.63978 1.56688,-3.91413c0.33576,-0.54619 0.78347,-1.00129 0.5596,-1.54745c-0.33576,-0.3641 -0.67152,-0.27305 -1.00724,-0.182c-0.78348,0.27306 -1.23106,0.81924 -1.56687,1.36538c-1.34298,2.36672 -2.35027,4.73338 -1.56688,7.37315c0,0.09105 -0.11187,0.27305 -0.22384,0.3641c-1.00724,0 -1.45491,-0.3641 -1.56688,-1.09234c-0.67152,-2.73078 -0.33575,-5.37056 1.23106,-7.82825c0.67152,-1.00129 1.23117,-1.9116 1.90259,-2.91284c0.11188,-0.27306 0.33576,-0.54615 0.33576,-0.81918c0,-0.18201 -0.22384,-0.36411 -0.33576,-0.5462c-0.11188,-0.09105 -0.33578,-0.09105 -0.4477,0c-0.89532,0.3641 -1.56688,1.00129 -2.01455,1.6385c-2.23841,2.54872 -3.46947,5.37056 -3.02177,8.6475c0,0.27306 0,0.54615 0,0.91023c-1.45489,-0.54615 -1.79068,-0.81926 -2.01456,-2.09364c-0.33576,-1.72953 -0.11192,-3.45898 0.89532,-5.09746c1.11919,-2.00259 2.57415,-3.82313 4.14096,-5.55262c1.56688,-1.82053 3.35759,-3.55002 5.26019,-5.2795c2.90985,-2.63979 6.37938,-4.82437 10.07264,-6.82693c3.91715,-2.00259 7.83428,-4.09624 12.0872,-5.55262c6.4913,-2.18464 13.0944,-3.91413 20.25718,-3.55003c1.79072,0.09105 3.58139,0.3641 5.26019,0.6372c1.45489,0.27306 2.90987,0.81923 3.80522,1.82057c0.22384,0.18201 0.4477,0.45509 0.22384,0.81919c-0.67152,0.18201 -1.34298,-0.18201 -1.90259,-0.3641c-2.57415,-0.6372 -5.26012,-0.81926 -7.9462,-0.54619c-0.89532,0.09105 -1.79072,0.18201 -2.35026,0.81919c-0.22384,0.27306 -0.4477,0.45515 -0.33576,0.81924c0.4477,0.54615 1.1192,0.27305 1.6788,0.182c3.58139,-0.6372 6.93893,-0.09105 10.1846,1.00129c0.33576,0.09105 0.67146,0.18201 0.89532,0.36411c0.4477,0.3641 0.11188,0.63718 -0.22384,1.00129c-1.45489,-0.18201 -2.90985,-0.45515 -4.36481,-0.63719c-1.6788,-0.27306 -3.35756,-0.182 -5.03634,0.09104c-0.4477,0.09105 -0.78348,0.27306 -0.89532,0.72816c0.22384,0.6372 0.89531,0.6372 1.45489,0.6372c1.90259,0 3.69332,0.182 5.59594,0.3641c1.23106,0.18201 2.46223,0.45508 3.35755,0.91025c0.5596,0.3641 0.22384,0.63719 0.11189,0.91024c0,0.18201 -0.11192,0.3641 -0.22384,0.6372c-0.22384,0 -0.33575,0 -0.5596,0c-1.6788,-0.6372 -3.46947,-1.09235 -5.48402,-1.00129c-0.5596,0 -1.1192,0.09104 -1.45491,0.36408c-0.33576,0.18201 -0.4477,0.45516 -0.4477,0.72819c0.11188,0.27306 0.33575,0.45509 0.78338,0.54614c0.4477,0 0.89533,0.09105 1.343,0c1.6788,-0.18201 3.24562,0.27306 4.81246,0.91025zM174.03306,159.42709c0.89532,0.45514 1.67879,0.182 2.35025,-0.3641c2.23841,-1.82057 4.70054,-3.36797 7.16276,-4.91548c3.91713,-2.45767 7.94622,-4.64237 12.53486,-6.28082c1.90259,-0.6372 3.80522,-1.18335 5.70784,-1.82053c0.67152,-0.18201 1.34298,-0.36408 1.56688,-1.00129c-0.22384,-0.45514 -0.67152,-0.6372 -1.23106,-0.72816c-0.78348,-0.09105 -1.56688,0.09103 -2.35026,0.27304c-4.25295,1.09234 -8.05811,2.63979 -11.75146,4.55136c-3.35755,1.72953 -6.4913,3.82313 -9.62495,5.82566c-1.34298,0.81926 -2.46223,1.9116 -3.69331,2.82179c-0.5596,0.54619 -1.11919,1.00129 -0.67152,1.6385z" fill="#ffc941" fill-rule="nonzero" stroke="none" stroke-width="1"/><path d="M241.40788,185.18747c-0.22384,1.45645 -0.4477,2.73078 -1.23107,3.91414c-0.33576,0.54615 -0.89532,0.72816 -1.56687,0.6372c-1.6788,-0.18201 -3.13366,-1.18334 -3.46945,-2.63979c-0.22384,-1.27437 -0.22385,-2.63979 0.22384,-3.91414c0.11188,-0.3641 0.33575,-0.72816 0.5596,-1.00129c1.23106,-1.6385 3.24562,-1.63849 4.36483,0.09105c0.67152,0.91024 1.11914,1.9116 1.11914,2.91284z" fill="#fcc741" fill-rule="nonzero" stroke="none" stroke-width="1"/><path d="M282.70572,61.75564c-1.23106,0 -2.35026,0.3641 -3.58138,-0.09105c1.45489,-3.18593 1.79071,-6.37185 0.78337,-9.64879c0.22384,-0.27305 0.55961,-0.36411 0.89532,-0.36411c2.68607,-0.09103 3.02178,0.182 3.35753,2.45768c0.22384,2.54872 0.11192,5.09748 -1.45491,7.6462z" fill="#fac540" fill-rule="nonzero" stroke="none" stroke-width="1"/><path d="M240.9602,167.71042c0.11188,0.81926 -0.22383,1.54744 -0.67152,2.27569c-0.89532,1.09234 -2.68607,1.36538 -3.91713,0.6372c-2.12646,-1.27437 -2.46224,-4.46032 -0.67152,-6.00771c1.11919,-1.00129 2.79795,-1.09234 3.91713,0c1.00724,0.81926 1.4549,1.82054 1.34298,3.09492z" fill="#fac640" fill-rule="nonzero" stroke="none" stroke-width="1"/><path d="M233.46169,148.13977c0,-0.91024 0.33578,-1.72953 1.00724,-2.54872c0.33576,-0.45514 0.78338,-0.72819 1.4549,-1.00129c0.89532,-0.3641 1.79071,-0.182 2.23841,0.54619c0.89532,1.27437 1.11919,2.73078 1.11919,4.18722c0,0.54619 -0.22384,1.18334 -0.33576,1.72955c-0.33576,1.00129 -1.34298,1.36537 -2.46223,1.09233c-1.79072,-0.54615 -2.79798,-1.45645 -2.90985,-3.00387c-0.22384,-0.27306 -0.11188,-0.54615 -0.11188,-1.00129z" fill="#fcc741" fill-rule="nonzero" stroke="none" stroke-width="1"/><path d="M236.48346,134.39481c-1.79072,0.3641 -2.79794,-0.3641 -3.58138,-1.27438c-1.00724,-1.00129 -1.00724,-2.09364 -0.78348,-3.27697c0.11188,-0.45508 0.4477,-0.91024 0.78348,-1.36539c0.4477,-0.72815 1.23106,-1.0923 2.12646,-1.0013c1.11919,0 2.23841,0.81924 2.46223,1.6385c0.11188,0.45514 0.22384,0.91025 0.22384,1.27439c-0.33576,1.27437 -0.4477,2.73078 -1.23108,4.00517z" fill="#f8c440" fill-rule="nonzero" stroke="none" stroke-width="1"/><path d="M228.9849,92.43154c2.01455,0.27304 2.90986,1.27437 3.02178,2.82176c0,0.54615 0.11187,1.00129 0.11187,1.54744c0,0.3641 -0.11187,0.72815 -0.22383,1.09234c-0.33576,1.00129 -1.6788,2.09359 -2.57416,1.91161c-1.11919,-0.18199 -1.90259,-1.00129 -2.01454,-1.82054c-0.33576,-2.00259 -0.89532,-4.09621 1.6788,-5.55261z" fill="#f9c540" fill-rule="nonzero" stroke="none" stroke-width="1"/><path d="M232.67825,109.99968c1.90259,1.82054 2.01454,3.91412 1.79071,6.00771c0,0.18199 -0.11192,0.45515 -0.22384,0.6372c-0.4477,1.00129 -1.45489,1.18334 -2.57415,0.54619c-0.89532,-0.54619 -1.34298,-1.36538 -1.6788,-2.18464c-0.4477,-1.09234 -0.4477,-2.18463 0,-3.18593c0.4477,-0.91024 1.23107,-1.63849 2.68607,-1.82054z" fill="#f7c340" fill-rule="nonzero" stroke="none" stroke-width="1"/><path d="M228.87303,77.0481c1.56688,1.27438 1.9026,2.82179 1.34298,4.55128c-0.22384,0.54619 -0.4477,1.18334 -1.34298,1.18334c-0.89532,0.09103 -1.90259,0 -2.35026,-0.6372c-0.78348,-1.00129 -1.11919,-2.09359 -0.5596,-3.27693c0.4477,-1.09234 1.34298,-1.82058 2.90985,-1.82058z" fill="#f9c540" fill-rule="nonzero" stroke="none" stroke-width="1"/><path d="M230.66369,64.66847c0,1.00129 -0.33576,1.82054 -1.00724,2.54873c-0.67152,0.72819 -1.79071,0.81926 -2.46223,0.09104c-0.33576,-0.3641 -0.5596,-0.72815 -0.78347,-1.18334c-0.4477,-1.54744 0,-2.91284 1.23106,-4.00517c0.78348,-0.72816 1.79072,-0.54621 2.35026,0.36407c0.4477,0.72816 0.78349,1.45645 0.67152,2.18465z" fill="#f6c340" fill-rule="nonzero" stroke="none" stroke-width="1"/><path d="M276.66215,51.83376c1.9026,2.27569 2.01454,5.55259 0.44769,8.46549c-0.33575,0.72815 -0.55959,1.72954 -2.01455,1.72954c-0.11188,-1.27439 1.11919,-2.09363 1.34298,-3.18594c0.22384,-1.18334 0.67152,-2.36674 0.55961,-3.64107c-0.11188,-1.09235 -0.22384,-2.18464 -0.33576,-3.36798z" fill="#e6b73f" fill-rule="nonzero" stroke="none" stroke-width="1"/><path d="M269.38741,57.47742c0.33576,-0.18199 0.89532,0 1.11919,-0.45516c1.23106,0.27305 2.35026,0.81924 3.58138,0.91024c0.11188,0.54615 -0.22384,0.81919 -0.5596,0.72814c-1.34298,-0.3641 -2.90985,-0.54614 -4.14098,-1.18334z" fill="#a98836" fill-rule="nonzero" stroke="none" stroke-width="1"/><path d="M193.61881,178.90672c-0.22384,-0.09105 -0.55961,-0.182 -0.89532,-0.27305c-0.33576,-0.18201 -0.4477,-0.72816 0,-0.91025c0.33576,-0.09105 0.67152,-0.27304 1.00724,-0.27304c4.92438,-1.09234 9.28921,-3.27698 13.43023,-5.64366c2.01455,-1.18334 4.02904,-2.36671 6.04362,-3.55002c0.4477,-0.27306 1.00724,-0.72816 1.56688,-0.72816c0.22384,0 0.5596,0.09105 0.67152,0.18201c0.22384,0.18201 0.22384,0.3641 0,0.54619c-0.78348,1.09234 -1.90259,1.91161 -3.13369,2.63979c-4.36482,2.73078 -8.95344,5.27952 -14.10165,7.00905c-1.34298,0.45514 -2.79795,0.91023 -4.58866,1.00129z" fill="#060503" fill-rule="nonzero" stroke="none" stroke-width="1"/><path d="M217.34545,165.88989c-0.11188,-0.72818 0.5596,-1.27437 1.56688,-1.45645c0.33576,-0.09105 0.78338,0 1.00724,0.27306c0.22384,0.27306 0.11188,0.54615 0,0.81919c-0.33576,0.45514 -0.78338,0.72816 -1.4549,0.91023c-0.5596,0 -1.00724,-0.27306 -1.11919,-0.54619z" fill="#201b0f" fill-rule="nonzero" stroke="none" stroke-width="1"/><path d="M188.47049,178.81566c0.4477,0 0.78348,0.09104 0.89532,0.45516c0.11188,0.27306 0,0.63719 -0.22384,0.72815c-0.78348,0.3641 -1.45491,0.81927 -2.35027,0.3641c-0.22384,-0.09105 -0.33576,-0.3641 -0.33576,-0.54619c0.4477,-0.6372 1.23108,-0.81924 2.01457,-1.00129z" fill="#3d3219" fill-rule="nonzero" stroke="none" stroke-width="1"/><path d="M174.03306,159.42709c-0.4477,-0.6372 0.11188,-1.0923 0.5596,-1.54744c1.23106,-1.00129 2.35032,-2.00253 3.69331,-2.82179c3.13369,-2.00259 6.26747,-4.09624 9.62502,-5.82571c3.69331,-1.9116 7.61039,-3.45897 11.75146,-4.55126c0.78348,-0.18201 1.56688,-0.36411 2.35025,-0.27306c0.5596,0 1.00724,0.27306 1.23107,0.72819c-0.22384,0.72818 -0.89533,0.81924 -1.56688,1.00129c-1.90259,0.6372 -3.80521,1.18334 -5.7078,1.82057c-4.47674,1.6385 -8.61773,3.73208 -12.53485,6.28082c-2.46223,1.54745 -4.92438,3.09487 -7.16275,4.91546c-0.5596,0.45514 -1.34298,0.72816 -2.23841,0.27306z" fill="#fefefa" fill-rule="nonzero" stroke="none" stroke-width="1"/><g><path d="M256.60508,298.49688l-28.49383,-24.09632" fill="none" fill-rule="evenodd" stroke="#ffdb5d" stroke-width="1.26"/><path d="M240.54913,298.44629c3.7847,0 3.78469,-3.66818 7.56953,-3.66818c3.78307,0 3.78307,3.66818 7.56607,3.66818c3.78484,0 3.78484,-3.66818 7.57133,-3.66818c3.78484,0 3.78484,3.66818 7.57146,3.66818" fill="none" fill-rule="evenodd" stroke="#ffdb5d" stroke-width="1.26"/><path d="M212.88794,261.45703c-2.73653,-5.8635 -0.19808,-12.83512 5.66928,-15.57148c5.86745,-2.73449 12.84441,-0.19718 15.58101,5.66631c0.74318,1.59335 1.08503,3.2652 1.08853,4.91423l0.00871,-0.00172l0.28753,21.2344c0.02454,1.79225 -2.07909,2.77475 -3.43777,1.60733l-16.13489,-13.86143c-1.25861,-1.06101 -2.32093,-2.39602 -3.06247,-3.98757" fill="#751d18" fill-rule="nonzero" stroke="none" stroke-width="1"/></g><path d="M169.54963,225.27254c0,-11.27155 9.14206,-20.41065 20.42102,-20.41065l4.8085,-0.00172c0.0684,-0.0035 0.14381,-0.01557 0.20866,-0.01557h73.65342c0,0 0.01414,12.26795 0.01414,13.89437c0,5.38724 -2.27903,14.6466 -9.64353,20.9098c-16.41362,13.95717 -35.83701,32.03121 -35.83701,32.03121z" fill="#17242d" fill-rule="nonzero" stroke="none" stroke-width="1"/><g><path d="M186.62929,298.4497c3.78484,0 3.78484,-3.66817 7.56796,-3.66817c3.78469,0 3.78475,3.66817 7.56782,3.66817c3.78469,0 3.78474,-3.66817 7.57131,-3.66817c3.78484,0 3.78484,3.66817 7.56954,3.66817" fill="none" fill-rule="evenodd" stroke="#ffdb5d" stroke-width="1.26"/><path d="M201.97189,270.23841v28.08883" fill="none" fill-rule="evenodd" stroke="#ffdb5d" stroke-width="1.26"/><path d="M190.24755,252.65315c0,-6.47082 5.25039,-11.71839 11.72423,-11.71839c6.47397,0 11.7225,5.24763 11.7225,11.71839c0,1.75724 -0.39611,3.41689 -1.09033,4.91423l0.00871,0.00172l-8.72137,19.3635c-0.73449,1.63513 -3.05724,1.6369 -3.79519,0.00351l-8.75991,-19.37749c-0.69072,-1.49383 -1.08874,-3.15165 -1.08874,-4.90553" fill="#751d18" fill-rule="nonzero" stroke="none" stroke-width="1"/></g><g><path d="M153.84427,238.28219c7.56955,-26.24263 34.99392,-41.38319 61.2507,-33.81817l1.0413,0.29842l-4.68761,16.25212c-7.73433,26.81678 -35.75827,42.29062 -62.59186,34.55989z" fill="#b85c39" fill-rule="nonzero" stroke="none" stroke-width="1"/><path d="M148.8568,255.57445l0.00702,-0.02454l20.38076,-20.08083l28.43067,8.19146c-12.57971,11.91557 -30.95854,17.05838 -48.81843,11.91379" fill="#ad2c24" fill-rule="nonzero" stroke="none" stroke-width="1"/><path d="M155.78484,256.54122l19.37091,-19.03377" fill="none" fill-rule="evenodd" stroke="#751d18" stroke-width="0.6"/><path d="M181.03369,239.20016l-18.22451,17.90655" fill="none" fill-rule="evenodd" stroke="#751d18" stroke-width="0.6"/><path d="M186.91157,240.89467l-15.74578,15.47025" fill="none" fill-rule="evenodd" stroke="#751d18" stroke-width="0.6"/><path d="M181.75937,253.42448l11.03005,-10.83713" fill="none" fill-rule="evenodd" stroke="#751d18" stroke-width="0.6"/><path d="M191.47997,221.32166c-2.16851,3.69084 -6.62642,5.60345 -10.93014,4.36269c-5.09598,-1.46762 -8.0376,-6.78844 -6.56851,-11.88055c0.67305,-2.33492 2.16501,-4.20226 4.06338,-5.41329c10.9723,-5.86879 24.14984,-7.6435 37.05029,-3.92651l1.0413,0.3001l-4.68761,16.25037c-0.34007,1.17975 -0.73275,2.32963 -1.14992,3.46403l-0.06493,-0.02454c-1.54609,4.9753 -6.79121,7.82506 -11.82239,6.37654c-4.30533,-1.24066 -7.06115,-5.23001 -6.93152,-9.50893" fill="#573a3c" fill-rule="nonzero" stroke="none" stroke-width="1"/></g><path d="M260.41688,25.79919c3.15091,-0.91716 6.39105,-0.1101 8.71693,1.86466l0.5924,0.45459c0.84031,0.64774 2.01762,-0.15653 1.72158,-1.1736l-1.71045,-5.87617c-0.4951,-1.7008 0.48314,-3.4832 2.18656,-3.97906c1.7016,-0.49529 3.48548,0.48309 3.9805,2.18389l1.50417,5.16731c0.29752,1.02205 1.73715,1.05021 2.07295,0.04002l2.30521,-6.92685c0.46568,-1.39867 2.45767,-1.36064 2.86937,0.05351l2.80062,9.62108c0.09497,-0.03131 0.18744,-0.07097 0.28333,-0.09886c5.10681,-1.48656 10.44821,1.4462 11.93334,6.54826c1.48561,5.1036 -1.44785,10.44321 -6.5546,11.92982c-0.17165,0.04989 -0.34441,0.08384 -0.51731,0.1234l-6.34891,1.84813l-0.88327,-3.03459c-0.08715,-0.05455 -0.17829,-0.10435 -0.26414,-0.16113l-12.81482,0.77321l-3.00357,-3.31883c-1.01193,0.90162 -2.22735,1.60618 -3.616,2.0104c-4.98727,1.45173 -10.20655,-1.41281 -11.65705,-6.39584c-1.451,-4.98484 1.41595,-10.2014 6.40322,-11.65311" fill="#ce2235" fill-rule="nonzero" stroke="none" stroke-width="1"/><path d="M306.46158,47.22541l-30.36273,8.83825c0.00257,-3.17792 2.08583,-6.12532 5.28229,-7.05575l16.83672,-4.90098c3.19626,-0.93042 6.53611,0.43839 8.24367,3.11846" fill="#ffdb5d" fill-rule="nonzero" stroke="none" stroke-width="1"/><path d="M265.66024,55.54704c-2.10753,-7.24 2.05647,-14.81885 9.29923,-16.92719c7.24435,-2.10872 14.82537,2.05129 16.93287,9.29131c2.10703,7.23852 -2.05695,14.81732 -9.30125,16.92614c-7.2427,2.10827 -14.82375,-2.05174 -16.93074,-9.29024" fill="#ad2c24" fill-rule="nonzero" stroke="none" stroke-width="1"/><path d="M272.47191,53.56424c-1.01301,-3.48009 0.98883,-7.12168 4.46962,-8.13489c3.48252,-1.0137 7.12439,0.98497 8.13741,4.46512c1.01252,3.47847 -0.98759,7.11965 -4.47013,8.13335c-3.48079,1.01321 -7.12439,-0.98511 -8.1369,-4.46359" fill="#fff4e3" fill-rule="nonzero" stroke="none" stroke-width="1"/><path d="M274.47321,52.98168c-0.69111,-2.3742 0.67571,-4.86041 3.05077,-5.55173c2.37654,-0.69179 4.86265,0.67285 5.55376,3.04704c0.69066,2.37266 -0.67458,4.85845 -3.05121,5.55024c-2.37506,0.69136 -4.86265,-0.67293 -5.55332,-3.04556" fill="#17242d" fill-rule="nonzero" stroke="none" stroke-width="1"/><path d="M280.44986,62.22355l7.31475,-7.6999" fill="none" fill-rule="evenodd" stroke="#751d18" stroke-width="0.6"/></g><path d="M281.2128,62.14736c-1.7139,-5.88788 1.67134,-12.05315 7.5641,-13.7685c5.89269,-1.71528 12.05963,1.66941 13.77354,7.55738c1.71438,5.88957 -1.67305,12.0537 -7.5657,13.76899c-5.89283,1.71535 -12.05767,-1.66821 -13.77202,-7.55777" fill="#ce2235" fill-rule="nonzero" stroke="none" stroke-width="1"/><path d="M319.66363,63.1208l-37.11947,-11.54977c2.15963,-3.25548 6.29542,-4.86243 10.20318,-3.6465l20.58346,6.40456c3.90758,1.21581 6.40168,4.88569 6.33279,8.79168" fill="#ffdb5d" fill-rule="nonzero" stroke="none" stroke-width="1"/><g fill-rule="nonzero" stroke="none" stroke-width="1"><path d="M237.49015,49.43997l3.21805,-0.45815l3.21804,-0.45814l3.21804,-0.45815l3.21804,-0.45814l3.21804,-0.45814l3.21804,-0.45815l3.21804,-0.45814l3.21804,-0.45815l3.21804,-0.45814l3.21804,-0.45815l3.21804,-0.45813l3.21804,-0.45814l3.21804,-0.45816l3.21804,-0.45814l3.21804,-0.45815l3.21805,-0.45814l3.21804,-0.45815l3.21804,-0.45814l3.21804,-0.45814l3.21806,-0.45814l3.21804,-0.45814l3.21805,-0.45815l3.21804,-0.45814l3.21804,-0.45815l3.21804,-0.45813l3.21805,-0.45814l3.21804,-0.45816l3.21804,-0.45814l0.45814,3.21805l0.45815,3.21804l-3.21804,0.45813l0.45814,3.21805l-3.21804,0.45814l0.45814,3.21804l-3.21805,0.45815l-3.21804,0.45814l-3.21804,0.45814l-3.21804,0.45815l-3.21804,0.45814l-3.21804,0.45815l-3.21805,0.45814l-0.45814,-3.21804l-3.21804,0.45815l-0.45814,-3.21805l-3.21804,0.45814l-3.21804,0.45815l0.45814,3.21804l-3.21804,0.45814l0.45815,3.21805l-3.21804,0.45814l0.45814,3.21804l-3.21805,0.45816l-3.21804,0.45813l-3.21804,0.45814l-3.21805,0.45816l-3.21804,0.45814l-3.21804,0.45815l-0.45815,-3.21804l-3.21804,0.45814l-0.45814,-3.21804l-3.21804,0.45815l-0.45814,-3.21804l-3.21805,0.45813l-0.45813,-3.21804l-3.21804,0.45814l-3.21805,0.45814l-3.21804,0.45815l-3.21805,0.45814l-3.21804,0.45815l-3.21804,0.45814l-0.45814,-3.21804zM235.18839,56.33419l-3.21804,0.45814l-3.21804,0.45815l-0.45815,-3.21805l3.21804,-0.45813l3.21805,-0.45815z" fill="#000000"/><path d="M263.69263,48.99283l0.45815,3.21804l-3.21804,0.45815l-0.45815,-3.21804zM267.36882,51.75273l0.45814,3.21805l-3.21804,0.45814l-0.45814,-3.21805zM266.91068,48.53469l3.21804,-0.45815l0.45814,3.21804l-3.21804,0.45815zM273.80489,50.83644l0.45816,3.21804l-3.21804,0.45814l-0.45815,-3.21804zM277.48108,53.59633l0.45814,3.21804l-3.21804,0.45815l-0.45814,-3.21804zM271.50315,57.73067l-3.21804,0.45814l-0.45814,-3.21804l3.21804,-0.45815z" fill="#ffffff"/><path d="M299.09108,43.95324l3.21804,-0.45815l0.45814,3.21804l3.21804,-0.45814l-0.45814,-3.21804l3.21804,-0.45815l0.45814,3.21805l3.21805,-0.45814l0.45814,3.21804l-3.21804,0.45814l-0.45815,-3.21804l-3.21804,0.45815l0.45816,3.21804l-3.21805,0.45815l-0.45815,-3.21804l-3.21805,0.45814z" fill="#ffffff"/></g></g><text transform="translate(100.47255,341.06075) scale(1.18914,1.18914)" font-size="40" xml:space="preserve" fill="#000000" fill-rule="nonzero" stroke="none" stroke-width="1" stroke-linecap="butt" stroke-linejoin="miter" stroke-miterlimit="10" stroke-dasharray="" stroke-dashoffset="0" font-family="Sans Serif" font-weight="normal" text-anchor="start" style="mix-blend-mode: normal"><tspan x="0" dy="0">SaxoRooster</tspan></text></g></g></svg>