<svg version="1.1" xmlns="http://www.w3.org/2000/svg" xmlns:xlink="http://www.w3.org/1999/xlink" width="124.20019" height="182.93359" viewBox="0,0,124.20019,182.93359"><g transform="translate(-168.66686,-175.34844)"><g data-paper-data="{&quot;isPaintingLayer&quot;:true}" stroke-linecap="butt" stroke-linejoin="miter" stroke-miterlimit="10" stroke-dasharray="" stroke-dashoffset="0" style="mix-blend-mode: normal"><path d="M233.30448,240.31051c-0.17996,1.17168 -0.54623,1.9949 -1.14689,2.78216c-0.62462,0.94348 -1.62196,1.19002 -2.66141,1.1903c-0.6369,-0.01785 -1.04557,-0.48039 -1.28602,-0.99703c-0.63739,-2.09678 -0.3196,-4.68646 1.51858,-6.2431c0.73287,-0.60701 1.53797,-0.64327 2.2471,-0.05464c1.21996,0.90697 1.68885,2.01841 1.32868,3.32231z" fill="#fcc741" fill-rule="nonzero" stroke="none" stroke-width="1"/><path d="M228.60931,233.27641c-0.45764,0.12464 -0.87493,0.30412 -1.32531,0.38113c-0.90062,0.15399 -1.42405,0.70699 -1.87422,1.4174c-0.13175,0.22338 -0.1756,0.50898 -0.39525,0.67013c-0.05489,0.04027 -0.05489,0.04029 -0.10251,0.03297c-0.33319,-0.05118 -0.43945,-0.31112 -0.44317,-0.60403c0.24857,-1.61835 2.4011,-2.94433 3.93535,-2.46507c0.23069,0.08414 0.30393,0.24161 0.20515,0.56746z" fill="#fefcf5" fill-rule="nonzero" stroke="none" stroke-width="1"/><path d="M233.10667,223.34581c-0.42109,-0.11338 -0.52,-0.42092 -0.62627,-0.68084c-0.46523,-1.09462 -0.87562,-2.22955 -1.77284,-3.0495c-0.1685,-0.17204 -0.13919,-0.36244 0.03284,-0.53091c0.16471,-0.12087 0.32214,-0.19413 0.50522,-0.11726c0.13548,0.06952 0.27095,0.13906 0.35154,0.24885c0.9156,1.01761 1.3992,2.30997 1.74003,3.58038c0.02565,0.15009 -0.01091,0.38809 -0.23053,0.54926z" fill="#0e0b07" fill-rule="nonzero" stroke="none" stroke-width="1"/><path d="M235.03991,223.44778c-0.08789,-0.06221 -0.18313,-0.07683 -0.22337,-0.13175c-0.08059,-0.10979 -0.15381,-0.26724 -0.1795,-0.41734c-0.28218,-1.0178 -0.67418,-1.955 -1.27117,-2.82626c-0.08059,-0.10979 -0.11355,-0.21237 -0.14659,-0.31483c-0.14657,-0.31483 -0.1027,-0.60044 0.10968,-0.714c0.25992,-0.10623 0.53822,-0.01474 0.69207,0.25246c0.62268,1.02134 1.14284,2.07569 1.39577,3.28386c0.05865,0.25262 0.06239,0.54551 -0.16455,0.75427c-0.00732,0.04759 -0.10984,0.0806 -0.21238,0.11355z" fill="#100e08" fill-rule="nonzero" stroke="none" stroke-width="1"/><path d="M242.1287,225.51107c-0.06221,0.08789 -0.07684,0.18307 -0.13907,0.27096c-0.07684,0.18313 -0.41733,0.17951 -0.48329,-0.02552c-0.07328,-0.15741 -0.1538,-0.26724 -0.17949,-0.41734c-0.20531,-1.20085 -0.41067,-2.40174 -0.8137,-3.58425c-0.03297,-0.10247 -0.05864,-0.25261 0.0036,-0.3405c0.01461,-0.09521 0.13175,-0.22338 0.23429,-0.25633c0.10251,-0.03295 0.24531,-0.01104 0.3332,0.05116c0.22337,0.13175 0.3772,0.39901 0.43585,0.65165c0.32248,1.07269 0.58274,2.23327 0.60496,3.35728c-0.01461,0.09521 -0.02925,0.19045 0.00372,0.2929z" fill="#0b0a06" fill-rule="nonzero" stroke="none" stroke-width="1"/><path d="M238.64186,220.29818c0.40645,0.2086 0.49808,0.56374 0.64461,0.87857c0.35172,0.88232 0.56065,1.74264 0.7622,2.6506c0.0843,0.40272 0.0258,0.78352 -0.39153,0.96303c-0.19043,-0.02925 -0.27826,-0.09146 -0.29663,-0.28917c-0.26754,-1.113 -0.53508,-2.22595 -0.95277,-3.31328c-0.15389,-0.26723 -0.24545,-0.62238 0.23408,-0.88978z" fill="#141109" fill-rule="nonzero" stroke="none" stroke-width="1"/><path d="M237.51133,223.53507c-0.2453,0.01102 -0.38077,-0.05848 -0.44673,-0.26355c-0.10623,-0.25992 -0.20517,-0.56746 -0.2565,-0.86769c-0.18322,-0.71024 -0.37379,-1.37288 -0.76207,-2.01721c-0.08058,-0.10983 -0.15386,-0.26724 -0.17949,-0.41734c-0.06596,-0.20506 0.0109,-0.38808 0.22321,-0.50167c0.15742,-0.07325 0.30019,-0.05131 0.42838,0.0658c0.08789,0.06221 0.16845,0.17203 0.20144,0.27454c0.5421,0.91155 0.83158,1.88175 1.01855,2.88488c0.09893,0.30751 0.04775,0.64069 -0.22679,0.84213z" fill="#100d08" fill-rule="nonzero" stroke="none" stroke-width="1"/><path d="M243.21563,223.19319c0.36615,0.15369 0.4248,0.40631 0.53103,0.66627c0.26381,0.82006 0.3702,1.71338 0.42904,2.59942c0.03671,0.3954 -0.06939,0.7689 -0.44642,1.00333c-0.14278,-0.02193 -0.3259,-0.09875 -0.29665,-0.28915c-0.02959,-1.07645 -0.20923,-2.12722 -0.48409,-3.19259c-0.09893,-0.30751 -0.15024,-0.60777 0.26709,-0.78728z" fill="#15120a" fill-rule="nonzero" stroke="none" stroke-width="1"/><path d="M228.41924,219.60505c-0.02565,-0.15009 0.20128,-0.35885 0.39168,-0.3296c0.23799,0.03655 0.41378,0.16096 0.58221,0.33301c0.67386,0.68816 1.12806,1.5375 1.42489,2.46009c0.02565,0.15009 0.05134,0.30019 0.02941,0.443c-0.01461,0.09521 -0.12446,0.17575 -0.22699,0.20874c-0.05489,0.04027 -0.1428,-0.02193 -0.18307,-0.07682c-0.12086,-0.16471 -0.19412,-0.32215 -0.31497,-0.48689c-0.46886,-0.75412 -0.78026,-1.5815 -1.52366,-2.13419c-0.12817,-0.11714 -0.20142,-0.27454 -0.17949,-0.41732z" fill="#120f09" fill-rule="nonzero" stroke="none" stroke-width="1"/><path d="M224.05861,219.76357c0.19775,-0.01834 0.37347,0.10607 0.50167,0.22321c0.59326,0.57837 1.02915,1.22997 1.46502,1.88154c0.04027,0.05489 0.04027,0.0549 0.03295,0.10252c0.06596,0.20506 -0.0109,0.38807 -0.17559,0.50896c-0.15742,0.07325 -0.30019,0.05132 -0.42838,-0.06579c-0.58596,-0.62596 -1.11701,-1.29216 -1.5456,-1.9914c-0.16118,-0.21968 -0.11727,-0.50526 0.14993,-0.65908z" fill="#16130a" fill-rule="nonzero" stroke="none" stroke-width="1"/><path d="M228.64322,222.27042c-0.227,0.20874 -0.42465,0.22709 -0.60047,0.1027c-0.72878,-0.64789 -1.29281,-1.41662 -1.85684,-2.18536c-0.12086,-0.16471 -0.09161,-0.35512 0.128,-0.51629c0.16471,-0.12087 0.35513,-0.0916 0.53091,0.03284c0.48705,0.31842 1.47961,1.78635 1.79834,2.56618z" fill="#0d0b07" fill-rule="nonzero" stroke="none" stroke-width="1"/><path d="M223.71515,222.63417c-0.227,0.20874 -0.36975,0.1868 -0.54553,0.06236c-0.42483,-0.40631 -0.7471,-0.84559 -1.00721,-1.37275c-0.07328,-0.15741 -0.05135,-0.30021 0.06579,-0.4284c0.11714,-0.12816 0.31483,-0.1465 0.44303,-0.02936c0.51274,0.46851 1.01077,1.03222 1.04389,1.76815z" fill="#201b0f" fill-rule="nonzero" stroke="none" stroke-width="1"/><path d="M245.21164,225.74095c0.58952,0.28548 0.61895,0.72845 0.70325,1.13119c0.0843,0.40272 0.06607,0.83845 -0.23036,1.18268c-0.09521,-0.01461 -0.19768,0.01834 -0.23799,-0.03656c-0.33336,-0.68457 -0.41405,-1.42781 -0.2349,-2.2773z" fill="#1d180e" fill-rule="nonzero" stroke="none" stroke-width="1"/><path d="M221.97981,223.14712c-0.43195,0.2747 -0.71026,0.18323 -1.00689,-0.10594c-0.24903,-0.28186 -0.5603,-0.47583 -0.48719,-0.95181c0.00732,-0.04759 0.01463,-0.09519 0.01463,-0.09519c0.02925,-0.19044 0.28915,-0.29665 0.41731,-0.17951c0.43214,0.35869 0.91918,0.67713 1.06213,1.33245z" fill="#17130b" fill-rule="nonzero" stroke="none" stroke-width="1"/><path d="M219.1789,223.30161c0.02925,-0.19044 0.29648,-0.34422 0.51986,-0.21247c0.26364,0.18664 0.47974,0.36599 0.57865,0.67353c0.06596,0.20506 0.03673,0.39542 -0.128,0.5163c-0.16471,0.12087 -0.35513,0.0916 -0.53091,-0.03284c-0.25633,-0.2343 -0.45776,-0.50882 -0.43959,-0.9445z" fill="#382e16" fill-rule="nonzero" stroke="none" stroke-width="1"/><path d="M228.26446,257.55646c-0.12775,1.31839 -0.24631,2.57743 -0.43797,3.8252c0.34708,0.6615 1.18726,1.03386 1.45215,1.74356c0.5663,1.66834 0.47512,3.2356 -0.83972,4.49334c-0.96786,0.94611 -1.48834,1.9001 -1.53387,3.17032c0.0001,0.97315 -0.14593,1.92381 -0.29196,2.87454c0.43842,0.55386 0.89505,0.98896 1.18732,1.52037c1.04124,1.98452 0.83137,3.83769 -0.75744,5.41828c-0.70306,0.68268 -0.94961,1.31383 -1.00428,2.15689c0.0001,0.97315 -0.07288,1.93504 -0.13672,2.83756c0.12787,0.14124 0.10961,0.26011 0.17355,0.33073c1.9635,1.82209 1.72626,3.85353 0.41144,5.5978c-0.57524,0.82394 -0.98611,1.55149 -0.91299,2.53584c0.00914,0.42715 -0.05474,0.84309 -0.11863,1.25902c-0.073,0.96192 0.09149,1.83864 0.77647,2.73451c1.31512,1.66168 1.05046,3.38481 -0.29177,4.82077c-0.53873,0.58628 -0.84912,1.14682 -0.82165,1.9417c0.03665,1.22204 -0.07283,2.42163 -0.11836,3.6918c1.4886,1.01931 2.18271,2.34233 2.02761,3.83898c-0.16427,1.55611 -0.68466,2.51009 -2.24613,3.42586c-0.11863,1.25903 -0.25543,2.63686 -0.30098,3.9071c0.20092,0.15247 0.32878,0.29377 0.38358,0.42386c1.83564,1.68078 1.95455,3.82776 0.15569,5.31525c-0.76699,0.61204 -1.15959,1.22076 -1.2143,2.06379c0.00914,0.42715 -0.12777,0.83186 -0.27384,1.29597c-0.18255,0.70182 -0.05466,1.32963 0.35631,2.0618c1.13254,1.8769 0.38387,3.82981 -1.71631,4.84524c-0.73048,0.37432 -1.16881,0.7936 -1.48834,1.41351c-0.98602,2.03809 -2.24608,3.91242 -3.92616,5.60063c-0.88572,0.8979 -1.98149,1.7027 -3.13201,2.37747c-2.14585,1.31252 -4.58403,1.60704 -7.23228,1.32196c-2.86741,-0.31881 -5.15049,-1.52092 -7.32399,-2.94952c-1.8356,-1.19424 -3.42467,-2.53307 -4.92241,-3.97952c-0.58448,-0.57628 -1.33337,-1.05629 -2.01826,-1.46559c-0.54791,-0.32743 -1.15979,-0.72553 -1.90856,-0.23232c-0.24655,0.14457 -0.67572,0.01783 -1.04104,-0.03828c-1.46114,-0.22442 -2.92224,-0.44883 -4.3833,-0.67325c-0.65748,-0.10099 -1.24192,-0.19076 -1.76248,-0.69646c-0.25572,-0.28256 -0.77622,-0.30166 -1.14154,-0.35777c-2.55694,-0.39274 -5.10474,-0.84489 -7.66172,-1.23763c-1.60724,-0.24685 -3.27838,-0.56438 -4.85819,-0.98947c-0.2831,-0.10432 -0.5753,-0.14919 -0.68494,-0.40928c-0.10048,-0.31955 0.21001,-0.39349 0.39263,-0.60872c0.87659,-0.83849 1.88103,-1.53568 2.94937,-2.16224c0.82183,-0.48195 1.71668,-0.95274 2.41064,-1.57597c0.60262,-0.51563 1.45192,-0.6893 2.36507,-0.79234c1.28755,-0.10635 2.53863,0.02497 3.85363,0.22695c1.16891,0.17954 2.33777,0.35908 3.43358,0.52738c0.5388,-0.09969 0.68482,-0.56384 1.0866,-0.7454c0.49311,-0.2892 0.96791,-0.45952 1.58892,-0.1209c0.34703,0.17491 0.80358,0.12343 1.1689,0.17955c1.03193,0.09766 1.99074,0.18416 3.01354,0.34126c0.73056,0.11221 1.52502,0.29507 2.04559,0.8007c0.20092,0.15247 0.47492,0.31624 0.75796,0.42051c2.92228,0.93539 5.54321,2.37191 8.08203,3.85659c0.27398,0.16368 0.62096,0.33866 0.89493,0.50241c0.82189,0.49115 1.77163,0.63703 2.63917,0.83112c0.94057,0.20529 1.72594,-0.03901 2.20071,-0.69592c0.66658,-0.93156 1.3331,-1.86315 1.57954,-2.98086c0.62982,-3.12672 0.9765,-6.35772 1.16798,-9.55178c0.26445,-4.15598 0.07228,-8.2604 0.04452,-12.46127c-0.04586,-2.13574 -0.17389,-4.22325 -0.21978,-6.35902c-0.08249,-2.8712 -0.22882,-5.81303 -0.38434,-8.69548c-0.10066,-2.26576 -0.20131,-4.5316 -0.30201,-6.7974c-0.06417,-2.50346 -0.05523,-4.99573 -0.11939,-7.49917c-0.01848,-2.31397 -0.03697,-4.628 -0.12851,-6.95319c-0.07328,-2.44407 -0.06436,-4.93628 -0.13763,-7.38035c-0.07328,-2.44407 -0.15566,-4.82872 -0.08288,-7.25028c0.04545,-2.24333 -0.34744,-4.55404 -0.37506,-6.80862c0.0179,-3.52479 0.03587,-7.04963 0.34605,-10.5295c0.12768,-1.80498 0.33752,-3.65813 0.39218,-5.47436c0.17322,-3.07522 0.93089,-6.06068 1.83463,-9.02368c0.01824,-0.11881 0.02739,-0.17824 0.11869,-0.28586c1.10476,-1.83738 1.78949,-3.86089 3.04037,-5.67583c1.71658,-2.41243 4.03587,-4.36737 6.89393,-5.93542c2.12759,-1.19373 4.47446,-1.86719 7.00392,-2.26931c1.06843,-0.13997 2.09113,-0.46948 3.23263,-0.59826c1.14148,-0.12878 2.34685,-0.18687 3.47921,-0.25626c1.13234,-0.06936 2.31948,-0.00868 3.52486,-0.06679c2.40166,-0.05686 4.72118,0.42107 7.05895,0.78014c4.73948,0.78879 9.02242,2.6022 12.92197,4.96494c0.54791,0.32743 1.06851,0.83315 1.52515,1.2682c2.21923,2.10465 3.71708,4.52425 4.65789,7.16236c0.88599,2.50806 1.47069,5.03071 1.67183,7.61602c0.2285,2.40708 0.30181,4.85117 0.23812,7.21329c-0.19148,3.19406 -0.31905,6.4587 -0.13608,9.64951c0.08238,1.89804 0.39301,3.77036 0.77675,5.65392c0.27414,1.62346 1.16917,3.09893 2.14643,4.52624c1.57074,0.48454 3.07754,0.89846 4.43822,1.77647c2.59361,1.6148 3.83568,3.75178 4.03683,6.33709c0.15542,1.90927 -0.60238,3.43502 -1.80766,4.95285c-1.02262,1.30261 -2.38318,2.37087 -3.67983,3.50972c-2.57497,2.15895 -5.3965,3.97588 -8.81173,5.27594c-3.73476,1.43338 -7.52432,2.7368 -11.67923,3.49747c-2.92217,0.5243 -5.88082,0.79968 -8.85781,0.70738c-3.57056,-0.12267 -7.04984,-0.83953 -10.26438,-2.30639c-0.49317,-0.19736 -0.90406,-0.44298 -1.22375,-0.79616c-1.26036,-1.5316 -2.28324,-3.1484 -2.36558,-5.04648c-0.02751,-1.28146 0.15502,-2.46981 0.92199,-3.56838c0.7487,-0.97976 0.8491,-2.11992 0.87636,-3.2713c0.01803,-2.55169 0.18219,-5.08089 0.72069,-7.61345c0.5203,-2.41369 0.83055,-4.92053 1.35086,-7.33419c0.38332,-2.009 0.91281,-3.99554 1.30529,-6.06393c0.34681,-1.77132 0.70281,-3.60204 1.04966,-5.37339c0.10038,-0.6536 0.34688,-1.28473 0.52033,-1.92712c0.59339,-1.9159 0.88546,-3.81733 0.15474,-5.87575c-0.31969,-0.83976 -0.73976,-1.02591 -1.68947,-0.68524c-0.78532,0.24429 -1.09573,0.80483 -1.47008,1.29466c0.00914,0.42715 0.33795,0.72092 0.58455,1.06291c1.20559,1.88814 1.01395,3.62248 -0.2917,5.30736c-0.54785,0.6457 -1.15961,1.22074 -1.95408,1.52446c-0.56619,0.27799 -0.76701,0.61205 -0.9131,1.07615c-0.29214,0.92826 -0.5112,1.8677 -0.66636,2.87784c0.76712,0.84769 1.5252,1.75478 1.58007,2.85794c-0.00903,1.03254 0.06412,2.01692 -0.45632,2.97094c-0.42912,0.8464 -1.42445,1.48416 -2.48367,2.05133zM193.55234,333.60199c0.20092,0.15247 0.31965,0.3532 0.14617,0.50896c-0.17348,0.1558 -0.40178,0.18156 -0.62093,0.1479c-0.73056,-0.11221 -1.32419,-0.62914 -2.21909,-0.64492c-0.49306,0.77576 -0.2464,1.60428 -0.07282,2.42163c2.42912,0.738 4.23733,2.1105 5.8721,3.63884c0.58447,0.57632 1.17812,1.09325 1.84473,1.62139c2.61188,1.98253 5.36981,3.50086 8.89475,3.92063c1.32415,0.14255 2.45646,0.07323 3.57052,-0.36388c0.63004,-0.20731 1.20537,-0.54473 1.77152,-0.82268c2.37414,-1.33829 3.86245,-3.2384 5.28685,-5.20915c0.66658,-0.93156 1.18695,-1.88558 1.42427,-2.94387c-1.79908,-1.43194 -2.21927,-2.59118 -1.64412,-4.3883c0.55689,-1.67825 2.0636,-2.23748 4.00867,-2.24284c0.21904,-0.9395 0.43816,-1.87894 0.52025,-2.9003c-1.65297,-0.9229 -2.82196,-2.07556 -2.63948,-3.75048c0.23728,-1.54491 1.03159,-2.82173 3.03145,-3.18356c0.18253,-1.18837 0.35593,-2.31731 0.30101,-3.42052c-1.34249,-0.99686 -2.62102,-1.92309 -2.61199,-3.44222c-0.00931,-1.88683 0.96767,-3.37891 2.91264,-4.35745c0.20078,-1.3072 0.17327,-2.58863 0.07268,-3.88133c-2.46569,-0.9869 -3.36987,-2.40297 -2.91343,-4.4008c0.05476,-0.35654 0.19169,-0.76123 0.24644,-1.11776c0.20992,-0.88005 0.90389,-1.50328 1.86271,-1.90344c0.31959,-0.13336 0.84008,-0.11424 1.12318,-0.4965c0.1734,-1.12896 0.27373,-2.26909 0.08186,-3.45416c-0.3927,-0.36442 -0.90407,-0.44297 -1.32419,-0.62914c-1.26939,-0.49905 -2.12783,-1.23911 -2.548,-2.39839c-0.37453,-0.96982 -0.23764,-1.86109 0.18239,-2.64807c0.6391,-1.23985 1.607,-2.18599 3.5338,-2.07248c0.14611,0.02244 0.31046,-0.07393 0.47483,-0.17034c0.10039,-1.14018 0.27377,-2.26912 0.14579,-3.38351c-2.72139,-1.26949 -3.90868,-2.78989 -3.71707,-4.52425c0.27377,-2.26908 1.47902,-3.30037 4.47422,-3.81345c0.10039,-1.14018 0.20069,-2.2803 0.22798,-3.43172c0.04563,-0.29708 0.16428,-0.58296 -0.01834,-0.85431c-0.25572,-0.28256 -0.63011,-0.27922 -0.9132,-0.38354c-2.18258,-0.88261 -3.78089,-3.13517 -2.74921,-5.47029c0.71212,-1.71521 1.99969,-2.30809 4.34659,-2.00846c0.32864,-1.16595 0.42894,-2.30611 0.53844,-3.50568c-0.6758,-0.46871 -1.47939,-0.59217 -2.00908,-1.03844c-2.1918,-1.79632 -2.29258,-5.52184 0.36462,-7.2424c0.58443,-0.39676 1.23275,-0.72295 2.03634,-0.59952c0.36528,0.05612 0.67572,-0.01783 1.05017,-0.02114c0.59348,-0.94278 0.67559,-1.96412 0.83073,-2.97423c-1.12322,0.00992 -1.95424,-0.42176 -2.58442,-1.18761c-0.31052,-0.41264 -0.53884,-0.87342 -0.69412,-1.32305c-0.75817,-2.36676 0.12741,-4.23783 2.23678,-5.79926c0.84009,-0.60082 1.86282,-0.93032 3.05912,-0.44243c0.13698,0.08188 0.36528,0.05611 0.52056,0.01912c0.7487,-0.97976 1.50659,-1.5324 2.22798,-1.84734c1.35144,-0.52228 2.87652,-0.22719 3.8446,0.77295c0.38358,0.42383 0.60279,0.94408 0.66674,1.50126c0.22843,1.43396 0.01852,2.80056 -0.26445,4.15598c-0.54759,3.07852 -1.24135,6.1346 -1.86204,9.2019c-0.73025,3.29374 -1.74359,6.48324 -2.18156,9.82188c-0.33766,2.68506 -0.82136,5.34762 -1.14987,7.97325c-0.11865,0.77243 -0.09117,1.56728 0.18286,2.70417c0.27394,-0.32284 0.44742,-0.47868 0.61182,-0.57506c0.34698,-0.31166 0.75786,-0.55262 1.23274,-0.72295c0.23742,-0.08513 0.45658,-0.05146 0.66659,0.04156c0.27398,0.16368 0.3014,0.47204 0.11879,0.68726c-0.10953,0.22646 -0.35613,0.37104 -0.5296,0.52683c-0.43829,0.41923 -0.94962,0.82727 -1.38794,1.2465c-1.51571,1.59178 -2.75748,3.34733 -2.79381,5.53124c-0.01824,0.11881 -0.13692,0.40472 0.22834,0.46082c0.38353,-0.06269 0.34698,-0.31165 0.45655,-0.53806c0.61169,-1.54816 1.57042,-2.92142 2.94007,-4.04909c1.45182,-1.17585 2.96763,-2.2811 4.62954,-3.36385c3.74383,-2.466 7.98082,-4.24797 12.56487,-5.36851c2.01808,-0.48069 4.02702,-0.90198 6.03604,-1.3232c2.54772,-0.52098 5.14113,-0.85248 7.75284,-0.81627c1.12321,-0.00992 2.23728,0.03954 3.34226,0.14844c0.59354,0.03033 1.178,0.1201 1.74423,0.32874c1.56161,0.54396 3.15052,0.90966 4.50214,1.84711c0.13698,0.08188 0.32879,0.29377 0.5753,0.1492c-1.33346,-2.02939 -3.48865,-3.09029 -6.09127,-3.67252c-1.30589,-0.26141 -2.69393,-0.4746 -4.02721,-0.55771c-0.52056,-0.01912 -1.04103,-0.03828 -1.49765,-0.4733c0.76695,-1.0986 2.12764,-0.70714 3.27821,-0.89537c0.05476,-0.3565 -0.2101,-0.57963 -0.31966,-0.83976c-0.81288,-1.5237 -1.25136,-3.05076 -1.52548,-4.67417c-0.65783,-3.50694 -0.63991,-7.03175 -0.54888,-10.54535c0.14583,-2.89695 0.20952,-5.7457 0.06313,-8.68754c-0.04583,-1.64915 -0.31988,-3.27261 -0.52094,-4.88484c-0.42945,-3.04615 -1.86344,-5.88165 -3.617,-8.58376c-1.09599,-1.62802 -2.52067,-3.06325 -4.4658,-4.03099c-1.5251,-0.78162 -3.13236,-1.51506 -4.65743,-2.29672c-0.63011,-0.27922 -1.26939,-0.49905 -1.98166,-0.73012c-2.21908,-0.64495 -4.4838,-0.9928 -6.74856,-1.34064c-1.89943,-0.29175 -3.83538,-0.34582 -5.78045,-0.34046c-2.99523,0.02647 -5.96301,0.36135 -8.74814,0.96747c-4.02706,0.90198 -7.54269,2.36902 -9.98973,5.15584c-1.45181,1.66241 -2.91272,3.38426 -3.73441,5.32593c-0.48388,1.20292 -0.96774,2.4058 -1.45162,3.6087c-1.51548,4.02462 -1.93515,8.21758 -2.2818,12.42173c-0.21895,2.39919 -0.20961,4.77256 -0.28244,7.19419c-0.03622,3.15707 0.1467,6.34779 0.25659,9.5273c0.13725,2.5147 0.27444,5.02942 0.33857,7.53285c0.03673,2.19519 0.00951,4.31969 0.04629,6.51481c0.00941,2.86 0.17403,5.68299 0.11038,8.53176c-0.0179,3.52479 0.11937,7.01263 0.24754,10.55982c0.04576,1.16264 0.16463,2.33643 0.21035,3.49905c0.15566,4.82873 0.38442,9.66862 0.54012,14.49729c0.08247,3.35774 0.16501,6.71557 0.09227,10.1103c-0.05466,1.32962 -0.19152,2.70748 -0.24618,4.0371c-0.00885,2.97884 -0.53822,5.93854 -1.05847,8.83879c-0.35593,1.83073 -1.35116,3.44165 -3.03132,4.64327c-0.51135,0.40798 -1.13232,0.55592 -1.872,0.50314c-2.22818,-0.09897 -4.12769,-0.87728 -5.89932,-2.00089c-1.78079,-1.06418 -3.58895,-1.95007 -5.55237,-2.79903c-0.84014,-0.37231 -1.62554,-0.6146 -2.61175,-0.52277c0.31966,0.35317 0.73971,0.53936 1.16893,0.66605c0.63923,0.21978 1.20541,0.42844 1.75335,0.75587c0.55705,0.26801 1.09591,0.65484 1.16901,1.15268c-0.19174,0.27465 -0.42005,0.30042 -0.63006,0.20733c-0.4201,-0.18612 -0.84013,-0.37232 -1.26937,-0.49908c-0.73971,-0.53936 -1.7443,-0.81527 -2.58444,-1.18761c-0.21004,-0.0931 -0.45656,0.05147 -0.43828,0.4192c0.86753,0.19407 1.54336,0.6628 2.31958,0.96446zM234.421,275.8966c0.95891,0.57303 1.86299,1.01597 2.96793,1.12488c0.29223,0.04488 0.58441,0.08978 0.87664,0.13465c0.21917,0.03366 0.42009,0.18612 0.45667,0.43508c0.04565,0.18946 -0.12782,0.34528 -0.36524,0.43042c-0.31959,0.13335 -0.69398,0.13667 -0.9862,0.09179c-1.25106,-0.13131 -2.37433,-0.60796 -3.47936,-1.20343c-0.0639,-0.07065 -0.2192,-0.03366 -0.36527,-0.05609c-0.09127,0.10758 -0.18261,0.21522 -0.20999,0.39349c-0.02737,0.17824 -0.27393,0.32286 -0.01824,0.60539c0.54791,0.32743 1.31507,0.68852 2.1004,0.93079c1.21456,0.36899 2.37433,0.60796 3.61629,0.79872c0.43833,0.06733 0.79446,0.18285 0.88581,0.5618c-0.10953,0.22646 -0.35611,0.37107 -0.65742,0.38555c-1.13234,0.06935 -2.22816,-0.09897 -3.29664,-0.44552c-0.93146,-0.26468 -1.85381,-0.58884 -2.78528,-0.85354c-0.32873,0.19278 -0.51132,0.40797 -0.24651,0.63115c0.12787,0.14125 0.3379,0.23435 0.54791,0.32744c2.09127,0.99023 4.21907,1.74279 6.54769,1.67471c0.37441,-0.00333 0.8401,-0.11423 1.07761,0.28713c0.03652,0.24888 -0.12779,0.34528 -0.30131,0.50106c-0.42917,0.35983 -1.0227,0.32944 -1.61629,0.29913c-1.78073,-0.09107 -3.51581,-0.47916 -5.13219,-1.15318c-0.42009,-0.18612 -0.7397,-0.53936 -1.20542,-0.42842c-0.18261,0.21523 -0.06389,0.41593 0.06397,0.55721c0.54796,0.81403 1.36989,1.30518 2.30137,1.56988c1.14153,0.35778 2.20995,0.7044 3.36973,0.94333c4.63904,0.95581 9.12271,0.4889 13.57896,-0.28633c2.92216,-0.5243 5.68899,-1.49817 8.4467,-2.41265c2.60249,-0.87752 5.08624,-1.95571 7.2595,-3.4465c1.33318,-0.88999 2.68457,-1.8988 3.96291,-2.91885c1.19618,-0.97185 2.33755,-2.07378 3.25976,-3.20931c0.7487,-0.97977 1.14126,-2.07504 1.09549,-3.23765c-0.01834,-0.85431 -0.21013,-1.06621 -1.10511,-1.5686c-0.02737,0.17823 -0.05476,0.35654 -0.09125,0.59416c-0.02719,2.12452 -1.18674,3.83181 -2.83948,5.34175c-0.42917,0.35984 -0.85834,0.71967 -1.4793,0.86756c-0.08216,0.04823 -0.30135,0.01454 -0.29222,-0.04489c-0.12787,-0.14125 -0.18268,-0.27131 -0.16442,-0.39015c0.02737,-0.17824 0.20087,-0.33409 0.30131,-0.50111c0.53873,-0.58628 0.99524,-1.12438 1.53396,-1.71062c1.2692,-1.44717 1.753,-3.13664 1.58845,-4.98651c-0.07311,-0.49775 -0.31966,-0.83976 -0.91327,-0.87011c-0.09127,0.10759 -0.17349,0.1558 -0.18262,0.21522c0.24676,1.8017 -0.64804,3.24555 -1.76201,4.6558c-0.28306,0.38227 -0.62097,0.63446 -1.1597,0.73417c-0.2283,0.02577 -0.45658,0.05148 -0.6392,-0.21985c-0.09136,-0.37894 0.32867,-0.67937 0.52041,-0.95399c0.5661,-0.76454 1.05913,-1.54029 1.41523,-2.39789c0.35606,-0.85761 0.49296,-1.74888 -0.03674,-2.68173c-0.34703,-0.17491 -0.70319,-0.29044 -1.04104,-0.0383c0.04565,0.18946 0.10049,0.31951 0.06397,0.55721c-0.10951,1.19961 -0.49291,2.23543 -1.51561,3.05152c-0.24654,0.14457 -0.49306,0.28917 -0.77616,0.18488c-0.34703,-0.17491 -0.23748,-0.40141 -0.12792,-0.62782c0.21,-0.39349 0.49304,-0.77578 0.62083,-1.12106c0.33782,-0.73877 0.53864,-1.55939 0.35593,-2.3173c-0.42009,-0.18612 -0.84013,-0.37231 -1.18715,-0.06074c0.00931,1.88683 -0.10025,2.1133 -1.7257,2.47186c0.21904,-0.9395 0.72126,-1.7746 0.55681,-2.65139c-0.77622,-0.30166 -1.50677,0.07264 -2.2373,-0.03957c-1.60724,-0.24686 -3.1413,0.00403 -4.68457,0.31441c-2.71209,0.61737 -5.42419,1.23478 -8.14544,1.91154c-1.32407,0.34401 -2.59336,0.81811 -3.79869,1.36277c-1.13231,0.55594 -2.32849,1.04118 -3.46077,1.59714c-0.73047,0.37432 -1.46103,0.74872 -2.19153,1.12307c-1.5706,0.97518 -3.15029,2.00975 -4.72089,2.9849c-0.33785,0.25218 -0.80356,0.3631 -0.94047,0.76784c0.03652,0.24888 0.31965,0.35317 0.45666,0.43509c0.34703,0.17491 0.78535,0.24222 1.13241,0.41721c0.2831,0.10432 0.32877,0.29377 0.30138,0.47204c-0.01824,0.1188 -0.18261,0.21522 -0.33785,0.25218c-0.2283,0.02577 -0.45659,0.05154 -0.67574,0.01788c-0.74882,0.0066 -1.26939,-0.49908 -1.74424,-0.81529c-0.31959,0.13336 -0.42004,0.30044 -0.62094,0.63449zM232.85625,241.29297c0.29214,-0.92826 -0.16455,-1.84985 -1.25132,-2.56417c-0.6758,-0.46871 -1.42463,-0.46208 -2.09119,-0.01708c-1.67103,1.14218 -1.89914,3.1142 -1.25066,4.73432c0.15529,0.4496 0.55709,0.7546 1.22376,0.79616c0.96794,0.02706 1.89027,-0.13542 2.44725,-0.84056c0.39261,-0.60871 0.78519,-1.21743 0.92209,-2.1087zM225.39661,252.85865c-0.10039,0.6536 0.09145,1.35209 0.43853,2.01359c0.56628,1.18175 1.87214,1.44315 2.84004,0.49705c0.17348,-0.1558 0.28306,-0.38227 0.46567,-0.5975c0.41999,-0.78698 0.54775,-1.61882 0.53854,-2.53253c-0.07315,-0.98437 -0.84943,-1.77259 -2.00005,-2.07099c-0.42921,-0.12676 -0.81272,-0.06399 -1.08668,0.25884c-0.63007,0.69388 -0.83083,1.5145 -1.19602,2.43154zM186.06385,329.28916c-1.27832,1.50662 -1.60692,3.15909 -1.7163,4.84525c-0.07292,1.44848 0.19192,1.6716 1.94525,1.94089c0.21918,0.03366 0.43832,0.06732 0.62093,-0.1479c-0.32892,-2.24007 0.28269,-4.27481 1.47876,-6.21982c-0.69406,-0.34987 -1.46112,-0.22442 -2.32864,-0.41849zM223.9366,264.31176c-0.20078,0.82065 -0.009,1.51914 0.55722,2.21429c0.62104,0.82524 1.73512,0.87467 2.55694,0.39272c1.32405,-0.83057 1.42428,-2.94387 0.16399,-3.9889c-0.79451,-0.66941 -1.99079,-0.6707 -2.62083,0.02319c-0.42917,0.35983 -0.64826,0.81274 -0.65738,1.35873zM226.86915,277.83848c0.0365,-0.23766 0.073,-0.47531 0.10038,-0.65361c0.08213,-1.02131 -0.47498,-1.77592 -1.59826,-2.25252c-0.69406,-0.34987 -1.3972,-0.15376 -1.71676,0.46614c-0.20087,0.33409 -0.32869,0.67938 -0.39257,1.09531c-0.14603,0.95069 -0.21898,1.91258 0.31076,2.84544c0.29227,0.53141 0.78538,0.72882 1.40636,0.58096c0.38353,-0.06269 0.71225,-0.25551 1.0501,-0.50772c0.52048,-0.46743 0.83087,-1.02799 0.83995,-1.57395zM223.5186,286.50764c-0.63921,0.75333 -0.84909,1.63338 -1.13214,2.5022c-0.11866,0.28589 -0.00908,0.54594 0.01834,0.8543c0.06397,0.55721 0.71238,1.2042 1.44297,1.31641c0.58441,0.08977 1.13236,-0.06936 1.48847,-0.44041c0.19174,-0.27465 0.45654,-0.53807 0.64832,-0.81272c0.33782,-0.73878 0.37429,-1.46303 -0.18287,-2.21763c-0.50228,-0.62454 -1.07765,-1.26029 -2.28306,-1.20215zM224.20609,314.65133c1.75326,-0.70384 1.67095,-2.11532 1.65256,-3.4562c0.00912,-0.54599 -0.42015,-1.15931 -1.13249,-1.39039c-0.56617,-0.20856 -1.55239,0.36976 -1.87195,0.98973c-0.10953,0.22646 -0.14603,0.46407 -0.25563,0.69058c-0.05476,0.35654 -0.02738,0.66483 -0.08213,1.02133c-0.08213,1.02131 0.40195,1.76469 1.68959,2.1449zM223.55662,302.81327c0.96794,0.02706 1.55239,-0.36974 1.93588,-0.91907c0.46567,-0.59749 0.51127,-1.38116 0.31943,-2.07964c-0.13703,-0.56843 -0.34717,-1.14809 -0.87682,-1.59436c-0.66667,-0.52814 -1.26939,-0.49907 -1.73506,0.09843c-0.09127,0.10758 -0.18261,0.21522 -0.20999,0.39349c-0.36514,1.4036 -0.49283,2.72203 0.56658,4.10112zM222.73678,324.70418c1.0228,0.1571 1.68025,-0.22843 2.15503,-0.88544c0.48393,-0.71634 0.3012,-1.4742 -0.03674,-2.19516c-0.22834,-0.46082 -0.87669,-0.62115 -1.47026,-0.65157c-0.59355,-0.03032 -0.79446,0.30372 -0.9953,0.63779c-0.61174,1.06165 -0.5477,2.10538 0.34729,3.09431zM220.32673,332.60552c-0.073,0.47531 -0.00903,1.03255 0.21017,1.5528c0.27402,0.65027 0.91327,0.87014 1.49765,0.47331c0.92224,-0.649 1.35139,-1.49539 1.20515,-2.49098c-0.03652,-0.24888 -0.21009,-0.57965 -0.39279,-0.85098c-0.36534,-0.54263 -1.10503,-0.59549 -1.61638,-0.18745c-0.50222,0.34861 -0.87659,0.8385 -0.90388,1.5033zM189.01406,336.37171c0.0365,-0.72425 0.15511,-1.4967 0.19156,-2.22092c0.05474,-0.84307 0.46559,-1.57061 0.73034,-2.32064c0.25563,-0.69059 1.14136,-1.10193 1.19607,-1.94498c-0.95883,-0.08644 -1.19623,0.48528 -1.48842,0.92698c-1.38789,1.73306 -1.70732,3.81268 -0.62959,5.55957z" fill="#010001" fill-rule="nonzero" stroke="none" stroke-width="1"/><path d="M194.23103,333.3017c0.4201,0.18612 0.84014,0.37231 1.26939,0.49904c0.21004,0.0931 0.43832,0.06732 0.63006,-0.2073c-0.14616,-0.509 -0.61194,-0.88464 -1.16901,-1.15268c-0.55705,-0.26801 -1.18716,-0.54724 -1.75337,-0.75582c-0.42921,-0.12676 -0.84927,-0.31288 -1.16893,-0.66605c0.97707,-0.03237 1.7716,0.15051 2.61176,0.52275c1.89035,0.83773 3.77163,1.7349 5.55239,2.79904c1.78079,1.06418 3.68029,1.84251 5.8993,2.00087c0.73969,0.05278 1.36065,-0.09513 1.872,-0.50314c1.68929,-1.26105 2.67536,-2.8125 3.03134,-4.64325c0.5933,-2.88906 1.04962,-5.85998 1.05847,-8.83879c-0.01839,-1.34087 0.19151,-2.7075 0.24617,-4.03712c0.07274,-3.39473 -0.00977,-6.75252 -0.09227,-10.11029c-0.15566,-4.82872 -0.31138,-9.6574 -0.54011,-14.49727c-0.04577,-1.1626 -0.16463,-2.33643 -0.21037,-3.49902c-0.12815,-3.54723 -0.26549,-7.03507 -0.24752,-10.5599c-0.00941,-2.85996 -0.10094,-5.67177 -0.11038,-8.53175c-0.03673,-2.19519 -0.00951,-4.3197 -0.04628,-6.51481c-0.06417,-2.50346 -0.20134,-5.01819 -0.3386,-7.53286c-0.18291,-3.19072 -0.36587,-6.38145 -0.25659,-9.5273c0.07283,-2.42163 0.06351,-4.79507 0.28244,-7.19419c0.34662,-4.20417 0.76626,-8.3971 2.28181,-12.42172c0.48388,-1.20292 0.96773,-2.4058 1.45161,-3.6087c0.83085,-2.00109 2.28264,-3.66349 3.73443,-5.32596c2.44705,-2.78679 5.96269,-4.25386 9.98971,-5.15584c2.86733,-0.65436 5.75297,-0.94097 8.74817,-0.96747c1.94507,-0.00536 3.881,0.04871 5.7805,0.34046c2.26472,0.34785 4.53858,0.63628 6.74856,1.34066c0.63923,0.21978 1.3607,0.39143 1.98163,0.73012c1.53424,0.72216 3.13236,1.51504 4.65743,2.2967c1.94516,0.96778 3.36987,2.403 4.4658,4.031c1.8266,2.71336 3.18755,5.53762 3.617,8.58378c0.27414,1.62346 0.466,3.29505 0.52094,4.88483c0.15548,2.88243 0.00965,5.77936 -0.06313,8.68755c-0.16404,3.50235 -0.18201,7.02716 0.54888,10.54533c0.28328,1.56402 0.71259,3.15041 1.52544,4.67416c0.10961,0.26012 0.37441,0.48327 0.31966,0.83976c-1.07755,0.19943 -2.51125,-0.20327 -3.27821,0.89537c0.45668,0.43505 0.97717,0.45416 1.49765,0.4733c1.33326,0.08318 2.72132,0.29639 4.02721,0.55773c2.60262,0.5822 4.75784,1.64307 6.09127,3.6725c-0.24655,0.14457 -0.43832,-0.06731 -0.57531,-0.1492c-1.35162,-0.93742 -2.94052,-1.30315 -4.50213,-1.84711c-0.56617,-0.20856 -1.15979,-0.23897 -1.74423,-0.32874c-1.11409,-0.04952 -2.22816,-0.09897 -3.34226,-0.14841c-2.68475,-0.04746 -5.27817,0.28407 -7.75284,0.81628c-2.00895,0.42125 -4.01793,0.84255 -6.03604,1.3232c-4.65709,1.10928 -8.82108,2.90254 -12.56487,5.36847c-1.57972,1.0346 -3.16855,2.12857 -4.62954,3.36385c-1.37881,1.18707 -2.32836,2.50091 -2.94007,4.0491c-0.10953,0.22646 -0.07301,0.47532 -0.45654,0.53805c-0.36528,-0.05612 -0.18266,-0.27132 -0.22834,-0.4608c-0.03673,-2.19519 1.19589,-3.89125 2.79382,-5.53124c0.43829,-0.41923 0.9496,-0.82728 1.38792,-1.24651c0.17348,-0.1558 0.35613,-0.37103 0.52961,-0.52683c0.10953,-0.22646 0.07302,-0.47531 -0.11877,-0.68727c-0.20092,-0.15247 -0.42921,-0.12678 -0.66661,-0.04156c-0.47485,0.17034 -0.88573,0.41135 -1.23275,0.72296c-0.17348,0.1558 -0.26481,0.2634 -0.61182,0.57504c-0.28319,-1.07743 -0.31062,-1.87229 -0.18285,-2.70416c0.41069,-2.67384 0.82135,-5.34762 1.14986,-7.97325c0.43804,-3.33862 1.46049,-6.58751 2.18157,-9.82185c0.62068,-3.0673 1.31442,-6.12338 1.86205,-9.20193c0.28293,-1.35539 0.49284,-2.72201 0.26443,-4.15594c-0.06397,-0.55721 -0.28315,-1.07743 -0.66674,-1.50126c-0.96807,-1.00018 -2.484,-1.35466 -3.8446,-0.77295c-0.79444,0.30372 -1.4884,0.927 -2.22798,1.84734c-0.14611,-0.02244 -0.37441,0.00333 -0.52056,-0.01913c-1.1963,-0.48782 -2.20992,-0.21776 -3.05912,0.44243c-2.10017,1.50201 -2.98579,3.37304 -2.23678,5.79926c0.14616,0.509 0.37455,0.96982 0.69413,1.32306c0.63018,0.76582 1.46121,1.19757 2.58441,1.18761c-0.16427,1.06954 -0.23726,2.03144 -0.83074,2.97421c-0.37441,0.00333 -0.68484,0.07725 -1.05016,0.02113c-0.87664,-0.13465 -1.45195,0.20273 -2.03632,0.59952c-2.6572,1.72056 -2.55644,5.44606 -0.3646,7.2424c0.60272,0.45749 1.40638,0.58095 2.0091,1.03841c-0.10039,1.14018 -0.20982,2.33976 -0.53846,3.50568c-2.33777,-0.35906 -3.63442,0.29327 -4.34657,2.00848c-1.03165,2.33515 0.56658,4.58772 2.74919,5.47036c0.2831,0.10432 0.73056,0.11221 0.91318,0.38353c0.18266,0.27134 0.06399,0.55721 0.01836,0.85431c-0.10039,1.14019 -0.12762,2.29154 -0.22798,3.43172c-3.07738,0.56126 -4.28269,1.59249 -4.47425,3.81345c-0.20077,1.79376 1.05957,3.32538 3.71707,4.52426c0.12795,1.11442 -0.04543,2.24334 -0.14578,3.38353c-0.15524,0.03699 -0.31959,0.13336 -0.4748,0.17035c-1.92681,-0.11352 -2.89473,0.83263 -3.53387,2.07246c-0.42912,0.8464 -0.55689,1.67825 -0.18239,2.64807c0.42014,1.15931 1.27862,1.89933 2.548,2.39842c0.4201,0.18612 0.93144,0.26466 1.32418,0.62913c0.201,1.12565 0.09152,2.32521 -0.08188,3.45417c-0.28306,0.38227 -0.72137,0.31496 -1.12319,0.4965c-0.95878,0.40012 -1.57972,1.03461 -1.86271,1.90344c-0.12779,0.34532 -0.19171,0.76121 -0.24646,1.11774c-0.45641,1.99776 0.43863,3.47329 2.91346,4.40082c0.10057,1.29268 0.12811,2.57412 -0.07265,3.88129c-1.94502,0.97849 -2.92196,2.47059 -2.91264,4.35745c-0.009,1.51914 1.34263,2.45658 2.61206,3.44223c0.05489,1.1032 -0.11851,2.2321 -0.30104,3.42051c-2.00895,0.42125 -2.86723,1.62746 -3.03145,3.18355c-0.18252,1.67492 0.98651,2.82762 2.63948,3.75049c-0.00903,1.03255 -0.22814,1.97204 -0.52025,2.9003c-2.01812,-0.0059 -3.52484,0.55336 -4.00867,2.24284c-0.57514,1.79706 -0.15498,2.9564 1.64412,4.3883c-0.31038,1.0471 -0.8308,2.0011 -1.42428,2.94387c-1.4244,1.97075 -2.92179,3.93027 -5.28679,5.20916c-0.57532,0.33738 -1.14142,0.61535 -1.77151,0.82268c-1.11406,0.43708 -2.31943,0.49525 -3.57052,0.36388c-3.52492,-0.4198 -6.35595,-1.94938 -8.89475,-3.92063c-0.66667,-0.52814 -1.26029,-1.04507 -1.84477,-1.62135c-1.6256,-1.5877 -3.44297,-2.9008 -5.8721,-3.63884c-0.17358,-0.81732 -0.42018,-1.6459 0.07283,-2.42163c0.82183,0.00462 1.48851,0.53274 2.21907,0.64495c0.21918,0.03366 0.43832,0.06732 0.62093,-0.14791c0.18261,-0.21522 0.05478,-0.35654 -0.14616,-0.50896c0.11866,-0.28589 0.46571,-0.11091 0.7031,-0.19612zM255.86416,261.63438c-1.10497,-0.10888 -2.17336,0.03113 -3.17782,0.24177c-3.53397,0.6128 -6.71173,1.82767 -9.90769,3.16138c-0.87659,0.35188 -1.68928,0.77447 -2.3102,1.40896c-0.09127,0.10759 -0.11866,0.28585 -0.05477,0.35653c0.13698,0.08189 0.27398,0.16368 0.42009,0.18612c0.43834,0.06733 0.7762,-0.18489 1.0958,-0.31824c1.43367,-0.57045 2.87641,-1.20031 4.30094,-1.71137c2.94034,-1.12973 6.00854,-2.11817 9.33251,-2.33745c0.2283,-0.02577 0.45659,-0.05147 0.68487,-0.07724c0.23741,-0.08513 0.29217,-0.44164 0.09125,-0.59417c-0.12787,-0.14124 -0.33791,-0.23435 -0.47493,-0.31623zM235.14131,231.99482c0.13691,-0.40473 0.01821,-0.60538 -0.33795,-0.72092c-2.36521,-0.66739 -5.60683,0.9634 -5.90801,2.92421c-0.05476,0.35654 0.20096,0.63906 0.70319,0.77704c0.08216,-0.04823 0.15526,-0.03699 0.15526,-0.03699c0.40179,-0.18157 0.38348,-0.54931 0.57522,-0.82396c0.65744,-0.87214 1.43356,-1.54361 2.80331,-1.69813c0.68485,-0.07725 1.31494,-0.28454 2.00895,-0.42125zM241.58724,219.72609c0.32873,-0.19278 0.36524,-0.43043 0.32869,-0.67937c-0.56631,-1.66834 -1.37005,-3.25146 -2.81303,-4.56782c-0.12787,-0.14124 -0.33791,-0.23434 -0.54793,-0.32743c-0.2831,-0.10432 -0.59355,-0.03033 -0.76706,0.12545c-0.25567,0.204 -0.21913,0.45288 -0.02733,0.66483c1.39726,1.1269 2.08229,2.50936 2.84037,3.903c0.17353,0.33077 0.33791,0.72092 0.98633,0.88135zM244.54597,219.93727c0.15524,-0.03699 0.31048,-0.07398 0.40179,-0.18157c0.33785,-0.25222 0.31046,-0.56049 0.21908,-0.93948c-0.44758,-1.46759 -1.36093,-2.82428 -2.27421,-4.18096c-0.24659,-0.34198 -0.68491,-0.40928 -1.06847,-0.34655c-0.3196,0.13335 -0.44742,0.47862 -0.1369,0.89127c0.05478,0.13001 0.18266,0.27132 0.23747,0.40141c0.87677,1.1078 1.58001,2.3714 2.06412,3.60135c0.04564,0.18946 0.16441,0.39015 0.29228,0.5314c-0.01824,0.11881 0.12787,0.14125 0.26486,0.22313zM255.46789,222.83121c0.01824,-0.11881 0.0365,-0.23767 0.04563,-0.2971c-0.15537,-1.42271 -0.52989,-2.8791 -1.06884,-4.23908c-0.10048,-0.31955 -0.3562,-0.6021 -0.69407,-0.83647c-0.13698,-0.08188 -0.35614,-0.11554 -0.51141,-0.07855c-0.15524,0.03699 -0.25567,0.20399 -0.34699,0.31164c-0.01824,0.11881 -0.04563,0.29706 0.00918,0.42715c0.66674,1.50125 1.03216,3.0171 1.39754,4.5329c0.04565,0.18946 0.1644,0.39019 0.29227,0.53143c0.11874,0.20067 0.56617,0.20856 0.73969,0.05278c-0.04565,-0.18946 0.04565,-0.29711 0.13692,-0.40473zM249.91514,216.13962c-0.63917,0.26673 -0.55697,0.70512 -0.32864,1.16597c0.61193,1.37123 1.14171,2.7906 1.59844,4.19882c0.04565,0.18946 0.2466,0.34198 0.46581,0.37566c0.63006,-0.20734 0.70305,-0.68266 0.55692,-1.19169c-0.34716,-1.14809 -0.69424,-2.29618 -1.27878,-3.35905c-0.22834,-0.46082 -0.39272,-0.85098 -1.01377,-1.18965zM248.32653,220.153c0.41091,-0.24099 0.40175,-0.66816 0.3104,-1.0471c-0.40188,-1.27816 -0.80385,-2.55627 -1.68059,-3.66404c-0.05477,-0.13001 -0.1918,-0.21189 -0.31966,-0.35321c-0.20092,-0.15247 -0.42009,-0.18614 -0.65748,-0.10099c-0.31048,0.07391 -0.42917,0.35984 -0.31959,0.61993c0.04564,0.18946 0.16445,0.39017 0.29229,0.53142c0.54796,0.81402 0.93157,1.72443 1.25131,2.56417c0.1644,0.39019 0.25576,0.76913 0.42927,1.09986c0.10961,0.26012 0.39271,0.36441 0.69406,0.34989zM257.02915,219.96918c-0.63006,0.20734 -0.53872,0.58629 -0.44736,0.96523c0.46582,1.34879 0.78557,2.6751 0.87703,4.02719c0.03652,0.24888 0.2466,0.34195 0.46581,0.37562c0.56619,-0.27795 0.7122,-0.7421 0.63909,-1.23985c-0.12795,-1.11442 -0.32894,-2.24006 -0.76737,-3.2805c-0.10049,-0.31955 -0.20096,-0.63906 -0.76712,-0.84769zM234.26305,214.83032c-0.0365,0.23766 0.09135,0.37897 0.29229,0.53141c1.15979,0.72553 1.67128,1.77721 2.42023,2.7437c0.19179,0.21189 0.31051,0.41261 0.50227,0.62454c0.0639,0.07065 0.20092,0.15247 0.28309,0.10432c0.15524,-0.03699 0.31961,-0.13334 0.33787,-0.25221c0.02737,-0.17824 0.05476,-0.35652 -0.06399,-0.55719c-0.4932,-1.17052 -1.22385,-2.25587 -2.28324,-3.14841c-0.26486,-0.22311 -0.53879,-0.38683 -0.90407,-0.44294c-0.2831,-0.10432 -0.62093,0.14792 -0.58438,0.39681zM227.60598,214.84176c-0.41091,0.24096 -0.45655,0.53806 -0.20992,0.88005c0.68495,0.89586 1.52519,1.75472 2.44756,2.56544c0.20092,0.15247 0.4201,0.18613 0.65748,0.10098c0.24655,-0.14458 0.35612,-0.37104 0.24651,-0.63116c0.00913,-0.05943 -0.05479,-0.13002 -0.05479,-0.13002c-0.69407,-0.83647 -1.37907,-1.73234 -2.31969,-2.42419c-0.19179,-0.21189 -0.3927,-0.36442 -0.76709,-0.36109zM234.71997,218.18476c-0.52058,-0.99226 -2.10059,-2.87709 -2.78548,-3.28639c-0.27398,-0.16368 -0.56617,-0.20856 -0.81272,-0.06399c-0.24655,0.14458 -0.36524,0.43042 -0.17345,0.64237c0.8859,1.04837 1.79002,1.97789 2.93159,2.82226c0.27398,0.16368 0.57528,0.14919 0.84008,-0.11424zM227.20452,218.42928c-0.08227,-0.92493 -0.86768,-1.65378 -1.67132,-2.26377c-0.12787,-0.14124 -0.42921,-0.12676 -0.67572,0.01781c-0.17348,0.1558 -0.20088,0.3341 -0.08214,0.53477c0.42016,0.67272 0.92246,1.29729 1.59823,1.766c0.19179,0.21189 0.49317,0.19736 0.83096,-0.05481zM260.18904,223.25226c-0.2373,1.05831 -0.08201,1.99446 0.45682,2.86788c-0.00913,0.05943 0.21918,0.03368 0.36529,0.05612c0.51135,-0.40797 0.44738,-0.96524 0.30118,-1.47427c-0.14616,-0.50896 -0.21014,-1.0662 -1.12336,-1.44978zM224.57461,218.99847c-0.24665,-0.82854 -1.00464,-1.24908 -1.68041,-1.71778c-0.20092,-0.15247 -0.59356,-0.03033 -0.63006,0.20734c-0.00913,0.05943 -0.01824,0.11881 -0.01824,0.11881c-0.08215,0.53477 0.39272,0.85099 0.78543,1.21541c0.47492,0.31621 0.89493,0.5024 1.54327,0.17621zM220.30091,219.07191c-0.08215,0.53477 0.31053,0.89919 0.71237,1.20418c0.27398,0.16368 0.48405,0.25677 0.81272,0.06399c0.24655,-0.14458 0.28306,-0.38227 0.17341,-0.64239c-0.16442,-0.39016 -0.50227,-0.62452 -0.91327,-0.87012c-0.34703,-0.1749 -0.74881,0.0066 -0.78533,0.24429zM239.07128,267.75235c0.0365,-0.23766 -0.31052,-0.41263 -0.61184,-0.39808c-0.45659,0.05147 -0.77621,0.18488 -1.04098,0.44829c-0.17348,0.1558 -0.27391,0.32284 -0.08212,0.53477c0.11874,0.20067 0.32877,0.29377 0.63009,0.27922c0.60267,-0.02904 1.10494,-0.37769 1.10486,-0.86425zM259.21556,262.20997c0.52056,0.01913 1.05016,-0.02114 1.4154,-0.45162c0.08216,-0.04823 -0.0274,-0.30828 -0.16441,-0.39016c-0.53878,-0.38686 -1.09583,-0.16832 -1.57065,0.00203c-0.23741,0.08513 -0.33786,0.25221 -0.21912,0.45285c0.04564,0.18946 0.18267,0.27134 0.5388,0.38685z" fill="#ffc941" fill-rule="nonzero" stroke="none" stroke-width="1"/><path d="M234.421,275.8966c0.12779,-0.34532 0.31043,-0.56051 0.70306,-0.68268c0.47492,0.31621 0.99545,0.82192 1.74424,0.81529c0.21918,0.03366 0.44747,0.00789 0.67572,-0.01782c0.15524,-0.03699 0.31961,-0.13335 0.33787,-0.25219c0.1004,-0.16701 -0.01827,-0.36776 -0.3014,-0.47205c-0.35616,-0.11554 -0.78534,-0.24221 -1.1324,-0.4172c-0.21004,-0.0931 -0.4201,-0.18612 -0.45668,-0.43505c0.13691,-0.40473 0.60269,-0.51561 0.94048,-0.76784c1.57972,-1.0346 3.15029,-2.00974 4.72089,-2.98491c0.66656,-0.445 1.38795,-0.75994 2.19152,-1.12307c1.13229,-0.5559 2.32853,-1.04124 3.46086,-1.59713c1.20536,-0.54471 2.40158,-1.03002 3.7987,-1.36277c2.72121,-0.67679 5.4333,-1.29417 8.14542,-1.91154c1.47022,-0.32157 3.07737,-0.56127 4.68458,-0.31442c0.73056,0.11221 1.47019,-0.32155 2.23729,0.03954c0.16445,0.87675 -0.33772,1.71193 -0.55679,2.65141c1.62542,-0.35852 1.73501,-0.585 1.7257,-2.47186c0.34698,-0.31162 0.75794,-0.06603 1.18715,0.06073c0.24665,0.82855 -0.01812,1.57857 -0.35593,2.31731c-0.21,0.39349 -0.41999,0.78698 -0.62086,1.12104c-0.10953,0.22646 -0.21913,0.45285 0.1279,0.62782c0.27398,0.16368 0.52057,0.01912 0.77621,-0.18485c1.02267,-0.81605 1.41526,-1.91134 1.51561,-3.05152c0.02737,-0.17824 -0.01831,-0.36772 -0.06399,-0.55717c0.41091,-0.24099 0.68486,-0.07725 1.04106,0.03823c0.53883,0.87342 0.40193,1.76469 0.03678,2.68173c-0.35606,0.85761 -0.77611,1.64459 -1.41523,2.39788c-0.27393,0.32288 -0.61181,0.57504 -0.52043,0.954c0.18266,0.27133 0.41097,0.24556 0.63924,0.21979c0.5388,-0.09969 0.88572,-0.41136 1.15968,-0.73419c1.11394,-1.41026 2.00872,-2.8541 1.76203,-4.65578c0.00913,-0.05943 0.1004,-0.16701 0.18261,-0.21522c0.65748,0.10099 0.91318,0.38353 0.91327,0.87012c0.16455,1.84987 -0.31928,3.53934 -1.58844,4.98653c-0.53873,0.58628 -0.99532,1.12436 -1.53397,1.71062c-0.1004,0.16701 -0.27393,0.32284 -0.3013,0.50108c-0.01824,0.1188 0.1096,0.2601 0.1644,0.39019c0.0639,0.07065 0.21005,0.09309 0.29224,0.04488c0.62093,-0.14791 1.12319,-0.49651 1.47929,-0.86756c1.71666,-1.43928 2.80316,-3.15782 2.83948,-5.34174c0.02737,-0.17823 0.05476,-0.35652 0.09126,-0.59418c0.89495,0.50237 1.08673,0.7143 1.1051,1.56862c0.04576,1.16264 -0.27373,2.2691 -1.09548,3.23765c-0.93135,1.19499 -2.06361,2.23748 -3.25976,3.20932c-1.20531,1.03128 -2.54762,1.98068 -3.96294,2.91887c-2.16411,1.43139 -4.6479,2.50955 -7.25946,3.44646c-2.75772,0.91448 -5.52456,1.88838 -8.4467,2.41265c-4.45626,0.77523 -8.93992,1.24212 -13.57896,0.28631c-1.15978,-0.23897 -2.30127,-0.59672 -3.36973,-0.94331c-0.92233,-0.3241 -1.81729,-0.82651 -2.30135,-1.56992c-0.12787,-0.14125 -0.2466,-0.34195 -0.06399,-0.55717c0.45659,-0.05147 0.85839,0.25345 1.20542,0.42842c1.6164,0.67402 3.35145,1.06214 5.13218,1.15322c0.59355,0.03033 1.18714,0.06074 1.61628,-0.2991c0.17348,-0.1558 0.33787,-0.25223 0.30132,-0.50111c-0.23746,-0.40138 -0.70319,-0.29044 -1.0776,-0.28711c-2.40166,0.05687 -4.53857,-0.63626 -6.54769,-1.67471c-0.21004,-0.0931 -0.42006,-0.18613 -0.54791,-0.32744c-0.25572,-0.28256 -0.00914,-0.42716 0.2465,-0.63117c0.93146,0.26468 1.85381,0.58886 2.78528,0.85357c1.06847,0.34655 2.17343,0.45542 3.29665,0.44551c0.30135,-0.01455 0.53879,-0.09969 0.65741,-0.38554c-0.08222,-0.43839 -0.52053,-0.5057 -0.88581,-0.56181c-1.24192,-0.19076 -2.39257,-0.48908 -3.61627,-0.79871c-0.78535,-0.24223 -1.56162,-0.54395 -2.10041,-0.9308c-0.32877,-0.29377 -0.08224,-0.43836 0.01822,-0.60538c0.01824,-0.11881 0.10957,-0.22645 0.21,-0.3935c0.14611,0.02244 0.21917,0.03368 0.36528,0.05611c1.03196,0.58425 2.1552,1.06088 3.47935,1.20344c0.36528,0.05611 0.7397,0.05276 0.98622,-0.09181c0.23741,-0.08513 0.33785,-0.25221 0.36522,-0.43044c-0.04564,-0.18946 -0.17353,-0.33073 -0.45659,-0.43504c-0.29222,-0.04487 -0.5753,-0.1492 -0.87665,-0.13465c-1.11408,-0.04952 -2.09122,-0.50365 -3.0501,-1.07668zM266.79331,276.4289c-0.53879,-0.38686 -1.07758,-0.28713 -1.57065,0.00203c-1.64366,0.96398 -3.406,1.72721 -5.16839,2.49048c-2.80334,1.21153 -5.65238,2.23364 -8.81193,2.84309c-1.30581,0.22519 -2.60253,0.39093 -3.90837,0.61609c-0.45659,0.05148 -0.91315,0.10302 -1.12318,0.49651c0.10048,0.31955 0.37445,0.48326 0.73057,0.59874c0.5023,0.13798 1.03193,0.09766 1.56153,0.05741c2.88567,-0.28664 5.52466,-0.91523 8.12719,-1.79273c2.36506,-0.79234 4.62055,-1.84476 6.86684,-2.83776c0.95878,-0.40012 1.7989,-1.00095 2.69374,-1.47165c0.42005,-0.30042 0.83095,-0.54138 0.60261,-1.00221z" fill="#ffc941" fill-rule="nonzero" stroke="none" stroke-width="1"/><path d="M225.39661,252.85865c0.29214,-0.92826 0.566,-1.73766 1.19601,-2.43156c0.27393,-0.32285 0.65743,-0.38552 1.08668,-0.25883c1.07761,0.28711 1.92687,1.0866 2.00005,2.07097c0.01834,0.85432 -0.11855,1.74559 -0.53854,2.53253c-0.10953,0.22646 -0.29218,0.44165 -0.46568,0.59751c-0.96786,0.94611 -2.28288,0.74411 -2.84004,-0.49706c-0.34708,-0.6615 -0.53888,-1.36 -0.43849,-2.01357z" fill="#fcc741" fill-rule="nonzero" stroke="none" stroke-width="1"/><path d="M223.9366,264.31176c0.00912,-0.54599 0.30125,-0.98767 0.66649,-1.41815c0.69394,-0.62327 1.89026,-0.62196 2.62083,-0.02319c1.26029,1.04507 1.16006,3.15836 -0.16399,3.9889c-0.83096,0.5414 -1.9359,0.43252 -2.55694,-0.39272c-0.57533,-0.63576 -0.76718,-1.33425 -0.56635,-2.1549z" fill="#fac640" fill-rule="nonzero" stroke="none" stroke-width="1"/><path d="M226.86915,277.83848c-0.09125,0.59416 -0.39256,1.09529 -0.913,1.56271c-0.26481,0.26343 -0.58438,0.3968 -1.0501,0.50774c-0.62093,0.14791 -1.18714,-0.06075 -1.40636,-0.58097c-0.45664,-0.92163 -0.45679,-1.89475 -0.31076,-2.84545c0.05476,-0.35654 0.26475,-0.74999 0.39257,-1.0953c0.31956,-0.61993 1.01354,-0.75661 1.71676,-0.46617c1.11415,0.53604 1.68039,1.23123 1.59826,2.25254c0.11874,0.20067 0.01828,0.36772 -0.02735,0.66483z" fill="#fcc741" fill-rule="nonzero" stroke="none" stroke-width="1"/><path d="M223.5186,286.50764c1.20541,-0.05814 1.78988,0.51819 2.21,1.19094c0.55709,0.75458 0.44756,1.46762 0.18287,2.21762c-0.11866,0.28585 -0.38348,0.54929 -0.64831,0.81272c-0.36522,0.43042 -0.91311,0.58957 -1.48847,0.44039c-0.73056,-0.11221 -1.37899,-0.75919 -1.44296,-1.31639c-0.02738,-0.30831 -0.05485,-0.61662 -0.01834,-0.85432c0.34695,-0.7982 0.56601,-1.73766 1.20515,-2.49098z" fill="#f8c440" fill-rule="nonzero" stroke="none" stroke-width="1"/><path d="M224.20609,314.65133c-1.28764,-0.38022 -1.77165,-1.1236 -1.68957,-2.1449c0.05476,-0.3565 0.02736,-0.66483 0.08211,-1.02133c0.0365,-0.23766 0.14605,-0.46409 0.25565,-0.6906c0.31956,-0.61994 1.30574,-1.19829 1.87195,-0.98971c0.71231,0.23102 1.14154,0.84437 1.13249,1.39036c0.01839,1.34087 0.17373,2.76359 -1.65256,3.45618z" fill="#f9c540" fill-rule="nonzero" stroke="none" stroke-width="1"/><path d="M223.55662,302.81327c-1.05939,-1.37912 -0.92257,-2.75696 -0.56656,-4.10112c0.01824,-0.1188 0.11869,-0.28587 0.20999,-0.39349c0.39261,-0.60872 1.06834,-0.62658 1.73506,-0.09846c0.52965,0.4463 0.73976,1.02592 0.87682,1.59436c0.18271,0.75791 0.07318,1.47093 -0.31943,2.07964c-0.38348,0.54928 -0.96786,0.94611 -1.93588,0.91906z" fill="#f7c340" fill-rule="nonzero" stroke="none" stroke-width="1"/><path d="M222.73678,324.70418c-0.89502,-0.98896 -0.95903,-2.03269 -0.42034,-3.10553c0.20087,-0.3341 0.41089,-0.72756 0.9953,-0.63779c0.59355,0.03032 1.24193,0.19074 1.47026,0.65157c0.41103,0.73216 0.52067,1.47882 0.03674,2.19515c-0.40174,0.66816 -1.05918,1.05376 -2.08198,0.89666z" fill="#f9c540" fill-rule="nonzero" stroke="none" stroke-width="1"/><path d="M220.32673,332.60552c0.10039,-0.65361 0.40169,-1.1547 0.913,-1.56271c0.51135,-0.40801 1.25104,-0.35523 1.61638,0.18743c0.18266,0.27134 0.29228,0.53141 0.39279,0.85098c0.13708,1.05498 -0.29204,1.90138 -1.20515,2.49099c-0.58443,0.39675 -1.22367,0.17701 -1.49765,-0.4733c-0.21922,-0.52019 -0.3654,-1.02927 -0.21931,-1.49337z" fill="#f6c340" fill-rule="nonzero" stroke="none" stroke-width="1"/><path d="M255.9616,261.74977c0.13698,0.08189 0.34703,0.17491 0.55705,0.26799c0.20092,0.15247 0.2192,0.52018 -0.09127,0.59416c-0.2283,0.02577 -0.46571,0.11092 -0.68485,0.07727c-3.32394,0.21932 -6.39213,1.20772 -9.33251,2.33742c-1.43367,0.57045 -2.86729,1.14095 -4.30094,1.71137c-0.31959,0.13336 -0.73048,0.37432 -1.0958,0.31821c-0.14611,-0.02244 -0.35616,-0.11554 -0.4201,-0.18613c-0.12787,-0.14124 -0.1096,-0.26011 0.05478,-0.35653c0.62095,-0.63448 1.43357,-1.05706 2.3102,-1.40895c3.12295,-1.34492 6.37374,-2.54857 9.90768,-3.16138c0.92228,-0.16246 1.91764,-0.31363 3.09569,-0.19353z" fill="#060503" fill-rule="nonzero" stroke="none" stroke-width="1"/><path d="M239.16879,267.86776c0.00002,0.48655 -0.49304,0.77574 -1.16881,0.7936c-0.2283,0.02577 -0.51137,-0.07854 -0.63011,-0.27921c-0.11874,-0.20067 -0.01827,-0.36772 0.08213,-0.53473c0.26481,-0.26343 0.58438,-0.39677 1.04097,-0.44831c0.36528,0.05612 0.6301,0.27922 0.67581,0.46874z" fill="#201b0f" fill-rule="nonzero" stroke="none" stroke-width="1"/><path d="M259.31306,262.32537c-0.29222,-0.04487 -0.5023,-0.13798 -0.53879,-0.38686c-0.04564,-0.18945 0.0639,-0.41594 0.21913,-0.45287c0.54793,-0.15911 1.03183,-0.3889 1.57065,-0.00203c0.13698,0.08188 0.18268,0.27132 0.16442,0.39019c-0.35611,0.37105 -0.88573,0.41134 -1.41541,0.45163z" fill="#3d3219" fill-rule="nonzero" stroke="none" stroke-width="1"/><path d="M266.79331,276.4289c0.22834,0.46082 -0.18255,0.70179 -0.52043,0.954c-0.90398,0.53018 -1.73495,1.07153 -2.69373,1.47165c-2.24633,0.99301 -4.50183,2.04546 -6.86689,2.83777c-2.60249,0.87752 -5.31453,1.49486 -8.12717,1.79268c-0.52967,0.04026 -1.0593,0.08058 -1.56153,-0.05741c-0.36528,-0.05611 -0.63009,-0.27922 -0.73057,-0.59877c0.21913,-0.45289 0.66656,-0.445 1.12318,-0.49651c1.30581,-0.22519 2.60253,-0.3909 3.90834,-0.61613c3.0865,-0.6207 5.99947,-1.57213 8.81195,-2.84311c1.76238,-0.76324 3.52471,-1.52649 5.16837,-2.49046c0.41092,-0.24099 0.94965,-0.34066 1.4885,0.04618z" fill="#fefefa" fill-rule="nonzero" stroke="none" stroke-width="1"/><g><path d="M243.02061,195.95722l-16.18366,-18.58586" fill="none" fill-rule="evenodd" stroke="#ffdb5d" stroke-width="1.26"/><path d="M237.31252,179.01415c-2.47049,-0.37944 -2.83826,2.01497 -5.30885,1.63551c-2.46943,-0.37928 -2.10164,-2.77372 -4.57104,-3.15301c-2.47059,-0.37946 -2.83837,2.01496 -5.31002,1.63533c-2.47059,-0.37946 -2.1028,-2.77392 -4.57455,-3.15356" fill="none" fill-rule="evenodd" stroke="#ffdb5d" stroke-width="1.26"/><path d="M251.66002,205.93248c1.1984,4.10181 -1.15756,8.39808 -5.26186,9.59601c-4.10419,1.19669 -8.40406,-1.15906 -9.60253,-5.26089c-0.32538,-1.11458 -0.3809,-2.24018 -0.21785,-3.31695l-0.00585,0.00026l1.94126,-13.88973c0.16368,-1.17237 1.63535,-1.60279 2.40519,-0.70453l9.14242,10.66584c0.71519,0.81876 1.27478,1.79671 1.59925,2.90997" fill="#751d18" fill-rule="nonzero" stroke="none" stroke-width="1"/></g><path d="M276.32157,233.89729c-1.13009,7.3576 -8.01391,12.40662 -15.37635,11.27579l-3.13896,-0.48098c-0.04499,-0.00457 -0.09543,-0.00424 -0.13776,-0.01074l-48.07783,-7.38451c0,0 1.22075,-8.0094 1.38382,-9.07107c0.54012,-3.51656 2.95614,-9.33219 8.39132,-12.68217c12.11347,-7.46502 26.60433,-17.31557 26.60433,-17.31557z" fill="#17242d" fill-rule="nonzero" stroke="none" stroke-width="1"/><g><path d="M272.50945,184.41795c-2.47059,-0.37946 -2.83836,2.01496 -5.30782,1.63566c-2.47049,-0.37945 -2.10275,-2.7739 -4.57218,-3.15318c-2.47049,-0.37945 -2.83829,2.01497 -5.31001,1.63533c-2.47059,-0.37946 -2.1028,-2.77391 -4.57329,-3.15336" fill="none" fill-rule="evenodd" stroke="#ffdb5d" stroke-width="1.26"/><path d="M259.66598,201.29483l2.81619,-18.33521" fill="none" fill-rule="evenodd" stroke="#ffdb5d" stroke-width="1.26"/><path d="M265.55603,213.9492c-0.64876,4.22388 -4.60213,7.12288 -8.82797,6.47381c-4.22593,-0.64909 -7.12581,-4.60073 -6.47706,-8.82457c0.17618,-1.14704 0.60113,-2.19068 1.20441,-3.09848l-0.0055,-0.00201l7.63434,-11.76526c0.64337,-0.9937 2.15975,-0.762 2.47768,0.3782l3.77532,13.52708c0.30109,1.04435 0.3947,2.16642 0.21885,3.31128" fill="#751d18" fill-rule="nonzero" stroke="none" stroke-width="1"/></g><g><path d="M287.87771,226.97981c-7.57216,16.37115 -26.99164,23.5047 -43.37248,15.93406l-0.6498,-0.29919l4.68932,-10.13869c7.7373,-16.7294 27.58154,-24.0204 44.32229,-16.28378z" fill="#b85c39" fill-rule="nonzero" stroke="none" stroke-width="1"/><path d="M292.86705,216.19216l-0.00704,0.0153l-15.31699,11.06454l-17.73708,-8.19751c9.40616,-6.51674 21.9187,-8.03107 33.06108,-2.88227" fill="#ad2c24" fill-rule="nonzero" stroke="none" stroke-width="1"/><path d="M288.44165,214.86649l-14.55285,10.4823" fill="none" fill-rule="evenodd" stroke="#751d18" stroke-width="0.6"/><path d="M283.91315,213.7931l-13.6915,9.86145" fill="none" fill-rule="evenodd" stroke="#751d18" stroke-width="0.6"/><path d="M266.5547,221.95912l11.82921,-8.51964" fill="none" fill-rule="evenodd" stroke="#751d18" stroke-width="0.6"/><path d="M262.88761,220.2649l8.28649,-5.96814" fill="none" fill-rule="evenodd" stroke="#751d18" stroke-width="0.6"/><path d="M261.61026,234.27752c1.78556,-2.1918 4.88725,-2.99332 7.57215,-1.75192c3.1793,1.46892 4.56599,5.23704 3.09648,8.41368c-0.67343,1.45666 -1.83454,2.52598 -3.19513,3.12617c-7.75065,2.73082 -16.53033,2.56808 -24.57852,-1.15161l-0.64964,-0.30029l4.68916,-10.13757c0.34025,-0.73598 0.71186,-1.44724 1.09791,-2.14589l0.03993,0.02252c1.50805,-3.09266 5.21754,-4.42698 8.35647,-2.97702c2.68594,1.2415 4.08486,4.12186 3.57124,6.90197" fill="#573a3c" fill-rule="nonzero" stroke="none" stroke-width="1"/></g><path d="M186.11276,328.0266c0.80359,0.12343 1.57065,-0.00202 2.32864,0.41851c-1.26911,1.93376 -1.80774,3.97973 -1.47874,6.21976c-0.17348,0.1558 -0.40178,0.18157 -0.62093,0.14791c-1.76249,-0.20986 -1.95426,-0.42176 -1.94526,-1.9409c0.10942,-1.68615 0.43802,-3.33864 1.71632,-4.84525z" fill="#fac540" fill-rule="nonzero" stroke="none" stroke-width="1"/><path d="M189.06297,335.10915c-1.01376,-1.67622 -0.75831,-3.8265 0.55653,-5.57081c0.29217,-0.44164 0.53867,-1.07285 1.48841,-0.92699c-0.05474,0.84307 -0.94047,1.25444 -1.19606,1.945c-0.26475,0.74999 -0.67562,1.47756 -0.73033,2.32062c-0.0365,0.72426 -0.07292,1.44849 -0.11849,2.23215z" fill="#e6b73f" fill-rule="nonzero" stroke="none" stroke-width="1"/><path d="M194.37745,332.15454c-0.23741,0.08513 -0.58442,-0.08976 -0.7762,0.18489c-0.77622,-0.30166 -1.45202,-0.77041 -2.24652,-0.95325c-0.01828,-0.36772 0.22824,-0.51229 0.43829,-0.41919c0.84014,0.37231 1.84468,0.64823 2.58442,1.18761z" fill="#a98836" fill-rule="nonzero" stroke="none" stroke-width="1"/><path d="M197.05698,353.73212c-2.14874,0.28278 -4.18284,-0.5689 -5.50308,-2.09113l-0.34112,-0.35613c-0.48357,-0.50705 -1.33271,-0.10012 -1.24144,0.59346l0.52738,4.0072c0.15266,1.15985 -0.6646,2.22525 -1.82624,2.37814c-1.16039,0.15271 -2.22675,-0.66479 -2.37935,-1.82464l-0.46378,-3.52381c-0.09175,-0.697 -1.02863,-0.8597 -1.34912,-0.23395l-2.19923,4.29044c-0.44421,0.8663 -1.7407,0.64177 -1.86764,-0.32261l-0.86351,-6.56103c-0.06513,0.01091 -0.12947,0.02753 -0.19486,0.03612c-3.48256,0.45835 -6.67514,-1.99156 -7.13304,-5.47087c-0.45806,-3.48035 1.99213,-6.67172 5.47465,-7.13011c0.11706,-0.01536 0.23322,-0.02019 0.35005,-0.02868l4.32961,-0.56984l0.27231,2.06941c0.05141,0.04434 0.10592,0.08601 0.15627,0.13167l8.4425,0.78009l1.62787,2.46753c0.75094,-0.4871 1.61496,-0.82515 2.56194,-0.94977c3.40103,-0.44761 6.52074,1.94554 6.96798,5.34366c0.44736,3.39938 -1.94704,6.51709 -5.34807,6.96468" fill="#ce2235" fill-rule="nonzero" stroke="none" stroke-width="1"/><path d="M185.08165,325.60252c0.52845,4.01519 -2.29942,7.70023 -6.31796,8.22912c-4.01847,0.52888 -7.70464,-2.29881 -8.23307,-6.31407c-0.52859,-4.01635 2.3006,-7.70041 6.31904,-8.22929c4.01857,-0.52889 7.70348,2.29784 8.23204,6.31417" fill="#ce2235" fill-rule="nonzero" stroke="none" stroke-width="1"/><path d="M169.14913,335.12955l20.70564,-2.72505c-0.32029,2.07416 -1.97566,3.78922 -4.15546,4.07608l-11.48167,1.51109c-2.17967,0.28688 -4.22254,-0.94147 -5.06847,-2.86212" fill="#ffdb5d" fill-rule="nonzero" stroke="none" stroke-width="1"/><path d="M196.61686,333.7883c0.64982,4.93727 -2.8281,9.46693 -7.76727,10.11699c-4.94023,0.65016 -9.47173,-2.82539 -10.12151,-7.76266c-0.64965,-4.93626 2.82828,-9.46591 7.76849,-10.11613c4.93908,-0.65004 9.4706,2.82552 10.12023,7.76175" fill="#ad2c24" fill-rule="nonzero" stroke="none" stroke-width="1"/><path d="M191.97168,334.39965c0.31234,2.37322 -1.35947,4.54958 -3.73317,4.86197c-2.37487,0.31255 -4.55176,-1.35724 -4.86408,-3.73049c-0.31218,-2.37212 1.35848,-4.54838 3.73335,-4.86093c2.3737,-0.31239 4.55172,1.35733 4.8639,3.72945" fill="#fff4e3" fill-rule="nonzero" stroke="none" stroke-width="1"/><path d="M182.08546,332.24014l5.54674,-4.2928" fill="none" fill-rule="evenodd" stroke="#751d18" stroke-width="0.6"/><path d="M183.72269,332.80761l0.29813,-0.50971l7.64572,4.47202l-0.29814,0.50972z" fill="#000101" fill-rule="nonzero" stroke="#000000" stroke-width="0.5"/><path d="M186.03816,339.00961l-0.51173,-0.29467l4.41997,-7.67592l0.51172,0.29467z" fill="#000101" fill-rule="nonzero" stroke="#000000" stroke-width="0.5"/></g></g></svg>