<svg version="1.1" xmlns="http://www.w3.org/2000/svg" xmlns:xlink="http://www.w3.org/1999/xlink" width="506.3857" height="388.25032" viewBox="0,0,506.3857,388.25032"><g transform="translate(11.91571,11.2516)"><g data-paper-data="{&quot;isPaintingLayer&quot;:true}" stroke-linecap="butt" stroke-linejoin="miter" stroke-miterlimit="10" stroke-dasharray="" stroke-dashoffset="0" style="mix-blend-mode: normal"><path d="M-11.91571,376.99873v-388.25032h506.3857v388.25032z" fill="#973fd2" fill-rule="nonzero" stroke="none" stroke-width="0"/><g><g><path d="M234.46313,209.03854c0,-1.79929 0.35983,-3.11876 1.07956,-4.43824c0.71969,-1.55941 2.15909,-2.15911 3.7185,-2.39906c0.95964,-0.11996 1.67934,0.47979 2.15911,1.19948c1.43943,2.99881 1.55939,6.95728 -0.83965,9.71622c-0.95964,1.07956 -2.15911,1.31945 -3.35864,0.59978c-2.03924,-1.07956 -2.99881,-2.63896 -2.75894,-4.67815z" fill="#fcc741" fill-rule="nonzero" stroke="none" stroke-width="1"/><path d="M243.12799,218.50959c0.65787,-0.29245 1.24256,-0.65787 1.90048,-0.87718c1.31568,-0.43855 1.97355,-1.38881 2.48522,-2.55834c0.14619,-0.36546 0.14615,-0.80408 0.43855,-1.09646c0.07308,-0.07308 0.07308,-0.07307 0.1462,-0.07307c0.51167,0 0.73099,0.36546 0.80407,0.80407c0,2.48522 -2.92381,4.97054 -5.33602,4.60508c-0.36546,-0.07308 -0.51167,-0.29245 -0.43855,-0.80408z" fill="#fefcf5" fill-rule="nonzero" stroke="none" stroke-width="1"/><path d="M238.66914,234.44447c0.65787,0.07308 0.87714,0.51167 1.09646,0.87714c0.95022,1.53501 1.8274,3.14313 3.36241,4.16652c0.29245,0.21927 0.29234,0.51167 0.07308,0.80407c-0.21927,0.21927 -0.43855,0.36546 -0.73095,0.29234c-0.21927,-0.07308 -0.43855,-0.1462 -0.58473,-0.29234c-1.60812,-1.31568 -2.63147,-3.14313 -3.43554,-4.97053c-0.07308,-0.21927 -0.07307,-0.58474 0.21927,-0.87714z" fill="#0e0b07" fill-rule="nonzero" stroke="none" stroke-width="1"/><path d="M235.74526,234.7369c0.14619,0.07308 0.29245,0.07308 0.36546,0.1462c0.14619,0.14615 0.29235,0.36546 0.36546,0.58473c0.65787,1.46194 1.46193,2.77767 2.55834,3.94721c0.14619,0.14615 0.21928,0.29245 0.29245,0.43855c0.29245,0.43855 0.29245,0.87714 0,1.09646c-0.36546,0.21927 -0.80408,0.14615 -1.09646,-0.21927c-1.16953,-1.38881 -2.19287,-2.85074 -2.85073,-4.60502c-0.14619,-0.36546 -0.21927,-0.80407 0.07307,-1.16953c0,-0.07308 0.1462,-0.14619 0.29245,-0.21927z" fill="#100e08" fill-rule="nonzero" stroke="none" stroke-width="1"/><path d="M224.63479,233.27492c0.07308,-0.14619 0.07307,-0.29234 0.14619,-0.43855c0.07308,-0.29245 0.58474,-0.36546 0.73095,-0.07307c0.14619,0.21927 0.29234,0.36546 0.36546,0.58474c0.58474,1.75428 1.16954,3.50861 2.04668,5.18981c0.07308,0.14615 0.1462,0.36545 0.07308,0.51167c0,0.14619 -0.1462,0.36546 -0.29245,0.43855c-0.14619,0.07308 -0.36546,0.07308 -0.51167,0c-0.36546,-0.14619 -0.65787,-0.51166 -0.80408,-0.87718c-0.73099,-1.53501 -1.38886,-3.21621 -1.68121,-4.89741c0,-0.14619 0,-0.29245 -0.07308,-0.43855z" fill="#0b0a06" fill-rule="nonzero" stroke="none" stroke-width="1"/><path d="M231.06716,240.29214c-0.65787,-0.21927 -0.87714,-0.73099 -1.16953,-1.16953c-0.73099,-1.24266 -1.24267,-2.48522 -1.75428,-3.80095c-0.21927,-0.58474 -0.21927,-1.16954 0.36546,-1.53501c0.29245,0 0.43855,0.07308 0.51167,0.36546c0.65787,1.60812 1.31568,3.21621 2.19287,4.75121c0.29245,0.36546 0.51167,0.87718 -0.14615,1.38886z" fill="#141109" fill-rule="nonzero" stroke="none" stroke-width="1"/><path d="M232.01738,235.17545c0.36546,-0.07308 0.58474,0 0.73095,0.29245c0.21927,0.36546 0.43855,0.80407 0.58473,1.24266c0.43855,1.02332 0.87714,1.97355 1.60812,2.85074c0.14619,0.14619 0.29245,0.36546 0.36546,0.58474c0.14619,0.29245 0.07307,0.58474 -0.21927,0.80408c-0.21927,0.14615 -0.43855,0.14615 -0.65786,0c-0.14619,-0.07308 -0.29235,-0.21928 -0.36546,-0.36546c-1.02332,-1.24266 -1.68121,-2.63147 -2.19287,-4.09335c-0.21927,-0.43855 -0.21928,-0.95022 0.14619,-1.31568z" fill="#100d08" fill-rule="nonzero" stroke="none" stroke-width="1"/><path d="M223.53823,237.00281c-0.58474,-0.14619 -0.73095,-0.51167 -0.95022,-0.87718c-0.58474,-1.16953 -0.95022,-2.48522 -1.24266,-3.80095c-0.14619,-0.58474 -0.07307,-1.16953 0.43855,-1.60812c0.21927,0 0.51167,0.07308 0.51167,0.36546c0.29245,1.60812 0.80407,3.14313 1.46193,4.67815c0.21927,0.43855 0.36548,0.87718 -0.21927,1.24266z" fill="#15120a" fill-rule="nonzero" stroke="none" stroke-width="1"/><path d="M246.56349,238.97641c0.07308,0.21927 -0.21927,0.58474 -0.51167,0.58474c-0.36546,0 -0.65787,-0.14615 -0.95022,-0.36546c-1.16953,-0.87714 -2.04667,-2.04667 -2.70458,-3.36241c-0.07308,-0.21927 -0.1462,-0.43855 -0.1462,-0.65787c0,-0.14619 0.1462,-0.29234 0.29245,-0.36546c0.07308,-0.07308 0.21928,-0.00001 0.29235,0.07307c0.21927,0.21927 0.36546,0.43855 0.58474,0.65787c0.87718,1.02332 1.53501,2.19287 2.77767,2.85074c0.21927,0.14619 0.36546,0.36546 0.36546,0.58473z" fill="#120f09" fill-rule="nonzero" stroke="none" stroke-width="1"/><path d="M253.06905,237.73381c-0.29245,0.07308 -0.58474,-0.07308 -0.80408,-0.21927c-1.02332,-0.73099 -1.8274,-1.60812 -2.63147,-2.48522c-0.07308,-0.07308 -0.07308,-0.07307 -0.07308,-0.14619c-0.14619,-0.29245 -0.07308,-0.58474 0.14615,-0.80408c0.21927,-0.14615 0.43855,-0.14615 0.65787,0c1.02332,0.80408 1.97355,1.68122 2.77767,2.63148c0.29245,0.29245 0.29234,0.731 -0.07308,1.02333z" fill="#16130a" fill-rule="nonzero" stroke="none" stroke-width="1"/><path d="M245.61326,235.02925c0.29245,-0.36546 0.58474,-0.43856 0.87718,-0.29245c1.24266,0.80408 2.26599,1.82741 3.28934,2.85074c0.21927,0.21927 0.21927,0.51167 -0.07308,0.80408c-0.21927,0.21927 -0.51167,0.21927 -0.80408,0.07307c-0.80408,-0.36546 -2.63148,-2.33901 -3.28934,-3.43552z" fill="#0d0b07" fill-rule="nonzero" stroke="none" stroke-width="1"/><path d="M252.92284,233.34799c0.29245,-0.36546 0.51167,-0.36545 0.80408,-0.21927c0.73099,0.51167 1.31568,1.09646 1.8274,1.8274c0.14619,0.21927 0.14619,0.43855 0,0.65787c-0.14619,0.21927 -0.43855,0.29234 -0.65787,0.14615c-0.87718,-0.58474 -1.75428,-1.31568 -1.97355,-2.41215z" fill="#201b0f" fill-rule="nonzero" stroke="none" stroke-width="1"/><path d="M219.9566,233.64045c-0.95022,-0.29245 -1.09646,-0.95021 -1.31573,-1.53501c-0.21927,-0.58474 -0.29234,-1.24267 0.07308,-1.8274c0.14619,0 0.29234,-0.07308 0.36546,0c0.65787,0.95022 0.95022,2.04668 0.87718,3.36241z" fill="#1d180e" fill-rule="nonzero" stroke="none" stroke-width="1"/><path d="M255.40811,232.17852c0.58474,-0.51167 1.02332,-0.43855 1.535,-0.07308c0.43855,0.36546 0.95022,0.58473 0.95022,1.31568c0,0.07308 0,0.1462 0,0.1462c0,0.29245 -0.36546,0.51167 -0.58474,0.36546c-0.73099,-0.43855 -1.53501,-0.80407 -1.90047,-1.75428z" fill="#17130b" fill-rule="nonzero" stroke="none" stroke-width="1"/><path d="M259.57459,231.30133c0,0.29245 -0.36546,0.58473 -0.73094,0.43855c-0.43855,-0.21927 -0.80408,-0.43855 -1.02333,-0.87714c-0.14619,-0.29245 -0.14619,-0.58474 0.07308,-0.80407c0.21927,-0.21927 0.51167,-0.21927 0.80407,-0.07308c0.43855,0.29245 0.80401,0.65787 0.87714,1.31568z" fill="#382e16" fill-rule="nonzero" stroke="none" stroke-width="1"/><path d="M238.05048,182.0037c-0.11215,-2.00736 -0.22438,-3.92356 -0.22438,-5.8397c-0.67314,-0.91243 -2.0194,-1.27746 -2.58035,-2.28117c-1.23403,-2.37242 -1.45842,-4.74477 0.22438,-6.93468c1.23403,-1.64245 1.79504,-3.19362 1.57065,-5.10976c-0.22438,-1.45996 -0.22439,-2.91986 -0.22439,-4.37985c-0.78536,-0.72991 -1.57065,-1.27746 -2.13159,-2.00737c-2.0194,-2.73737 -2.13159,-5.56593 -0.11219,-8.30335c0.89748,-1.18619 1.12189,-2.1899 1.00967,-3.46731c-0.22438,-1.45996 -0.33656,-2.91986 -0.44878,-4.28858c-0.22438,-0.18244 -0.22438,-0.36498 -0.33656,-0.45621c-3.36564,-2.28117 -3.47783,-5.3835 -1.90718,-8.30335c0.67314,-1.36867 1.12189,-2.55486 0.78536,-4.01482c-0.11215,-0.63873 -0.11215,-1.27744 -0.11215,-1.9162c-0.11215,-1.45996 -0.56095,-2.73738 -1.79503,-3.92357c-2.35592,-2.18991 -2.35593,-4.83606 -0.67314,-7.29966c0.67314,-1.0037 1.00967,-1.9162 0.78528,-3.10238c-0.33656,-1.82493 -0.44878,-3.64984 -0.67314,-5.56593c-2.46817,-1.18619 -3.81438,-3.01112 -3.92657,-5.29224c-0.11215,-2.37242 0.44878,-3.92356 2.58035,-5.65726c-0.11215,-1.9162 -0.22438,-4.01482 -0.44878,-5.93102c-0.33656,-0.18243 -0.56095,-0.36498 -0.67314,-0.54751c-3.14124,-2.09863 -3.81438,-5.29224 -1.4584,-7.93839c1.00967,-1.09498 1.4584,-2.09868 1.34622,-3.37604c-0.11215,-0.63873 0,-1.27744 0.11219,-2.00742c0.11215,-1.09498 -0.22438,-2.00736 -1.00967,-3.01112c-2.13159,-2.55486 -1.45842,-5.65727 1.4584,-7.66463c1.00967,-0.72991 1.57065,-1.45996 1.90718,-2.46361c1.00967,-3.28487 2.46817,-6.38721 4.59972,-9.30712c1.12189,-1.55117 2.58037,-3.01107 4.15096,-4.28853c2.91687,-2.4636 6.50694,-3.46731 10.54571,-3.64984c4.37535,-0.18243 8.07753,1.09493 11.66755,2.73737c3.02906,1.36867 5.72161,3.01112 8.30193,4.83603c1.00967,0.72991 2.2438,1.27746 3.36564,1.7337c0.89748,0.36498 1.90718,0.82124 2.91687,-0.09125c0.33656,-0.2737 1.00967,-0.18244 1.57065,-0.18244c2.2438,0 4.48753,0 6.73121,0c1.00967,0 1.90718,0 2.80469,0.63873c0.44878,0.36498 1.23403,0.27372 1.79503,0.27372c3.92658,0 7.85316,0.09125 11.77978,0.09125c2.46817,0 5.04847,0.09126 7.51657,0.36498c0.44878,0.09125 0.89748,0.09125 1.12189,0.45618c0.22438,0.45624 -0.22438,0.63872 -0.44878,1.0037c-1.1219,1.45996 -2.46817,2.73737 -3.92657,3.92356c-1.1219,0.91243 -2.35593,1.82493 -3.25344,2.91986c-0.78527,0.91243 -2.0194,1.36867 -3.36564,1.7337c-1.90718,0.45624 -3.81438,0.54751 -5.83375,0.54751c-1.79503,0 -3.59003,0 -5.2728,0c-0.78536,0.2737 -0.89748,1.0037 -1.45842,1.36867c-0.67314,0.54751 -1.34622,0.91243 -2.35592,0.54751c-0.56095,-0.18243 -1.23403,0 -1.79503,0c-1.57065,0.09125 -3.02906,0.18244 -4.59972,0.18244c-1.12189,0 -2.35593,-0.09126 -3.25344,-0.72991c-0.33656,-0.18243 -0.78536,-0.36496 -1.23403,-0.45618c-4.59973,-0.72995 -8.86282,-2.28117 -13.01382,-3.92356c-0.44878,-0.18243 -1.00967,-0.36498 -1.4584,-0.54751c-1.34622,-0.54747 -2.80471,-0.54747 -4.15096,-0.63873c-1.4584,-0.09125 -2.58035,0.45624 -3.14126,1.55117c-0.78536,1.55117 -1.57065,3.1024 -1.68284,4.83606c-0.22438,4.83603 0.00001,9.76327 0.44878,14.5993c0.56095,6.29599 1.79503,12.4094 2.80469,18.70539c0.56095,3.19361 1.23403,6.29594 1.79503,9.48954c0.78536,4.28853 1.68284,8.66834 2.58035,12.9569c0.67314,3.37605 1.34622,6.75219 2.0194,10.12828c0.67314,3.74107 1.23403,7.48219 1.90718,11.2232c0.56095,3.46731 1.12189,6.93468 1.79503,10.40199c0.67314,3.64984 1.23404,7.39086 1.90719,11.04071c0.67314,3.64984 1.34622,7.20848 1.79503,10.85824c0.44878,3.37605 1.57065,6.75219 2.13159,10.12828c0.78536,5.29224 1.57065,10.58454 1.90718,15.87672c0.22438,2.73737 0.33656,5.56593 0.67308,8.30335c0.44878,4.65356 0,9.30712 -0.67308,13.96062c0,0.18244 0,0.2737 -0.11219,0.45618c-1.23403,3.01111 -1.79503,6.20473 -3.25343,9.21585c-2.0194,4.01482 -5.04847,7.48219 -8.97501,10.49327c-2.91687,2.28117 -6.28257,3.83233 -9.98476,5.01846c-1.57065,0.45618 -3.02906,1.18619 -4.71195,1.64245c-1.68284,0.45624 -3.47783,0.82116 -5.16067,1.18619c-1.68284,0.36498 -3.47783,0.54751 -5.2728,0.91243c-3.59002,0.63873 -7.18001,0.45621 -10.77003,0.45621c-7.29221,-0.09126 -14.13563,-1.82493 -20.53043,-4.47108c-0.89748,-0.36498 -1.79503,-1.0037 -2.58035,-1.55117c-3.81439,-2.64615 -6.61912,-5.93102 -8.63849,-9.67208c-1.90718,-3.55858 -3.36564,-7.20848 -4.26316,-11.04078c-0.89748,-3.55858 -1.57065,-7.20848 -2.0194,-10.76695c-0.44878,-4.83603 -1.00967,-9.76327 -2.01942,-14.50814c-0.56095,-2.82859 -1.4584,-5.56593 -2.46817,-8.30335c-0.78536,-2.37242 -2.46817,-4.3798 -4.26319,-6.29596c-2.46817,-0.36498 -4.82416,-0.63873 -7.06784,-1.64245c-4.26319,-1.82496 -6.61903,-4.74477 -7.51654,-8.57705c-0.67314,-2.82859 0.11219,-5.29224 1.57065,-7.84712c1.23403,-2.18991 3.02906,-4.10611 4.71195,-6.11344c3.36564,-3.83234 7.17998,-7.20838 12.00412,-9.9458c5.2728,-3.01107 10.65781,-5.83974 16.71598,-7.93838c4.26319,-1.45996 8.63849,-2.55486 13.12601,-3.10238c5.38505,-0.63873 10.77003,-0.36498 15.93071,1.09497c0.78536,0.18244 1.4584,0.45626 2.0194,0.91244c2.2438,2.00736 4.15095,4.19731 4.71186,7.02594c0.33656,1.9162 0.33659,3.74106 -0.56094,5.56595c-0.89748,1.64245 -0.78536,3.37609 -0.56095,5.10975c0.56095,3.83234 0.89745,7.66463 0.67313,11.58823c-0.22438,3.74107 -0.11219,7.57345 -0.33661,11.31448c-0.11215,3.10233 -0.44878,6.20473 -0.56095,9.39829c-0.11215,2.73737 -0.22438,5.56593 -0.33656,8.30335c0,1.0037 -0.22438,2.00736 -0.33656,3.01107c-0.44878,3.01107 -0.44878,5.93102 1.12184,8.85082c0.67314,1.18619 1.34622,1.36867 2.69254,0.63873c1.12189,-0.54747 1.4584,-1.45996 1.90718,-2.28107c-0.11215,-0.63873 -0.67314,-1.0037 -1.12189,-1.45996c-2.2438,-2.55486 -2.35592,-5.20101 -0.78536,-8.02966c0.67314,-1.09498 1.45842,-2.09863 2.58035,-2.73737c0.78536,-0.54751 1.00967,-1.09498 1.12189,-1.82493c0.22438,-1.45996 0.33656,-2.91986 0.33656,-4.47107c-1.34622,-1.09498 -2.69255,-2.28117 -3.02907,-3.92357c-0.22438,-1.55117 -0.56095,-3.01112 0,-4.56233c0.44878,-1.36867 1.79503,-2.55486 3.25344,-3.64984zM272.60437,59.91679c-0.33656,-0.18243 -0.56095,-0.45624 -0.33656,-0.7299c0.22438,-0.2737 0.56095,-0.36498 0.89748,-0.36498c1.12189,0 2.13162,0.63872 3.47783,0.45618c0.56095,-1.27746 0,-2.46361 -0.44878,-3.64984c-3.81439,-0.54747 -6.84346,-2.18991 -9.64819,-4.10611c-1.00967,-0.72995 -2.0194,-1.36867 -3.14122,-2.00742c-4.37535,-2.37245 -8.86282,-4.01482 -14.24787,-3.83234c-2.0194,0.09125 -3.70221,0.45618 -5.27286,1.36867c-0.89748,0.45618 -1.68284,1.09498 -2.46817,1.64245c-3.25343,2.55486 -5.04846,5.74849 -6.7313,9.03336c-0.78536,1.55117 -1.34622,3.10238 -1.4584,4.74477c3.02906,1.7337 3.92657,3.37605 3.47783,6.20474c-0.44878,2.64615 -2.58035,3.83234 -5.49724,4.28858c-0.11215,1.45996 -0.22438,2.91986 -0.11219,4.47107c2.69254,1.0037 4.71197,2.46361 4.82416,5.01848c0,2.37242 -0.89748,4.47108 -3.81439,5.47473c0,1.82493 0,3.55858 0.33662,5.20101c2.2438,1.18619 4.37535,2.28117 4.71186,4.56233c0.44878,2.82857 -0.67314,5.29223 -3.36564,7.20847c0,2.00742 0.33659,3.92357 0.78536,5.83975c3.92658,0.91243 5.60941,2.82859 5.38499,5.93102c0,0.54751 -0.11219,1.18619 -0.11219,1.7337c-0.11215,1.36867 -1.00967,2.46361 -2.35593,3.28487c-0.44878,0.2737 -1.23403,0.36496 -1.57065,1.0037c0,1.7337 0.11219,3.46731 0.67314,5.20101c0.67314,0.45624 1.45842,0.45624 2.13162,0.63873c2.0194,0.45618 3.47783,1.36867 4.37535,3.01107c0.78536,1.36867 0.78536,2.73737 0.33656,4.01482c-0.67314,2.00736 -1.90719,3.64984 -4.82406,3.92357c-0.22438,0 -0.44878,0.18244 -0.67314,0.36496c0.11215,1.7337 0.11215,3.46736 0.56095,5.10975c4.37535,1.27744 6.50694,3.28487 6.61912,5.93102c0.11215,3.46731 -1.45842,5.29224 -5.83376,6.75219c0.11215,1.7337 0.22438,3.46731 0.44878,5.20101c0,0.45618 -0.11215,0.91243 0.22438,1.27744c0.44878,0.36498 1.00967,0.27372 1.45842,0.36498c3.47783,0.82124 6.39475,3.83234 5.38505,7.57336c-0.67314,2.73737 -2.46817,3.92356 -6.05819,4.01482c-0.22438,1.82496 -0.11215,3.55859 0,5.3835c1.12189,0.54747 2.35593,0.54751 3.25344,1.09498c3.70221,2.18991 4.71186,7.75589 1.12184,10.9495c-0.78536,0.72991 -1.68284,1.36867 -2.91687,1.36867c-0.56095,0 -1.00967,0.18244 -1.57065,0.2737c-0.67314,1.55117 -0.56095,3.10238 -0.56095,4.65356c1.68284,-0.27372 3.02907,0.18243 4.15096,1.18619c0.56095,0.54751 1.00967,1.18619 1.34622,1.82498c1.68284,3.37605 0.78536,6.38721 -2.0194,9.21585c-1.12189,1.09498 -2.58037,1.82496 -4.48755,1.36867c-0.22438,-0.09126 -0.56094,0 -0.78536,0.09126c-0.89748,1.64245 -1.90718,2.64615 -2.91687,3.28487c-1.90718,1.09498 -4.26316,1.0037 -5.946,-0.2737c-0.67314,-0.54747 -1.1219,-1.27746 -1.34623,-2.09863c-0.67314,-2.09868 -0.67313,-4.19731 -0.56094,-6.29599c0.11215,-4.74478 0.44878,-9.48954 0.67314,-14.23432c0.33656,-5.10975 1.12189,-10.12832 1.00967,-15.23809c-0.11215,-4.10611 0,-8.21208 -0.11219,-12.22691c0,-1.18619 -0.22438,-2.37235 -0.89748,-4.01482c-0.33656,0.54747 -0.56095,0.82121 -0.78536,1.0037c-0.44878,0.54751 -1.00967,1.00371 -1.68284,1.36868c-0.33656,0.18244 -0.67314,0.18244 -1.00967,0.09126c-0.44878,-0.18244 -0.56094,-0.63873 -0.33656,-1.00371c0.11215,-0.36498 0.44876,-0.63872 0.67313,-0.91243c0.56095,-0.72994 1.23403,-1.45996 1.79503,-2.18991c1.90718,-2.73737 3.36564,-5.65726 2.91688,-8.94208c0,-0.18244 0.11215,-0.63873 -0.44878,-0.63873c-0.56095,0.18244 -0.44878,0.54751 -0.56095,0.91244c-0.56095,2.4636 -1.68284,4.74478 -3.47781,6.75219c-1.90718,2.09863 -3.92658,4.10611 -6.17039,6.11344c-5.04847,4.56233 -10.99441,8.21208 -17.6135,10.9495c-2.91687,1.18619 -5.83376,2.28117 -8.75073,3.37605c-3.70221,1.36867 -7.51659,2.4636 -11.44317,3.01111c-1.68284,0.27372 -3.36564,0.45624 -5.04847,0.54747c-0.89748,0.09126 -1.79499,0.09126 -2.69254,-0.09125c-2.46817,-0.45624 -4.93625,-0.63873 -7.18001,-1.73371c-0.22438,-0.09126 -0.56095,-0.36498 -0.89748,-0.09126c2.46817,2.73737 5.946,3.83234 9.98476,4.10611c2.0194,0.09126 4.15095,0.09125 6.17037,-0.09126c0.78536,-0.09126 1.57065,-0.18243 2.35592,0.36498c-0.89748,1.82491 -3.02906,1.55117 -4.71186,2.09868c0,0.54747 0.44878,0.82116 0.67308,1.18619c1.57065,2.09863 2.58035,4.28859 3.36568,6.66097c1.79503,5.10975 2.58035,10.40199 3.25343,15.69427c0.44878,4.37978 1.00967,8.66834 1.90718,13.04813c0.44878,2.4636 1.23403,4.83606 1.90718,7.20848c1.34622,4.47107 4.15096,8.39464 7.40441,12.04444c2.0194,2.18991 4.48753,4.01482 7.62873,5.01848c2.46817,0.82124 5.04847,1.55117 7.5166,2.37242c1.00967,0.27372 2.0194,0.45618 3.14124,0.63872c3.47783,0.45624 6.95565,0.45624 10.43352,0.45624c2.91687,0 5.83376,-0.36496 8.75063,-0.82121c4.48753,-0.72991 8.86282,-1.9162 12.90158,-3.46731c5.83379,-2.28117 10.77009,-5.29223 13.7991,-10.03706c1.79503,-2.82859 3.59002,-5.74849 4.37535,-8.85082c0.44878,-1.9162 0.89748,-3.83234 1.34622,-5.74849c1.34622,-6.38721 1.00968,-12.77441 0.56095,-19.16163c-0.22438,-3.64984 -0.78528,-7.20838 -1.23404,-10.85824c-0.67314,-4.74478 -1.68284,-9.48954 -2.58035,-14.23432c-0.78536,-3.74107 -1.57065,-7.48219 -2.24373,-11.2232c-0.56095,-3.28487 -1.00967,-6.4785 -1.57065,-9.76325c-0.67314,-4.28859 -1.57065,-8.48585 -2.13159,-12.77443c-0.78536,-5.29224 -1.79504,-10.49327 -2.80471,-15.78546c-0.33656,-1.7337 -0.78536,-3.46731 -1.12189,-5.20101c-1.34622,-7.20847 -2.80471,-14.41686 -4.15096,-21.62523c-0.89748,-5.01848 -1.79503,-10.03706 -2.46817,-15.1468c-0.22438,-2.00736 -0.33656,-4.10611 -0.56095,-6.11345c-0.67314,-4.47108 -0.56095,-9.03336 -0.44878,-13.50438c0.11215,-2.82857 1.23403,-5.47472 3.47783,-7.66461c0.67314,-0.72991 1.57065,-1.09493 2.69254,-1.18619c3.36564,-0.36498 6.39475,0.36498 9.31157,1.64245c2.91687,1.18619 5.83376,2.09863 8.97501,2.91986c1.34622,0.36498 2.58035,0.54746 4.03877,0.18243c-0.56095,-0.45618 -1.23403,-0.63873 -1.90718,-0.72991c-1.00967,-0.18243 -1.90718,-0.36496 -2.80469,-0.72995c-0.89748,-0.2737 -1.79503,-0.72991 -2.0194,-1.45996c0.22438,-0.45624 0.56095,-0.54751 0.89748,-0.45626c0.67314,0.18243 1.34622,0.36498 2.0194,0.45626c1.23403,0.63873 2.80474,0.82118 4.15096,1.18619c0.33656,0.09125 0.67308,-0.18244 0.56095,-0.72991c-1.34622,-0.09125 -2.46817,-0.63873 -3.70221,-0.91244zM224.58788,155.9074c-1.57065,-0.63873 -3.02906,-1.09493 -4.71186,-1.0037c-0.44878,0 -0.89748,0 -1.34623,0c-0.33656,0 -0.67314,-0.18244 -0.78536,-0.54751c-0.11215,-0.27372 0.11219,-0.54747 0.44878,-0.72991c0.44878,-0.27372 1.00967,-0.36496 1.45842,-0.36496c1.90718,-0.09126 3.70221,0.36496 5.49724,1.0037c0.11215,0.09126 0.33662,0 0.56095,0c0.11215,-0.18244 0.22438,-0.36498 0.22438,-0.63873c0,-0.27372 0.33656,-0.54751 -0.11215,-0.91243c-0.89748,-0.36498 -2.13162,-0.72994 -3.36564,-0.91243c-1.90718,-0.27372 -3.70221,-0.36498 -5.60941,-0.36498c-0.67314,0 -1.23403,-0.09126 -1.4584,-0.63873c0.11215,-0.36498 0.44876,-0.63873 0.89748,-0.72991c1.68284,-0.36498 3.36564,-0.36498 5.04847,-0.09125c1.4584,0.18244 2.91687,0.45624 4.37535,0.63873c0.44878,-0.36498 0.67308,-0.72991 0.22438,-1.0037c-0.22438,-0.18244 -0.56095,-0.27372 -0.89748,-0.36498c-3.36564,-1.0037 -6.73131,-1.64245 -10.20914,-1.0037c-0.56095,0.09126 -1.23403,0.36498 -1.68284,-0.18244c-0.11215,-0.36498 0.11215,-0.54747 0.33656,-0.82116c0.56095,-0.63873 1.4584,-0.72991 2.35592,-0.82124c2.69254,-0.27372 5.38505,-0.09126 7.96535,0.54747c0.67314,0.18244 1.23403,0.63873 1.90718,0.36498c0.22438,-0.36498 0,-0.63873 -0.22438,-0.82124c-1.00967,-1.09498 -2.35593,-1.64244 -3.81438,-1.82491c-1.79503,-0.27372 -3.47783,-0.54751 -5.27286,-0.63873c-7.18001,-0.36498 -13.79909,1.36867 -20.30599,3.55858c-4.26319,1.45996 -8.18973,3.55858 -12.11632,5.56599c-3.70221,1.9162 -7.18001,4.10611 -10.09696,6.84346c-1.79503,1.64245 -3.59002,3.46731 -5.2728,5.29224c-1.57065,1.73366 -3.02906,3.64987 -4.15096,5.56595c-0.89748,1.64245 -1.23403,3.37609 -0.89748,5.10975c0.22438,1.27744 0.56094,1.55117 2.0194,2.09868c0,-0.27372 0,-0.54752 0,-0.91244c-0.44878,-3.19362 0.89748,-6.02219 3.02907,-8.66834c0.56095,-0.63873 1.12189,-1.27746 2.0194,-1.64245c0.11215,-0.09126 0.44878,-0.09126 0.44878,0c0.22438,0.18244 0.33656,0.36498 0.33656,0.54747c0,0.27372 -0.22438,0.5475 -0.33656,0.82121c-0.67314,1.0037 -1.23403,1.91621 -1.90718,2.91987c-1.57065,2.4636 -1.90718,5.10975 -1.23403,7.84712c0.22438,0.72991 0.67308,1.18619 1.57065,1.09493c0.11215,-0.18244 0.22438,-0.27372 0.22438,-0.36498c-0.78536,-2.64615 0.22438,-5.01846 1.57065,-7.39091c0.33656,-0.63873 0.78536,-1.09498 1.57065,-1.36867c0.33656,-0.09126 0.67314,-0.18244 1.00967,0.18254c0.22438,0.54747 -0.33656,1.09498 -0.56095,1.55117c-0.67314,1.27744 -1.23403,2.55488 -1.57065,3.92357c-0.33656,1.36867 -0.33656,2.73737 0.67308,4.01482c0.56095,0.18244 1.12189,0.2737 1.57065,-0.18244c-0.11215,-0.27372 -0.22438,-0.45621 -0.22438,-0.82124c-0.11215,-1.82496 0.22438,-3.4673 1.57064,-4.92731c0.33656,-0.27372 0.67309,-0.54747 1.12184,-0.45624c0.56095,0.18244 0.44878,0.54751 0.33656,0.91243c-0.22438,0.63873 -0.56095,1.27746 -0.67309,1.82493c-0.33656,1.18619 -0.44878,2.4636 0,3.55858c0.67314,0.18244 1.34622,0.36498 1.79503,-0.18244c-0.44878,-2.82859 -0.33656,-3.19362 2.01942,-4.10611c-0.11215,1.45996 -0.67314,2.82859 -0.22438,4.10611c1.23403,0.27372 2.2438,-0.45618 3.36562,-0.45618c2.46817,0 4.71187,-0.72991 6.95565,-1.55117c3.92657,-1.55117 7.85316,-3.10238 11.77978,-4.74478c1.90718,-0.82124 3.70222,-1.82496 5.38499,-2.91986c1.57065,-1.09498 3.25343,-2.09863 4.82405,-3.19362c1.00967,-0.72991 2.01942,-1.45996 3.02907,-2.1899c2.13159,-1.82491 4.26316,-3.74107 6.39475,-5.56595c0.44878,-0.45618 1.12189,-0.7299 1.23403,-1.36867c-0.11215,-0.36498 -0.56094,-0.45618 -0.78536,-0.54751c-0.56095,-0.18244 -1.23403,-0.18244 -1.79503,-0.36498c-0.44878,-0.09126 -0.56095,-0.36498 -0.56095,-0.63872c0,-0.18244 0.22438,-0.36498 0.44878,-0.45618c0.33656,-0.09126 0.67314,-0.18254 1.00967,-0.18254c1.12189,-0.18244 2.01942,0.45626 2.80471,0.82124c0.44878,-0.27372 0.56095,-0.54751 0.78536,-1.09498zM234.90921,207.4613c-0.22438,1.45996 0.67314,2.73737 2.46817,3.55858c1.12189,0.54747 2.2438,0.36498 3.14126,-0.45624c2.2438,-2.09863 2.13159,-5.10975 0.78536,-7.39092c-0.33656,-0.63873 -1.00967,-1.0037 -2.01942,-0.91243c-1.4584,0.18244 -2.80469,0.63872 -3.47781,1.82496c-0.44878,1.0037 -0.89748,2.00742 -0.89748,3.37609zM243.43552,188.39087c0,-1.0037 -0.44876,-2.00742 -1.12189,-2.91986c-1.12189,-1.64245 -3.14124,-1.7337 -4.37535,-0.09126c-0.22438,0.27372 -0.33656,0.63872 -0.56095,1.0037c-0.44878,1.27744 -0.44878,2.55488 -0.22438,3.92357c0.33656,1.45996 1.68284,2.46361 3.47783,2.64615c0.67314,0.09126 1.23403,-0.09126 1.57065,-0.63873c0.78536,-1.18619 0.89748,-2.46361 1.23403,-3.92357zM284.83288,64.66157c1.57065,-2.55486 1.68284,-5.10975 1.4584,-7.66461c-0.22438,-2.18991 -0.67314,-2.46361 -3.36564,-2.46361c-0.33656,0 -0.67308,0 -0.89748,0.36498c1.00967,3.28487 0.56095,6.4785 -0.78528,9.67209c1.12189,0.36498 2.2438,0 3.59002,0.09125zM242.98675,170.87171c0.11215,-1.27744 -0.33656,-2.28117 -1.34622,-3.19362c-1.12189,-1.09498 -2.80469,-0.91243 -3.92658,0c-1.79503,1.55117 -1.45842,4.74477 0.67314,6.02219c1.34622,0.82124 3.14126,0.54747 3.92658,-0.63872c0.56095,-0.63873 0.78528,-1.36867 0.67314,-2.18991zM235.47018,151.25388c0,0.36498 0,0.72991 0,1.0037c0.11215,1.55117 1.12184,2.55486 2.91687,3.01107c1.12189,0.36498 2.13159,-0.09126 2.46817,-1.09493c0.22438,-0.54751 0.33656,-1.09498 0.33656,-1.73371c0,-1.45996 -0.11219,-2.91986 -1.12189,-4.1973c-0.56095,-0.72991 -1.34622,-0.91243 -2.2438,-0.54751c-0.56095,0.18244 -1.00967,0.54747 -1.4584,1.0037c-0.67314,0.82124 -1.00967,1.7337 -0.89748,2.55486zM238.49923,137.4758c0.78536,-1.27744 0.89748,-2.64615 1.12189,-4.01482c0.11215,-0.45624 -0.11219,-0.82118 -0.22438,-1.27746c-0.22438,-0.82124 -1.34622,-1.64245 -2.46817,-1.64245c-0.89748,0 -1.68285,0.36498 -2.13162,1.00371c-0.22438,0.45624 -0.56095,0.91243 -0.78536,1.36867c-0.33656,1.18619 -0.22438,2.28117 0.78536,3.28487c0.89748,0.82124 1.90719,1.64245 3.70222,1.27746zM230.98259,95.4114c-2.46817,1.45996 -2.0194,3.55859 -1.68284,5.56599c0.11215,0.82121 0.89748,1.64244 2.0194,1.82496c0.89748,0.18243 2.2438,-0.91243 2.58035,-1.9162c0.11215,-0.36498 0.11215,-0.72991 0.22438,-1.09498c0,-0.54751 -0.11215,-1.0037 -0.11215,-1.55117c-0.11215,-1.55117 -1.00967,-2.55486 -3.02906,-2.82859zM234.68485,113.02187c-1.4584,0.18243 -2.2438,0.91243 -2.69254,1.82493c-0.56095,1.0037 -0.44878,2.1899 0,3.19361c0.33656,0.82121 0.78536,1.64245 1.68284,2.18991c1.12189,0.63873 2.0194,0.45624 2.58035,-0.54747c0.11215,-0.18243 0.22438,-0.36496 0.22438,-0.63872c0.22438,-2.18991 0.11215,-4.19731 -1.79503,-6.0222zM230.87045,79.99089c-1.57065,0 -2.46817,0.72991 -3.02907,1.82498c-0.56095,1.18619 -0.11219,2.28106 0.56095,3.28482c0.44878,0.63873 1.4584,0.72991 2.35592,0.63873c0.89748,-0.09125 1.12189,-0.63873 1.34622,-1.18619c0.67314,-1.7337 0.33656,-3.28482 -1.23403,-4.56224zM232.66543,67.58143c0,-0.72991 -0.22438,-1.55117 -0.67314,-2.28117c-0.56095,-0.91243 -1.57065,-1.09497 -2.35592,-0.36496c-1.23403,1.18619 -1.68284,2.55486 -1.23403,4.01482c0.11215,0.36498 0.44876,0.82121 0.78536,1.18619c0.67314,0.72991 1.79503,0.63873 2.46817,-0.09125c0.67314,-0.63873 1.12189,-1.45996 1.00967,-2.46361zM278.77475,54.71579c0.11215,1.09498 0.11219,2.28117 0.22438,3.3761c0.11215,1.27746 -0.33656,2.4636 -0.56095,3.64984c-0.22438,1.09498 -1.4584,1.9162 -1.34622,3.19362c1.4584,-0.09125 1.68284,-1.0037 2.0194,-1.7337c1.68284,-2.91986 1.68284,-6.11345 -0.33656,-8.4859z" fill="#010001" fill-rule="nonzero" stroke="none" stroke-width="1"/><path d="M271.65535,60.52371c-0.67314,-0.18243 -1.34622,-0.36498 -2.0194,-0.45618c-0.33656,-0.09125 -0.67308,0.00001 -0.89748,0.45618c0.33656,0.72995 1.12189,1.18619 2.0194,1.45996c0.89748,0.2737 1.90718,0.54747 2.80469,0.72991c0.67314,0.09125 1.34622,0.2737 1.90718,0.7299c-1.4584,0.2737 -2.69254,0.18244 -4.03876,-0.18243c-3.02906,-0.82121 -6.05819,-1.7337 -8.97501,-2.91986c-2.91687,-1.18619 -5.946,-1.9162 -9.31157,-1.64245c-1.12189,0.09125 -2.0194,0.45624 -2.69254,1.18619c-2.2438,2.28117 -3.36564,4.83601 -3.47783,7.66463c-0.22438,4.47108 -0.22438,9.03336 0.44878,13.50438c0.33656,2.00742 0.33659,4.10611 0.56095,6.11345c0.67314,5.10975 1.57065,10.12828 2.46817,15.1468c1.34622,7.20847 2.69255,14.41686 4.15096,21.62523c0.33656,1.73366 0.78536,3.46731 1.12189,5.20098c1.00967,5.29224 2.0194,10.49326 2.80469,15.78553c0.67314,4.28853 1.4584,8.4859 2.13159,12.77443c0.56095,3.28487 1.00967,6.4785 1.57065,9.76325c0.67314,3.74107 1.4584,7.48219 2.2438,11.2232c1.00967,4.74478 2.0194,9.48955 2.58035,14.23432c0.44878,3.64984 1.00967,7.20848 1.23403,10.85824c0.44878,6.38721 0.78536,12.77441 -0.56095,19.16163c-0.44878,1.9162 -0.89748,3.83234 -1.34622,5.74849c-0.78536,3.19362 -2.58035,6.02219 -4.37535,8.85087c-3.02907,4.74478 -7.96535,7.75589 -13.79909,10.03707c-4.15095,1.64245 -8.41412,2.73738 -12.90159,3.46731c-2.91687,0.45624 -5.83375,0.82121 -8.75073,0.82121c-3.47783,0 -6.95565,0.09126 -10.43352,-0.45624c-1.00967,-0.18244 -2.13162,-0.27372 -3.14122,-0.63873c-2.46817,-0.72991 -5.04847,-1.55117 -7.5166,-2.37242c-3.14124,-1.0037 -5.60942,-2.82857 -7.62873,-5.01848c-3.36564,-3.64984 -6.05817,-7.57336 -7.4044,-12.04443c-0.78536,-2.37242 -1.45842,-4.83606 -1.90718,-7.20848c-0.89748,-4.28859 -1.34623,-8.66834 -1.90718,-13.04812c-0.56095,-5.29224 -1.34622,-10.58454 -3.25343,-15.69428c-0.78536,-2.28117 -1.79503,-4.56223 -3.36564,-6.66097c-0.22438,-0.36498 -0.67309,-0.63872 -0.67309,-1.18619c1.57065,-0.54751 3.81439,-0.27372 4.71187,-2.09868c-0.78536,-0.54747 -1.57065,-0.45618 -2.35592,-0.36498c-2.0194,0.18244 -4.15096,0.18243 -6.17039,0.09125c-4.03876,-0.27372 -7.51659,-1.36867 -9.98476,-4.10611c0.33656,-0.27372 0.67308,0 0.89748,0.09126c2.2438,1.09493 4.71186,1.27746 7.18001,1.7337c0.89748,0.18244 1.79503,0.09125 2.69254,0.09125c1.68284,-0.18244 3.36562,-0.36498 5.04846,-0.54751c4.03876,-0.54747 7.85316,-1.64245 11.44317,-3.01111c2.91687,-1.09493 5.83379,-2.18991 8.75073,-3.37605c6.73121,-2.73737 12.56506,-6.38721 17.6135,-10.94946c2.13159,-1.9162 4.26316,-3.92356 6.17037,-6.11344c1.79503,-2.09863 2.91687,-4.28854 3.47783,-6.7522c0.11215,-0.36498 0,-0.72994 0.56095,-0.91243c0.56095,0 0.33659,0.36498 0.44878,0.63873c0.56095,3.28487 -0.89748,6.11344 -2.91688,8.94211c-0.56095,0.72994 -1.23403,1.45996 -1.79503,2.18991c-0.22438,0.27372 -0.44878,0.63872 -0.67314,0.91243c-0.11215,0.36498 0,0.72991 0.33656,1.0037c0.33656,0.18244 0.67314,0.09125 1.00967,-0.09126c0.67314,-0.36498 1.23403,-0.82121 1.68284,-1.36867c0.22438,-0.27372 0.33656,-0.45618 0.78536,-1.0037c0.67314,1.55117 0.89748,2.73737 0.89748,4.01482c0,4.10611 0,8.21208 0.11219,12.22691c0.11215,5.10975 -0.67314,10.21953 -1.00967,15.23803c-0.22438,4.74478 -0.56095,9.48954 -0.67314,14.23437c-0.11215,2.09863 -0.11215,4.19731 0.56095,6.29596c0.22438,0.82124 0.67308,1.55117 1.34622,2.09863c1.68284,1.27744 4.03876,1.45996 5.946,0.2737c1.12189,-0.63873 2.0194,-1.7337 2.91687,-3.28487c0.22438,0 0.56095,-0.09126 0.78536,-0.09126c1.90718,0.45618 3.36562,-0.18254 4.48753,-1.36867c2.80469,-2.73737 3.70221,-5.74849 2.0194,-9.21585c-0.33656,-0.72994 -0.78536,-1.36867 -1.34622,-1.82498c-1.12189,-1.0037 -2.46817,-1.45996 -4.15096,-1.18619c0,-1.64245 -0.11219,-3.10233 0.56095,-4.65351c0.56095,-0.09126 1.00967,-0.27372 1.57065,-0.27372c1.34622,0 2.13162,-0.63873 2.91688,-1.36867c3.59002,-3.19362 2.58035,-8.75959 -1.1219,-10.9495c-1.00967,-0.54747 -2.2438,-0.54751 -3.25343,-1.09493c-0.11215,-1.7337 -0.22438,-3.55859 0,-5.3835c3.59002,0 5.38499,-1.27746 6.05819,-4.01482c1.00967,-3.74107 -1.90719,-6.75219 -5.38506,-7.57345c-0.44878,-0.09126 -1.12189,0 -1.4584,-0.36496c-0.33656,-0.36498 -0.22438,-0.82124 -0.22438,-1.27746c-0.11215,-1.7337 -0.33659,-3.46731 -0.44878,-5.20101c4.48753,-1.55117 6.05819,-3.37605 5.8338,-6.75219c-0.11215,-2.73737 -2.35592,-4.74477 -6.61911,-5.93102c-0.44878,-1.64245 -0.44878,-3.37605 -0.56095,-5.10975c0.22438,-0.09126 0.44878,-0.27372 0.67308,-0.36498c2.91687,-0.27372 4.15096,-1.9162 4.82416,-3.92356c0.44878,-1.36867 0.44878,-2.64615 -0.33656,-4.01482c-0.89748,-1.64245 -2.35592,-2.55488 -4.37535,-3.01112c-0.67314,-0.18244 -1.4584,-0.18243 -2.13159,-0.63872c-0.56095,-1.64245 -0.67308,-3.46733 -0.67308,-5.20103c0.33656,-0.63873 1.00967,-0.63872 1.57065,-1.0037c1.34622,-0.82121 2.13159,-1.9162 2.35592,-3.28487c0.11215,-0.54751 0.11219,-1.18619 0.11219,-1.7337c0.22438,-3.10233 -1.4584,-5.10976 -5.38505,-5.93102c-0.44878,-1.9162 -0.78538,-3.83234 -0.78538,-5.8397c2.69254,-1.9162 3.81439,-4.37985 3.36564,-7.20848c-0.33656,-2.28117 -2.58035,-3.3761 -4.71195,-4.56233c-0.33656,-1.64244 -0.33656,-3.37605 -0.33656,-5.20101c2.91687,-1.09493 3.92657,-3.10232 3.81438,-5.47472c-0.11215,-2.55486 -2.13159,-4.01482 -4.82415,-5.01848c-0.22438,-1.55117 -0.11215,-3.01112 0.11219,-4.47107c3.02907,-0.45618 5.16067,-1.64245 5.49724,-4.28859c0.44878,-2.82857 -0.44876,-4.47107 -3.47783,-6.20473c0.22438,-1.64244 0.78527,-3.19362 1.4584,-4.74478c1.68284,-3.28487 3.47783,-6.5697 6.73121,-9.03336c0.78536,-0.63873 1.57065,-1.18619 2.46817,-1.64244c1.57065,-0.91243 3.36564,-1.27746 5.27287,-1.36867c5.38505,-0.18243 9.98476,1.45996 14.24787,3.83234c1.12189,0.63873 2.13162,1.27746 3.14126,2.00736c2.80469,2.00736 5.83379,3.55858 9.64819,4.10611c0.44878,1.18619 1.00967,2.37242 0.44878,3.64984c-1.23403,0.18243 -2.35593,-0.45624 -3.47783,-0.45624c-0.33656,0 -0.67308,0 -0.89748,0.36498c-0.22438,0.36498 0,0.54751 0.33656,0.72991c-0.11215,0.45624 -0.67314,0.2737 -1.00967,0.45624zM195.70405,182.24562c1.68284,-0.09126 3.25344,-0.54751 4.71186,-1.09498c5.16067,-1.7337 9.64819,-4.28858 14.13562,-7.02593c1.23403,-0.72991 2.35593,-1.55117 3.14126,-2.64615c0.11215,-0.18244 0.11215,-0.45618 0,-0.54751c-0.22438,-0.09126 -0.44878,-0.18244 -0.67314,-0.18244c-0.67314,0 -1.1219,0.45626 -1.57065,0.72995c-2.0194,1.18619 -4.03876,2.4636 -6.05819,3.55858c-4.15095,2.37242 -8.5263,4.56233 -13.46258,5.65727c-0.33656,0.09126 -0.67314,0.18244 -1.00967,0.2737c-0.33656,0.18244 -0.33656,0.72991 0,0.91244c0.22438,0.18244 0.56094,0.2737 0.78536,0.36496zM233.62364,221.93748c-0.11215,0.63873 0.11219,0.91244 0.67314,1.0037c3.70221,0.45624 8.18973,-2.73737 8.18973,-5.74849c0,-0.54751 -0.44878,-0.91243 -1.23403,-1.0037c-0.11215,0.09126 -0.22438,0.09126 -0.22438,0.09126c-0.56095,0.36498 -0.44878,0.91243 -0.67314,1.36867c-0.78536,1.45996 -1.79503,2.64615 -3.81438,3.19362c-1.00967,0.27372 -1.90719,0.72991 -2.91688,1.09493zM226.78018,241.82912c-0.44878,0.36498 -0.44876,0.7299 -0.33656,1.09497c1.23403,2.37242 2.80469,4.56233 5.27286,6.20473c0.22438,0.18244 0.56095,0.27372 0.89748,0.36498c0.44878,0.09126 0.89748,-0.09126 1.12189,-0.36498c0.33656,-0.36498 0.22438,-0.72991 -0.11219,-1.0037c-2.35592,-1.36867 -3.70222,-3.28487 -5.16067,-5.20101c-0.33656,-0.45624 -0.67308,-1.0037 -1.68284,-1.09498zM222.29264,242.1941c-0.22438,0.09126 -0.44878,0.18254 -0.56095,0.36498c-0.44878,0.45624 -0.33662,0.91243 -0.11219,1.45996c1.00967,2.09863 2.69254,3.92357 4.37535,5.74849c0.44878,0.45624 1.12184,0.45621 1.68284,0.27372c0.44878,-0.27372 0.56095,-0.82116 0,-1.36867c-0.11215,-0.18244 -0.33659,-0.36498 -0.44878,-0.54751c-1.57065,-1.45996 -2.91687,-3.19362 -3.92657,-4.92732c-0.11215,-0.27372 -0.33659,-0.54747 -0.56095,-0.72991c0,-0.18244 -0.22438,-0.18244 -0.44878,-0.2737zM205.24006,240.36924c0,0.18244 0,0.36498 0,0.45624c0.56095,2.09863 1.4584,4.1973 2.58035,6.11344c0.22438,0.45624 0.67314,0.82124 1.23403,1.09498c0.22438,0.09126 0.56095,0.09126 0.78536,0c0.22438,-0.09126 0.33659,-0.36498 0.44878,-0.54751c0,-0.18244 0,-0.45618 -0.11219,-0.63872c-1.34622,-2.09863 -2.24373,-4.28859 -3.14121,-6.4785c-0.11215,-0.27372 -0.33659,-0.54751 -0.56095,-0.72994c-0.22438,-0.27372 -0.89745,-0.18244 -1.12189,0.09125c0.11215,0.27372 0,0.45624 -0.11215,0.63873zM215.11258,249.12878c0.89748,-0.54747 0.67314,-1.18619 0.22438,-1.82496c-1.23403,-1.9162 -2.35592,-3.92356 -3.36562,-5.93102c-0.11215,-0.27372 -0.44878,-0.45624 -0.78536,-0.45624c-0.89748,0.45624 -0.89748,1.18619 -0.56095,1.9162c0.78536,1.64245 1.57065,3.28489 2.69254,4.74478c0.44878,0.63873 0.78527,1.18619 1.79503,1.55117zM216.57108,242.74161c-0.56095,0.45624 -0.44878,1.09498 -0.22438,1.64245c0.89748,1.82496 1.79504,3.64984 3.36564,5.10976c0.11215,0.18244 0.33656,0.27372 0.56095,0.45624c0.33656,0.18244 0.67314,0.18244 1.00967,0c0.44878,-0.18244 0.56094,-0.63873 0.33661,-1.00371c-0.11215,-0.27372 -0.33661,-0.54747 -0.56094,-0.7299c-1.00967,-1.09498 -1.79499,-2.37245 -2.46817,-3.55859c-0.33656,-0.54751 -0.56095,-1.09498 -0.89748,-1.55117c-0.22438,-0.36498 -0.67314,-0.45618 -1.12189,-0.36496zM203.55726,245.02275c0.89748,-0.45624 0.67314,-1.0037 0.44878,-1.55117c-1.00967,-1.9162 -1.79503,-3.83234 -2.2438,-5.83975c-0.11215,-0.36498 -0.44878,-0.45618 -0.78536,-0.45618c-0.78536,0.54747 -0.89749,1.27744 -0.67309,2.00736c0.44878,1.64245 1.00968,3.28487 1.90719,4.74478c0.22438,0.45624 0.44876,0.91244 1.34622,1.09498zM238.89649,247.48635c0,-0.36498 -0.22438,-0.54751 -0.56095,-0.7299c-1.90718,-0.82124 -2.91687,-2.28117 -4.26319,-3.55859c-0.33656,-0.27372 -0.56095,-0.54747 -0.89748,-0.82121c-0.11215,-0.09126 -0.33656,-0.18243 -0.44878,-0.09125c-0.22438,0.09126 -0.44878,0.27372 -0.44878,0.45624c0,0.27372 0,0.54747 0.22438,0.82116c1.00967,1.64245 2.35593,3.10238 4.15096,4.19731c0.44878,0.27372 0.89748,0.45618 1.45842,0.45618c0.44878,0.09126 0.89748,-0.36498 0.78527,-0.72995zM248.88121,245.93517c0.56095,-0.45618 0.56095,-0.91243 0.11215,-1.36867c-1.23403,-1.18619 -2.69254,-2.28107 -4.26316,-3.28482c-0.33656,-0.18244 -0.67314,-0.18244 -1.00967,0c-0.33656,0.27372 -0.44878,0.63873 -0.22438,1.00371c0,0.09126 0.11215,0.18243 0.11215,0.18243c1.23403,1.09498 2.46817,2.28117 4.03877,3.10238c0.33656,0.27372 0.67314,0.45626 1.23403,0.36498zM237.43802,242.55908c1.00967,1.36867 3.81439,3.83234 4.93625,4.28859c0.44878,0.18244 0.89748,0.18243 1.23403,-0.09126c0.33656,-0.27372 0.44878,-0.72991 0.11219,-1.0037c-1.57065,-1.36867 -3.14124,-2.55486 -5.04847,-3.55858c-0.44878,-0.18244 -0.89748,-0.09126 -1.23403,0.36498zM248.65682,240.46045c0.33656,1.36867 1.68284,2.28117 3.02906,3.01111c0.22438,0.18244 0.67314,0.09126 1.00967,-0.18243c0.22438,-0.27372 0.22438,-0.54751 0,-0.82124c-0.78536,-0.91243 -1.68284,-1.7337 -2.80469,-2.28117c-0.33656,-0.27372 -0.78536,-0.18243 -1.23403,0.27372zM198.06008,240.82543c0.11215,-1.64245 -0.33656,-3.01111 -1.34622,-4.1973c0,-0.09126 -0.33656,0 -0.56095,0c-0.67314,0.72991 -0.44878,1.55117 -0.11215,2.28117c0.33656,0.72991 0.56095,1.55117 2.01942,1.9162zM252.4712,239.00049c0.56095,1.18619 1.79503,1.64245 2.91687,2.18991c0.33656,0.18244 0.89748,-0.09126 0.89748,-0.45624c0,-0.09126 0,-0.18244 0,-0.18244c0,-0.82124 -0.78527,-1.18619 -1.4584,-1.64245c-0.78536,-0.36498 -1.4584,-0.54751 -2.35592,0.09126zM258.86595,237.90558c0,-0.82124 -0.67308,-1.27746 -1.34622,-1.64245c-0.44878,-0.18244 -0.78536,-0.2737 -1.23403,0.09126c-0.33656,0.27372 -0.33656,0.63872 -0.11215,1.0037c0.33656,0.54747 0.89748,0.82124 1.57065,1.09498c0.56095,0.18244 1.12189,-0.18244 1.12189,-0.54747zM219.48796,169.19745c0,0.36498 0.56095,0.54751 1.00967,0.45624c0.67314,-0.18244 1.1219,-0.45624 1.45842,-0.91243c0.22438,-0.27372 0.33656,-0.54747 0,-0.82124c-0.22438,-0.27372 -0.56095,-0.36496 -1.00967,-0.2737c-0.89748,0.18244 -1.57065,0.82124 -1.45842,1.55117zM190.54342,182.15441c-0.78536,0.09126 -1.57065,0.2737 -2.0194,1.0037c-0.11215,0.09126 0.11215,0.45618 0.33659,0.54747c0.89748,0.45624 1.68284,0 2.35592,-0.36498c0.33656,-0.18244 0.44878,-0.45624 0.22438,-0.72991c-0.11215,-0.27372 -0.33659,-0.36496 -0.89748,-0.45618z" fill="#ffc941" fill-rule="nonzero" stroke="none" stroke-width="1"/><path d="M224.58788,155.9074c-0.11215,0.54751 -0.33656,0.91243 -0.89748,1.18619c-0.78536,-0.36498 -1.68284,-1.0037 -2.80469,-0.82121c-0.33656,0 -0.67314,0.09126 -1.00967,0.18244c-0.22438,0.09126 -0.44878,0.2737 -0.44878,0.45618c-0.11215,0.27372 0.11216,0.54751 0.56095,0.63873c0.56095,0.09126 1.23403,0.18244 1.79503,0.36498c0.33656,0.09126 0.67314,0.18244 0.78536,0.54747c-0.11215,0.63873 -0.78536,0.91244 -1.23403,1.36867c-2.13159,1.9162 -4.26316,3.74107 -6.39476,5.56599c-0.89748,0.82124 -1.90718,1.45996 -3.02907,2.18991c-1.57065,1.09493 -3.25343,2.09868 -4.82415,3.19362c-1.68284,1.09498 -3.36564,2.09868 -5.38499,2.91986c-3.92657,1.64245 -7.85316,3.19362 -11.77978,4.74478c-2.13159,0.82124 -4.48755,1.55117 -6.95565,1.55117c-1.12189,0 -2.13162,0.82121 -3.36564,0.45624c-0.44878,-1.27744 0.11219,-2.64615 0.22438,-4.10611c-2.35592,0.91243 -2.46817,1.27744 -2.0194,4.10611c-0.44878,0.54747 -1.12189,0.2737 -1.79503,0.18244c-0.56095,-1.18619 -0.33656,-2.37242 0,-3.55858c0.22438,-0.63873 0.44878,-1.27746 0.67314,-1.82493c0.11215,-0.36498 0.22438,-0.72991 -0.33656,-0.91243c-0.44878,-0.18244 -0.78536,0.09126 -1.12189,0.45618c-1.34622,1.45996 -1.68284,3.19362 -1.57065,4.92732c0,0.27372 0.11219,0.54747 0.22438,0.82116c-0.56095,0.45624 -1.00967,0.2737 -1.57065,0.18254c-1.00967,-1.18619 -1.00967,-2.55486 -0.67314,-4.01482c0.33656,-1.36867 0.78536,-2.64614 1.57065,-3.92356c0.33656,-0.54751 0.78536,-1.0037 0.56095,-1.55117c-0.33656,-0.36498 -0.67314,-0.27372 -1.00967,-0.18244c-0.78536,0.27372 -1.23403,0.82121 -1.57065,1.36867c-1.34622,2.37242 -2.35593,4.74478 -1.57065,7.39092c0,0.09126 -0.11214,0.2737 -0.22438,0.36498c-1.00967,0 -1.45842,-0.36498 -1.57065,-1.09498c-0.67314,-2.73737 -0.33656,-5.3835 1.23403,-7.84712c0.67314,-1.0037 1.23414,-1.9162 1.90718,-2.91986c0.11215,-0.27372 0.33656,-0.54747 0.33656,-0.82116c0,-0.18244 -0.22438,-0.36498 -0.33656,-0.54751c-0.11215,-0.09126 -0.33659,-0.09126 -0.44878,0c-0.89748,0.36498 -1.57065,1.0037 -2.0194,1.64245c-2.2438,2.55486 -3.47783,5.3835 -3.02906,8.66834c0,0.27372 0,0.54747 0,0.91243c-1.4584,-0.54747 -1.79499,-0.82124 -2.01942,-2.09868c-0.33656,-1.7337 -0.11219,-3.46731 0.89748,-5.10975c1.12189,-2.00742 2.58035,-3.83234 4.15095,-5.56599c1.57065,-1.82491 3.36568,-3.55858 5.27286,-5.29223c2.91687,-2.64615 6.39476,-4.836 10.09692,-6.84339c3.92658,-2.00742 7.85315,-4.10611 12.11632,-5.56599c6.50694,-2.18991 13.12596,-3.92356 20.306,-3.55858c1.79503,0.09126 3.59002,0.36498 5.27286,0.63873c1.4584,0.27372 2.91688,0.82121 3.81439,1.82496c0.22438,0.18244 0.44878,0.45618 0.22438,0.82116c-0.67314,0.18244 -1.34622,-0.18244 -1.90718,-0.36498c-2.58035,-0.63873 -5.2728,-0.82124 -7.96535,-0.54751c-0.89748,0.09126 -1.79503,0.18244 -2.35592,0.82116c-0.22438,0.27372 -0.44878,0.45624 -0.33656,0.82121c0.44878,0.54747 1.12189,0.2737 1.68284,0.18244c3.59002,-0.63873 6.95565,-0.09126 10.20914,1.0037c0.33656,0.09126 0.67308,0.18244 0.89748,0.36498c0.44878,0.36498 0.11215,0.63872 -0.22438,1.0037c-1.4584,-0.18244 -2.91687,-0.45624 -4.37533,-0.63872c-1.68284,-0.27372 -3.36564,-0.18244 -5.04847,0.09125c-0.44878,0.09126 -0.78536,0.27372 -0.89748,0.72991c0.22438,0.63873 0.89748,0.63873 1.4584,0.63873c1.90718,0 3.70222,0.18244 5.60942,0.36498c1.23403,0.18244 2.46817,0.45618 3.36564,0.91244c0.56095,0.36498 0.22438,0.63872 0.11215,0.91243c0,0.18244 -0.11219,0.36498 -0.22438,0.63873c-0.22438,0 -0.33656,0 -0.56095,0c-1.68284,-0.63873 -3.47783,-1.09498 -5.49724,-1.0037c-0.56095,0 -1.1219,0.09125 -1.45842,0.36496c-0.33656,0.18244 -0.44878,0.45626 -0.44878,0.72995c0.11215,0.27372 0.33656,0.45618 0.78527,0.54746c0.44878,0 0.89748,0.09126 1.34623,0c1.68284,-0.18244 3.25344,0.27372 4.82406,0.91244zM175.89832,162.56841c0.89748,0.45624 1.68284,0.18243 2.35592,-0.36498c2.2438,-1.82496 4.71186,-3.37609 7.18001,-4.92732c3.92657,-2.4636 7.96538,-4.65356 12.56507,-6.29596c1.90718,-0.63873 3.81438,-1.18619 5.7216,-1.82491c0.67314,-0.18244 1.34622,-0.36496 1.57065,-1.0037c-0.22438,-0.45624 -0.67314,-0.63873 -1.23403,-0.72991c-0.78536,-0.09126 -1.57065,0.09125 -2.35592,0.2737c-4.26319,1.09498 -8.07753,2.64615 -11.77978,4.56233c-3.36564,1.7337 -6.50694,3.83234 -9.64814,5.8397c-1.34622,0.82124 -2.46817,1.9162 -3.70221,2.82859c-0.56095,0.54751 -1.12189,1.0037 -0.67314,1.64245z" fill="#ffc941" fill-rule="nonzero" stroke="none" stroke-width="1"/><path d="M243.43552,188.39087c-0.22438,1.45996 -0.44878,2.73737 -1.23403,3.92357c-0.33656,0.54747 -0.89748,0.72991 -1.57065,0.63873c-1.68284,-0.18244 -3.14121,-1.18619 -3.47781,-2.64615c-0.22438,-1.27744 -0.22439,-2.64615 0.22438,-3.92357c0.11215,-0.36498 0.33656,-0.72991 0.56095,-1.0037c1.23403,-1.64245 3.25344,-1.64244 4.37535,0.09126c0.67314,0.91243 1.12184,1.9162 1.12184,2.91986z" fill="#fcc741" fill-rule="nonzero" stroke="none" stroke-width="1"/><path d="M284.83288,64.66157c-1.23403,0 -2.35593,0.36498 -3.59002,-0.09126c1.4584,-3.19361 1.79503,-6.38721 0.78527,-9.67204c0.22438,-0.2737 0.56095,-0.36498 0.89748,-0.36498c2.69254,-0.09125 3.02906,0.18243 3.36562,2.4636c0.22438,2.55486 0.11219,5.10976 -1.45842,7.66463z" fill="#fac540" fill-rule="nonzero" stroke="none" stroke-width="1"/><path d="M242.98675,170.87171c0.11215,0.82124 -0.22438,1.55117 -0.67314,2.28117c-0.89748,1.09498 -2.69254,1.36867 -3.92657,0.63873c-2.13159,-1.27744 -2.46817,-4.47107 -0.67314,-6.02219c1.12189,-1.0037 2.80469,-1.09498 3.92657,0c1.00967,0.82124 1.4584,1.82493 1.34622,3.10238z" fill="#fac640" fill-rule="nonzero" stroke="none" stroke-width="1"/><path d="M235.47018,151.25388c0,-0.91243 0.33659,-1.7337 1.00967,-2.55486c0.33656,-0.45624 0.78527,-0.72995 1.4584,-1.0037c0.89748,-0.36498 1.79503,-0.18244 2.2438,0.54751c0.89748,1.27744 1.12189,2.73737 1.12189,4.19731c0,0.54751 -0.22438,1.18619 -0.33656,1.73371c-0.33656,1.0037 -1.34622,1.36866 -2.46817,1.09497c-1.79503,-0.54747 -2.80473,-1.45996 -2.91687,-3.01111c-0.22438,-0.27372 -0.11215,-0.54747 -0.11215,-1.0037z" fill="#fcc741" fill-rule="nonzero" stroke="none" stroke-width="1"/><path d="M238.49923,137.4758c-1.79503,0.36498 -2.80469,-0.36498 -3.59002,-1.27746c-1.00967,-1.0037 -1.00967,-2.09868 -0.78536,-3.28487c0.11215,-0.45618 0.44878,-0.91243 0.78536,-1.36867c0.44878,-0.72991 1.23403,-1.09493 2.13159,-1.00371c1.12189,0 2.2438,0.82121 2.46817,1.64245c0.11215,0.45624 0.22438,0.91244 0.22438,1.27746c-0.33656,1.27744 -0.44878,2.73737 -1.23404,4.01482z" fill="#f8c440" fill-rule="nonzero" stroke="none" stroke-width="1"/><path d="M230.98259,95.4114c2.0194,0.2737 2.91688,1.27744 3.02907,2.82857c0,0.54747 0.11214,1.0037 0.11214,1.55117c0,0.36498 -0.11214,0.7299 -0.22438,1.09497c-0.33656,1.0037 -1.68284,2.09863 -2.58035,1.91621c-1.12189,-0.18243 -1.90718,-1.0037 -2.0194,-1.82493c-0.33656,-2.00742 -0.89748,-4.10609 1.68284,-5.56599z" fill="#f9c540" fill-rule="nonzero" stroke="none" stroke-width="1"/><path d="M234.68485,113.02187c1.90718,1.82493 2.0194,3.92356 1.79503,6.02219c0,0.18243 -0.11219,0.45624 -0.22438,0.63873c-0.44878,1.0037 -1.4584,1.18619 -2.58035,0.54751c-0.89748,-0.54751 -1.34622,-1.36867 -1.68284,-2.18991c-0.44878,-1.09498 -0.44878,-2.1899 0,-3.19361c0.44878,-0.91243 1.23403,-1.64244 2.69254,-1.82493z" fill="#f7c340" fill-rule="nonzero" stroke="none" stroke-width="1"/><path d="M230.87045,79.99089c1.57065,1.27746 1.90718,2.82859 1.34622,4.56224c-0.22438,0.54751 -0.44878,1.18619 -1.34622,1.18619c-0.89748,0.09125 -1.90718,0 -2.35592,-0.63873c-0.78536,-1.0037 -1.12189,-2.09863 -0.56095,-3.28482c0.44878,-1.09498 1.34622,-1.82496 2.91687,-1.82496z" fill="#f9c540" fill-rule="nonzero" stroke="none" stroke-width="1"/><path d="M232.66543,67.58143c0,1.0037 -0.33656,1.82493 -1.00967,2.55488c-0.67314,0.72995 -1.79503,0.82124 -2.46817,0.09126c-0.33656,-0.36498 -0.56095,-0.72991 -0.78536,-1.18619c-0.44878,-1.55117 0,-2.91986 1.23403,-4.01482c0.78536,-0.72991 1.79503,-0.54752 2.35592,0.36496c0.44878,0.72991 0.78538,1.45996 0.67314,2.18991z" fill="#f6c340" fill-rule="nonzero" stroke="none" stroke-width="1"/><path d="M278.77475,54.71579c1.90718,2.28117 2.0194,5.56597 0.44878,8.48589c-0.33656,0.72991 -0.56094,1.73371 -2.0194,1.73371c-0.11215,-1.27746 1.12189,-2.09868 1.34622,-3.19362c0.22438,-1.18619 0.67314,-2.37245 0.56095,-3.64984c-0.11215,-1.09498 -0.22438,-2.18991 -0.33656,-3.3761z" fill="#e6b73f" fill-rule="nonzero" stroke="none" stroke-width="1"/><path d="M271.48247,60.37305c0.33656,-0.18243 0.89748,0 1.12189,-0.45626c1.23403,0.2737 2.35593,0.82121 3.59002,0.91244c0.11215,0.54747 -0.22438,0.82116 -0.56095,0.7299c-1.34622,-0.36498 -2.91687,-0.54746 -4.15096,-1.18619z" fill="#a98836" fill-rule="nonzero" stroke="none" stroke-width="1"/><path d="M195.53127,182.09497c-0.22438,-0.09126 -0.56095,-0.18243 -0.89748,-0.2737c-0.33656,-0.18244 -0.44878,-0.72991 0,-0.91244c0.33656,-0.09126 0.67314,-0.2737 1.00967,-0.2737c4.93625,-1.09498 9.31159,-3.28487 13.46259,-5.65726c2.0194,-1.18619 4.03876,-2.37242 6.05819,-3.55858c0.44878,-0.27372 1.00967,-0.72991 1.57065,-0.72991c0.22438,0 0.56095,0.09126 0.67314,0.18244c0.22438,0.18244 0.22438,0.36498 0,0.54751c-0.78536,1.09498 -1.90718,1.91621 -3.14124,2.64615c-4.37535,2.73737 -8.97502,5.29224 -14.13563,7.02594c-1.34622,0.45624 -2.80469,0.91243 -4.59972,1.0037z" fill="#060503" fill-rule="nonzero" stroke="none" stroke-width="1"/><path d="M219.31509,169.04678c-0.11215,-0.72994 0.56095,-1.27744 1.57065,-1.45996c0.33656,-0.09126 0.78527,0 1.00967,0.27372c0.22438,0.27372 0.11215,0.54747 0,0.82116c-0.33656,0.45624 -0.78527,0.72991 -1.4584,0.91243c-0.56095,0 -1.00967,-0.27372 -1.12189,-0.54751z" fill="#201b0f" fill-rule="nonzero" stroke="none" stroke-width="1"/><path d="M190.37055,182.0037c0.44878,0 0.78536,0.09126 0.89748,0.45626c0.11215,0.27372 0,0.63872 -0.22438,0.7299c-0.78536,0.36498 -1.45842,0.82124 -2.35593,0.36498c-0.22438,-0.09126 -0.33656,-0.36498 -0.33656,-0.54751c0.44878,-0.63873 1.23404,-0.82121 2.01942,-1.0037z" fill="#3d3219" fill-rule="nonzero" stroke="none" stroke-width="1"/><path d="M175.89832,162.56841c-0.44878,-0.63873 0.11215,-1.09493 0.56095,-1.55117c1.23403,-1.0037 2.35598,-2.00736 3.70221,-2.82859c3.14124,-2.00742 6.28257,-4.10611 9.64822,-5.83975c3.70221,-1.9162 7.62873,-3.46731 11.77978,-4.56223c0.78536,-0.18244 1.57065,-0.36498 2.35592,-0.27372c0.56095,0 1.00967,0.27372 1.23403,0.72995c-0.22438,0.72994 -0.89748,0.82121 -1.57065,1.0037c-1.90718,0.63873 -3.81438,1.18619 -5.72156,1.82496c-4.48753,1.64245 -8.63849,3.74107 -12.56506,6.29596c-2.46817,1.55117 -4.93625,3.10233 -7.18001,4.92731c-0.56095,0.45624 -1.34622,0.72991 -2.2438,0.27372z" fill="#fefefa" fill-rule="nonzero" stroke="none" stroke-width="1"/><g><path d="M258.66934,301.97334l-28.56249,-24.15438" fill="none" fill-rule="evenodd" stroke="#ffdb5d" stroke-width="1.26"/><path d="M242.5747,301.92262c3.79381,0 3.79381,-3.67702 7.58777,-3.67702c3.79218,0 3.79218,3.67702 7.58431,3.67702c3.79396,0 3.79396,-3.67702 7.58957,-3.67702c3.79396,0 3.79396,3.67702 7.58971,3.67702" fill="none" fill-rule="evenodd" stroke="#ffdb5d" stroke-width="1.26"/><path d="M214.84684,264.84422c-2.74312,-5.87763 -0.19855,-12.86604 5.68295,-15.60901c5.88158,-2.74108 12.87536,-0.19766 15.61856,5.67997c0.74497,1.59718 1.08764,3.27307 1.09116,4.92607l0.00873,-0.00173l0.28823,21.28557c0.0246,1.79657 -2.0841,2.78144 -3.44606,1.6112l-16.17378,-13.89483c-1.26165,-1.06356 -2.32652,-2.40179 -3.06985,-3.99718" fill="#751d18" fill-rule="nonzero" stroke="none" stroke-width="1"/></g><path d="M171.40409,228.57253c0,-11.29871 9.16409,-20.45983 20.47024,-20.45983l4.82009,-0.00173c0.06856,-0.00351 0.14416,-0.01561 0.20916,-0.01561h73.83092c0,0 0.01418,12.29752 0.01418,13.92786c0,5.40022 -2.28453,14.68189 -9.66678,20.96019c-16.45317,13.99081 -35.92337,32.1084 -35.92337,32.1084z" fill="#17242d" fill-rule="nonzero" stroke="none" stroke-width="1"/><g><path d="M188.52491,301.92604c3.79396,0 3.79396,-3.67701 7.58619,-3.67701c3.79381,0 3.79387,3.67701 7.58606,3.67701c3.79381,0 3.79386,-3.67701 7.58956,-3.67701c3.79396,0 3.79396,3.67701 7.58777,3.67701" fill="none" fill-rule="evenodd" stroke="#ffdb5d" stroke-width="1.26"/><path d="M203.90448,301.80329v-28.15652" fill="none" fill-rule="evenodd" stroke="#ffdb5d" stroke-width="1.26"/><path d="M192.15189,256.01913c0,-6.48642 5.26304,-11.74663 11.75248,-11.74663c6.48958,0 11.75075,5.26027 11.75075,11.74663c0,1.76147 -0.39706,3.42512 -1.09296,4.92607l0.00873,0.00173l-8.74239,19.41017c-0.73625,1.63907 -3.06461,1.64084 -3.80433,0.00351l-8.78102,-19.42418c-0.69239,-1.49742 -1.09137,-3.15924 -1.09137,-4.91736" fill="#751d18" fill-rule="nonzero" stroke="none" stroke-width="1"/></g><g><path d="M155.66089,241.61354c7.58779,-26.30587 35.07826,-41.48293 61.39831,-33.89967l1.04381,0.29913l-4.69891,16.29128c-7.75298,26.8814 -35.84445,42.39254 -62.7427,34.64317z" fill="#b85c39" fill-rule="nonzero" stroke="none" stroke-width="1"/><path d="M150.6614,258.94747l0.00704,-0.0246l20.42988,-20.12922l28.49918,8.2112c-12.61003,11.94429 -31.03315,17.09949 -48.93608,11.9425" fill="#ad2c24" fill-rule="nonzero" stroke="none" stroke-width="1"/><path d="M157.60613,259.91657l19.4176,-19.07964" fill="none" fill-rule="evenodd" stroke="#751d18" stroke-width="0.6"/><path d="M164.6474,260.48342l18.26843,-17.9497" fill="none" fill-rule="evenodd" stroke="#751d18" stroke-width="0.6"/><path d="M173.02415,259.73985l15.78372,-15.50753" fill="none" fill-rule="evenodd" stroke="#751d18" stroke-width="0.6"/><path d="M183.64326,256.79232l11.05663,-10.86324" fill="none" fill-rule="evenodd" stroke="#751d18" stroke-width="0.6"/><path d="M193.38728,224.61213c-2.17373,3.69973 -6.64239,5.61695 -10.95648,4.3732c-5.10826,-1.47116 -8.05697,-6.8048 -6.58434,-11.90919c0.67467,-2.34055 2.17023,-4.21238 4.07317,-5.42633c10.99874,-5.88293 24.20804,-7.66192 37.13957,-3.93597l1.04381,0.30082l-4.69891,16.28953c-0.34089,1.18259 -0.73452,2.33525 -1.15269,3.47238l-0.06509,-0.0246c-1.54981,4.98729 -6.80758,7.84392 -11.85088,6.39191c-4.31571,-1.24365 -7.07816,-5.24262 -6.94822,-9.53184" fill="#573a3c" fill-rule="nonzero" stroke="none" stroke-width="1"/></g><path d="M262.49032,28.61847c3.15851,-0.91937 6.40645,-0.11036 8.73793,1.86915l0.59382,0.45569c0.84233,0.6493 2.02249,-0.15691 1.72573,-1.17643l-1.71458,-5.89033c-0.49629,-1.7049 0.48431,-3.49159 2.19183,-3.98865c1.7057,-0.49649 3.49388,0.48426 3.99009,2.18915l1.50779,5.17976c0.29824,1.02452 1.74134,1.05274 2.07795,0.04011l2.31076,-6.94354c0.4668,-1.40203 2.4636,-1.36392 2.87628,0.05364l2.80737,9.64426c0.09519,-0.03139 0.18789,-0.07115 0.28401,-0.0991c5.11912,-1.49014 10.47338,1.44969 11.96209,6.56404c1.4892,5.1159 -1.45134,10.46838 -6.5704,11.95856c-0.17207,0.05001 -0.34524,0.08404 -0.51856,0.1237l-6.3642,1.85258l-0.88541,-3.0419c-0.08736,-0.05468 -0.17872,-0.1046 -0.26478,-0.16152l-12.8457,0.77507l-3.01081,-3.32683c-1.01437,0.90379 -2.23272,1.61005 -3.62472,2.01524c-4.99929,1.45523 -10.23115,-1.41621 -11.68514,-6.41125c-1.4545,-4.99685 1.41936,-10.22599 6.41865,-11.6812" fill="#ce2235" fill-rule="nonzero" stroke="none" stroke-width="1"/><path d="M308.64599,50.09633l-30.43591,8.85955c0.00258,-3.18558 2.09086,-6.14008 5.29502,-7.07275l16.87729,-4.91279c3.20397,-0.93267 6.55186,0.43945 8.26354,3.12598" fill="#ffdb5d" fill-rule="nonzero" stroke="none" stroke-width="1"/><path d="M267.74632,58.43801c-2.11261,-7.25745 2.06142,-14.85456 9.32165,-16.96798c7.26181,-2.1138 14.8611,2.05623 16.97367,9.3137c2.11211,7.25596 -2.0619,14.85303 -9.32367,16.96693c-7.26015,2.11335 -14.85948,-2.05669 -16.97154,-9.31262" fill="#ad2c24" fill-rule="nonzero" stroke="none" stroke-width="1"/><path d="M274.57441,56.45043c-1.01546,-3.48848 0.99121,-7.13884 4.4804,-8.15449c3.49091,-1.01614 7.14156,0.98734 8.15701,4.47588c1.01495,3.48686 -0.98997,7.13681 -4.4809,8.15295c-3.48918,1.01565 -7.14156,-0.98748 -8.15651,-4.47435" fill="#fff4e3" fill-rule="nonzero" stroke="none" stroke-width="1"/><path d="M276.58053,55.86647c-0.69278,-2.37993 0.67734,-4.87213 3.05812,-5.56511c2.38227,-0.69345 4.87437,0.67447 5.56715,3.05439c0.69232,2.37837 -0.67621,4.87016 -3.05856,5.56362c-2.38078,0.69302 -4.87437,-0.67456 -5.56671,-3.05291" fill="#17242d" fill-rule="nonzero" stroke="none" stroke-width="1"/><path d="M282.57158,65.13061l7.33237,-7.71846" fill="none" fill-rule="evenodd" stroke="#751d18" stroke-width="0.6"/></g><path d="M283.33636,65.05423c-1.71803,-5.90207 1.67536,-12.0822 7.58233,-13.80169c5.90689,-1.71941 12.0887,1.67343 13.80673,7.57559c1.71852,5.90376 -1.67709,12.08275 -7.58393,13.80218c-5.90703,1.71949 -12.08672,-1.67223 -13.80521,-7.57598" fill="#ce2235" fill-rule="nonzero" stroke="none" stroke-width="1"/><path d="M321.87986,66.03002l-37.20892,-11.57761c2.16483,-3.26332 6.31059,-4.87415 10.22777,-3.65529l20.63306,6.42c3.917,1.21874 6.41711,4.89746 6.34805,8.81286" fill="#ffdb5d" fill-rule="nonzero" stroke="none" stroke-width="1"/><g fill-rule="nonzero" stroke="none" stroke-width="1"><path d="M239.50835,52.31622l3.2258,-0.45926l3.2258,-0.45924l3.2258,-0.45926l3.2258,-0.45924l3.2258,-0.45924l3.2258,-0.45926l3.2258,-0.45924l3.2258,-0.45926l3.2258,-0.45924l3.2258,-0.45926l3.2258,-0.45924l3.2258,-0.45924l3.2258,-0.45926l3.2258,-0.45924l3.2258,-0.45926l3.2258,-0.45924l3.2258,-0.45926l3.2258,-0.45924l3.2258,-0.45924l3.22581,-0.45924l3.2258,-0.45924l3.2258,-0.45926l3.2258,-0.45924l3.2258,-0.45926l3.2258,-0.45924l3.2258,-0.45924l3.2258,-0.45926l3.2258,-0.45924l0.45924,3.2258l0.45926,3.2258l-3.2258,0.45924l0.45924,3.2258l-3.2258,0.45924l0.45924,3.2258l-3.2258,0.45926l-3.2258,0.45924l-3.2258,0.45924l-3.2258,0.45926l-3.2258,0.45924l-3.2258,0.45926l-3.2258,0.45924l-0.45924,-3.2258l-3.2258,0.45926l-0.45924,-3.2258l-3.2258,0.45924l-3.2258,0.45926l0.45924,3.2258l-3.2258,0.45924l0.45926,3.2258l-3.2258,0.45924l0.45924,3.2258l-3.2258,0.45926l-3.2258,0.45924l-3.2258,0.45924l-3.2258,0.45926l-3.2258,0.45924l-3.2258,0.45926l-0.45926,-3.2258l-3.2258,0.45924l-0.45924,-3.2258l-3.2258,0.45926l-0.45924,-3.2258l-3.2258,0.45924l-0.45924,-3.2258l-3.2258,0.45924l-3.2258,0.45924l-3.2258,0.45926l-3.2258,0.45924l-3.2258,0.45926l-3.2258,0.45924l-0.45924,-3.2258zM237.20103,59.22706l-3.2258,0.45924l-3.2258,0.45926l-0.45926,-3.2258l3.2258,-0.45924l3.2258,-0.45926z" fill="#000000"/><path d="M265.77397,51.86801l0.45926,3.2258l-3.2258,0.45926l-0.45926,-3.2258zM269.45901,54.63456l0.45924,3.2258l-3.2258,0.45924l-0.45924,-3.2258zM268.99977,51.40876l3.2258,-0.45926l0.45924,3.2258l-3.2258,0.45926zM275.9106,53.71606l0.45926,3.2258l-3.2258,0.45924l-0.45926,-3.2258zM279.59565,56.48261l0.45924,3.2258l-3.2258,0.45926l-0.45924,-3.2258zM273.60331,60.6269l-3.2258,0.45924l-0.45924,-3.2258l3.2258,-0.45926z" fill="#ffffff"/><path d="M301.25773,46.81627l3.2258,-0.45926l0.45924,3.2258l3.2258,-0.45924l-0.45924,-3.2258l3.2258,-0.45926l0.45924,3.2258l3.2258,-0.45924l0.45924,3.2258l-3.2258,0.45924l-0.45926,-3.2258l-3.2258,0.45926l0.45926,3.2258l-3.2258,0.45926l-0.45926,-3.2258l-3.2258,0.45924z" fill="#ffffff"/></g></g><text transform="translate(93.65262,333.89784) scale(1.42707,1.42707)" font-size="40" xml:space="preserve" fill="#000000" fill-rule="nonzero" stroke="none" stroke-width="1" stroke-linecap="butt" stroke-linejoin="miter" stroke-miterlimit="10" stroke-dasharray="" stroke-dashoffset="0" font-family="Sans Serif" font-weight="normal" text-anchor="start" style="mix-blend-mode: normal"><tspan x="0" dy="0">!! victory !!</tspan></text></g></g></svg>