<svg version="1.1" xmlns="http://www.w3.org/2000/svg" xmlns:xlink="http://www.w3.org/1999/xlink" width="60.96481" height="42.35751" viewBox="0,0,60.96481,42.35751"><g transform="translate(-223.99762,-138.13428)"><g data-paper-data="{&quot;isPaintingLayer&quot;:true}" stroke-linejoin="miter" stroke-miterlimit="10" stroke-dasharray="" stroke-dashoffset="0" style="mix-blend-mode: normal"><path d="M240.90148,161.12524c0,-0.36294 0.07258,-0.62909 0.21776,-0.89525c0.14517,-0.31455 0.43552,-0.43552 0.75007,-0.48392c0.19357,-0.0242 0.33874,0.09678 0.43552,0.24195c0.29035,0.6049 0.31455,1.40337 -0.16937,1.95988c-0.19357,0.21776 -0.43552,0.26615 -0.67748,0.12098c-0.41134,-0.21776 -0.6049,-0.53231 -0.55651,-0.94364z" fill="#fcc741" fill-rule="nonzero" stroke="none" stroke-width="1" stroke-linecap="butt"/><path d="M242.64929,163.03567c0.1327,-0.05899 0.25064,-0.1327 0.38335,-0.17694c0.26539,-0.08846 0.39809,-0.28014 0.5013,-0.51605c0.02949,-0.07372 0.02948,-0.16219 0.08846,-0.22117c0.01474,-0.01474 0.01474,-0.01474 0.02949,-0.01474c0.10321,0 0.14745,0.07372 0.16219,0.16219c0,0.5013 -0.58977,1.00262 -1.07634,0.9289c-0.07372,-0.01474 -0.10321,-0.05899 -0.08846,-0.16219z" fill="#fefcf5" fill-rule="nonzero" stroke="none" stroke-width="1" stroke-linecap="butt"/><path d="M241.74988,166.24992c0.1327,0.01474 0.17693,0.10321 0.22117,0.17693c0.19167,0.30963 0.36861,0.63401 0.67824,0.84044c0.05899,0.04423 0.05897,0.10321 0.01474,0.16219c-0.04423,0.04423 -0.08846,0.07372 -0.14744,0.05897c-0.04423,-0.01474 -0.08846,-0.02949 -0.11795,-0.05897c-0.32438,-0.26539 -0.5308,-0.63401 -0.69299,-1.00262c-0.01474,-0.04423 -0.01474,-0.11795 0.04423,-0.17693z" fill="#0e0b07" fill-rule="nonzero" stroke="none" stroke-width="1" stroke-linecap="butt"/><path d="M241.1601,166.30892c0.02949,0.01474 0.05899,0.01474 0.07372,0.02949c0.02949,0.02948 0.05897,0.07372 0.07372,0.11795c0.1327,0.29489 0.29489,0.56029 0.51605,0.7962c0.02949,0.02948 0.04423,0.05899 0.05899,0.08846c0.05899,0.08846 0.05899,0.17693 0,0.22117c-0.07372,0.04423 -0.16219,0.02948 -0.22117,-0.04423c-0.23591,-0.28014 -0.44233,-0.57503 -0.57503,-0.92889c-0.02949,-0.07372 -0.04423,-0.16219 0.01474,-0.23591c0,-0.01474 0.02949,-0.02949 0.05899,-0.04423z" fill="#100e08" fill-rule="nonzero" stroke="none" stroke-width="1" stroke-linecap="butt"/><path d="M238.91898,166.01402c0.01474,-0.02949 0.01474,-0.05897 0.02949,-0.08846c0.01474,-0.05899 0.11795,-0.07372 0.14744,-0.01474c0.02949,0.04423 0.05897,0.07372 0.07372,0.11795c0.11795,0.35386 0.23591,0.70773 0.41284,1.04685c0.01474,0.02948 0.02949,0.07372 0.01474,0.10321c0,0.02949 -0.02949,0.07372 -0.05899,0.08846c-0.02949,0.01474 -0.07372,0.01474 -0.10321,0c-0.07372,-0.02949 -0.1327,-0.10321 -0.16219,-0.17694c-0.14745,-0.30963 -0.28015,-0.64875 -0.33912,-0.98787c0,-0.02949 0,-0.05899 -0.01474,-0.08846z" fill="#0b0a06" fill-rule="nonzero" stroke="none" stroke-width="1" stroke-linecap="butt"/><path d="M240.21647,167.42948c-0.1327,-0.04423 -0.17693,-0.14745 -0.23591,-0.23591c-0.14745,-0.25066 -0.25066,-0.5013 -0.35386,-0.7667c-0.04423,-0.11795 -0.04423,-0.23591 0.07372,-0.30963c0.05899,0 0.08846,0.01474 0.10321,0.07372c0.1327,0.32438 0.26539,0.64875 0.44233,0.95838c0.05899,0.07372 0.10321,0.17694 -0.02948,0.28015z" fill="#141109" fill-rule="nonzero" stroke="none" stroke-width="1" stroke-linecap="butt"/><path d="M240.40814,166.39738c0.07372,-0.01474 0.11795,0 0.14744,0.05899c0.04423,0.07372 0.08846,0.16219 0.11795,0.25066c0.08846,0.20642 0.17693,0.39809 0.32438,0.57503c0.02949,0.02949 0.05899,0.07372 0.07372,0.11795c0.02949,0.05899 0.01474,0.11795 -0.04423,0.16219c-0.04423,0.02948 -0.08846,0.02948 -0.1327,0c-0.02949,-0.01474 -0.05897,-0.04423 -0.07372,-0.07372c-0.20642,-0.25066 -0.33912,-0.5308 -0.44233,-0.82568c-0.04423,-0.08846 -0.04423,-0.19167 0.02949,-0.26539z" fill="#100d08" fill-rule="nonzero" stroke="none" stroke-width="1" stroke-linecap="butt"/><path d="M238.69779,166.76598c-0.11795,-0.02949 -0.14744,-0.10321 -0.19167,-0.17694c-0.11795,-0.23591 -0.19167,-0.5013 -0.25066,-0.7667c-0.02949,-0.11795 -0.01474,-0.23591 0.08846,-0.32438c0.04423,0 0.10321,0.01474 0.10321,0.07372c0.05899,0.32438 0.16219,0.63401 0.29489,0.94364c0.04423,0.08846 0.07372,0.17694 -0.04423,0.25066z" fill="#15120a" fill-rule="nonzero" stroke="none" stroke-width="1" stroke-linecap="butt"/><path d="M243.34227,167.16408c0.01474,0.04423 -0.04423,0.11795 -0.10321,0.11795c-0.07372,0 -0.1327,-0.02948 -0.19167,-0.07372c-0.23591,-0.17693 -0.41284,-0.41284 -0.54555,-0.67824c-0.01474,-0.04423 -0.02949,-0.08846 -0.02949,-0.1327c0,-0.02949 0.02949,-0.05897 0.05899,-0.07372c0.01474,-0.01474 0.04423,0 0.05897,0.01474c0.04423,0.04423 0.07372,0.08846 0.11795,0.1327c0.17694,0.20642 0.30963,0.44233 0.56029,0.57503c0.04423,0.02949 0.07372,0.07372 0.07372,0.11795z" fill="#120f09" fill-rule="nonzero" stroke="none" stroke-width="1" stroke-linecap="butt"/><path d="M244.65452,166.91342c-0.05899,0.01474 -0.11795,-0.01474 -0.16219,-0.04423c-0.20642,-0.14745 -0.36861,-0.32438 -0.5308,-0.5013c-0.01474,-0.01474 -0.01474,-0.01474 -0.01474,-0.02949c-0.02949,-0.05899 -0.01474,-0.11795 0.02948,-0.16219c0.04423,-0.02948 0.08846,-0.02948 0.1327,0c0.20642,0.16219 0.39809,0.33912 0.56029,0.5308c0.05899,0.05899 0.05897,0.14745 -0.01474,0.20642z" fill="#16130a" fill-rule="nonzero" stroke="none" stroke-width="1" stroke-linecap="butt"/><path d="M243.1506,166.36789c0.05899,-0.07372 0.11795,-0.08846 0.17694,-0.05899c0.25066,0.16219 0.45708,0.36861 0.6635,0.57503c0.04423,0.04423 0.04423,0.10321 -0.01474,0.16219c-0.04423,0.04423 -0.10321,0.04423 -0.16219,0.01474c-0.16219,-0.07372 -0.5308,-0.47181 -0.6635,-0.69299z" fill="#0d0b07" fill-rule="nonzero" stroke="none" stroke-width="1" stroke-linecap="butt"/><path d="M244.62503,166.02875c0.05899,-0.07372 0.10321,-0.07372 0.16219,-0.04423c0.14745,0.10321 0.26539,0.22117 0.36861,0.36861c0.02949,0.04423 0.02949,0.08846 0,0.1327c-0.02949,0.04423 -0.08846,0.05897 -0.1327,0.02948c-0.17694,-0.11795 -0.35386,-0.26539 -0.39809,-0.48656z" fill="#201b0f" fill-rule="nonzero" stroke="none" stroke-width="1" stroke-linecap="butt"/><path d="M237.97533,166.08775c-0.19167,-0.05899 -0.22117,-0.19167 -0.2654,-0.30963c-0.04423,-0.11795 -0.05897,-0.25066 0.01474,-0.36861c0.02949,0 0.05897,-0.01474 0.07372,0c0.1327,0.19167 0.19167,0.41284 0.17694,0.67824z" fill="#1d180e" fill-rule="nonzero" stroke="none" stroke-width="1" stroke-linecap="butt"/><path d="M245.12634,165.79286c0.11795,-0.10321 0.20642,-0.08846 0.30963,-0.01474c0.08846,0.07372 0.19167,0.11795 0.19167,0.26539c0,0.01474 0,0.02949 0,0.02949c0,0.05899 -0.07372,0.10321 -0.11795,0.07372c-0.14745,-0.08846 -0.30963,-0.16219 -0.38335,-0.35386z" fill="#17130b" fill-rule="nonzero" stroke="none" stroke-width="1" stroke-linecap="butt"/><path d="M245.96677,165.61592c0,0.05899 -0.07372,0.11795 -0.14744,0.08846c-0.08846,-0.04423 -0.16219,-0.08846 -0.20642,-0.17693c-0.02949,-0.05899 -0.02949,-0.11795 0.01474,-0.16219c0.04423,-0.04423 0.10321,-0.04423 0.16219,-0.01474c0.08846,0.05899 0.16218,0.1327 0.17693,0.26539z" fill="#382e16" fill-rule="nonzero" stroke="none" stroke-width="1" stroke-linecap="butt"/><path d="M245.84109,155.78432c0.29045,-0.28304 0.567,-0.554 0.85843,-0.80789c0.04958,-0.22328 -0.07328,-0.4764 0.00504,-0.6947c0.19732,-0.50204 0.5284,-0.8505 1.08443,-0.88472c0.41331,-0.02994 0.72356,-0.15015 0.98525,-0.43816c0.19232,-0.22757 0.41435,-0.42101 0.6364,-0.61446c0.00695,-0.21616 -0.01382,-0.40814 0.02286,-0.59017c0.14875,-0.66984 0.56409,-1.06168 1.248,-1.11726c0.29932,-0.02068 0.48171,-0.11954 0.66112,-0.30587c0.19232,-0.22757 0.39949,-0.43807 0.59279,-0.63649c-0.00198,-0.0583 0.02578,-0.08249 0.02479,-0.11164c-0.09901,-0.81413 0.35797,-1.24227 1.01016,-1.39026c0.29736,-0.07898 0.53722,-0.16789 0.71468,-0.41252c0.08229,-0.10169 0.17943,-0.18632 0.27658,-0.27095c0.20719,-0.2105 0.342,-0.44801 0.35889,-0.79288c0.0209,-0.64847 0.42335,-0.9991 1.02101,-1.06959c0.24185,-0.03062 0.42522,-0.10034 0.5759,-0.29163c0.23295,-0.29299 0.49564,-0.55186 0.75733,-0.83988c-0.14662,-0.53256 -0.04745,-0.9791 0.28463,-1.29841c0.34597,-0.3314 0.6562,-0.45163 1.20231,-0.35715c0.27657,-0.27095 0.58088,-0.56609 0.84258,-0.85412c-0.01685,-0.07536 -0.01882,-0.13368 -0.00591,-0.17493c-0.09704,-0.75582 0.29949,-1.28136 1.01411,-1.27365c0.30032,0.00848 0.51243,-0.05626 0.69184,-0.24257c0.08229,-0.10169 0.19429,-0.16926 0.32017,-0.24892c0.18139,-0.12803 0.27557,-0.30011 0.32418,-0.55254c0.10613,-0.66271 0.66717,-0.97141 1.35896,-0.79376c0.24479,0.05685 0.43016,0.04543 0.62739,-0.03637c0.63338,-0.28169 1.29847,-0.47092 2.02499,-0.53362c0.38457,-0.03491 0.79985,-0.00653 1.20225,0.06309c0.76118,0.1172 1.38952,0.53023 1.95242,1.1203c0.60748,0.64127 0.90375,1.37359 1.12963,2.13723c0.19319,0.64204 0.30015,1.26917 0.36449,1.90341c0.02277,0.25027 0.10301,0.51053 0.18227,0.7416c0.0634,0.18485 0.12781,0.39887 0.40037,0.43154c0.08623,0.01492 0.16153,0.12939 0.23586,0.21471c0.2973,0.34126 0.5946,0.68251 0.89189,1.02375c0.13378,0.15356 0.2527,0.29006 0.27447,0.5112c0.00395,0.11661 0.12189,0.22395 0.19622,0.30927c0.52027,0.59719 1.02666,1.20648 1.54695,1.80369c0.32704,0.37538 0.65504,0.77991 0.94044,1.19155c0.04558,0.08035 0.10503,0.14859 0.07927,0.23108c-0.03966,0.09458 -0.12687,0.05051 -0.21211,0.06474c-0.3707,0.02282 -0.74337,-0.01269 -1.11702,-0.07733c-0.28742,-0.04973 -0.58971,-0.1165 -0.87516,-0.10793c-0.24282,0.00146 -0.47573,-0.12579 -0.70963,-0.28217c-0.32209,-0.22961 -0.58869,-0.50759 -0.85625,-0.81472c-0.23784,-0.27301 -0.47568,-0.546 -0.69865,-0.80194c-0.14569,-0.08318 -0.27157,-0.00351 -0.4014,-0.04047c-0.17246,-0.02983 -0.31715,-0.08385 -0.39544,-0.28576c-0.04658,-0.10949 -0.16351,-0.18769 -0.23784,-0.27301c-0.22199,-0.22679 -0.4291,-0.43652 -0.63722,-0.6754c-0.14865,-0.17063 -0.29828,-0.37041 -0.32007,-0.59153c-0.01685,-0.07536 -0.04855,-0.16781 -0.09413,-0.24813c-0.49845,-0.79629 -0.82738,-1.65021 -1.1276,-2.49915c-0.03172,-0.09242 -0.07828,-0.20192 -0.10997,-0.29436c-0.09511,-0.27729 -0.28836,-0.4991 -0.45285,-0.71595c-0.17936,-0.2339 -0.41129,-0.33199 -0.65214,-0.27222c-0.33998,0.08608 -0.67996,0.17218 -0.9585,0.38483c-0.76525,0.60665 -1.4849,1.29364 -2.16095,2.00267c-0.88323,0.91953 -1.64951,1.91726 -2.47329,2.90504c-0.41139,0.50847 -0.79404,1.0219 -1.20542,1.53037c-0.54818,0.68768 -1.09539,1.40451 -1.62873,2.10925c-0.42427,0.5497 -0.84857,1.09941 -1.27284,1.64914c-0.47979,0.59807 -0.97446,1.17908 -1.45424,1.77714c-0.45302,0.54474 -0.90604,1.08948 -1.34419,1.65128c-0.46591,0.58598 -0.96057,1.16698 -1.42649,1.75297c-0.46591,0.58598 -0.91797,1.15987 -1.41359,1.71173c-0.454,0.51558 -0.81884,1.13355 -1.25798,1.6662c-0.70084,0.82067 -1.40169,1.64133 -2.16199,2.39373c-0.38659,0.39683 -0.80193,0.78867 -1.17368,1.20257c-0.6483,0.68485 -1.41553,1.2332 -2.21247,1.74742c-0.02775,0.02417 -0.04162,0.03627 -0.08424,0.04339c-0.62147,0.21129 -1.18152,0.54912 -1.83273,0.72629c-0.87819,0.22484 -1.8069,0.22357 -2.78512,0.02535c-0.73343,-0.14138 -1.4153,-0.44774 -2.08624,-0.85364c-0.27749,-0.17844 -0.58177,-0.30352 -0.87414,-0.49902c-0.29237,-0.19549 -0.5857,-0.42014 -0.8642,-0.62771c-0.27848,-0.20758 -0.54408,-0.45639 -0.83742,-0.68104c-0.57282,-0.46138 -1.02074,-1.03157 -1.49642,-1.57757c-0.95234,-1.12117 -1.59543,-2.39169 -2.04029,-3.7149c-0.0634,-0.18485 -0.08518,-0.406 -0.10598,-0.59798c-0.10296,-0.93075 0.02501,-1.79256 0.32643,-2.59538c0.28853,-0.76157 0.65039,-1.46701 1.11433,-2.11129c0.42231,-0.60801 0.88823,-1.194 1.36998,-1.73376c0.67605,-0.70903 1.35111,-1.44719 1.93897,-2.22947c0.35587,-0.4601 0.65329,-0.9593 0.93583,-1.47558c0.25676,-0.4338 0.33909,-0.9557 0.39267,-1.48261c-0.27152,-0.42374 -0.54205,-0.81835 -0.68669,-1.29258c-0.28732,-0.8902 -0.15539,-1.63537 0.30854,-2.27965c0.34101,-0.47717 0.81976,-0.68417 1.40158,-0.80087c0.49657,-0.10248 1.02585,-0.08336 1.55414,-0.09338c1.02881,0.00409 2.04768,0.13688 3.10321,0.50788c1.1566,0.40297 2.30033,0.84717 3.42223,1.4905c0.78692,0.45495 1.53318,0.97531 2.21105,1.58527c0.81067,0.73438 1.48255,1.58966 1.94429,2.56799c0.07631,0.14362 0.12385,0.28226 0.1288,0.42803c-0.008,0.60724 -0.08837,1.18747 -0.44426,1.64757c-0.24684,0.30508 -0.52439,0.54689 -0.92086,0.65217c-0.36872,0.08113 -0.61753,0.32789 -0.85147,0.59173c-0.50853,0.5931 -1.0468,1.15206 -1.67327,1.63783c-0.59871,0.46157 -1.16671,0.98642 -1.76542,1.44798c-0.48669,0.394 -1.00314,0.75388 -1.50371,1.15996c-0.43118,0.34564 -0.87626,0.70336 -1.30746,1.04901c-0.15266,0.13299 -0.33503,0.23185 -0.50255,0.34778c-0.51741,0.33072 -0.96151,0.71761 -1.19749,1.34336c-0.09122,0.25955 -0.02979,0.3861 0.25962,0.49415c0.23191,0.09809 0.41528,0.02837 0.59963,-0.01218c0.08229,-0.10169 0.06347,-0.23537 0.0734,-0.36408c0.09127,-0.67978 0.47887,-1.04745 1.11717,-1.18338c0.25573,-0.04271 0.51242,-0.05625 0.75822,0.02975c0.18733,0.04691 0.30031,0.00847 0.42621,-0.07118c0.25178,-0.15932 0.48868,-0.33569 0.7246,-0.54123c-0.01184,-0.34983 -0.00981,-0.71177 0.19539,-0.98057c0.20619,-0.23965 0.38363,-0.48429 0.69388,-0.60451c0.26762,-0.1131 0.62641,-0.06551 0.98619,0.01121zM268.98775,144.86305c-0.01685,-0.07536 -0.00494,-0.14576 0.06641,-0.1479c0.07136,-0.00214 0.12984,0.03696 0.17443,0.08814c0.14866,0.17063 0.1853,0.40882 0.39144,0.58938c0.26862,-0.08395 0.37468,-0.32643 0.49564,-0.55186c-0.42215,-0.65267 -0.57369,-1.33098 -0.65389,-2.01146c-0.02276,-0.25028 -0.05941,-0.48848 -0.11091,-0.74373c-0.21891,-0.97979 -0.56371,-1.87992 -1.30498,-2.67475c-0.28146,-0.29504 -0.55993,-0.50262 -0.90682,-0.6206c-0.1883,-0.07604 -0.38951,-0.11086 -0.57683,-0.15776c-0.81966,-0.1563 -1.54322,-0.00615 -2.2658,0.17315c-0.33998,0.08608 -0.65022,0.20632 -0.91487,0.40688c0.13768,0.6904 0.0068,1.04452 -0.48287,1.35107c-0.46191,0.28236 -0.92476,0.11534 -1.38064,-0.26783c-0.2369,0.17639 -0.47381,0.35276 -0.69487,0.57536c0.20411,0.54251 0.24964,1.04307 -0.12406,1.39866c-0.36082,0.31435 -0.79892,0.45592 -1.33806,0.14527c-0.27756,0.2418 -0.54123,0.47152 -0.74642,0.74034c0.11689,0.49843 0.23279,0.9677 -0.06957,1.32114c-0.37074,0.44304 -0.89409,0.59885 -1.54228,0.44325c-0.30531,0.26599 -0.55214,0.57106 -0.78411,0.89321c0.3815,0.7181 0.31306,1.22793 -0.18854,1.60487c-0.08327,0.07255 -0.19528,0.1401 -0.27855,0.21265c-0.22303,0.1643 -0.50848,0.17288 -0.81177,0.07694c-0.10109,-0.03198 -0.21902,-0.13933 -0.36076,-0.10589c-0.26368,0.22971 -0.51247,0.47648 -0.70183,0.79152c0.0198,0.16283 0.12385,0.28226 0.18529,0.40883c0.19819,0.36758 0.25265,0.7103 0.12178,1.06441c-0.10411,0.3008 -0.31226,0.48215 -0.56602,0.58316c-0.39449,0.1636 -0.80781,0.19355 -1.23593,-0.21381c-0.02973,-0.03412 -0.08721,-0.04408 -0.1447,-0.05402c-0.24882,0.24677 -0.5125,0.47648 -0.70282,0.76236c0.38545,0.83471 0.36258,1.4249 -0.02501,1.79257c-0.51248,0.47647 -0.99814,0.47941 -1.79992,0.0074c-0.24882,0.24677 -0.49761,0.49356 -0.73156,0.7574c-0.06939,0.06044 -0.15364,0.10385 -0.16456,0.20339c0.00395,0.11661 0.09215,0.18982 0.13773,0.27017c0.33592,0.63775 0.26445,1.48037 -0.43831,1.82249c-0.50552,0.26032 -0.92377,0.14448 -1.41333,-0.38943c-0.30729,0.20768 -0.55608,0.45445 -0.81877,0.71331c0.06538,0.24317 0.22888,0.43086 0.26454,0.6399c0.15748,0.85323 -0.55527,1.74429 -1.51667,1.62144c-0.21507,-0.02274 -0.43114,-0.07459 -0.59465,-0.26228c-0.07432,-0.08532 -0.16153,-0.12938 -0.24974,-0.20261c-0.32511,0.10315 -0.54617,0.32575 -0.78208,0.53128c0.2646,0.21968 0.3736,0.48486 0.3696,0.78849c-0.00895,0.15786 -0.04663,0.31073 -0.09919,0.44656c-0.29048,0.70327 -0.86737,0.96575 -1.66921,0.91397c-0.31519,-0.02554 -0.61946,-0.15064 -0.80276,-0.50116c-0.01585,-0.04621 -0.07432,-0.08531 -0.11794,-0.10735c-0.36872,0.08113 -0.65516,0.06055 -0.88609,-0.00838c-0.41923,-0.14498 -0.71752,-0.5154 -0.74622,-0.9406c-0.00592,-0.17492 0.04564,-0.33989 0.14081,-0.48281c0.23,-0.38045 0.54918,-0.65853 0.88324,-0.91954c0.73649,-0.61163 1.50273,-1.18911 2.25409,-1.78367c0.82174,-0.62586 1.68907,-1.17138 2.45135,-1.8655c0.60964,-0.56112 1.24898,-1.08811 1.84473,-1.63714c0.18041,-0.15717 0.33108,-0.34847 0.4917,-0.66846c-0.12786,0.02135 -0.19922,0.0235 -0.25671,0.01354c-0.14273,0.0043 -0.28644,-0.02057 -0.43115,-0.07459c-0.07235,-0.02702 -0.11694,-0.0782 -0.14766,-0.14146c-0.03171,-0.09242 0.02282,-0.16995 0.10806,-0.18418c0.07037,-0.03131 0.15661,-0.01638 0.22796,-0.01852c0.18535,-0.0114 0.38555,-0.00576 0.57091,-0.01716c0.66903,-0.07264 1.30636,-0.23771 1.7465,-0.7412c0.02775,-0.02417 0.112,-0.06758 0.03768,-0.15288c-0.10208,-0.06115 -0.14273,0.00429 -0.2131,0.03558c-0.44902,0.24112 -0.94461,0.37274 -1.48776,0.36572c-0.57188,-0.01199 -1.14477,-0.05313 -1.74737,-0.12841c-1.36282,-0.16332 -2.70575,-0.58404 -3.99911,-1.22803c-0.56689,-0.28645 -1.11992,-0.585 -1.67294,-0.88357c-0.6987,-0.38172 -1.37064,-0.81677 -1.97419,-1.34142c-0.2646,-0.21968 -0.51534,-0.45144 -0.75219,-0.69529c-0.13279,-0.1244 -0.25172,-0.2609 -0.34288,-0.4216c-0.25764,-0.43584 -0.55691,-0.83539 -0.68768,-1.32174c-0.01585,-0.04621 -0.01882,-0.13367 -0.10503,-0.14859c-0.08929,0.73809 0.20499,1.41212 0.6985,2.06265c0.25369,0.31922 0.53612,0.64341 0.83146,0.92636c0.11794,0.10736 0.23586,0.2147 0.25665,0.40667c-0.39647,0.10531 -0.63728,-0.25516 -0.94352,-0.43855c-0.08327,0.07254 -0.06543,0.17706 -0.09122,0.25954c-0.11107,0.51695 -0.31035,0.96068 -0.56712,1.39447c-0.5393,0.95005 -1.24014,1.77072 -1.95587,2.57432c-0.60666,0.64857 -1.18459,1.30212 -1.73179,2.01895c-0.31523,0.39468 -0.57201,0.82845 -0.84364,1.24518c-0.50163,0.79717 -0.72673,1.74362 -0.85075,2.72204c-0.06549,0.5973 -0.01602,1.21447 0.24755,1.82521c0.20213,0.48419 0.43301,0.97335 0.63513,1.45755c0.09215,0.18983 0.19819,0.36758 0.31907,0.56239c0.39142,0.58939 0.85225,1.11834 1.31306,1.64729c0.38648,0.44363 0.82847,0.8389 1.28435,1.22208c0.70561,0.58579 1.46577,1.09405 2.23682,1.50278c1.11992,0.58501 2.23195,0.93681 3.35494,0.7688c0.66804,-0.10179 1.34996,-0.21568 1.92585,-0.50729c0.3509,-0.18564 0.70178,-0.3713 1.05267,-0.55693c1.14981,-0.64157 2.07664,-1.53906 2.98862,-2.45361c0.52537,-0.51773 0.99228,-1.07455 1.48793,-1.6264c0.63244,-0.73106 1.2203,-1.51332 1.82301,-2.2785c0.46492,-0.61514 0.92986,-1.23028 1.40965,-1.82833c0.42527,-0.52056 0.85153,-1.01196 1.27678,-1.53252c0.56306,-0.67061 1.0825,-1.36326 1.66043,-2.01681c0.70084,-0.82067 1.35808,-1.66337 2.02919,-2.51815c0.21908,-0.2809 0.42329,-0.57887 0.64238,-0.85977c0.91796,-1.15987 1.82105,-2.33681 2.73898,-3.49668c0.64435,-0.80145 1.2887,-1.60292 1.97665,-2.38235c0.27557,-0.3001 0.5799,-0.59525 0.85547,-0.89535c0.59082,-0.6948 1.29956,-1.28224 1.99442,-1.85759c0.44506,-0.35773 0.99617,-0.53772 1.62653,-0.48663c0.2002,0.00566 0.37464,0.09381 0.53717,0.25234c0.50146,0.46353 0.7918,1.02094 0.98399,1.63382c0.20608,0.6008 0.45379,1.16532 0.74511,1.75189c0.12286,0.25311 0.25863,0.46499 0.50739,0.63844c-0.00495,-0.14576 -0.06637,-0.27232 -0.14169,-0.38678c-0.10603,-0.17773 -0.1972,-0.33842 -0.26061,-0.52329c-0.07729,-0.17276 -0.12683,-0.36972 -0.04552,-0.50058c0.09912,-0.02633 0.1576,0.01277 0.18831,0.07604c0.06145,0.12655 0.12287,0.25311 0.19818,0.36758c0.06637,0.27231 0.24674,0.53539 0.3696,0.7885c0.03071,0.06328 0.11692,0.07819 0.18533,-0.0114c-0.16449,-0.21684 -0.22988,-0.46001 -0.35177,-0.68397zM248.02629,150.27901c-0.11096,-0.32351 -0.23483,-0.60577 -0.47167,-0.84963c-0.05946,-0.06825 -0.11892,-0.13649 -0.17838,-0.20474c-0.04459,-0.05119 -0.06145,-0.12655 -0.02079,-0.19199c0.02677,-0.05332 0.09813,-0.05548 0.17048,-0.02846c0.10109,0.03198 0.18929,0.1052 0.24875,0.17345c0.26658,0.27797 0.43503,0.61143 0.57573,0.96907c0.00098,0.02915 0.0446,0.0512 0.07433,0.08532c0.04261,-0.00712 0.08524,-0.01424 0.12687,-0.05051c0.04163,-0.03626 0.12787,-0.02136 0.12391,-0.13796c-0.0634,-0.18485 -0.17142,-0.42091 -0.30718,-0.63277c-0.21107,-0.32632 -0.43503,-0.61143 -0.68774,-0.9015c-0.08919,-0.10238 -0.14963,-0.19978 -0.09609,-0.30645c0.07037,-0.03131 0.15661,-0.01638 0.22993,0.03979c0.27848,0.20758 0.50145,0.46352 0.68281,0.75573c0.16549,0.24598 0.3171,0.50408 0.48259,0.75008c0.11497,0.01989 0.20019,0.00565 0.18238,-0.09887c-0.00198,-0.0583 -0.0327,-0.12158 -0.06341,-0.18485c-0.29329,-0.64488 -0.6421,-1.24139 -1.20006,-1.6857c-0.08821,-0.07322 -0.21903,-0.13933 -0.19524,-0.28012c0.04065,-0.06542 0.09813,-0.05549 0.16949,-0.05761c0.17147,0.00068 0.30424,0.1251 0.43706,0.2495c0.39839,0.37324 0.7274,0.80692 0.97215,1.284c0.06144,0.12655 0.06637,0.27232 0.1972,0.33843c0.08524,-0.01423 0.09714,-0.08464 0.09516,-0.14294c0.03276,-0.29864 -0.06236,-0.57594 -0.22785,-0.82194c-0.19621,-0.30928 -0.37755,-0.60149 -0.60152,-0.88658c-0.89585,-1.14037 -2.03654,-1.91737 -3.23177,-2.61684c-0.78692,-0.45495 -1.62637,-0.77406 -2.45195,-1.10528c-0.78198,-0.30918 -1.57585,-0.54795 -2.37868,-0.62889c-0.48764,-0.05539 -1.00302,-0.08659 -1.50355,-0.10072c-0.47179,-0.00917 -0.95646,0.02291 -1.39653,0.10617c-0.36872,0.08113 -0.67698,0.25966 -0.89606,0.54055c-0.16456,0.20339 -0.16159,0.29085 -0.05161,0.58521c0.04163,-0.03626 0.08327,-0.07255 0.13877,-0.1209c0.42625,-0.49141 1.03484,-0.66145 1.71973,-0.68787c0.17147,0.00068 0.34294,0.00137 0.51737,0.08952c0.02874,0.00496 0.07334,0.05616 0.05946,0.06825c0.00198,0.0583 -0.01091,0.09954 -0.03867,0.12372c-0.04163,0.03626 -0.113,0.03842 -0.1695,0.05763c-0.24185,0.03062 -0.45494,0.06621 -0.69678,0.09682c-0.58281,0.08755 -1.02985,0.38698 -1.35698,0.85206c-0.08128,0.13083 -0.09122,0.25955 0.04158,0.38396c0.04261,-0.00712 0.07136,-0.00214 0.08524,-0.01423c0.29839,-0.47007 0.79299,-0.63082 1.3322,-0.74042c0.14174,-0.03345 0.2706,-0.02563 0.41628,0.05753c0.05847,0.0391 0.11694,0.0782 0.10602,0.17774c-0.05354,0.10666 -0.21114,0.0939 -0.31025,0.12022c-0.28348,0.06689 -0.55208,0.15084 -0.80485,0.28099c-0.25276,0.13017 -0.46092,0.31151 -0.52143,0.63433c0.04658,0.10949 0.10702,0.2069 0.23586,0.21471c0.02677,-0.05332 0.03966,-0.09457 0.09517,-0.14294c0.2627,-0.25886 0.55707,-0.42529 0.9575,-0.41399c0.08623,0.01492 0.17245,0.02983 0.21804,0.11017c0.04658,0.10949 -0.02381,0.1408 -0.09418,0.17209c-0.12688,0.05051 -0.26861,0.08394 -0.36674,0.13943c-0.22501,0.10599 -0.43415,0.25817 -0.54122,0.47151c0.06144,0.12655 0.12286,0.25311 0.26559,0.24884c0.37074,-0.44304 0.44112,-0.47434 0.89207,-0.23693c-0.2369,0.17639 -0.51939,0.2724 -0.65422,0.50993c0.12188,0.22395 0.36669,0.28081 0.51533,0.45144c0.32703,0.37538 0.73533,0.61992 1.15754,0.85236c0.75619,0.39166 1.51239,0.78332 2.28247,1.16291c0.3776,0.18125 0.76811,0.32126 1.1576,0.43213c0.37464,0.0938 0.75026,0.21674 1.1249,0.31053c0.24479,0.05685 0.48962,0.11369 0.73442,0.17053c0.55999,0.08239 1.13385,0.15269 1.69384,0.23509c0.12885,0.0078 0.25967,0.07392 0.37168,0.00634c0.04065,-0.06542 -0.00495,-0.14576 -0.0208,-0.19199c-0.04658,-0.10949 -0.13576,-0.21186 -0.18233,-0.32137c-0.04558,-0.08035 -0.01882,-0.13368 0.02282,-0.16995c0.02775,-0.02417 0.08524,-0.01424 0.12885,0.0078c0.05847,0.0391 0.11695,0.0782 0.16154,0.12938c0.1764,0.14646 0.19818,0.36759 0.24672,0.53538c0.10109,0.03198 0.15759,0.01277 0.27059,-0.02564zM241.55302,158.67971c-0.25178,0.15932 -0.32714,0.46508 -0.2142,0.8469c0.06538,0.24317 0.24179,0.38962 0.48561,0.4173c0.61649,0.06319 1.05958,-0.35285 1.22815,-0.85986c0.05255,-0.13582 0.01887,-0.28654 -0.1288,-0.42802c-0.22099,-0.19764 -0.46876,-0.34194 -0.73837,-0.28714c-0.21212,0.06474 -0.42422,0.12949 -0.63239,0.31084zM245.58318,157.44963c0.15266,-0.13299 0.24585,-0.33423 0.29543,-0.55751c0.10115,-0.38825 -0.15254,-0.70747 -0.56585,-0.67754c-0.07136,0.00214 -0.14174,0.03345 -0.22698,0.04767c-0.25375,0.10101 -0.44803,0.27028 -0.62646,0.48575c-0.17745,0.24463 -0.15171,0.58237 0.05836,0.87955c0.07531,0.11447 0.17739,0.1756 0.30526,0.15425c0.28447,-0.03772 0.4936,-0.18994 0.76024,-0.33219zM269.88639,147.35158c0.59668,-0.09965 1.00012,-0.4211 1.35895,-0.79376c0.30334,-0.32429 0.28551,-0.42881 -0.07125,-0.83831c-0.0446,-0.05119 -0.08919,-0.10237 -0.17443,-0.08814c-0.36582,0.58881 -0.91098,0.94372 -1.57508,1.16213c0.09314,0.21899 0.2973,0.34126 0.4618,0.5581zM248.18822,155.06008c0.20915,-0.15221 0.30234,-0.35345 0.30734,-0.6279c0.01789,-0.31572 -0.23284,-0.54746 -0.52027,-0.59719c-0.47376,-0.06748 -0.91488,0.40687 -0.82673,0.90032c0.05348,0.31356 0.33295,0.55029 0.61742,0.51256c0.17147,0.00068 0.31222,-0.06191 0.42226,-0.18778zM250.17595,151.31751c-0.05551,0.04836 -0.11102,0.09672 -0.15266,0.133c-0.22106,0.22259 -0.23992,0.50914 -0.07146,0.84259c0.09314,0.21899 0.29631,0.3121 0.49356,0.2303c0.113,-0.03842 0.21113,-0.09389 0.30827,-0.17852c0.22205,-0.19344 0.42922,-0.40394 0.48972,-0.72678c0.03669,-0.18203 -0.0396,-0.32566 -0.21403,-0.41381c-0.10208,-0.06115 -0.21704,-0.08101 -0.34589,-0.08881c-0.21409,0.00643 -0.39746,0.07616 -0.50749,0.20203zM252.67281,149.9526c0.29835,-0.04981 0.52137,-0.21412 0.75927,-0.36134c0.08425,-0.0434 0.11003,-0.12586 0.16456,-0.20339c0.09517,-0.14293 0.07143,-0.42237 -0.07724,-0.59301c-0.11891,-0.13649 -0.27848,-0.20758 -0.43509,-0.1912c-0.09912,0.02633 -0.2131,0.03559 -0.31222,0.0619c-0.22501,0.10599 -0.37668,0.26813 -0.39554,0.55469c-0.00599,0.24531 0.0029,0.50768 0.29626,0.73233zM258.07445,143.23583c-0.54908,-0.18194 -0.80879,0.16438 -1.06951,0.48156c-0.11004,0.12587 -0.13089,0.35412 -0.00999,0.54894c0.09116,0.16067 0.43607,0.22036 0.63333,0.13855c0.07037,-0.03131 0.12587,-0.07966 0.19626,-0.11096c0.08327,-0.07255 0.13779,-0.15004 0.22106,-0.22258c0.22106,-0.22259 0.25479,-0.49208 0.02884,-0.83548zM255.88662,146.13231c-0.22099,-0.19764 -0.43608,-0.22036 -0.63432,-0.16771c-0.22698,0.04767 -0.39252,0.22191 -0.48572,0.42316c-0.08031,0.16 -0.14573,0.33707 -0.11008,0.5461c0.0515,0.25526 0.19817,0.36758 0.42515,0.31991c0.04261,-0.00712 0.08524,-0.01423 0.12688,-0.0505c0.3628,-0.25604 0.65323,-0.53909 0.67808,-1.07095zM260.4049,141.17555c-0.20812,-0.23888 -0.43805,-0.27867 -0.67892,-0.21889c-0.25473,0.07185 -0.36179,0.28518 -0.42526,0.52056c-0.03769,0.15288 0.08223,0.31852 0.21501,0.44295c0.13279,0.1244 0.2458,0.08599 0.35879,0.04757c0.35287,-0.12734 0.54418,-0.38405 0.53036,-0.79218zM262.5301,139.80429c0.11101,-0.09671 0.20619,-0.23966 0.25775,-0.40463c0.06444,-0.20621 -0.04158,-0.38397 -0.25665,-0.40668c-0.34392,-0.03052 -0.61155,0.08258 -0.77413,0.34428c-0.04065,0.06542 -0.06544,0.17706 -0.07635,0.27662c-0.02182,0.19909 0.1407,0.35764 0.34091,0.36329c0.18633,0.01774 0.3707,-0.02282 0.50847,-0.17288zM270.59635,145.11237c-0.15167,0.16214 -0.33208,0.31932 -0.48374,0.48146c-0.17943,0.18632 -0.41929,0.27525 -0.62944,0.3983c-0.19626,0.11096 -0.48468,0.03208 -0.66409,0.2184c0.20712,0.20971 0.37564,0.12295 0.53126,0.07742c0.66706,-0.13093 1.15278,-0.5541 1.24603,-1.17558z" fill="#010001" fill-rule="nonzero" stroke="none" stroke-width="1" stroke-linecap="butt"/><path d="M268.7697,144.79913c-0.06144,-0.12655 -0.12286,-0.2531 -0.19819,-0.36758c-0.03071,-0.06328 -0.08919,-0.10237 -0.1883,-0.07605c-0.06642,0.14791 -0.03176,0.3278 0.04553,0.50057c0.07729,0.17276 0.16944,0.3626 0.26061,0.52328c0.07531,0.11447 0.13674,0.24101 0.14169,0.38677c-0.23487,-0.18554 -0.38451,-0.38533 -0.50739,-0.63842c-0.27645,-0.5695 -0.53904,-1.15111 -0.74511,-1.7519c-0.20608,-0.6008 -0.49641,-1.15822 -0.98399,-1.63383c-0.16253,-0.15854 -0.33696,-0.24668 -0.53717,-0.25234c-0.64425,-0.03901 -1.18146,0.12889 -1.62653,0.48662c-0.70974,0.55829 -1.40363,1.1628 -1.99443,1.8576c-0.26072,0.31717 -0.5799,0.59525 -0.85547,0.89535c-0.68795,0.77943 -1.3323,1.58088 -1.97665,2.38234c-0.91797,1.15987 -1.83591,2.31975 -2.73899,3.49668c-0.21908,0.28089 -0.42329,0.57887 -0.64237,0.85976c-0.67112,0.85478 -1.32835,1.6975 -2.0292,2.51816c-0.56305,0.67061 -1.09739,1.3462 -1.66044,2.01682c-0.42527,0.52056 -0.85154,1.01196 -1.27679,1.53252c-0.47979,0.59807 -0.94472,1.2132 -1.40963,1.82834c-0.58785,0.78224 -1.1757,1.5645 -1.823,2.2785c-0.49564,0.55185 -0.96256,1.10869 -1.48792,1.62641c-0.91197,0.91456 -1.83882,1.81207 -2.98864,2.45361c-0.3509,0.18564 -0.70177,0.37129 -1.05266,0.55693c-0.58978,0.30371 -1.25782,0.4055 -1.92587,0.5073c-1.12298,0.16799 -2.23501,-0.18379 -3.35493,-0.76879c-0.7998,-0.4137 -1.5312,-0.91701 -2.23681,-1.50279c-0.45588,-0.38317 -0.89788,-0.77845 -1.28438,-1.22209c-0.46081,-0.52894 -0.9355,-1.0458 -1.31305,-1.6473c-0.10603,-0.17773 -0.2408,-0.36046 -0.31906,-0.56238c-0.21602,-0.47209 -0.43301,-0.97336 -0.63513,-1.45755c-0.26356,-0.61075 -0.31305,-1.22792 -0.24755,-1.82521c0.10916,-0.99549 0.34912,-1.92486 0.85075,-2.72203c0.25676,-0.4338 0.54227,-0.86259 0.84364,-1.24519c0.53333,-0.70473 1.13999,-1.35331 1.7318,-2.01895c0.73057,-0.78654 1.43142,-1.6072 1.95586,-2.57432c0.24288,-0.42171 0.45604,-0.8775 0.56713,-1.39446c0.02578,-0.08248 0.00796,-0.187 0.09123,-0.25955c0.29138,0.16634 0.54703,0.54387 0.94351,0.43856c-0.02079,-0.19198 -0.13872,-0.29933 -0.25665,-0.40668c-0.29532,-0.28296 -0.57776,-0.60714 -0.83146,-0.92636c-0.49351,-0.65052 -0.78778,-1.32456 -0.69848,-2.06265c0.08623,0.01492 0.08918,0.10237 0.10503,0.14859c0.13077,0.48633 0.43003,0.88589 0.68767,1.32173c0.09116,0.16067 0.22396,0.2851 0.34288,0.4216c0.25072,0.23177 0.50146,0.46353 0.7522,0.69528c0.6184,0.54172 1.29035,0.97677 1.97419,1.34142c0.55301,0.29855 1.10604,0.5971 1.67294,0.88358c1.30821,0.66105 2.63632,1.06471 3.99911,1.22803c0.57387,0.0703 1.16161,0.12851 1.74738,0.12842c0.55703,-0.00507 1.03873,-0.12461 1.48775,-0.36572c0.07037,-0.03131 0.11102,-0.09672 0.2131,-0.03558c0.07432,0.08532 -0.01092,0.09955 -0.03769,0.15288c-0.42527,0.52056 -1.04871,0.67354 -1.74649,0.7412c-0.18535,0.0114 -0.38555,0.00577 -0.57091,0.01716c-0.07136,0.00214 -0.15661,0.01638 -0.22796,0.01852c-0.07037,0.03131 -0.11101,0.09671 -0.10806,0.18418c0.01685,0.07536 0.07531,0.11447 0.14766,0.14147c0.1447,0.05401 0.28841,0.07887 0.43114,0.07459c0.07136,-0.00214 0.11398,-0.00926 0.25672,-0.01355c-0.14673,0.30791 -0.29741,0.49921 -0.4917,0.66847c-0.6245,0.54405 -1.24898,1.08811 -1.84473,1.63714c-0.76228,0.6941 -1.64348,1.25171 -2.45134,1.86549c-0.75136,0.59456 -1.51759,1.17206 -2.2541,1.78368c-0.33404,0.26101 -0.65323,0.5391 -0.88323,0.91953c-0.09517,0.14293 -0.14673,0.3079 -0.14081,0.48282c0.02868,0.42521 0.3131,0.8077 0.74622,0.9406c0.2458,0.086 0.53125,0.07742 0.88609,0.00838c0.02973,0.03412 0.08821,0.07322 0.11794,0.10735c0.18332,0.35051 0.47371,0.4877 0.80276,0.50116c0.78795,0.06386 1.36483,-0.19861 1.66922,-0.91398c0.06643,-0.14791 0.1041,-0.30079 0.09919,-0.44655c0.004,-0.30363 -0.10499,-0.56884 -0.3696,-0.7885c0.2498,-0.21762 0.45697,-0.42812 0.78208,-0.53127c0.08821,0.07322 0.17541,0.1173 0.24974,0.20262c0.17837,0.20475 0.37958,0.23956 0.59465,0.26227c0.9614,0.12285 1.67415,-0.7682 1.51666,-1.62144c-0.05051,-0.2261 -0.21403,-0.41381 -0.26456,-0.6399c0.24882,-0.24677 0.51151,-0.50563 0.81879,-0.71331c0.47568,0.54601 0.9078,0.64974 1.41332,0.38942c0.70276,-0.34214 0.77425,-1.18473 0.43833,-1.8225c-0.04558,-0.08035 -0.14865,-0.17063 -0.13773,-0.27017c0.01091,-0.09955 0.09517,-0.14294 0.16456,-0.20339c0.24882,-0.24677 0.48275,-0.51061 0.73156,-0.75739c0.83051,0.47698 1.31618,0.47406 1.79993,-0.00741c0.40147,-0.37975 0.40947,-0.987 0.02501,-1.79256c0.19034,-0.28588 0.454,-0.51558 0.70282,-0.76236c0.04361,0.02203 0.10109,0.03198 0.14469,0.05401c0.42811,0.40736 0.84144,0.37742 1.23594,0.21383c0.26762,-0.1131 0.46192,-0.28236 0.56602,-0.58316c0.13088,-0.35412 0.0764,-0.69684 -0.12178,-1.06442c-0.06144,-0.12655 -0.16549,-0.24598 -0.18529,-0.40883c0.17547,-0.30294 0.43817,-0.56179 0.70185,-0.79151c0.14174,-0.03345 0.23092,0.06893 0.36076,0.1059c0.30328,0.09593 0.57387,0.07029 0.81176,-0.07694c0.09813,-0.05549 0.19528,-0.1401 0.27855,-0.21265c0.50156,-0.37694 0.5839,-0.89886 0.18853,-1.60488c0.23198,-0.32215 0.4788,-0.62723 0.7841,-0.89321c0.6482,0.15562 1.17154,-0.0002 1.54229,-0.44325c0.30235,-0.35344 0.17157,-0.83979 0.06955,-1.32116c0.2052,-0.26881 0.46887,-0.49852 0.74643,-0.74033c0.55301,0.29855 0.99211,0.18614 1.33807,-0.14527c0.37371,-0.35557 0.32817,-0.85617 0.12405,-1.39866c0.20619,-0.23965 0.44311,-0.41603 0.69487,-0.57536c0.47073,0.40025 0.93359,0.56727 1.38064,0.26784c0.48966,-0.30653 0.62054,-0.66067 0.48286,-1.35108c0.27953,-0.1835 0.58976,-0.30372 0.91487,-0.40687c0.72258,-0.1793 1.46001,-0.34154 2.26578,-0.17317c0.20121,0.03482 0.38852,0.0817 0.57683,0.15776c0.34689,0.11799 0.64024,0.34261 0.90682,0.6206c0.74127,0.79484 1.10094,1.71203 1.30498,2.67475c0.05151,0.25526 0.08815,0.49346 0.11092,0.74373c0.06632,0.69254 0.23176,1.35879 0.65389,2.01146c-0.12095,0.22543 -0.22704,0.46791 -0.49564,0.55186c-0.19126,-0.16351 -0.24277,-0.41877 -0.39143,-0.58939c-0.0446,-0.05119 -0.08919,-0.10237 -0.17443,-0.08814c-0.08524,0.01423 -0.08326,0.07255 -0.06641,0.1479c-0.08425,0.0434 -0.13083,-0.06611 -0.20318,-0.09311zM240.19337,149.37589c0.23686,0.24385 0.51436,0.42227 0.79086,0.57154c0.94747,0.55517 1.93064,0.89917 2.94155,1.21896c0.27452,0.09097 0.54808,0.15278 0.81867,0.12713c0.04261,-0.00712 0.08424,-0.04339 0.08327,-0.07254c-0.01585,-0.04621 -0.03171,-0.09242 -0.06144,-0.12655c-0.08919,-0.10238 -0.21804,-0.11018 -0.31913,-0.14217c-0.44798,-0.14996 -0.90983,-0.28784 -1.34394,-0.44988c-0.91082,-0.31698 -1.82362,-0.69225 -2.64422,-1.29793c-0.05847,-0.0391 -0.11694,-0.07821 -0.17541,-0.1173c-0.07235,-0.02702 -0.15561,0.04552 -0.13878,0.1209c0.00198,0.0583 0.03271,0.12158 0.04856,0.16781zM239.18098,160.40229c-0.112,0.06758 -0.12391,0.13796 -0.06347,0.23537c0.42115,0.62353 1.50147,0.88288 1.95944,0.4839c0.08327,-0.07255 0.07932,-0.18915 -0.01085,-0.32068c-0.02874,-0.00496 -0.04362,-0.02203 -0.04362,-0.02203c-0.12984,-0.03696 -0.19823,0.05265 -0.29735,0.07898c-0.32611,0.074 -0.6403,0.07761 -0.99113,-0.15698c-0.17541,-0.11729 -0.36371,-0.19335 -0.55302,-0.29855zM235.24889,161.99711c-0.11497,-0.01989 -0.17047,0.02846 -0.21113,0.0939c-0.19732,0.50204 -0.32226,1.03108 -0.24502,1.62408c0.00198,0.0583 0.03269,0.12159 0.0634,0.18486c0.04558,0.08035 0.1328,0.1244 0.20416,0.12227c0.10011,0.00283 0.14074,-0.06259 0.13779,-0.15006c-0.104,-0.53967 0.00905,-0.99831 0.10723,-1.47402c0.0248,-0.11164 0.06347,-0.23536 -0.05644,-0.40103zM234.59878,161.36297c-0.04361,-0.02203 -0.08722,-0.04407 -0.12983,-0.03696c-0.12885,-0.0078 -0.18338,0.0697 -0.23691,0.17638c-0.1854,0.43163 -0.23996,0.92939 -0.29455,1.42713c-0.00993,0.1287 0.07926,0.23106 0.18134,0.29221c0.10109,0.03198 0.19922,-0.02349 0.20817,-0.18135c0.01289,-0.04122 0.01091,-0.09955 0.02381,-0.14079c0.01394,-0.43232 0.09923,-0.86678 0.22913,-1.25007c0.02677,-0.05332 0.03866,-0.12373 0.03668,-0.18203c0.02775,-0.02417 -0.00198,-0.0583 -0.01783,-0.10451zM232.61685,158.52763c-0.02775,0.02417 -0.05551,0.04836 -0.06939,0.06045c-0.24486,0.36338 -0.44512,0.77795 -0.5879,1.20248c-0.03966,0.09458 -0.03571,0.21119 -0.00303,0.33277c0.01585,0.04621 0.06044,0.0974 0.10406,0.11944c0.04361,0.02203 0.10011,0.00283 0.14273,-0.00429c0.02775,-0.02417 0.06939,-0.06044 0.08229,-0.10169c0.14081,-0.48282 0.35495,-0.90949 0.5691,-1.33615c0.02677,-0.05332 0.03867,-0.12374 0.03669,-0.18204c0.0119,-0.07039 -0.09117,-0.16066 -0.16253,-0.15854c-0.02677,0.05332 -0.06939,0.06046 -0.112,0.06758zM232.59272,161.18979c0.20218,0.06395 0.26959,-0.05479 0.30729,-0.20768c0.12793,-0.44159 0.28458,-0.87819 0.45611,-1.29774c0.02677,-0.05332 0.00993,-0.1287 -0.03468,-0.1799c-0.18831,-0.07604 -0.29932,0.02068 -0.36576,0.16859c-0.14574,0.33707 -0.29148,0.67412 -0.36487,1.03819c-0.03769,0.15288 -0.07636,0.27661 0.00192,0.47854zM233.7574,160.56532c-0.14371,-0.02487 -0.226,0.07683 -0.27953,0.18349c-0.15865,0.37831 -0.31726,0.75662 -0.33119,1.18893c-0.01289,0.04122 0.00296,0.08745 0.00493,0.14576c0.01685,0.07536 0.06144,0.12655 0.13378,0.15356c0.08721,0.04407 0.17147,0.00069 0.19726,-0.08179c0.02677,-0.05332 0.03866,-0.12374 0.03668,-0.18203c0.03276,-0.29864 0.12298,-0.58735 0.21419,-0.8469c0.03868,-0.12374 0.09221,-0.2304 0.11701,-0.34203c0.02578,-0.08248 -0.01981,-0.16282 -0.09314,-0.21899zM231.68613,158.88829c0.18831,0.07604 0.24184,-0.03062 0.29538,-0.13728c0.15766,-0.40745 0.34502,-0.78079 0.59087,-1.11503c0.04065,-0.06542 0.00992,-0.12869 -0.03468,-0.17989c-0.18732,-0.04691 -0.31321,0.03277 -0.39449,0.1636c-0.19034,0.28588 -0.36582,0.58881 -0.46893,0.91875c-0.03966,0.09458 -0.07931,0.18915 0.01184,0.34984zM235.9939,164.58947c0.05551,-0.04836 0.05354,-0.10667 0.03669,-0.18203c-0.1278,-0.39888 -0.03955,-0.74589 -0.02365,-1.11991c-0.00297,-0.08746 0.00894,-0.15786 0.00599,-0.24531c-0.00098,-0.02915 -0.01685,-0.07537 -0.04558,-0.08034c-0.04361,-0.02203 -0.10109,-0.03198 -0.12885,-0.0078c-0.04163,0.03626 -0.08327,0.07254 -0.09517,0.14293c-0.11602,0.37118 -0.15968,0.76938 -0.08836,1.18747c0.01783,0.10451 0.04953,0.19694 0.12386,0.28225c0.04558,0.08035 0.17442,0.08813 0.21507,0.02272zM237.5528,165.90252c0.14371,0.02487 0.2131,-0.03558 0.22303,-0.1643c0.0169,-0.34485 -0.00984,-0.71175 -0.06528,-1.08362c-0.01685,-0.07536 -0.06144,-0.12655 -0.13378,-0.15356c-0.08623,-0.01492 -0.15661,0.01638 -0.18239,0.09887c-0.01388,0.01209 -0.01289,0.04123 -0.01289,0.04123c-0.00303,0.33277 -0.0199,0.67764 0.0633,1.02533c0.00297,0.08746 0.0198,0.16283 0.108,0.23604zM236.55004,163.71479c-0.07439,0.33491 -0.07745,1.08792 0.00181,1.31899c0.03171,0.09242 0.09116,0.16067 0.17739,0.17559c0.08623,0.01492 0.17047,-0.02846 0.16752,-0.11593c0.00005,-0.42023 -0.02765,-0.81628 -0.1277,-1.23934c-0.03171,-0.09242 -0.10503,-0.14859 -0.21902,-0.13933zM238.35572,165.14299c-0.16357,0.23254 -0.12396,0.5582 -0.05661,0.85967c0.00198,0.0583 0.07531,0.11447 0.16153,0.12938c0.07136,-0.00214 0.113,-0.03842 0.1249,-0.10881c0.03471,-0.24035 0.04071,-0.48566 -0.02468,-0.72882c-0.00297,-0.08746 -0.07632,-0.14362 -0.20514,-0.15141zM231.59612,157.49607c0.26466,-0.20057 0.41337,-0.45016 0.46,-0.7609c0.01388,-0.01209 -0.04459,-0.05119 -0.07433,-0.08532c-0.2002,-0.00566 -0.29538,0.13728 -0.36181,0.2852c-0.06642,0.1479 -0.16158,0.29084 -0.02386,0.56103zM239.08318,165.52968c-0.10609,0.24248 -0.01196,0.49063 0.05343,0.73379c0.01685,0.07536 0.13279,0.1244 0.1883,0.07604c0.01388,-0.01209 0.02775,-0.02417 0.02775,-0.02417c0.1249,-0.10881 0.07636,-0.2766 0.05656,-0.43943c-0.04855,-0.1678 -0.10997,-0.29436 -0.32604,-0.34623zM240.09701,166.35718c0.1249,-0.10881 0.10511,-0.27163 0.07143,-0.42236c-0.03171,-0.09242 -0.06244,-0.15572 -0.1774,-0.1756c-0.08623,-0.01492 -0.14173,0.03345 -0.16751,0.11594c-0.03867,0.12373 -0.00599,0.2453 0.04157,0.38396c0.04658,0.10949 0.1764,0.14646 0.23192,0.0981zM245.32925,151.2643c-0.05551,0.04836 -0.00894,0.15785 0.06439,0.21401c0.11694,0.0782 0.21804,0.11018 0.33202,0.10092c0.07136,-0.00214 0.12786,-0.02135 0.1249,-0.10881c0.0119,-0.07039 -0.01882,-0.13367 -0.09216,-0.18982c-0.14667,-0.11232 -0.33301,-0.13007 -0.42915,-0.01628zM239.52345,148.57892c-0.11794,-0.10736 -0.24974,-0.20262 -0.42022,-0.17414c-0.02874,-0.00496 -0.05452,0.07751 -0.03867,0.12373c0.04952,0.19695 0.22297,0.25594 0.36767,0.30996c0.07235,0.02702 0.12885,0.0078 0.14074,-0.06259c0.02677,-0.05332 0.01091,-0.09954 -0.04953,-0.19694z" fill="#ffc941" fill-rule="nonzero" stroke="none" stroke-width="1" stroke-linecap="butt"/><path d="M248.02629,150.27901c-0.09813,0.05549 -0.18337,0.06971 -0.29932,0.02067c-0.04855,-0.1678 -0.07033,-0.38894 -0.24673,-0.53538c-0.04459,-0.05119 -0.10307,-0.09028 -0.16152,-0.12939c-0.04361,-0.02203 -0.10108,-0.03198 -0.12884,-0.0078c-0.05649,0.01922 -0.06842,0.08961 -0.02283,0.16995c0.06044,0.09741 0.13576,0.21185 0.18233,0.32136c0.03071,0.06328 0.06145,0.12655 0.0208,0.19199c-0.112,0.06758 -0.24284,0.00144 -0.37168,-0.00634c-0.57387,-0.0703 -1.13385,-0.15269 -1.69384,-0.23508c-0.24382,-0.02768 -0.47475,-0.09662 -0.73442,-0.17053c-0.37464,-0.0938 -0.75027,-0.21674 -1.12491,-0.31055c-0.38951,-0.11086 -0.76514,-0.23381 -1.1576,-0.43213c-0.77007,-0.37957 -1.52626,-0.77124 -2.28246,-1.16291c-0.40733,-0.21538 -0.83052,-0.47698 -1.15754,-0.85236c-0.14865,-0.17063 -0.40734,-0.21538 -0.51534,-0.45143c0.13483,-0.23752 0.41732,-0.33355 0.65423,-0.50993c-0.45093,-0.23741 -0.52132,-0.20612 -0.89207,0.23692c-0.14272,0.00429 -0.19028,-0.13436 -0.26559,-0.24883c0.10609,-0.24248 0.31623,-0.36554 0.54123,-0.47152c0.12688,-0.05051 0.25375,-0.10101 0.36674,-0.13942c0.07037,-0.03131 0.14074,-0.06259 0.09418,-0.17209c-0.03171,-0.09242 -0.11795,-0.10736 -0.21804,-0.11018c-0.40042,-0.0113 -0.70869,0.16721 -0.9575,0.41399c-0.04163,0.03626 -0.0684,0.08961 -0.09516,0.14293c-0.14371,-0.02487 -0.17541,-0.1173 -0.23588,-0.2147c0.04663,-0.31073 0.25479,-0.49208 0.52143,-0.63434c0.25276,-0.13017 0.50652,-0.23117 0.80485,-0.28099c0.12787,-0.02136 0.25672,-0.01354 0.31024,-0.12022c0.01091,-0.09955 -0.04756,-0.13865 -0.10603,-0.17774c-0.14569,-0.08318 -0.28841,-0.07887 -0.41627,-0.05753c-0.5392,0.1096 -1.03379,0.27037 -1.3322,0.74042c-0.01388,0.01209 -0.05649,0.01921 -0.08524,0.01423c-0.13378,-0.15356 -0.13774,-0.27017 -0.04158,-0.38396c0.32713,-0.46508 0.77418,-0.7645 1.35698,-0.85206c0.24185,-0.03062 0.45496,-0.0662 0.69679,-0.09682c0.05649,-0.01922 0.12786,-0.02136 0.16949,-0.05762c0.02775,-0.02417 0.02578,-0.08248 0.03868,-0.12373c-0.00098,-0.02915 -0.03072,-0.06329 -0.05946,-0.06825c-0.17443,-0.08814 -0.36077,-0.10589 -0.51737,-0.08951c-0.68588,-0.00274 -1.2796,0.18437 -1.71973,0.68786c-0.04163,0.03626 -0.08326,0.07254 -0.13877,0.1209c-0.10997,-0.29435 -0.11294,-0.38181 0.05161,-0.58521c0.21908,-0.2809 0.51248,-0.47648 0.89606,-0.54055c0.45396,-0.09535 0.92477,-0.11534 1.39654,-0.10618c0.48567,-0.00292 0.98718,0.04038 1.50355,0.10073c0.78894,0.09301 1.58282,0.33181 2.37866,0.62888c0.82558,0.33121 1.66505,0.65033 2.45196,1.10528c1.19523,0.69948 2.33593,1.47646 3.23178,2.61683c0.22396,0.2851 0.42017,0.59437 0.60151,0.88658c0.15161,0.25807 0.26158,0.55244 0.22785,0.82194c0.00198,0.0583 -0.00992,0.1287 -0.09516,0.14293c-0.11694,-0.0782 -0.15064,-0.22893 -0.1972,-0.33843c-0.24475,-0.47708 -0.57375,-0.91075 -0.97214,-1.284c-0.13279,-0.1244 -0.26559,-0.24883 -0.43705,-0.2495c-0.07136,0.00214 -0.12885,-0.0078 -0.1695,0.05762c-0.0238,0.14079 0.10702,0.2069 0.19523,0.28012c0.57282,0.46138 0.93551,1.0458 1.20006,1.68571c0.03071,0.06328 0.06143,0.12654 0.0634,0.18485c0.00395,0.11661 -0.08228,0.10169 -0.18238,0.09886c-0.16549,-0.24598 -0.3171,-0.50407 -0.4826,-0.75007c-0.18135,-0.29221 -0.4182,-0.53605 -0.68281,-0.75573c-0.07334,-0.05616 -0.14569,-0.08318 -0.22992,-0.03978c-0.06742,0.11876 0.02177,0.22112 0.09609,0.30644c0.2527,0.29006 0.46279,0.58724 0.68774,0.9015c0.13576,0.21186 0.25765,0.43583 0.30718,0.63278c0.01881,0.13368 -0.06741,0.11876 -0.12391,0.13795c-0.02775,0.02417 -0.07037,0.0313 -0.12687,0.05051c-0.02973,-0.03412 -0.0446,-0.05119 -0.07433,-0.08532c-0.12583,-0.34058 -0.29428,-0.67403 -0.57573,-0.96907c-0.07432,-0.08532 -0.16253,-0.15854 -0.24875,-0.17345c-0.07235,-0.02702 -0.12885,-0.00779 -0.17048,0.02847c-0.02677,0.05332 -0.02479,0.11163 0.02079,0.19197c0.05946,0.06825 0.10503,0.14859 0.17837,0.20475c0.25072,0.23177 0.38945,0.53108 0.50042,0.85459zM240.56182,143.75639c0.04952,0.19695 0.19523,0.28012 0.36767,0.30996c0.57486,0.09945 1.1378,0.26929 1.70076,0.43913c0.89497,0.27077 1.76317,0.59485 2.62243,1.07681c0.34985,0.20543 0.68582,0.42297 1.03567,0.6284c0.11694,0.0782 0.23388,0.15639 0.36076,0.10589c0.03966,-0.09458 0.00796,-0.18701 -0.0525,-0.2844c-0.09018,-0.13154 -0.22199,-0.22679 -0.35379,-0.32205c-0.73141,-0.50331 -1.47274,-0.8779 -2.25472,-1.18708c-0.70963,-0.28216 -1.44503,-0.48186 -2.16654,-0.69363c-0.30328,-0.09593 -0.61847,-0.12148 -0.92075,-0.18828c-0.1576,-0.01277 -0.3013,-0.03764 -0.33899,0.11524z" fill="#ffc941" fill-rule="nonzero" stroke="none" stroke-width="1" stroke-linecap="butt"/><path d="M241.87261,154.85223c-0.25178,0.15932 -0.47579,0.29445 -0.76024,0.33219c-0.12786,0.02135 -0.22992,-0.03978 -0.30525,-0.15425c-0.19523,-0.28012 -0.23581,-0.63492 -0.05837,-0.87956c0.16456,-0.20339 0.37272,-0.38474 0.62646,-0.48575c0.07037,-0.03131 0.15561,-0.04552 0.22699,-0.04767c0.41331,-0.02994 0.68088,0.27719 0.56585,0.67754c-0.04958,0.22328 -0.14279,0.42451 -0.29543,0.5575z" fill="#fcc741" fill-rule="nonzero" stroke="none" stroke-width="1" stroke-linecap="butt"/><path d="M269.88639,147.35158c-0.16351,-0.18768 -0.36767,-0.30996 -0.46179,-0.5581c0.67896,-0.20135 1.20927,-0.57331 1.57507,-1.16212c0.07135,-0.00214 0.12983,0.03696 0.17442,0.08814c0.37065,0.39741 0.3736,0.48487 0.07126,0.83831c-0.35884,0.37265 -0.76228,0.6941 -1.35895,0.79375z" fill="#fac540" fill-rule="nonzero" stroke="none" stroke-width="1" stroke-linecap="butt"/><path d="M244.47764,152.46268c-0.11004,0.12587 -0.26565,0.17141 -0.43614,0.19988c-0.28545,0.00859 -0.56493,-0.22816 -0.61742,-0.51256c-0.08815,-0.49346 0.35297,-0.96781 0.82673,-0.90033c0.30131,0.03764 0.53816,0.28148 0.52027,0.59719c0.00888,0.26237 -0.08431,0.46362 -0.29346,0.61582z" fill="#fac640" fill-rule="nonzero" stroke="none" stroke-width="1" stroke-linecap="butt"/><path d="M250.17595,151.31751c0.13878,-0.12089 0.30828,-0.17852 0.52236,-0.18496c0.11399,-0.00926 0.21507,0.02272 0.34589,0.08882c0.17443,0.08814 0.26559,0.24883 0.21403,0.4138c-0.07538,0.30576 -0.26767,0.53333 -0.48972,0.72678c-0.08327,0.07255 -0.21014,0.12304 -0.30828,0.17853c-0.19725,0.0818 -0.38654,-0.02339 -0.49357,-0.2303c-0.15458,-0.34554 -0.14959,-0.62002 0.07147,-0.8426c0.0119,-0.07039 0.0684,-0.0896 0.13779,-0.15005z" fill="#fcc741" fill-rule="nonzero" stroke="none" stroke-width="1" stroke-linecap="butt"/><path d="M252.67281,149.9526c-0.29335,-0.22465 -0.31611,-0.47492 -0.28139,-0.71527c0.01887,-0.28655 0.18541,-0.43163 0.39553,-0.5547c0.08424,-0.04339 0.19824,-0.05264 0.31223,-0.0619c0.17048,-0.02846 0.33004,0.04261 0.43509,0.1912c0.14865,0.17063 0.1724,0.45007 0.07724,0.59301c-0.05453,0.07751 -0.10904,0.15503 -0.16456,0.20339c-0.23889,0.11808 -0.47579,0.29445 -0.77412,0.34428z" fill="#f8c440" fill-rule="nonzero" stroke="none" stroke-width="1" stroke-linecap="butt"/><path d="M258.07445,143.23583c0.22595,0.3434 0.1922,0.61289 -0.02885,0.83548c-0.08326,0.07254 -0.13779,0.15005 -0.22106,0.22259c-0.05551,0.04836 -0.12587,0.07966 -0.19627,0.11096c-0.19725,0.0818 -0.54216,0.02213 -0.63333,-0.13855c-0.1209,-0.1948 -0.10005,-0.42305 0.00998,-0.54894c0.26072,-0.31717 0.50559,-0.68055 1.06952,-0.48155z" fill="#f9c540" fill-rule="nonzero" stroke="none" stroke-width="1" stroke-linecap="butt"/><path d="M255.88662,146.13231c-0.02485,0.53187 -0.32917,0.827 -0.67808,1.07095c-0.02775,0.02417 -0.08426,0.04339 -0.12688,0.05051c-0.21212,0.06474 -0.37364,-0.06464 -0.42516,-0.3199c-0.03564,-0.20904 0.02979,-0.38609 0.11008,-0.5461c0.10708,-0.21334 0.2736,-0.35842 0.48572,-0.42316c0.19824,-0.05265 0.41332,-0.02993 0.63432,0.16771z" fill="#f7c340" fill-rule="nonzero" stroke="none" stroke-width="1" stroke-linecap="butt"/><path d="M260.4049,141.17555c0.01382,0.40814 -0.1775,0.66485 -0.5155,0.80925c-0.113,0.03842 -0.23987,0.08892 -0.35878,-0.04757c-0.13279,-0.1244 -0.2527,-0.29007 -0.21501,-0.44295c0.04859,-0.25244 0.17053,-0.4487 0.42526,-0.52056c0.226,-0.07683 0.45594,-0.03706 0.66405,0.20182z" fill="#f9c540" fill-rule="nonzero" stroke="none" stroke-width="1" stroke-linecap="butt"/><path d="M262.5301,139.80429c-0.15265,0.13299 -0.32215,0.19061 -0.52235,0.18496c-0.20021,-0.00566 -0.36275,-0.1642 -0.34092,-0.36329c0.01091,-0.09955 0.03669,-0.18203 0.07635,-0.27662c0.17645,-0.27379 0.44408,-0.38688 0.77412,-0.34428c0.21507,0.02274 0.32111,0.20047 0.25665,0.40668c-0.05155,0.16496 -0.11798,0.31289 -0.24387,0.39254z" fill="#f6c340" fill-rule="nonzero" stroke="none" stroke-width="1" stroke-linecap="butt"/><path d="M270.59635,145.11237c-0.09425,0.59232 -0.57896,1.04463 -1.23116,1.19264c-0.1556,0.04552 -0.338,0.14441 -0.53125,-0.07742c0.17943,-0.18632 0.46784,-0.10745 0.66409,-0.21841c0.21014,-0.12304 0.45002,-0.21197 0.62943,-0.39829c0.15168,-0.16214 0.30333,-0.32429 0.46888,-0.49853z" fill="#e6b73f" fill-rule="nonzero" stroke="none" stroke-width="1" stroke-linecap="butt"/><path d="M268.7697,144.75287c0.07234,0.02702 0.11892,0.13649 0.21805,0.11018c0.12188,0.22395 0.18727,0.46713 0.33691,0.66691c-0.0684,0.0896 -0.15463,0.07468 -0.18534,0.0114c-0.12286,-0.25311 -0.30322,-0.51617 -0.3696,-0.78849z" fill="#a98836" fill-rule="nonzero" stroke="none" stroke-width="1" stroke-linecap="butt"/><path d="M240.19339,149.32965c-0.01585,-0.04621 -0.04658,-0.10949 -0.07729,-0.17276c-0.01685,-0.07536 0.05155,-0.16497 0.13877,-0.1209c0.05847,0.0391 0.13082,0.06612 0.17541,0.1173c0.82059,0.60567 1.73338,0.98095 2.64422,1.29793c0.44798,0.14996 0.89596,0.29991 1.34393,0.44988c0.10109,0.03198 0.2448,0.05685 0.31913,0.14217c0.02973,0.03412 0.06045,0.09741 0.06144,0.12655c0.00198,0.0583 -0.02578,0.08248 -0.08327,0.07254c-0.27059,0.02563 -0.54414,-0.03617 -0.81868,-0.12714c-0.99606,-0.30274 -1.99408,-0.66379 -2.94155,-1.21895c-0.24776,-0.14429 -0.5104,-0.30567 -0.76212,-0.56659z" fill="#060503" fill-rule="nonzero" stroke="none" stroke-width="1" stroke-linecap="butt"/><path d="M245.32926,151.21805c0.09616,-0.11378 0.26861,-0.08395 0.43016,0.04543c0.05847,0.0391 0.10404,0.11943 0.09215,0.18983c-0.0119,0.07039 -0.06841,0.0896 -0.12489,0.10881c-0.11399,0.00926 -0.21506,-0.02272 -0.33201,-0.10092c-0.07432,-0.08532 -0.09215,-0.18983 -0.06538,-0.24318z" fill="#201b0f" fill-rule="nonzero" stroke="none" stroke-width="1" stroke-linecap="butt"/><path d="M239.52347,148.53266c0.05946,0.06825 0.09018,0.13154 0.04952,0.19695c-0.02677,0.05332 -0.09714,0.08463 -0.14074,0.06259c-0.15957,-0.07109 -0.31814,-0.113 -0.36767,-0.30996c-0.01585,-0.04621 0.01092,-0.09956 0.03868,-0.12374c0.15661,-0.01638 0.2884,0.07887 0.42022,0.17414z" fill="#3d3219" fill-rule="nonzero" stroke="none" stroke-width="1" stroke-linecap="butt"/><path d="M240.56182,143.75639c0.03769,-0.15288 0.18138,-0.12803 0.31024,-0.12022c0.31617,0.0547 0.61747,0.09234 0.92074,0.18828c0.72153,0.21177 1.45694,0.41145 2.16656,0.69362c0.78198,0.30918 1.53816,0.70084 2.25471,1.1871c0.13181,0.09527 0.26362,0.19052 0.35379,0.32205c0.07432,0.08532 0.09215,0.18983 0.05249,0.28441c-0.14075,0.06259 -0.24382,-0.02769 -0.36077,-0.1059c-0.34985,-0.20543 -0.68582,-0.42296 -1.03567,-0.62838c-0.8444,-0.46489 -1.71358,-0.81813 -2.62243,-1.07681c-0.56295,-0.16986 -1.12589,-0.3397 -1.70075,-0.43914c-0.14371,-0.02487 -0.28939,-0.10803 -0.33893,-0.30499z" fill="#fefefa" fill-rule="nonzero" stroke="none" stroke-width="1" stroke-linecap="butt"/><g stroke-linecap="butt"><path d="M240.02276,174.9991l5.76141,4.87224" fill="none" fill-rule="evenodd" stroke="#ffdb5d" stroke-width="1.26"/><path d="M242.53768,179.86111c0.76526,0 0.76526,-0.7417 1.53055,-0.7417c0.76493,0 0.76493,0.7417 1.52985,0.7417c0.76529,0 0.76529,-0.7417 1.53091,-0.7417c0.76529,0 0.76529,0.7417 1.53094,0.7417" fill="none" fill-rule="evenodd" stroke="#ffdb5d" stroke-width="1.26"/><path d="M236.94463,172.38194c-0.55332,-1.18559 -0.04005,-2.59524 1.14632,-3.14853c1.18639,-0.55291 2.59712,-0.03987 3.15046,1.14572c0.15027,0.32217 0.21939,0.66022 0.2201,0.99365l0.00176,-0.00035l0.05814,4.29356c0.00496,0.36239 -0.42039,0.56105 -0.69511,0.325l-3.26245,-2.80276c-0.25449,-0.21453 -0.46929,-0.48447 -0.61923,-0.80628" fill="#751d18" fill-rule="nonzero" stroke="none" stroke-width="1"/></g><path d="M228.18169,165.06549c0,-2.27909 1.84851,-4.127 4.1291,-4.127l0.97227,-0.00035c0.01383,-0.00071 0.02908,-0.00315 0.04219,-0.00315h14.89261c0,0 0.00286,2.48056 0.00286,2.80942c0,1.08929 -0.46082,2.96152 -1.94991,4.22793c-3.31881,2.82212 -7.24619,6.47666 -7.24619,6.47666z" fill="#17242d" fill-rule="nonzero" stroke="none" stroke-width="1" stroke-linecap="butt"/><g stroke-linecap="butt"><path d="M231.63517,179.8618c0.76529,0 0.76529,-0.7417 1.53023,-0.7417c0.76526,0 0.76527,0.7417 1.5302,0.7417c0.76526,0 0.76527,-0.7417 1.53091,-0.7417c0.76529,0 0.76529,0.7417 1.53055,0.7417" fill="none" fill-rule="evenodd" stroke="#ffdb5d" stroke-width="1.26"/><path d="M234.73742,179.83704v-5.67952" fill="none" fill-rule="evenodd" stroke="#ffdb5d" stroke-width="1.26"/><path d="M232.36678,170.60181c0,-1.30839 1.06162,-2.36944 2.37062,-2.36944c1.30903,0 2.37027,1.06106 2.37027,2.36944c0,0.35531 -0.08009,0.69089 -0.22046,0.99365l0.00176,0.00035l-1.76345,3.91527c-0.14851,0.33062 -0.61817,0.33098 -0.76738,0.00071l-1.77124,-3.9181c-0.13966,-0.30205 -0.22014,-0.63726 -0.22014,-0.99189" fill="#751d18" fill-rule="nonzero" stroke="none" stroke-width="1"/></g><g stroke-linecap="butt"><path d="M225.00609,167.69601c1.53055,-5.30622 7.07572,-8.36762 12.3848,-6.83798l0.21055,0.06034l-0.94783,3.28615c-1.56387,5.42231 -7.23027,8.5511 -12.65598,6.98796z" fill="#b85c39" fill-rule="nonzero" stroke="none" stroke-width="1"/><path d="M223.99763,171.19249l0.00142,-0.00496l4.12096,-4.06031l5.74864,1.6563c-2.5436,2.40931 -6.25977,3.44918 -9.87101,2.40895" fill="#ad2c24" fill-rule="nonzero" stroke="none" stroke-width="1"/><path d="M225.39847,171.38797l3.91677,-3.8486" fill="none" fill-rule="evenodd" stroke="#751d18" stroke-width="0.6"/><path d="M226.81878,171.50231l3.68497,-3.62068" fill="none" fill-rule="evenodd" stroke="#751d18" stroke-width="0.6"/><path d="M231.69225,168.22426l-3.18377,3.12806" fill="none" fill-rule="evenodd" stroke="#751d18" stroke-width="0.6"/><path d="M232.88074,168.56652l-2.23026,2.19125" fill="none" fill-rule="evenodd" stroke="#751d18" stroke-width="0.6"/><path d="M232.61597,164.26663c-0.43847,0.74628 -1.33985,1.13301 -2.21006,0.88213c-1.0304,-0.29675 -1.62519,-1.37261 -1.32814,-2.40223c0.13609,-0.47212 0.43776,-0.84969 0.82161,-1.09456c2.21858,-1.18666 4.88306,-1.5455 7.49151,-0.79393l0.21055,0.06068l-0.94783,3.2858c-0.06876,0.23854 -0.14816,0.47105 -0.23251,0.70042l-0.01313,-0.00496c-0.31262,1.006 -1.37317,1.58222 -2.39047,1.28933c-0.87053,-0.25086 -1.42775,-1.0575 -1.40154,-1.92269" fill="#573a3c" fill-rule="nonzero" stroke="none" stroke-width="1"/></g><path d="M268.05367,148.27402c0.27577,-1.20888 1.47988,-1.96565 2.68976,-1.68965c1.20986,0.276 1.96699,1.48016 1.6912,2.68906c-0.27585,1.20922 -1.48023,1.96558 -2.69008,1.68958c-1.20989,-0.27601 -1.96676,-1.47976 -1.6909,-2.68898" fill="#ce2235" fill-rule="nonzero" stroke="none" stroke-width="1" stroke-linecap="butt"/><g stroke-linecap="butt"><path d="M270.09767,138.59687c0.64693,0.14759 1.14017,0.60863 1.35711,1.18617l0.06001,0.13855c0.08484,0.19704 0.37191,0.17062 0.41955,-0.0382l0.27524,-1.20647c0.07965,-0.3492 0.42769,-0.56803 0.77743,-0.48825c0.34937,0.0797 0.56845,0.4279 0.48877,0.7771l-0.24202,1.06093c-0.04787,0.20985 0.20377,0.35631 0.36238,0.2108l1.08809,-0.9975c0.21975,-0.20139 0.56801,0.0011 0.50178,0.29145l-0.45062,1.97536c0.01986,0.0038 0.0401,0.00588 0.05979,0.01038c1.04852,0.23919 1.70416,1.28236 1.46519,2.32989c-0.23904,1.04785 -1.28215,1.70312 -2.33066,1.46395c-0.03524,-0.00805 -0.0691,-0.01903 -0.10354,-0.02903l-1.30353,-0.29737l0.14214,-0.62304c-0.01004,-0.0182 -0.02125,-0.03596 -0.03084,-0.05443l-2.34049,-1.12276l-0.2046,-0.88165c-0.26743,0.05988 -0.55144,0.06493 -0.83655,-0.00011c-1.02397,-0.23359 -1.66474,-1.25271 -1.43135,-2.27581c0.23349,-1.02347 1.25276,-1.66353 2.27672,-1.42993" fill="#ce2235" fill-rule="nonzero" stroke="none" stroke-width="1"/><path d="M276.12851,146.90816l-6.23396,-1.42212c0.31277,-0.56132 0.97056,-0.87741 1.62684,-0.72769l3.45685,0.7886c0.65625,0.1497 1.1119,0.7198 1.15027,1.36121" fill="#ffdb5d" fill-rule="nonzero" stroke="none" stroke-width="1"/><path d="M268.10072,144.36888c0.3391,-1.4865 1.81973,-2.41653 3.30679,-2.07729c1.48738,0.33931 2.41818,1.81945 2.07908,3.30595c-0.33904,1.48619 -1.81967,2.41621 -3.30705,2.07691c-1.48704,-0.33923 -2.41786,-1.81937 -2.07881,-3.30554" fill="#ad2c24" fill-rule="nonzero" stroke="none" stroke-width="1"/><path d="M269.49927,144.68793c0.163,-0.71452 0.87462,-1.16128 1.58928,-0.99825c0.71502,0.16312 1.16215,0.87421 0.99914,1.58874c-0.16293,0.71418 -0.8742,1.16104 -1.58922,0.99793c-0.71466,-0.16303 -1.16213,-0.87423 -0.9992,-1.58841" fill="#fff4e3" fill-rule="nonzero" stroke="none" stroke-width="1"/><path d="M269.91017,144.78166c0.1112,-0.48746 0.59706,-0.79247 1.0847,-0.68122c0.48794,0.11131 0.79315,0.59678 0.68195,1.08424c-0.11113,0.48715 -0.59668,0.79223 -1.08463,0.68091c-0.48763,-0.11124 -0.79314,-0.5968 -0.68201,-1.08393" fill="#17242d" fill-rule="nonzero" stroke="none" stroke-width="1"/><path d="M270.05805,147.00215l2.0493,-0.64178" fill="none" fill-rule="evenodd" stroke="#751d18" stroke-width="0.6"/></g><path d="M276.65316,147.82433l6.71334,-1.05673" fill="none" fill-rule="nonzero" stroke="#000000" stroke-width="0.5" stroke-linecap="round"/><path d="M277.69353,148.60297l6.4822,1.16796" fill="none" fill-rule="nonzero" stroke="#000000" stroke-width="0.5" stroke-linecap="round"/><path d="M275.13513,148.88106l9.57731,3.89321" fill="none" fill-rule="nonzero" stroke="#000000" stroke-width="0.5" stroke-linecap="round"/></g></g></svg>